<?xml version="1.0" encoding="utf-8" standalone="no"?>
<!DOCTYPE svg PUBLIC "-//W3C//DTD SVG 1.1//EN"
  "http://www.w3.org/Graphics/SVG/1.1/DTD/svg11.dtd">
<!-- Created with matplotlib (https://matplotlib.org/) -->
<svg height="360pt" version="1.1" viewBox="0 0 864 360" width="864pt" xmlns="http://www.w3.org/2000/svg" xmlns:xlink="http://www.w3.org/1999/xlink">
 <defs>
  <style type="text/css">
*{stroke-linecap:butt;stroke-linejoin:round;}
  </style>
 </defs>
 <g id="figure_1">
  <g id="patch_1">
   <path d="M 0 360 
L 864 360 
L 864 0 
L 0 0 
z
" style="fill:#ffffff;"/>
  </g>
  <g id="axes_1">
   <g id="patch_2">
    <path d="M 45.149615 322.77226 
L 423.65601 322.77226 
L 423.65601 3.00024 
L 45.149615 3.00024 
z
" style="fill:#ffffff;"/>
   </g>
   <g id="matplotlib.axis_1">
    <g id="xtick_1">
     <g id="line2d_1">
      <path clip-path="url(#p2f97d4dcd1)" d="M 149.987831 322.77226 
L 149.987831 3.00024 
" style="fill:none;stroke:#b0b0b0;stroke-dasharray:0.8,1.32;stroke-dashoffset:0;stroke-width:0.8;"/>
     </g>
     <g id="line2d_2">
      <defs>
       <path d="M 0 0 
L 0 3.5 
" id="maea91fc432" style="stroke:#000000;stroke-width:0.8;"/>
      </defs>
      <g>
       <use style="stroke:#000000;stroke-width:0.8;" x="149.987831" xlink:href="#maea91fc432" y="322.77226"/>
      </g>
     </g>
     <g id="text_1">
      <!-- $\mathdefault{10^{3}}$ -->
      <defs>
       <path d="M 12.40625 8.296875 
L 28.515625 8.296875 
L 28.515625 63.921875 
L 10.984375 60.40625 
L 10.984375 69.390625 
L 28.421875 72.90625 
L 38.28125 72.90625 
L 38.28125 8.296875 
L 54.390625 8.296875 
L 54.390625 0 
L 12.40625 0 
z
" id="DejaVuSans-49"/>
       <path d="M 31.78125 66.40625 
Q 24.171875 66.40625 20.328125 58.90625 
Q 16.5 51.421875 16.5 36.375 
Q 16.5 21.390625 20.328125 13.890625 
Q 24.171875 6.390625 31.78125 6.390625 
Q 39.453125 6.390625 43.28125 13.890625 
Q 47.125 21.390625 47.125 36.375 
Q 47.125 51.421875 43.28125 58.90625 
Q 39.453125 66.40625 31.78125 66.40625 
z
M 31.78125 74.21875 
Q 44.046875 74.21875 50.515625 64.515625 
Q 56.984375 54.828125 56.984375 36.375 
Q 56.984375 17.96875 50.515625 8.265625 
Q 44.046875 -1.421875 31.78125 -1.421875 
Q 19.53125 -1.421875 13.0625 8.265625 
Q 6.59375 17.96875 6.59375 36.375 
Q 6.59375 54.828125 13.0625 64.515625 
Q 19.53125 74.21875 31.78125 74.21875 
z
" id="DejaVuSans-48"/>
       <path d="M 40.578125 39.3125 
Q 47.65625 37.796875 51.625 33 
Q 55.609375 28.21875 55.609375 21.1875 
Q 55.609375 10.40625 48.1875 4.484375 
Q 40.765625 -1.421875 27.09375 -1.421875 
Q 22.515625 -1.421875 17.65625 -0.515625 
Q 12.796875 0.390625 7.625 2.203125 
L 7.625 11.71875 
Q 11.71875 9.328125 16.59375 8.109375 
Q 21.484375 6.890625 26.8125 6.890625 
Q 36.078125 6.890625 40.9375 10.546875 
Q 45.796875 14.203125 45.796875 21.1875 
Q 45.796875 27.640625 41.28125 31.265625 
Q 36.765625 34.90625 28.71875 34.90625 
L 20.21875 34.90625 
L 20.21875 43.015625 
L 29.109375 43.015625 
Q 36.375 43.015625 40.234375 45.921875 
Q 44.09375 48.828125 44.09375 54.296875 
Q 44.09375 59.90625 40.109375 62.90625 
Q 36.140625 65.921875 28.71875 65.921875 
Q 24.65625 65.921875 20.015625 65.03125 
Q 15.375 64.15625 9.8125 62.3125 
L 9.8125 71.09375 
Q 15.4375 72.65625 20.34375 73.4375 
Q 25.25 74.21875 29.59375 74.21875 
Q 40.828125 74.21875 47.359375 69.109375 
Q 53.90625 64.015625 53.90625 55.328125 
Q 53.90625 49.265625 50.4375 45.09375 
Q 46.96875 40.921875 40.578125 39.3125 
z
" id="DejaVuSans-51"/>
      </defs>
      <g transform="translate(141.187831 337.370698)scale(0.1 -0.1)">
       <use transform="translate(0 0.765625)" xlink:href="#DejaVuSans-49"/>
       <use transform="translate(63.623047 0.765625)" xlink:href="#DejaVuSans-48"/>
       <use transform="translate(128.203125 39.046875)scale(0.7)" xlink:href="#DejaVuSans-51"/>
      </g>
     </g>
    </g>
    <g id="xtick_2">
     <g id="line2d_3">
      <path clip-path="url(#p2f97d4dcd1)" d="M 370.205397 322.77226 
L 370.205397 3.00024 
" style="fill:none;stroke:#b0b0b0;stroke-dasharray:0.8,1.32;stroke-dashoffset:0;stroke-width:0.8;"/>
     </g>
     <g id="line2d_4">
      <g>
       <use style="stroke:#000000;stroke-width:0.8;" x="370.205397" xlink:href="#maea91fc432" y="322.77226"/>
      </g>
     </g>
     <g id="text_2">
      <!-- $\mathdefault{10^{4}}$ -->
      <defs>
       <path d="M 37.796875 64.3125 
L 12.890625 25.390625 
L 37.796875 25.390625 
z
M 35.203125 72.90625 
L 47.609375 72.90625 
L 47.609375 25.390625 
L 58.015625 25.390625 
L 58.015625 17.1875 
L 47.609375 17.1875 
L 47.609375 0 
L 37.796875 0 
L 37.796875 17.1875 
L 4.890625 17.1875 
L 4.890625 26.703125 
z
" id="DejaVuSans-52"/>
      </defs>
      <g transform="translate(361.405397 337.370698)scale(0.1 -0.1)">
       <use transform="translate(0 0.684375)" xlink:href="#DejaVuSans-49"/>
       <use transform="translate(63.623047 0.684375)" xlink:href="#DejaVuSans-48"/>
       <use transform="translate(128.203125 38.965625)scale(0.7)" xlink:href="#DejaVuSans-52"/>
      </g>
     </g>
    </g>
    <g id="xtick_3">
     <g id="line2d_5">
      <defs>
       <path d="M 0 0 
L 0 2 
" id="m78ddc76f9f" style="stroke:#000000;stroke-width:0.6;"/>
      </defs>
      <g>
       <use style="stroke:#000000;stroke-width:0.6;" x="62.354451" xlink:href="#m78ddc76f9f" y="322.77226"/>
      </g>
     </g>
    </g>
    <g id="xtick_4">
     <g id="line2d_6">
      <g>
       <use style="stroke:#000000;stroke-width:0.6;" x="83.695738" xlink:href="#m78ddc76f9f" y="322.77226"/>
      </g>
     </g>
    </g>
    <g id="xtick_5">
     <g id="line2d_7">
      <g>
       <use style="stroke:#000000;stroke-width:0.6;" x="101.13284" xlink:href="#m78ddc76f9f" y="322.77226"/>
      </g>
     </g>
    </g>
    <g id="xtick_6">
     <g id="line2d_8">
      <g>
       <use style="stroke:#000000;stroke-width:0.6;" x="115.875699" xlink:href="#m78ddc76f9f" y="322.77226"/>
      </g>
     </g>
    </g>
    <g id="xtick_7">
     <g id="line2d_9">
      <g>
       <use style="stroke:#000000;stroke-width:0.6;" x="128.646544" xlink:href="#m78ddc76f9f" y="322.77226"/>
      </g>
     </g>
    </g>
    <g id="xtick_8">
     <g id="line2d_10">
      <g>
       <use style="stroke:#000000;stroke-width:0.6;" x="139.911228" xlink:href="#m78ddc76f9f" y="322.77226"/>
      </g>
     </g>
    </g>
    <g id="xtick_9">
     <g id="line2d_11">
      <g>
       <use style="stroke:#000000;stroke-width:0.6;" x="216.279924" xlink:href="#m78ddc76f9f" y="322.77226"/>
      </g>
     </g>
    </g>
    <g id="xtick_10">
     <g id="line2d_12">
      <g>
       <use style="stroke:#000000;stroke-width:0.6;" x="255.058313" xlink:href="#m78ddc76f9f" y="322.77226"/>
      </g>
     </g>
    </g>
    <g id="xtick_11">
     <g id="line2d_13">
      <g>
       <use style="stroke:#000000;stroke-width:0.6;" x="282.572017" xlink:href="#m78ddc76f9f" y="322.77226"/>
      </g>
     </g>
    </g>
    <g id="xtick_12">
     <g id="line2d_14">
      <g>
       <use style="stroke:#000000;stroke-width:0.6;" x="303.913304" xlink:href="#m78ddc76f9f" y="322.77226"/>
      </g>
     </g>
    </g>
    <g id="xtick_13">
     <g id="line2d_15">
      <g>
       <use style="stroke:#000000;stroke-width:0.6;" x="321.350406" xlink:href="#m78ddc76f9f" y="322.77226"/>
      </g>
     </g>
    </g>
    <g id="xtick_14">
     <g id="line2d_16">
      <g>
       <use style="stroke:#000000;stroke-width:0.6;" x="336.093265" xlink:href="#m78ddc76f9f" y="322.77226"/>
      </g>
     </g>
    </g>
    <g id="xtick_15">
     <g id="line2d_17">
      <g>
       <use style="stroke:#000000;stroke-width:0.6;" x="348.86411" xlink:href="#m78ddc76f9f" y="322.77226"/>
      </g>
     </g>
    </g>
    <g id="xtick_16">
     <g id="line2d_18">
      <g>
       <use style="stroke:#000000;stroke-width:0.6;" x="360.128794" xlink:href="#m78ddc76f9f" y="322.77226"/>
      </g>
     </g>
    </g>
    <g id="text_3">
     <!-- number of nodes -->
     <defs>
      <path d="M 54.890625 33.015625 
L 54.890625 0 
L 45.90625 0 
L 45.90625 32.71875 
Q 45.90625 40.484375 42.875 44.328125 
Q 39.84375 48.1875 33.796875 48.1875 
Q 26.515625 48.1875 22.3125 43.546875 
Q 18.109375 38.921875 18.109375 30.90625 
L 18.109375 0 
L 9.078125 0 
L 9.078125 54.6875 
L 18.109375 54.6875 
L 18.109375 46.1875 
Q 21.34375 51.125 25.703125 53.5625 
Q 30.078125 56 35.796875 56 
Q 45.21875 56 50.046875 50.171875 
Q 54.890625 44.34375 54.890625 33.015625 
z
" id="DejaVuSans-110"/>
      <path d="M 8.5 21.578125 
L 8.5 54.6875 
L 17.484375 54.6875 
L 17.484375 21.921875 
Q 17.484375 14.15625 20.5 10.265625 
Q 23.53125 6.390625 29.59375 6.390625 
Q 36.859375 6.390625 41.078125 11.03125 
Q 45.3125 15.671875 45.3125 23.6875 
L 45.3125 54.6875 
L 54.296875 54.6875 
L 54.296875 0 
L 45.3125 0 
L 45.3125 8.40625 
Q 42.046875 3.421875 37.71875 1 
Q 33.40625 -1.421875 27.6875 -1.421875 
Q 18.265625 -1.421875 13.375 4.4375 
Q 8.5 10.296875 8.5 21.578125 
z
M 31.109375 56 
z
" id="DejaVuSans-117"/>
      <path d="M 52 44.1875 
Q 55.375 50.25 60.0625 53.125 
Q 64.75 56 71.09375 56 
Q 79.640625 56 84.28125 50.015625 
Q 88.921875 44.046875 88.921875 33.015625 
L 88.921875 0 
L 79.890625 0 
L 79.890625 32.71875 
Q 79.890625 40.578125 77.09375 44.375 
Q 74.3125 48.1875 68.609375 48.1875 
Q 61.625 48.1875 57.5625 43.546875 
Q 53.515625 38.921875 53.515625 30.90625 
L 53.515625 0 
L 44.484375 0 
L 44.484375 32.71875 
Q 44.484375 40.625 41.703125 44.40625 
Q 38.921875 48.1875 33.109375 48.1875 
Q 26.21875 48.1875 22.15625 43.53125 
Q 18.109375 38.875 18.109375 30.90625 
L 18.109375 0 
L 9.078125 0 
L 9.078125 54.6875 
L 18.109375 54.6875 
L 18.109375 46.1875 
Q 21.1875 51.21875 25.484375 53.609375 
Q 29.78125 56 35.6875 56 
Q 41.65625 56 45.828125 52.96875 
Q 50 49.953125 52 44.1875 
z
" id="DejaVuSans-109"/>
      <path d="M 48.6875 27.296875 
Q 48.6875 37.203125 44.609375 42.84375 
Q 40.53125 48.484375 33.40625 48.484375 
Q 26.265625 48.484375 22.1875 42.84375 
Q 18.109375 37.203125 18.109375 27.296875 
Q 18.109375 17.390625 22.1875 11.75 
Q 26.265625 6.109375 33.40625 6.109375 
Q 40.53125 6.109375 44.609375 11.75 
Q 48.6875 17.390625 48.6875 27.296875 
z
M 18.109375 46.390625 
Q 20.953125 51.265625 25.265625 53.625 
Q 29.59375 56 35.59375 56 
Q 45.5625 56 51.78125 48.09375 
Q 58.015625 40.1875 58.015625 27.296875 
Q 58.015625 14.40625 51.78125 6.484375 
Q 45.5625 -1.421875 35.59375 -1.421875 
Q 29.59375 -1.421875 25.265625 0.953125 
Q 20.953125 3.328125 18.109375 8.203125 
L 18.109375 0 
L 9.078125 0 
L 9.078125 75.984375 
L 18.109375 75.984375 
z
" id="DejaVuSans-98"/>
      <path d="M 56.203125 29.59375 
L 56.203125 25.203125 
L 14.890625 25.203125 
Q 15.484375 15.921875 20.484375 11.0625 
Q 25.484375 6.203125 34.421875 6.203125 
Q 39.59375 6.203125 44.453125 7.46875 
Q 49.3125 8.734375 54.109375 11.28125 
L 54.109375 2.78125 
Q 49.265625 0.734375 44.1875 -0.34375 
Q 39.109375 -1.421875 33.890625 -1.421875 
Q 20.796875 -1.421875 13.15625 6.1875 
Q 5.515625 13.8125 5.515625 26.8125 
Q 5.515625 40.234375 12.765625 48.109375 
Q 20.015625 56 32.328125 56 
Q 43.359375 56 49.78125 48.890625 
Q 56.203125 41.796875 56.203125 29.59375 
z
M 47.21875 32.234375 
Q 47.125 39.59375 43.09375 43.984375 
Q 39.0625 48.390625 32.421875 48.390625 
Q 24.90625 48.390625 20.390625 44.140625 
Q 15.875 39.890625 15.1875 32.171875 
z
" id="DejaVuSans-101"/>
      <path d="M 41.109375 46.296875 
Q 39.59375 47.171875 37.8125 47.578125 
Q 36.03125 48 33.890625 48 
Q 26.265625 48 22.1875 43.046875 
Q 18.109375 38.09375 18.109375 28.8125 
L 18.109375 0 
L 9.078125 0 
L 9.078125 54.6875 
L 18.109375 54.6875 
L 18.109375 46.1875 
Q 20.953125 51.171875 25.484375 53.578125 
Q 30.03125 56 36.53125 56 
Q 37.453125 56 38.578125 55.875 
Q 39.703125 55.765625 41.0625 55.515625 
z
" id="DejaVuSans-114"/>
      <path id="DejaVuSans-32"/>
      <path d="M 30.609375 48.390625 
Q 23.390625 48.390625 19.1875 42.75 
Q 14.984375 37.109375 14.984375 27.296875 
Q 14.984375 17.484375 19.15625 11.84375 
Q 23.34375 6.203125 30.609375 6.203125 
Q 37.796875 6.203125 41.984375 11.859375 
Q 46.1875 17.53125 46.1875 27.296875 
Q 46.1875 37.015625 41.984375 42.703125 
Q 37.796875 48.390625 30.609375 48.390625 
z
M 30.609375 56 
Q 42.328125 56 49.015625 48.375 
Q 55.71875 40.765625 55.71875 27.296875 
Q 55.71875 13.875 49.015625 6.21875 
Q 42.328125 -1.421875 30.609375 -1.421875 
Q 18.84375 -1.421875 12.171875 6.21875 
Q 5.515625 13.875 5.515625 27.296875 
Q 5.515625 40.765625 12.171875 48.375 
Q 18.84375 56 30.609375 56 
z
" id="DejaVuSans-111"/>
      <path d="M 37.109375 75.984375 
L 37.109375 68.5 
L 28.515625 68.5 
Q 23.6875 68.5 21.796875 66.546875 
Q 19.921875 64.59375 19.921875 59.515625 
L 19.921875 54.6875 
L 34.71875 54.6875 
L 34.71875 47.703125 
L 19.921875 47.703125 
L 19.921875 0 
L 10.890625 0 
L 10.890625 47.703125 
L 2.296875 47.703125 
L 2.296875 54.6875 
L 10.890625 54.6875 
L 10.890625 58.5 
Q 10.890625 67.625 15.140625 71.796875 
Q 19.390625 75.984375 28.609375 75.984375 
z
" id="DejaVuSans-102"/>
      <path d="M 45.40625 46.390625 
L 45.40625 75.984375 
L 54.390625 75.984375 
L 54.390625 0 
L 45.40625 0 
L 45.40625 8.203125 
Q 42.578125 3.328125 38.25 0.953125 
Q 33.9375 -1.421875 27.875 -1.421875 
Q 17.96875 -1.421875 11.734375 6.484375 
Q 5.515625 14.40625 5.515625 27.296875 
Q 5.515625 40.1875 11.734375 48.09375 
Q 17.96875 56 27.875 56 
Q 33.9375 56 38.25 53.625 
Q 42.578125 51.265625 45.40625 46.390625 
z
M 14.796875 27.296875 
Q 14.796875 17.390625 18.875 11.75 
Q 22.953125 6.109375 30.078125 6.109375 
Q 37.203125 6.109375 41.296875 11.75 
Q 45.40625 17.390625 45.40625 27.296875 
Q 45.40625 37.203125 41.296875 42.84375 
Q 37.203125 48.484375 30.078125 48.484375 
Q 22.953125 48.484375 18.875 42.84375 
Q 14.796875 37.203125 14.796875 27.296875 
z
" id="DejaVuSans-100"/>
      <path d="M 44.28125 53.078125 
L 44.28125 44.578125 
Q 40.484375 46.53125 36.375 47.5 
Q 32.28125 48.484375 27.875 48.484375 
Q 21.1875 48.484375 17.84375 46.4375 
Q 14.5 44.390625 14.5 40.28125 
Q 14.5 37.15625 16.890625 35.375 
Q 19.28125 33.59375 26.515625 31.984375 
L 29.59375 31.296875 
Q 39.15625 29.25 43.1875 25.515625 
Q 47.21875 21.78125 47.21875 15.09375 
Q 47.21875 7.46875 41.1875 3.015625 
Q 35.15625 -1.421875 24.609375 -1.421875 
Q 20.21875 -1.421875 15.453125 -0.5625 
Q 10.6875 0.296875 5.421875 2 
L 5.421875 11.28125 
Q 10.40625 8.6875 15.234375 7.390625 
Q 20.0625 6.109375 24.8125 6.109375 
Q 31.15625 6.109375 34.5625 8.28125 
Q 37.984375 10.453125 37.984375 14.40625 
Q 37.984375 18.0625 35.515625 20.015625 
Q 33.0625 21.96875 24.703125 23.78125 
L 21.578125 24.515625 
Q 13.234375 26.265625 9.515625 29.90625 
Q 5.8125 33.546875 5.8125 39.890625 
Q 5.8125 47.609375 11.28125 51.796875 
Q 16.75 56 26.8125 56 
Q 31.78125 56 36.171875 55.265625 
Q 40.578125 54.546875 44.28125 53.078125 
z
" id="DejaVuSans-115"/>
     </defs>
     <g transform="translate(174.769375 354.088197)scale(0.14 -0.14)">
      <use xlink:href="#DejaVuSans-110"/>
      <use x="63.378906" xlink:href="#DejaVuSans-117"/>
      <use x="126.757812" xlink:href="#DejaVuSans-109"/>
      <use x="224.169922" xlink:href="#DejaVuSans-98"/>
      <use x="287.646484" xlink:href="#DejaVuSans-101"/>
      <use x="349.169922" xlink:href="#DejaVuSans-114"/>
      <use x="390.283203" xlink:href="#DejaVuSans-32"/>
      <use x="422.070312" xlink:href="#DejaVuSans-111"/>
      <use x="483.251953" xlink:href="#DejaVuSans-102"/>
      <use x="518.457031" xlink:href="#DejaVuSans-32"/>
      <use x="550.244141" xlink:href="#DejaVuSans-110"/>
      <use x="613.623047" xlink:href="#DejaVuSans-111"/>
      <use x="674.804688" xlink:href="#DejaVuSans-100"/>
      <use x="738.28125" xlink:href="#DejaVuSans-101"/>
      <use x="799.804688" xlink:href="#DejaVuSans-115"/>
     </g>
    </g>
   </g>
   <g id="matplotlib.axis_2">
    <g id="ytick_1">
     <g id="line2d_19">
      <path clip-path="url(#p2f97d4dcd1)" d="M 45.149615 241.164866 
L 423.65601 241.164866 
" style="fill:none;stroke:#b0b0b0;stroke-dasharray:0.8,1.32;stroke-dashoffset:0;stroke-width:0.8;"/>
     </g>
     <g id="line2d_20">
      <defs>
       <path d="M 0 0 
L -3.5 0 
" id="m9807969909" style="stroke:#000000;stroke-width:0.8;"/>
      </defs>
      <g>
       <use style="stroke:#000000;stroke-width:0.8;" x="45.149615" xlink:href="#m9807969909" y="241.164866"/>
      </g>
     </g>
     <g id="text_4">
      <!-- $\mathdefault{10^{1}}$ -->
      <g transform="translate(20.549615 244.964084)scale(0.1 -0.1)">
       <use transform="translate(0 0.684375)" xlink:href="#DejaVuSans-49"/>
       <use transform="translate(63.623047 0.684375)" xlink:href="#DejaVuSans-48"/>
       <use transform="translate(128.203125 38.965625)scale(0.7)" xlink:href="#DejaVuSans-49"/>
      </g>
     </g>
    </g>
    <g id="ytick_2">
     <g id="line2d_21">
      <path clip-path="url(#p2f97d4dcd1)" d="M 45.149615 85.199416 
L 423.65601 85.199416 
" style="fill:none;stroke:#b0b0b0;stroke-dasharray:0.8,1.32;stroke-dashoffset:0;stroke-width:0.8;"/>
     </g>
     <g id="line2d_22">
      <g>
       <use style="stroke:#000000;stroke-width:0.8;" x="45.149615" xlink:href="#m9807969909" y="85.199416"/>
      </g>
     </g>
     <g id="text_5">
      <!-- $\mathdefault{10^{2}}$ -->
      <defs>
       <path d="M 19.1875 8.296875 
L 53.609375 8.296875 
L 53.609375 0 
L 7.328125 0 
L 7.328125 8.296875 
Q 12.9375 14.109375 22.625 23.890625 
Q 32.328125 33.6875 34.8125 36.53125 
Q 39.546875 41.84375 41.421875 45.53125 
Q 43.3125 49.21875 43.3125 52.78125 
Q 43.3125 58.59375 39.234375 62.25 
Q 35.15625 65.921875 28.609375 65.921875 
Q 23.96875 65.921875 18.8125 64.3125 
Q 13.671875 62.703125 7.8125 59.421875 
L 7.8125 69.390625 
Q 13.765625 71.78125 18.9375 73 
Q 24.125 74.21875 28.421875 74.21875 
Q 39.75 74.21875 46.484375 68.546875 
Q 53.21875 62.890625 53.21875 53.421875 
Q 53.21875 48.921875 51.53125 44.890625 
Q 49.859375 40.875 45.40625 35.40625 
Q 44.1875 33.984375 37.640625 27.21875 
Q 31.109375 20.453125 19.1875 8.296875 
z
" id="DejaVuSans-50"/>
      </defs>
      <g transform="translate(20.549615 88.998634)scale(0.1 -0.1)">
       <use transform="translate(0 0.765625)" xlink:href="#DejaVuSans-49"/>
       <use transform="translate(63.623047 0.765625)" xlink:href="#DejaVuSans-48"/>
       <use transform="translate(128.203125 39.046875)scale(0.7)" xlink:href="#DejaVuSans-50"/>
      </g>
     </g>
    </g>
    <g id="ytick_3">
     <g id="line2d_23">
      <defs>
       <path d="M 0 0 
L -2 0 
" id="m09fe719ff2" style="stroke:#000000;stroke-width:0.6;"/>
      </defs>
      <g>
       <use style="stroke:#000000;stroke-width:0.6;" x="45.149615" xlink:href="#m09fe719ff2" y="322.715884"/>
      </g>
     </g>
    </g>
    <g id="ytick_4">
     <g id="line2d_24">
      <g>
       <use style="stroke:#000000;stroke-width:0.6;" x="45.149615" xlink:href="#m09fe719ff2" y="303.229758"/>
      </g>
     </g>
    </g>
    <g id="ytick_5">
     <g id="line2d_25">
      <g>
       <use style="stroke:#000000;stroke-width:0.6;" x="45.149615" xlink:href="#m09fe719ff2" y="288.115144"/>
      </g>
     </g>
    </g>
    <g id="ytick_6">
     <g id="line2d_26">
      <g>
       <use style="stroke:#000000;stroke-width:0.6;" x="45.149615" xlink:href="#m09fe719ff2" y="275.765606"/>
      </g>
     </g>
    </g>
    <g id="ytick_7">
     <g id="line2d_27">
      <g>
       <use style="stroke:#000000;stroke-width:0.6;" x="45.149615" xlink:href="#m09fe719ff2" y="265.324219"/>
      </g>
     </g>
    </g>
    <g id="ytick_8">
     <g id="line2d_28">
      <g>
       <use style="stroke:#000000;stroke-width:0.6;" x="45.149615" xlink:href="#m09fe719ff2" y="256.279479"/>
      </g>
     </g>
    </g>
    <g id="ytick_9">
     <g id="line2d_29">
      <g>
       <use style="stroke:#000000;stroke-width:0.6;" x="45.149615" xlink:href="#m09fe719ff2" y="248.301453"/>
      </g>
     </g>
    </g>
    <g id="ytick_10">
     <g id="line2d_30">
      <g>
       <use style="stroke:#000000;stroke-width:0.6;" x="45.149615" xlink:href="#m09fe719ff2" y="194.214587"/>
      </g>
     </g>
    </g>
    <g id="ytick_11">
     <g id="line2d_31">
      <g>
       <use style="stroke:#000000;stroke-width:0.6;" x="45.149615" xlink:href="#m09fe719ff2" y="166.750434"/>
      </g>
     </g>
    </g>
    <g id="ytick_12">
     <g id="line2d_32">
      <g>
       <use style="stroke:#000000;stroke-width:0.6;" x="45.149615" xlink:href="#m09fe719ff2" y="147.264308"/>
      </g>
     </g>
    </g>
    <g id="ytick_13">
     <g id="line2d_33">
      <g>
       <use style="stroke:#000000;stroke-width:0.6;" x="45.149615" xlink:href="#m09fe719ff2" y="132.149694"/>
      </g>
     </g>
    </g>
    <g id="ytick_14">
     <g id="line2d_34">
      <g>
       <use style="stroke:#000000;stroke-width:0.6;" x="45.149615" xlink:href="#m09fe719ff2" y="119.800156"/>
      </g>
     </g>
    </g>
    <g id="ytick_15">
     <g id="line2d_35">
      <g>
       <use style="stroke:#000000;stroke-width:0.6;" x="45.149615" xlink:href="#m09fe719ff2" y="109.358769"/>
      </g>
     </g>
    </g>
    <g id="ytick_16">
     <g id="line2d_36">
      <g>
       <use style="stroke:#000000;stroke-width:0.6;" x="45.149615" xlink:href="#m09fe719ff2" y="100.314029"/>
      </g>
     </g>
    </g>
    <g id="ytick_17">
     <g id="line2d_37">
      <g>
       <use style="stroke:#000000;stroke-width:0.6;" x="45.149615" xlink:href="#m09fe719ff2" y="92.336003"/>
      </g>
     </g>
    </g>
    <g id="ytick_18">
     <g id="line2d_38">
      <g>
       <use style="stroke:#000000;stroke-width:0.6;" x="45.149615" xlink:href="#m09fe719ff2" y="38.249137"/>
      </g>
     </g>
    </g>
    <g id="ytick_19">
     <g id="line2d_39">
      <g>
       <use style="stroke:#000000;stroke-width:0.6;" x="45.149615" xlink:href="#m09fe719ff2" y="10.784984"/>
      </g>
     </g>
    </g>
    <g id="text_6">
     <!-- time [ms] -->
     <defs>
      <path d="M 18.3125 70.21875 
L 18.3125 54.6875 
L 36.8125 54.6875 
L 36.8125 47.703125 
L 18.3125 47.703125 
L 18.3125 18.015625 
Q 18.3125 11.328125 20.140625 9.421875 
Q 21.96875 7.515625 27.59375 7.515625 
L 36.8125 7.515625 
L 36.8125 0 
L 27.59375 0 
Q 17.1875 0 13.234375 3.875 
Q 9.28125 7.765625 9.28125 18.015625 
L 9.28125 47.703125 
L 2.6875 47.703125 
L 2.6875 54.6875 
L 9.28125 54.6875 
L 9.28125 70.21875 
z
" id="DejaVuSans-116"/>
      <path d="M 9.421875 54.6875 
L 18.40625 54.6875 
L 18.40625 0 
L 9.421875 0 
z
M 9.421875 75.984375 
L 18.40625 75.984375 
L 18.40625 64.59375 
L 9.421875 64.59375 
z
" id="DejaVuSans-105"/>
      <path d="M 8.59375 75.984375 
L 29.296875 75.984375 
L 29.296875 69 
L 17.578125 69 
L 17.578125 -6.203125 
L 29.296875 -6.203125 
L 29.296875 -13.1875 
L 8.59375 -13.1875 
z
" id="DejaVuSans-91"/>
      <path d="M 30.421875 75.984375 
L 30.421875 -13.1875 
L 9.71875 -13.1875 
L 9.71875 -6.203125 
L 21.390625 -6.203125 
L 21.390625 69 
L 9.71875 69 
L 9.71875 75.984375 
z
" id="DejaVuSans-93"/>
     </defs>
     <g transform="translate(13.638052 196.852656)rotate(-90)scale(0.14 -0.14)">
      <use xlink:href="#DejaVuSans-116"/>
      <use x="39.208984" xlink:href="#DejaVuSans-105"/>
      <use x="66.992188" xlink:href="#DejaVuSans-109"/>
      <use x="164.404297" xlink:href="#DejaVuSans-101"/>
      <use x="225.927734" xlink:href="#DejaVuSans-32"/>
      <use x="257.714844" xlink:href="#DejaVuSans-91"/>
      <use x="296.728516" xlink:href="#DejaVuSans-109"/>
      <use x="394.140625" xlink:href="#DejaVuSans-115"/>
      <use x="446.240234" xlink:href="#DejaVuSans-93"/>
     </g>
    </g>
   </g>
   <g id="line2d_40">
    <path clip-path="url(#p2f97d4dcd1)" d="M 62.354451 306.429979 
L 133.084816 248.818508 
L 198.861949 195.772697 
L 292.207665 117.501092 
L 406.451174 17.535332 
" style="fill:none;stroke:#1f77b4;stroke-linecap:square;stroke-width:1.5;"/>
    <defs>
     <path d="M 0 3 
C 0.795609 3 1.55874 2.683901 2.12132 2.12132 
C 2.683901 1.55874 3 0.795609 3 0 
C 3 -0.795609 2.683901 -1.55874 2.12132 -2.12132 
C 1.55874 -2.683901 0.795609 -3 0 -3 
C -0.795609 -3 -1.55874 -2.683901 -2.12132 -2.12132 
C -2.683901 -1.55874 -3 -0.795609 -3 0 
C -3 0.795609 -2.683901 1.55874 -2.12132 2.12132 
C -1.55874 2.683901 -0.795609 3 0 3 
z
" id="m641138ecd2" style="stroke:#1f77b4;"/>
    </defs>
    <g clip-path="url(#p2f97d4dcd1)">
     <use style="fill:#1f77b4;stroke:#1f77b4;" x="62.354451" xlink:href="#m641138ecd2" y="306.429979"/>
     <use style="fill:#1f77b4;stroke:#1f77b4;" x="133.084816" xlink:href="#m641138ecd2" y="248.818508"/>
     <use style="fill:#1f77b4;stroke:#1f77b4;" x="198.861949" xlink:href="#m641138ecd2" y="195.772697"/>
     <use style="fill:#1f77b4;stroke:#1f77b4;" x="292.207665" xlink:href="#m641138ecd2" y="117.501092"/>
     <use style="fill:#1f77b4;stroke:#1f77b4;" x="406.451174" xlink:href="#m641138ecd2" y="17.535332"/>
    </g>
   </g>
   <g id="line2d_41">
    <path clip-path="url(#p2f97d4dcd1)" d="M 62.354451 308.237168 
L 114.493913 264.511404 
L 148.047692 236.372168 
L 172.838012 215.582239 
L 192.50725 199.087008 
L 208.813188 185.412345 
L 222.739803 173.733055 
L 234.893861 163.540287 
L 245.676056 154.498005 
L 255.364907 146.372634 
L 264.161879 138.995222 
L 272.217418 132.239598 
L 279.646847 126.009049 
L 286.540513 120.227807 
L 292.970519 114.835406 
L 298.995323 109.782819 
L 304.662981 105.029746 
L 310.013477 100.542655 
L 315.080434 96.293348 
L 319.892398 92.257886 
L 324.473807 88.415775 
L 328.845749 84.749329 
L 333.026544 81.243185 
L 337.032207 77.883912 
L 340.876823 74.659698 
L 344.572844 71.560101 
L 348.131329 68.575846 
L 351.562147 65.698655 
L 354.874144 62.921112 
L 358.075275 60.236545 
L 361.172722 57.63893 
L 364.172992 55.122811 
L 367.081997 52.683229 
L 369.905127 50.315666 
L 372.647305 48.01599 
L 375.313046 45.780418 
L 377.906496 43.605471 
L 380.431471 41.487948 
L 382.891496 39.424895 
L 385.289828 37.41358 
L 387.629486 35.451471 
L 389.913271 33.536217 
L 392.143792 31.665634 
L 394.323475 29.837684 
L 396.454586 28.050468 
L 398.539244 26.30221 
L 400.57943 24.591247 
L 402.577002 22.916022 
L 404.533703 21.275071 
L 406.451174 19.667021 
" style="fill:none;stroke:#ff7f0e;stroke-dasharray:5.55,2.4;stroke-dashoffset:0;stroke-opacity:0.75;stroke-width:1.5;"/>
   </g>
   <g id="patch_3">
    <path d="M 45.149615 322.77226 
L 45.149615 3.00024 
" style="fill:none;stroke:#000000;stroke-linecap:square;stroke-linejoin:miter;stroke-width:0.8;"/>
   </g>
   <g id="patch_4">
    <path d="M 423.65601 322.77226 
L 423.65601 3.00024 
" style="fill:none;stroke:#000000;stroke-linecap:square;stroke-linejoin:miter;stroke-width:0.8;"/>
   </g>
   <g id="patch_5">
    <path d="M 45.149615 322.77226 
L 423.65601 322.77226 
" style="fill:none;stroke:#000000;stroke-linecap:square;stroke-linejoin:miter;stroke-width:0.8;"/>
   </g>
   <g id="patch_6">
    <path d="M 45.149615 3.00024 
L 423.65601 3.00024 
" style="fill:none;stroke:#000000;stroke-linecap:square;stroke-linejoin:miter;stroke-width:0.8;"/>
   </g>
   <g id="legend_1">
    <g id="patch_7">
     <path d="M 54.249615 51.563365 
L 163.819302 51.563365 
Q 166.419302 51.563365 166.419302 48.963365 
L 166.419302 12.10024 
Q 166.419302 9.50024 163.819302 9.50024 
L 54.249615 9.50024 
Q 51.649615 9.50024 51.649615 12.10024 
L 51.649615 48.963365 
Q 51.649615 51.563365 54.249615 51.563365 
z
" style="fill:#ffffff;opacity:0.8;stroke:#cccccc;stroke-linejoin:miter;"/>
    </g>
    <g id="line2d_42">
     <path d="M 56.849615 20.028209 
L 82.849615 20.028209 
" style="fill:none;stroke:#1f77b4;stroke-linecap:square;stroke-width:1.5;"/>
    </g>
    <g id="line2d_43">
     <g>
      <use style="fill:#1f77b4;stroke:#1f77b4;" x="69.849615" xlink:href="#m641138ecd2" y="20.028209"/>
     </g>
    </g>
    <g id="text_7">
     <!-- full time -->
     <defs>
      <path d="M 9.421875 75.984375 
L 18.40625 75.984375 
L 18.40625 0 
L 9.421875 0 
z
" id="DejaVuSans-108"/>
     </defs>
     <g transform="translate(93.249615 24.578209)scale(0.13 -0.13)">
      <use xlink:href="#DejaVuSans-102"/>
      <use x="35.205078" xlink:href="#DejaVuSans-117"/>
      <use x="98.583984" xlink:href="#DejaVuSans-108"/>
      <use x="126.367188" xlink:href="#DejaVuSans-108"/>
      <use x="154.150391" xlink:href="#DejaVuSans-32"/>
      <use x="185.9375" xlink:href="#DejaVuSans-116"/>
      <use x="225.146484" xlink:href="#DejaVuSans-105"/>
      <use x="252.929688" xlink:href="#DejaVuSans-109"/>
      <use x="350.341797" xlink:href="#DejaVuSans-101"/>
     </g>
    </g>
    <g id="line2d_44">
     <path d="M 56.849615 39.109771 
L 82.849615 39.109771 
" style="fill:none;stroke:#ff7f0e;stroke-dasharray:5.55,2.4;stroke-dashoffset:0;stroke-opacity:0.75;stroke-width:1.5;"/>
    </g>
    <g id="line2d_45"/>
    <g id="text_8">
     <!-- order 1.18 -->
     <defs>
      <path d="M 10.6875 12.40625 
L 21 12.40625 
L 21 0 
L 10.6875 0 
z
" id="DejaVuSans-46"/>
      <path d="M 31.78125 34.625 
Q 24.75 34.625 20.71875 30.859375 
Q 16.703125 27.09375 16.703125 20.515625 
Q 16.703125 13.921875 20.71875 10.15625 
Q 24.75 6.390625 31.78125 6.390625 
Q 38.8125 6.390625 42.859375 10.171875 
Q 46.921875 13.96875 46.921875 20.515625 
Q 46.921875 27.09375 42.890625 30.859375 
Q 38.875 34.625 31.78125 34.625 
z
M 21.921875 38.8125 
Q 15.578125 40.375 12.03125 44.71875 
Q 8.5 49.078125 8.5 55.328125 
Q 8.5 64.0625 14.71875 69.140625 
Q 20.953125 74.21875 31.78125 74.21875 
Q 42.671875 74.21875 48.875 69.140625 
Q 55.078125 64.0625 55.078125 55.328125 
Q 55.078125 49.078125 51.53125 44.71875 
Q 48 40.375 41.703125 38.8125 
Q 48.828125 37.15625 52.796875 32.3125 
Q 56.78125 27.484375 56.78125 20.515625 
Q 56.78125 9.90625 50.3125 4.234375 
Q 43.84375 -1.421875 31.78125 -1.421875 
Q 19.734375 -1.421875 13.25 4.234375 
Q 6.78125 9.90625 6.78125 20.515625 
Q 6.78125 27.484375 10.78125 32.3125 
Q 14.796875 37.15625 21.921875 38.8125 
z
M 18.3125 54.390625 
Q 18.3125 48.734375 21.84375 45.5625 
Q 25.390625 42.390625 31.78125 42.390625 
Q 38.140625 42.390625 41.71875 45.5625 
Q 45.3125 48.734375 45.3125 54.390625 
Q 45.3125 60.0625 41.71875 63.234375 
Q 38.140625 66.40625 31.78125 66.40625 
Q 25.390625 66.40625 21.84375 63.234375 
Q 18.3125 60.0625 18.3125 54.390625 
z
" id="DejaVuSans-56"/>
     </defs>
     <g transform="translate(93.249615 43.659771)scale(0.13 -0.13)">
      <use xlink:href="#DejaVuSans-111"/>
      <use x="61.181641" xlink:href="#DejaVuSans-114"/>
      <use x="102.279297" xlink:href="#DejaVuSans-100"/>
      <use x="165.755859" xlink:href="#DejaVuSans-101"/>
      <use x="227.279297" xlink:href="#DejaVuSans-114"/>
      <use x="268.392578" xlink:href="#DejaVuSans-32"/>
      <use x="300.179688" xlink:href="#DejaVuSans-49"/>
      <use x="363.802734" xlink:href="#DejaVuSans-46"/>
      <use x="395.589844" xlink:href="#DejaVuSans-49"/>
      <use x="459.212891" xlink:href="#DejaVuSans-56"/>
     </g>
    </g>
   </g>
  </g>
  <g id="axes_2">
   <g id="patch_8">
    <path d="M 482.493365 322.77226 
L 860.99976 322.77226 
L 860.99976 3.00024 
L 482.493365 3.00024 
z
" style="fill:#ffffff;"/>
   </g>
   <g id="patch_9">
    <path clip-path="url(#p99858456a0)" d="M 499.698201 322.77226 
L 519.939185 322.77226 
L 519.939185 254.724392 
L 499.698201 254.724392 
z
" style="fill:#fde725;"/>
   </g>
   <g id="patch_10">
    <path clip-path="url(#p99858456a0)" d="M 580.662136 322.77226 
L 600.90312 322.77226 
L 600.90312 249.758041 
L 580.662136 249.758041 
z
" style="fill:#fde725;"/>
   </g>
   <g id="patch_11">
    <path clip-path="url(#p99858456a0)" d="M 661.626071 322.77226 
L 681.867054 322.77226 
L 681.867054 249.496257 
L 661.626071 249.496257 
z
" style="fill:#fde725;"/>
   </g>
   <g id="patch_12">
    <path clip-path="url(#p99858456a0)" d="M 742.590005 322.77226 
L 762.830989 322.77226 
L 762.830989 244.168472 
L 742.590005 244.168472 
z
" style="fill:#fde725;"/>
   </g>
   <g id="patch_13">
    <path clip-path="url(#p99858456a0)" d="M 823.55394 322.77226 
L 843.794924 322.77226 
L 843.794924 235.215781 
L 823.55394 235.215781 
z
" style="fill:#fde725;"/>
   </g>
   <g id="patch_14">
    <path clip-path="url(#p99858456a0)" d="M 499.698201 254.724392 
L 519.939185 254.724392 
L 519.939185 183.545198 
L 499.698201 183.545198 
z
" style="fill:#a0da39;"/>
   </g>
   <g id="patch_15">
    <path clip-path="url(#p99858456a0)" d="M 580.662136 249.758041 
L 600.90312 249.758041 
L 600.90312 171.323668 
L 580.662136 171.323668 
z
" style="fill:#a0da39;"/>
   </g>
   <g id="patch_16">
    <path clip-path="url(#p99858456a0)" d="M 661.626071 249.496257 
L 681.867054 249.496257 
L 681.867054 167.322397 
L 661.626071 167.322397 
z
" style="fill:#a0da39;"/>
   </g>
   <g id="patch_17">
    <path clip-path="url(#p99858456a0)" d="M 742.590005 244.168472 
L 762.830989 244.168472 
L 762.830989 153.785563 
L 742.590005 153.785563 
z
" style="fill:#a0da39;"/>
   </g>
   <g id="patch_18">
    <path clip-path="url(#p99858456a0)" d="M 823.55394 235.215781 
L 843.794924 235.215781 
L 843.794924 135.122233 
L 823.55394 135.122233 
z
" style="fill:#a0da39;"/>
   </g>
   <g id="patch_19">
    <path clip-path="url(#p99858456a0)" d="M 499.698201 183.545198 
L 519.939185 183.545198 
L 519.939185 178.949181 
L 499.698201 178.949181 
z
" style="fill:#4ac16d;"/>
   </g>
   <g id="patch_20">
    <path clip-path="url(#p99858456a0)" d="M 580.662136 171.323668 
L 600.90312 171.323668 
L 600.90312 167.8065 
L 580.662136 167.8065 
z
" style="fill:#4ac16d;"/>
   </g>
   <g id="patch_21">
    <path clip-path="url(#p99858456a0)" d="M 661.626071 167.322397 
L 681.867054 167.322397 
L 681.867054 164.093039 
L 661.626071 164.093039 
z
" style="fill:#4ac16d;"/>
   </g>
   <g id="patch_22">
    <path clip-path="url(#p99858456a0)" d="M 742.590005 153.785563 
L 762.830989 153.785563 
L 762.830989 151.152852 
L 742.590005 151.152852 
z
" style="fill:#4ac16d;"/>
   </g>
   <g id="patch_23">
    <path clip-path="url(#p99858456a0)" d="M 823.55394 135.122233 
L 843.794924 135.122233 
L 843.794924 133.233206 
L 823.55394 133.233206 
z
" style="fill:#4ac16d;"/>
   </g>
   <g id="patch_24">
    <path clip-path="url(#p99858456a0)" d="M 499.698201 178.949181 
L 519.939185 178.949181 
L 519.939185 146.735557 
L 499.698201 146.735557 
z
" style="fill:#1fa187;"/>
   </g>
   <g id="patch_25">
    <path clip-path="url(#p99858456a0)" d="M 580.662136 167.8065 
L 600.90312 167.8065 
L 600.90312 138.9988 
L 580.662136 138.9988 
z
" style="fill:#1fa187;"/>
   </g>
   <g id="patch_26">
    <path clip-path="url(#p99858456a0)" d="M 661.626071 164.093039 
L 681.867054 164.093039 
L 681.867054 136.370462 
L 661.626071 136.370462 
z
" style="fill:#1fa187;"/>
   </g>
   <g id="patch_27">
    <path clip-path="url(#p99858456a0)" d="M 742.590005 151.152852 
L 762.830989 151.152852 
L 762.830989 131.686668 
L 742.590005 131.686668 
z
" style="fill:#1fa187;"/>
   </g>
   <g id="patch_28">
    <path clip-path="url(#p99858456a0)" d="M 823.55394 133.233206 
L 843.794924 133.233206 
L 843.794924 118.663857 
L 823.55394 118.663857 
z
" style="fill:#1fa187;"/>
   </g>
   <g id="patch_29">
    <path clip-path="url(#p99858456a0)" d="M 499.698201 146.735557 
L 519.939185 146.735557 
L 519.939185 64.116608 
L 499.698201 64.116608 
z
" style="fill:#277f8e;"/>
   </g>
   <g id="patch_30">
    <path clip-path="url(#p99858456a0)" d="M 580.662136 138.9988 
L 600.90312 138.9988 
L 600.90312 62.107683 
L 580.662136 62.107683 
z
" style="fill:#277f8e;"/>
   </g>
   <g id="patch_31">
    <path clip-path="url(#p99858456a0)" d="M 661.626071 136.370462 
L 681.867054 136.370462 
L 681.867054 60.161228 
L 661.626071 60.161228 
z
" style="fill:#277f8e;"/>
   </g>
   <g id="patch_32">
    <path clip-path="url(#p99858456a0)" d="M 742.590005 131.686668 
L 762.830989 131.686668 
L 762.830989 58.350305 
L 742.590005 58.350305 
z
" style="fill:#277f8e;"/>
   </g>
   <g id="patch_33">
    <path clip-path="url(#p99858456a0)" d="M 823.55394 118.663857 
L 843.794924 118.663857 
L 843.794924 60.254713 
L 823.55394 60.254713 
z
" style="fill:#277f8e;"/>
   </g>
   <g id="patch_34">
    <path clip-path="url(#p99858456a0)" d="M 499.698201 64.116608 
L 519.939185 64.116608 
L 519.939185 61.848132 
L 499.698201 61.848132 
z
" style="fill:#365c8d;"/>
   </g>
   <g id="patch_35">
    <path clip-path="url(#p99858456a0)" d="M 580.662136 62.107683 
L 600.90312 62.107683 
L 600.90312 60.73355 
L 580.662136 60.73355 
z
" style="fill:#365c8d;"/>
   </g>
   <g id="patch_36">
    <path clip-path="url(#p99858456a0)" d="M 661.626071 60.161228 
L 681.867054 60.161228 
L 681.867054 58.835003 
L 661.626071 58.835003 
z
" style="fill:#365c8d;"/>
   </g>
   <g id="patch_37">
    <path clip-path="url(#p99858456a0)" d="M 742.590005 58.350305 
L 762.830989 58.350305 
L 762.830989 57.174153 
L 742.590005 57.174153 
z
" style="fill:#365c8d;"/>
   </g>
   <g id="patch_38">
    <path clip-path="url(#p99858456a0)" d="M 823.55394 60.254713 
L 843.794924 60.254713 
L 843.794924 59.286552 
L 823.55394 59.286552 
z
" style="fill:#365c8d;"/>
   </g>
   <g id="patch_39">
    <path clip-path="url(#p99858456a0)" d="M 499.698201 61.848132 
L 519.939185 61.848132 
L 519.939185 58.873253 
L 499.698201 58.873253 
z
" style="fill:#d62728;"/>
   </g>
   <g id="patch_40">
    <path clip-path="url(#p99858456a0)" d="M 580.662136 60.73355 
L 600.90312 60.73355 
L 600.90312 57.485072 
L 580.662136 57.485072 
z
" style="fill:#d62728;"/>
   </g>
   <g id="patch_41">
    <path clip-path="url(#p99858456a0)" d="M 661.626071 58.835003 
L 681.867054 58.835003 
L 681.867054 56.037254 
L 661.626071 56.037254 
z
" style="fill:#d62728;"/>
   </g>
   <g id="patch_42">
    <path clip-path="url(#p99858456a0)" d="M 742.590005 57.174153 
L 762.830989 57.174153 
L 762.830989 54.817395 
L 742.590005 54.817395 
z
" style="fill:#d62728;"/>
   </g>
   <g id="patch_43">
    <path clip-path="url(#p99858456a0)" d="M 823.55394 59.286552 
L 843.794924 59.286552 
L 843.794924 57.362713 
L 823.55394 57.362713 
z
" style="fill:#d62728;"/>
   </g>
   <g id="patch_44">
    <path clip-path="url(#p99858456a0)" d="M 499.698201 58.873253 
L 519.939185 58.873253 
L 519.939185 57.327944 
L 499.698201 57.327944 
z
" style="fill:#ff7f0e;"/>
   </g>
   <g id="patch_45">
    <path clip-path="url(#p99858456a0)" d="M 580.662136 57.485072 
L 600.90312 57.485072 
L 600.90312 56.124577 
L 580.662136 56.124577 
z
" style="fill:#ff7f0e;"/>
   </g>
   <g id="patch_46">
    <path clip-path="url(#p99858456a0)" d="M 661.626071 56.037254 
L 681.867054 56.037254 
L 681.867054 54.845653 
L 661.626071 54.845653 
z
" style="fill:#ff7f0e;"/>
   </g>
   <g id="patch_47">
    <path clip-path="url(#p99858456a0)" d="M 742.590005 54.817395 
L 762.830989 54.817395 
L 762.830989 54.025999 
L 742.590005 54.025999 
z
" style="fill:#ff7f0e;"/>
   </g>
   <g id="patch_48">
    <path clip-path="url(#p99858456a0)" d="M 823.55394 57.362713 
L 843.794924 57.362713 
L 843.794924 56.975448 
L 823.55394 56.975448 
z
" style="fill:#ff7f0e;"/>
   </g>
   <g id="patch_49">
    <path clip-path="url(#p99858456a0)" d="M 499.698201 57.327944 
L 519.939185 57.327944 
L 519.939185 56.064399 
L 499.698201 56.064399 
z
" style="fill:#1f77b4;"/>
   </g>
   <g id="patch_50">
    <path clip-path="url(#p99858456a0)" d="M 580.662136 56.124577 
L 600.90312 56.124577 
L 600.90312 55.160979 
L 580.662136 55.160979 
z
" style="fill:#1f77b4;"/>
   </g>
   <g id="patch_51">
    <path clip-path="url(#p99858456a0)" d="M 661.626071 54.845653 
L 681.867054 54.845653 
L 681.867054 53.999729 
L 661.626071 53.999729 
z
" style="fill:#1f77b4;"/>
   </g>
   <g id="patch_52">
    <path clip-path="url(#p99858456a0)" d="M 742.590005 54.025999 
L 762.830989 54.025999 
L 762.830989 53.466047 
L 742.590005 53.466047 
z
" style="fill:#1f77b4;"/>
   </g>
   <g id="patch_53">
    <path clip-path="url(#p99858456a0)" d="M 823.55394 56.975448 
L 843.794924 56.975448 
L 843.794924 56.692307 
L 823.55394 56.692307 
z
" style="fill:#1f77b4;"/>
   </g>
   <g id="patch_54">
    <path clip-path="url(#p99858456a0)" d="M 499.698201 56.064399 
L 519.939185 56.064399 
L 519.939185 18.227479 
L 499.698201 18.227479 
z
" style="fill:#d3d3d3;"/>
   </g>
   <g id="patch_55">
    <path clip-path="url(#p99858456a0)" d="M 580.662136 55.160979 
L 600.90312 55.160979 
L 600.90312 18.227479 
L 580.662136 18.227479 
z
" style="fill:#d3d3d3;"/>
   </g>
   <g id="patch_56">
    <path clip-path="url(#p99858456a0)" d="M 661.626071 53.999729 
L 681.867054 53.999729 
L 681.867054 18.227479 
L 661.626071 18.227479 
z
" style="fill:#d3d3d3;"/>
   </g>
   <g id="patch_57">
    <path clip-path="url(#p99858456a0)" d="M 742.590005 53.466047 
L 762.830989 53.466047 
L 762.830989 18.227479 
L 742.590005 18.227479 
z
" style="fill:#d3d3d3;"/>
   </g>
   <g id="patch_58">
    <path clip-path="url(#p99858456a0)" d="M 823.55394 56.692307 
L 843.794924 56.692307 
L 843.794924 18.227479 
L 823.55394 18.227479 
z
" style="fill:#d3d3d3;"/>
   </g>
   <g id="matplotlib.axis_3">
    <g id="xtick_17">
     <g id="line2d_46">
      <path clip-path="url(#p99858456a0)" d="M 509.818693 322.77226 
L 509.818693 3.00024 
" style="fill:none;stroke:#b0b0b0;stroke-dasharray:0.8,1.32;stroke-dashoffset:0;stroke-width:0.8;"/>
     </g>
     <g id="line2d_47">
      <g>
       <use style="stroke:#000000;stroke-width:0.8;" x="509.818693" xlink:href="#maea91fc432" y="322.77226"/>
      </g>
     </g>
     <g id="text_9">
      <!-- 400 -->
      <g transform="translate(500.274943 337.370698)scale(0.1 -0.1)">
       <use xlink:href="#DejaVuSans-52"/>
       <use x="63.623047" xlink:href="#DejaVuSans-48"/>
       <use x="127.246094" xlink:href="#DejaVuSans-48"/>
      </g>
     </g>
    </g>
    <g id="xtick_18">
     <g id="line2d_48">
      <path clip-path="url(#p99858456a0)" d="M 590.782628 322.77226 
L 590.782628 3.00024 
" style="fill:none;stroke:#b0b0b0;stroke-dasharray:0.8,1.32;stroke-dashoffset:0;stroke-width:0.8;"/>
     </g>
     <g id="line2d_49">
      <g>
       <use style="stroke:#000000;stroke-width:0.8;" x="590.782628" xlink:href="#maea91fc432" y="322.77226"/>
      </g>
     </g>
     <g id="text_10">
      <!-- 838 -->
      <g transform="translate(581.238878 337.370698)scale(0.1 -0.1)">
       <use xlink:href="#DejaVuSans-56"/>
       <use x="63.623047" xlink:href="#DejaVuSans-51"/>
       <use x="127.246094" xlink:href="#DejaVuSans-56"/>
      </g>
     </g>
    </g>
    <g id="xtick_19">
     <g id="line2d_50">
      <path clip-path="url(#p99858456a0)" d="M 671.746563 322.77226 
L 671.746563 3.00024 
" style="fill:none;stroke:#b0b0b0;stroke-dasharray:0.8,1.32;stroke-dashoffset:0;stroke-width:0.8;"/>
     </g>
     <g id="line2d_51">
      <g>
       <use style="stroke:#000000;stroke-width:0.8;" x="671.746563" xlink:href="#maea91fc432" y="322.77226"/>
      </g>
     </g>
     <g id="text_11">
      <!-- 1667 -->
      <defs>
       <path d="M 33.015625 40.375 
Q 26.375 40.375 22.484375 35.828125 
Q 18.609375 31.296875 18.609375 23.390625 
Q 18.609375 15.53125 22.484375 10.953125 
Q 26.375 6.390625 33.015625 6.390625 
Q 39.65625 6.390625 43.53125 10.953125 
Q 47.40625 15.53125 47.40625 23.390625 
Q 47.40625 31.296875 43.53125 35.828125 
Q 39.65625 40.375 33.015625 40.375 
z
M 52.59375 71.296875 
L 52.59375 62.3125 
Q 48.875 64.0625 45.09375 64.984375 
Q 41.3125 65.921875 37.59375 65.921875 
Q 27.828125 65.921875 22.671875 59.328125 
Q 17.53125 52.734375 16.796875 39.40625 
Q 19.671875 43.65625 24.015625 45.921875 
Q 28.375 48.1875 33.59375 48.1875 
Q 44.578125 48.1875 50.953125 41.515625 
Q 57.328125 34.859375 57.328125 23.390625 
Q 57.328125 12.15625 50.6875 5.359375 
Q 44.046875 -1.421875 33.015625 -1.421875 
Q 20.359375 -1.421875 13.671875 8.265625 
Q 6.984375 17.96875 6.984375 36.375 
Q 6.984375 53.65625 15.1875 63.9375 
Q 23.390625 74.21875 37.203125 74.21875 
Q 40.921875 74.21875 44.703125 73.484375 
Q 48.484375 72.75 52.59375 71.296875 
z
" id="DejaVuSans-54"/>
       <path d="M 8.203125 72.90625 
L 55.078125 72.90625 
L 55.078125 68.703125 
L 28.609375 0 
L 18.3125 0 
L 43.21875 64.59375 
L 8.203125 64.59375 
z
" id="DejaVuSans-55"/>
      </defs>
      <g transform="translate(659.021563 337.370698)scale(0.1 -0.1)">
       <use xlink:href="#DejaVuSans-49"/>
       <use x="63.623047" xlink:href="#DejaVuSans-54"/>
       <use x="127.246094" xlink:href="#DejaVuSans-54"/>
       <use x="190.869141" xlink:href="#DejaVuSans-55"/>
      </g>
     </g>
    </g>
    <g id="xtick_20">
     <g id="line2d_52">
      <path clip-path="url(#p99858456a0)" d="M 752.710497 322.77226 
L 752.710497 3.00024 
" style="fill:none;stroke:#b0b0b0;stroke-dasharray:0.8,1.32;stroke-dashoffset:0;stroke-width:0.8;"/>
     </g>
     <g id="line2d_53">
      <g>
       <use style="stroke:#000000;stroke-width:0.8;" x="752.710497" xlink:href="#maea91fc432" y="322.77226"/>
      </g>
     </g>
     <g id="text_12">
      <!-- 4424 -->
      <g transform="translate(739.985497 337.370698)scale(0.1 -0.1)">
       <use xlink:href="#DejaVuSans-52"/>
       <use x="63.623047" xlink:href="#DejaVuSans-52"/>
       <use x="127.246094" xlink:href="#DejaVuSans-50"/>
       <use x="190.869141" xlink:href="#DejaVuSans-52"/>
      </g>
     </g>
    </g>
    <g id="xtick_21">
     <g id="line2d_54">
      <path clip-path="url(#p99858456a0)" d="M 833.674432 322.77226 
L 833.674432 3.00024 
" style="fill:none;stroke:#b0b0b0;stroke-dasharray:0.8,1.32;stroke-dashoffset:0;stroke-width:0.8;"/>
     </g>
     <g id="line2d_55">
      <g>
       <use style="stroke:#000000;stroke-width:0.8;" x="833.674432" xlink:href="#maea91fc432" y="322.77226"/>
      </g>
     </g>
     <g id="text_13">
      <!-- 14608 -->
      <g transform="translate(817.768182 337.370698)scale(0.1 -0.1)">
       <use xlink:href="#DejaVuSans-49"/>
       <use x="63.623047" xlink:href="#DejaVuSans-52"/>
       <use x="127.246094" xlink:href="#DejaVuSans-54"/>
       <use x="190.869141" xlink:href="#DejaVuSans-48"/>
       <use x="254.492188" xlink:href="#DejaVuSans-56"/>
      </g>
     </g>
    </g>
    <g id="text_14">
     <!-- number of nodes -->
     <g transform="translate(612.113125 354.088197)scale(0.14 -0.14)">
      <use xlink:href="#DejaVuSans-110"/>
      <use x="63.378906" xlink:href="#DejaVuSans-117"/>
      <use x="126.757812" xlink:href="#DejaVuSans-109"/>
      <use x="224.169922" xlink:href="#DejaVuSans-98"/>
      <use x="287.646484" xlink:href="#DejaVuSans-101"/>
      <use x="349.169922" xlink:href="#DejaVuSans-114"/>
      <use x="390.283203" xlink:href="#DejaVuSans-32"/>
      <use x="422.070312" xlink:href="#DejaVuSans-111"/>
      <use x="483.251953" xlink:href="#DejaVuSans-102"/>
      <use x="518.457031" xlink:href="#DejaVuSans-32"/>
      <use x="550.244141" xlink:href="#DejaVuSans-110"/>
      <use x="613.623047" xlink:href="#DejaVuSans-111"/>
      <use x="674.804688" xlink:href="#DejaVuSans-100"/>
      <use x="738.28125" xlink:href="#DejaVuSans-101"/>
      <use x="799.804688" xlink:href="#DejaVuSans-115"/>
     </g>
    </g>
   </g>
   <g id="matplotlib.axis_4">
    <g id="ytick_20">
     <g id="line2d_56">
      <path clip-path="url(#p99858456a0)" d="M 482.493365 322.77226 
L 860.99976 322.77226 
" style="fill:none;stroke:#b0b0b0;stroke-dasharray:0.8,1.32;stroke-dashoffset:0;stroke-width:0.8;"/>
     </g>
     <g id="line2d_57">
      <g>
       <use style="stroke:#000000;stroke-width:0.8;" x="482.493365" xlink:href="#m9807969909" y="322.77226"/>
      </g>
     </g>
     <g id="text_15">
      <!-- 0 -->
      <g transform="translate(469.130865 326.571479)scale(0.1 -0.1)">
       <use xlink:href="#DejaVuSans-48"/>
      </g>
     </g>
    </g>
    <g id="ytick_21">
     <g id="line2d_58">
      <path clip-path="url(#p99858456a0)" d="M 482.493365 261.863304 
L 860.99976 261.863304 
" style="fill:none;stroke:#b0b0b0;stroke-dasharray:0.8,1.32;stroke-dashoffset:0;stroke-width:0.8;"/>
     </g>
     <g id="line2d_59">
      <g>
       <use style="stroke:#000000;stroke-width:0.8;" x="482.493365" xlink:href="#m9807969909" y="261.863304"/>
      </g>
     </g>
     <g id="text_16">
      <!-- 20 -->
      <g transform="translate(462.768365 265.662523)scale(0.1 -0.1)">
       <use xlink:href="#DejaVuSans-50"/>
       <use x="63.623047" xlink:href="#DejaVuSans-48"/>
      </g>
     </g>
    </g>
    <g id="ytick_22">
     <g id="line2d_60">
      <path clip-path="url(#p99858456a0)" d="M 482.493365 200.954348 
L 860.99976 200.954348 
" style="fill:none;stroke:#b0b0b0;stroke-dasharray:0.8,1.32;stroke-dashoffset:0;stroke-width:0.8;"/>
     </g>
     <g id="line2d_61">
      <g>
       <use style="stroke:#000000;stroke-width:0.8;" x="482.493365" xlink:href="#m9807969909" y="200.954348"/>
      </g>
     </g>
     <g id="text_17">
      <!-- 40 -->
      <g transform="translate(462.768365 204.753566)scale(0.1 -0.1)">
       <use xlink:href="#DejaVuSans-52"/>
       <use x="63.623047" xlink:href="#DejaVuSans-48"/>
      </g>
     </g>
    </g>
    <g id="ytick_23">
     <g id="line2d_62">
      <path clip-path="url(#p99858456a0)" d="M 482.493365 140.045391 
L 860.99976 140.045391 
" style="fill:none;stroke:#b0b0b0;stroke-dasharray:0.8,1.32;stroke-dashoffset:0;stroke-width:0.8;"/>
     </g>
     <g id="line2d_63">
      <g>
       <use style="stroke:#000000;stroke-width:0.8;" x="482.493365" xlink:href="#m9807969909" y="140.045391"/>
      </g>
     </g>
     <g id="text_18">
      <!-- 60 -->
      <g transform="translate(462.768365 143.84461)scale(0.1 -0.1)">
       <use xlink:href="#DejaVuSans-54"/>
       <use x="63.623047" xlink:href="#DejaVuSans-48"/>
      </g>
     </g>
    </g>
    <g id="ytick_24">
     <g id="line2d_64">
      <path clip-path="url(#p99858456a0)" d="M 482.493365 79.136435 
L 860.99976 79.136435 
" style="fill:none;stroke:#b0b0b0;stroke-dasharray:0.8,1.32;stroke-dashoffset:0;stroke-width:0.8;"/>
     </g>
     <g id="line2d_65">
      <g>
       <use style="stroke:#000000;stroke-width:0.8;" x="482.493365" xlink:href="#m9807969909" y="79.136435"/>
      </g>
     </g>
     <g id="text_19">
      <!-- 80 -->
      <g transform="translate(462.768365 82.935654)scale(0.1 -0.1)">
       <use xlink:href="#DejaVuSans-56"/>
       <use x="63.623047" xlink:href="#DejaVuSans-48"/>
      </g>
     </g>
    </g>
    <g id="ytick_25">
     <g id="line2d_66">
      <path clip-path="url(#p99858456a0)" d="M 482.493365 18.227479 
L 860.99976 18.227479 
" style="fill:none;stroke:#b0b0b0;stroke-dasharray:0.8,1.32;stroke-dashoffset:0;stroke-width:0.8;"/>
     </g>
     <g id="line2d_67">
      <g>
       <use style="stroke:#000000;stroke-width:0.8;" x="482.493365" xlink:href="#m9807969909" y="18.227479"/>
      </g>
     </g>
     <g id="text_20">
      <!-- 100 -->
      <g transform="translate(456.405865 22.026698)scale(0.1 -0.1)">
       <use xlink:href="#DejaVuSans-49"/>
       <use x="63.623047" xlink:href="#DejaVuSans-48"/>
       <use x="127.246094" xlink:href="#DejaVuSans-48"/>
      </g>
     </g>
    </g>
    <g id="text_21">
     <!-- rpartition [%] -->
     <defs>
      <path d="M 56.203125 29.59375 
L 56.203125 25.203125 
L 14.890625 25.203125 
Q 15.484375 15.921875 20.484375 11.0625 
Q 25.484375 6.203125 34.421875 6.203125 
Q 39.59375 6.203125 44.453125 7.46875 
Q 49.3125 8.734375 54.109375 11.28125 
L 54.109375 2.78125 
Q 49.265625 0.734375 44.1875 -0.34375 
Q 39.109375 -1.421875 33.890625 -1.421875 
Q 20.796875 -1.421875 13.15625 6.1875 
Q 5.515625 13.8125 5.515625 26.8125 
Q 5.515625 40.234375 12.765625 48.109375 
Q 20.015625 56 32.328125 56 
Q 43.359375 56 49.78125 48.890625 
Q 56.203125 41.796875 56.203125 29.59375 
z
M 47.21875 32.234375 
Q 47.125 39.59375 43.09375 43.984375 
Q 39.0625 48.390625 32.421875 48.390625 
Q 24.90625 48.390625 20.390625 44.140625 
Q 15.875 39.890625 15.1875 32.171875 
z
M 38.578125 79.984375 
L 48.296875 79.984375 
L 32.375 61.625 
L 24.90625 61.625 
z
" id="DejaVuSans-233"/>
      <path d="M 18.109375 8.203125 
L 18.109375 -20.796875 
L 9.078125 -20.796875 
L 9.078125 54.6875 
L 18.109375 54.6875 
L 18.109375 46.390625 
Q 20.953125 51.265625 25.265625 53.625 
Q 29.59375 56 35.59375 56 
Q 45.5625 56 51.78125 48.09375 
Q 58.015625 40.1875 58.015625 27.296875 
Q 58.015625 14.40625 51.78125 6.484375 
Q 45.5625 -1.421875 35.59375 -1.421875 
Q 29.59375 -1.421875 25.265625 0.953125 
Q 20.953125 3.328125 18.109375 8.203125 
z
M 48.6875 27.296875 
Q 48.6875 37.203125 44.609375 42.84375 
Q 40.53125 48.484375 33.40625 48.484375 
Q 26.265625 48.484375 22.1875 42.84375 
Q 18.109375 37.203125 18.109375 27.296875 
Q 18.109375 17.390625 22.1875 11.75 
Q 26.265625 6.109375 33.40625 6.109375 
Q 40.53125 6.109375 44.609375 11.75 
Q 48.6875 17.390625 48.6875 27.296875 
z
" id="DejaVuSans-112"/>
      <path d="M 34.28125 27.484375 
Q 23.390625 27.484375 19.1875 25 
Q 14.984375 22.515625 14.984375 16.5 
Q 14.984375 11.71875 18.140625 8.90625 
Q 21.296875 6.109375 26.703125 6.109375 
Q 34.1875 6.109375 38.703125 11.40625 
Q 43.21875 16.703125 43.21875 25.484375 
L 43.21875 27.484375 
z
M 52.203125 31.203125 
L 52.203125 0 
L 43.21875 0 
L 43.21875 8.296875 
Q 40.140625 3.328125 35.546875 0.953125 
Q 30.953125 -1.421875 24.3125 -1.421875 
Q 15.921875 -1.421875 10.953125 3.296875 
Q 6 8.015625 6 15.921875 
Q 6 25.140625 12.171875 29.828125 
Q 18.359375 34.515625 30.609375 34.515625 
L 43.21875 34.515625 
L 43.21875 35.40625 
Q 43.21875 41.609375 39.140625 45 
Q 35.0625 48.390625 27.6875 48.390625 
Q 23 48.390625 18.546875 47.265625 
Q 14.109375 46.140625 10.015625 43.890625 
L 10.015625 52.203125 
Q 14.9375 54.109375 19.578125 55.046875 
Q 24.21875 56 28.609375 56 
Q 40.484375 56 46.34375 49.84375 
Q 52.203125 43.703125 52.203125 31.203125 
z
" id="DejaVuSans-97"/>
      <path d="M 72.703125 32.078125 
Q 68.453125 32.078125 66.03125 28.46875 
Q 63.625 24.859375 63.625 18.40625 
Q 63.625 12.0625 66.03125 8.421875 
Q 68.453125 4.78125 72.703125 4.78125 
Q 76.859375 4.78125 79.265625 8.421875 
Q 81.6875 12.0625 81.6875 18.40625 
Q 81.6875 24.8125 79.265625 28.4375 
Q 76.859375 32.078125 72.703125 32.078125 
z
M 72.703125 38.28125 
Q 80.421875 38.28125 84.953125 32.90625 
Q 89.5 27.546875 89.5 18.40625 
Q 89.5 9.28125 84.9375 3.921875 
Q 80.375 -1.421875 72.703125 -1.421875 
Q 64.890625 -1.421875 60.34375 3.921875 
Q 55.8125 9.28125 55.8125 18.40625 
Q 55.8125 27.59375 60.375 32.9375 
Q 64.9375 38.28125 72.703125 38.28125 
z
M 22.3125 68.015625 
Q 18.109375 68.015625 15.6875 64.375 
Q 13.28125 60.75 13.28125 54.390625 
Q 13.28125 47.953125 15.671875 44.328125 
Q 18.0625 40.71875 22.3125 40.71875 
Q 26.5625 40.71875 28.96875 44.328125 
Q 31.390625 47.953125 31.390625 54.390625 
Q 31.390625 60.6875 28.953125 64.34375 
Q 26.515625 68.015625 22.3125 68.015625 
z
M 66.40625 74.21875 
L 74.21875 74.21875 
L 28.609375 -1.421875 
L 20.796875 -1.421875 
z
M 22.3125 74.21875 
Q 30.03125 74.21875 34.609375 68.875 
Q 39.203125 63.53125 39.203125 54.390625 
Q 39.203125 45.171875 34.640625 39.84375 
Q 30.078125 34.515625 22.3125 34.515625 
Q 14.546875 34.515625 10.03125 39.859375 
Q 5.515625 45.21875 5.515625 54.390625 
Q 5.515625 63.484375 10.046875 68.84375 
Q 14.59375 74.21875 22.3125 74.21875 
z
" id="DejaVuSans-37"/>
     </defs>
     <g transform="translate(449.494303 214.115312)rotate(-90)scale(0.14 -0.14)">
      <use xlink:href="#DejaVuSans-114"/>
      <use x="41.082031" xlink:href="#DejaVuSans-233"/>
      <use x="102.605469" xlink:href="#DejaVuSans-112"/>
      <use x="166.082031" xlink:href="#DejaVuSans-97"/>
      <use x="227.361328" xlink:href="#DejaVuSans-114"/>
      <use x="268.474609" xlink:href="#DejaVuSans-116"/>
      <use x="307.683594" xlink:href="#DejaVuSans-105"/>
      <use x="335.466797" xlink:href="#DejaVuSans-116"/>
      <use x="374.675781" xlink:href="#DejaVuSans-105"/>
      <use x="402.458984" xlink:href="#DejaVuSans-111"/>
      <use x="463.640625" xlink:href="#DejaVuSans-110"/>
      <use x="527.019531" xlink:href="#DejaVuSans-32"/>
      <use x="558.806641" xlink:href="#DejaVuSans-91"/>
      <use x="597.820312" xlink:href="#DejaVuSans-37"/>
      <use x="692.839844" xlink:href="#DejaVuSans-93"/>
     </g>
    </g>
   </g>
   <g id="patch_59">
    <path d="M 482.493365 322.77226 
L 482.493365 3.00024 
" style="fill:none;stroke:#000000;stroke-linecap:square;stroke-linejoin:miter;stroke-width:0.8;"/>
   </g>
   <g id="patch_60">
    <path d="M 860.99976 322.77226 
L 860.99976 3.00024 
" style="fill:none;stroke:#000000;stroke-linecap:square;stroke-linejoin:miter;stroke-width:0.8;"/>
   </g>
   <g id="patch_61">
    <path d="M 482.493365 322.77226 
L 860.99976 322.77226 
" style="fill:none;stroke:#000000;stroke-linecap:square;stroke-linejoin:miter;stroke-width:0.8;"/>
   </g>
   <g id="patch_62">
    <path d="M 482.493365 3.00024 
L 860.99976 3.00024 
" style="fill:none;stroke:#000000;stroke-linecap:square;stroke-linejoin:miter;stroke-width:0.8;"/>
   </g>
   <g id="legend_2">
    <g id="patch_63">
     <path d="M 491.593365 316.27226 
L 720.815865 316.27226 
Q 723.415865 316.27226 723.415865 313.67226 
L 723.415865 218.49601 
Q 723.415865 215.89601 720.815865 215.89601 
L 491.593365 215.89601 
Q 488.993365 215.89601 488.993365 218.49601 
L 488.993365 313.67226 
Q 488.993365 316.27226 491.593365 316.27226 
z
" style="fill:#ffffff;opacity:0.8;stroke:#cccccc;stroke-linejoin:miter;"/>
    </g>
    <g id="patch_64">
     <path d="M 494.193365 231.043041 
L 520.193365 231.043041 
L 520.193365 221.943041 
L 494.193365 221.943041 
z
" style="fill:#d3d3d3;"/>
    </g>
    <g id="text_22">
     <!-- other -->
     <defs>
      <path d="M 30.078125 48.390625 
Q 23.25 48.390625 19.734375 43.0625 
Q 16.21875 37.75 16.21875 27.296875 
Q 16.21875 16.890625 19.734375 11.546875 
Q 23.25 6.203125 30.078125 6.203125 
Q 36.96875 6.203125 40.484375 11.546875 
Q 44 16.890625 44 27.296875 
Q 44 37.75 40.484375 43.0625 
Q 36.96875 48.390625 30.078125 48.390625 
z
M 30.078125 56 
Q 41.453125 56 47.484375 48.625 
Q 53.515625 41.265625 53.515625 27.296875 
Q 53.515625 13.28125 47.5 5.921875 
Q 41.5 -1.421875 30.078125 -1.421875 
Q 18.703125 -1.421875 12.6875 5.921875 
Q 6.6875 13.28125 6.6875 27.296875 
Q 6.6875 41.265625 12.6875 48.625 
Q 18.703125 56 30.078125 56 
z
" id="DejaVuSansMono-111"/>
      <path d="M 29.984375 70.21875 
L 29.984375 54.6875 
L 50.390625 54.6875 
L 50.390625 47.703125 
L 29.984375 47.703125 
L 29.984375 18.015625 
Q 29.984375 11.96875 32.28125 9.5625 
Q 34.578125 7.171875 40.28125 7.171875 
L 50.390625 7.171875 
L 50.390625 0 
L 39.40625 0 
Q 29.296875 0 25.140625 4.046875 
Q 21 8.109375 21 18.015625 
L 21 47.703125 
L 6.390625 47.703125 
L 6.390625 54.6875 
L 21 54.6875 
L 21 70.21875 
z
" id="DejaVuSansMono-116"/>
      <path d="M 51.3125 33.890625 
L 51.3125 0 
L 42.28125 0 
L 42.28125 33.890625 
Q 42.28125 41.265625 39.6875 44.71875 
Q 37.109375 48.1875 31.59375 48.1875 
Q 25.296875 48.1875 21.890625 43.71875 
Q 18.5 39.265625 18.5 30.90625 
L 18.5 0 
L 9.515625 0 
L 9.515625 75.984375 
L 18.5 75.984375 
L 18.5 46.484375 
Q 20.90625 51.171875 25 53.578125 
Q 29.109375 56 34.71875 56 
Q 43.0625 56 47.1875 50.5 
Q 51.3125 45.015625 51.3125 33.890625 
z
" id="DejaVuSansMono-104"/>
      <path d="M 54.296875 29.59375 
L 54.296875 25.203125 
L 15.375 25.203125 
L 15.375 24.90625 
Q 15.375 15.96875 20.03125 11.078125 
Q 24.703125 6.203125 33.203125 6.203125 
Q 37.5 6.203125 42.1875 7.5625 
Q 46.875 8.9375 52.203125 11.71875 
L 52.203125 2.78125 
Q 47.078125 0.6875 42.3125 -0.359375 
Q 37.546875 -1.421875 33.109375 -1.421875 
Q 20.359375 -1.421875 13.171875 6.21875 
Q 6 13.875 6 27.296875 
Q 6 40.375 13.03125 48.1875 
Q 20.0625 56 31.78125 56 
Q 42.234375 56 48.265625 48.921875 
Q 54.296875 41.84375 54.296875 29.59375 
z
M 45.3125 32.234375 
Q 45.125 40.140625 41.578125 44.265625 
Q 38.03125 48.390625 31.390625 48.390625 
Q 24.90625 48.390625 20.703125 44.09375 
Q 16.5 39.796875 15.71875 32.171875 
z
" id="DejaVuSansMono-101"/>
      <path d="M 56.390625 43.40625 
Q 53.515625 45.65625 50.53125 46.671875 
Q 47.5625 47.703125 44 47.703125 
Q 35.59375 47.703125 31.140625 42.421875 
Q 26.703125 37.15625 26.703125 27.203125 
L 26.703125 0 
L 17.671875 0 
L 17.671875 54.6875 
L 26.703125 54.6875 
L 26.703125 44 
Q 28.953125 49.8125 33.609375 52.90625 
Q 38.28125 56 44.671875 56 
Q 48 56 50.875 55.171875 
Q 53.765625 54.34375 56.390625 52.59375 
z
" id="DejaVuSansMono-114"/>
     </defs>
     <g transform="translate(530.593365 231.043041)scale(0.13 -0.13)">
      <use xlink:href="#DejaVuSansMono-111"/>
      <use x="60.205078" xlink:href="#DejaVuSansMono-116"/>
      <use x="120.410156" xlink:href="#DejaVuSansMono-104"/>
      <use x="180.615234" xlink:href="#DejaVuSansMono-101"/>
      <use x="240.820312" xlink:href="#DejaVuSansMono-114"/>
     </g>
    </g>
    <g id="patch_65">
     <path d="M 494.193365 250.193666 
L 520.193365 250.193666 
L 520.193365 241.093666 
L 494.193365 241.093666 
z
" style="fill:#1f77b4;"/>
    </g>
    <g id="text_23">
     <!-- torque -->
     <defs>
      <path d="M 16.21875 27.09375 
Q 16.21875 16.65625 19.5 11.328125 
Q 22.796875 6 29.296875 6 
Q 35.796875 6 39.140625 11.34375 
Q 42.484375 16.703125 42.484375 27.09375 
Q 42.484375 37.5 39.140625 42.84375 
Q 35.796875 48.1875 29.296875 48.1875 
Q 22.796875 48.1875 19.5 42.859375 
Q 16.21875 37.546875 16.21875 27.09375 
z
M 42.484375 6.78125 
Q 40.28125 2.734375 36.546875 0.5625 
Q 32.8125 -1.609375 27.875 -1.609375 
Q 18.0625 -1.609375 12.375 5.984375 
Q 6.6875 13.578125 6.6875 26.90625 
Q 6.6875 40.484375 12.34375 48.140625 
Q 18.015625 55.8125 27.875 55.8125 
Q 32.765625 55.8125 36.5 53.6875 
Q 40.234375 51.5625 42.484375 47.515625 
L 42.484375 54.5 
L 51.515625 54.5 
L 51.515625 -21 
L 42.484375 -21 
z
" id="DejaVuSansMono-113"/>
      <path d="M 9.515625 20.703125 
L 9.515625 54.59375 
L 18.5 54.59375 
L 18.5 20.703125 
Q 18.5 13.328125 21.109375 9.859375 
Q 23.734375 6.390625 29.203125 6.390625 
Q 35.546875 6.390625 38.90625 10.859375 
Q 42.28125 15.328125 42.28125 23.6875 
L 42.28125 54.59375 
L 51.3125 54.59375 
L 51.3125 0 
L 42.28125 0 
L 42.28125 8.203125 
Q 39.890625 3.46875 35.765625 1.015625 
Q 31.640625 -1.421875 26.125 -1.421875 
Q 17.71875 -1.421875 13.609375 4.078125 
Q 9.515625 9.578125 9.515625 20.703125 
z
" id="DejaVuSansMono-117"/>
     </defs>
     <g transform="translate(530.593365 250.193666)scale(0.13 -0.13)">
      <use xlink:href="#DejaVuSansMono-116"/>
      <use x="60.205078" xlink:href="#DejaVuSansMono-111"/>
      <use x="120.410156" xlink:href="#DejaVuSansMono-114"/>
      <use x="180.615234" xlink:href="#DejaVuSansMono-113"/>
      <use x="240.820312" xlink:href="#DejaVuSansMono-117"/>
      <use x="301.025391" xlink:href="#DejaVuSansMono-101"/>
     </g>
    </g>
    <g id="patch_66">
     <path d="M 494.193365 269.370698 
L 520.193365 269.370698 
L 520.193365 260.270697 
L 494.193365 260.270697 
z
" style="fill:#ff7f0e;"/>
    </g>
    <g id="text_24">
     <!-- remesh -->
     <defs>
      <path d="M 33.015625 49.125 
Q 34.671875 52.640625 37.234375 54.3125 
Q 39.796875 56 43.40625 56 
Q 50 56 52.703125 50.890625 
Q 55.421875 45.796875 55.421875 31.6875 
L 55.421875 0 
L 47.21875 0 
L 47.21875 31.296875 
Q 47.21875 42.875 45.921875 45.671875 
Q 44.625 48.484375 41.21875 48.484375 
Q 37.3125 48.484375 35.859375 45.484375 
Q 34.421875 42.484375 34.421875 31.296875 
L 34.421875 0 
L 26.21875 0 
L 26.21875 31.296875 
Q 26.21875 43.015625 24.828125 45.75 
Q 23.4375 48.484375 19.828125 48.484375 
Q 16.265625 48.484375 14.875 45.484375 
Q 13.484375 42.484375 13.484375 31.296875 
L 13.484375 0 
L 5.328125 0 
L 5.328125 54.6875 
L 13.484375 54.6875 
L 13.484375 50 
Q 15.09375 52.9375 17.5 54.46875 
Q 19.921875 56 23 56 
Q 26.703125 56 29.171875 54.296875 
Q 31.640625 52.59375 33.015625 49.125 
z
" id="DejaVuSansMono-109"/>
      <path d="M 47.515625 52.78125 
L 47.515625 44 
Q 43.65625 46.234375 39.75 47.359375 
Q 35.84375 48.484375 31.78125 48.484375 
Q 25.6875 48.484375 22.671875 46.5 
Q 19.671875 44.53125 19.671875 40.484375 
Q 19.671875 36.8125 21.921875 35 
Q 24.171875 33.203125 33.109375 31.5 
L 36.71875 30.8125 
Q 43.40625 29.546875 46.84375 25.734375 
Q 50.296875 21.921875 50.296875 15.828125 
Q 50.296875 7.71875 44.53125 3.140625 
Q 38.765625 -1.421875 28.515625 -1.421875 
Q 24.46875 -1.421875 20.015625 -0.5625 
Q 15.578125 0.296875 10.40625 2 
L 10.40625 11.28125 
Q 15.4375 8.6875 20.015625 7.390625 
Q 24.609375 6.109375 28.71875 6.109375 
Q 34.671875 6.109375 37.9375 8.515625 
Q 41.21875 10.9375 41.21875 15.28125 
Q 41.21875 21.53125 29.25 23.921875 
L 28.859375 24.03125 
L 25.484375 24.703125 
Q 17.71875 26.21875 14.15625 29.8125 
Q 10.59375 33.40625 10.59375 39.59375 
Q 10.59375 47.46875 15.90625 51.734375 
Q 21.234375 56 31.109375 56 
Q 35.5 56 39.546875 55.1875 
Q 43.609375 54.390625 47.515625 52.78125 
z
" id="DejaVuSansMono-115"/>
     </defs>
     <g transform="translate(530.593365 269.370698)scale(0.13 -0.13)">
      <use xlink:href="#DejaVuSansMono-114"/>
      <use x="60.205078" xlink:href="#DejaVuSansMono-101"/>
      <use x="120.410156" xlink:href="#DejaVuSansMono-109"/>
      <use x="180.615234" xlink:href="#DejaVuSansMono-101"/>
      <use x="240.820312" xlink:href="#DejaVuSansMono-115"/>
      <use x="301.025391" xlink:href="#DejaVuSansMono-104"/>
     </g>
    </g>
    <g id="patch_67">
     <path d="M 494.193365 288.521322 
L 520.193365 288.521322 
L 520.193365 279.421322 
L 494.193365 279.421322 
z
" style="fill:#d62728;"/>
    </g>
    <g id="text_25">
     <!-- renumber -->
     <defs>
      <path d="M 51.3125 33.890625 
L 51.3125 0 
L 42.28125 0 
L 42.28125 33.890625 
Q 42.28125 41.265625 39.6875 44.71875 
Q 37.109375 48.1875 31.59375 48.1875 
Q 25.296875 48.1875 21.890625 43.71875 
Q 18.5 39.265625 18.5 30.90625 
L 18.5 0 
L 9.515625 0 
L 9.515625 54.6875 
L 18.5 54.6875 
L 18.5 46.484375 
Q 20.90625 51.171875 25 53.578125 
Q 29.109375 56 34.71875 56 
Q 43.0625 56 47.1875 50.5 
Q 51.3125 45.015625 51.3125 33.890625 
z
" id="DejaVuSansMono-110"/>
      <path d="M 44.828125 27.296875 
Q 44.828125 37.75 41.5 43.0625 
Q 38.1875 48.390625 31.6875 48.390625 
Q 25.140625 48.390625 21.765625 43.046875 
Q 18.40625 37.703125 18.40625 27.296875 
Q 18.40625 16.9375 21.765625 11.5625 
Q 25.140625 6.203125 31.6875 6.203125 
Q 38.1875 6.203125 41.5 11.515625 
Q 44.828125 16.84375 44.828125 27.296875 
z
M 18.40625 47.703125 
Q 20.5625 51.703125 24.34375 53.84375 
Q 28.125 56 33.109375 56 
Q 42.96875 56 48.625 48.40625 
Q 54.296875 40.828125 54.296875 27.484375 
Q 54.296875 13.96875 48.609375 6.265625 
Q 42.921875 -1.421875 33.015625 -1.421875 
Q 28.125 -1.421875 24.390625 0.703125 
Q 20.65625 2.828125 18.40625 6.890625 
L 18.40625 0 
L 9.421875 0 
L 9.421875 75.984375 
L 18.40625 75.984375 
z
" id="DejaVuSansMono-98"/>
     </defs>
     <g transform="translate(530.593365 288.521322)scale(0.13 -0.13)">
      <use xlink:href="#DejaVuSansMono-114"/>
      <use x="60.205078" xlink:href="#DejaVuSansMono-101"/>
      <use x="120.410156" xlink:href="#DejaVuSansMono-110"/>
      <use x="180.615234" xlink:href="#DejaVuSansMono-117"/>
      <use x="240.820312" xlink:href="#DejaVuSansMono-109"/>
      <use x="301.025391" xlink:href="#DejaVuSansMono-98"/>
      <use x="361.230469" xlink:href="#DejaVuSansMono-101"/>
      <use x="421.435547" xlink:href="#DejaVuSansMono-114"/>
     </g>
    </g>
    <g id="patch_68">
     <path d="M 494.193365 307.671947 
L 520.193365 307.671947 
L 520.193365 298.571947 
L 494.193365 298.571947 
z
" style="fill:#365c8d;"/>
    </g>
    <g id="text_26">
     <!-- COO-&gt;CSR -->
     <defs>
      <path d="M 52.390625 2.59375 
Q 48.640625 0.59375 44.671875 -0.40625 
Q 40.71875 -1.421875 36.28125 -1.421875 
Q 22.265625 -1.421875 14.515625 8.484375 
Q 6.78125 18.40625 6.78125 36.375 
Q 6.78125 54.25 14.5625 64.234375 
Q 22.359375 74.21875 36.28125 74.21875 
Q 40.71875 74.21875 44.671875 73.21875 
Q 48.640625 72.21875 52.390625 70.21875 
L 52.390625 60.109375 
Q 48.78125 63.09375 44.625 64.65625 
Q 40.484375 66.21875 36.28125 66.21875 
Q 26.65625 66.21875 21.875 58.796875 
Q 17.09375 51.375 17.09375 36.375 
Q 17.09375 21.4375 21.875 14.015625 
Q 26.65625 6.59375 36.28125 6.59375 
Q 40.578125 6.59375 44.703125 8.15625 
Q 48.828125 9.71875 52.390625 12.703125 
z
" id="DejaVuSansMono-67"/>
      <path d="M 44.1875 36.375 
Q 44.1875 52.4375 40.890625 59.328125 
Q 37.59375 66.21875 30.078125 66.21875 
Q 22.609375 66.21875 19.3125 59.328125 
Q 16.015625 52.4375 16.015625 36.375 
Q 16.015625 20.359375 19.3125 13.46875 
Q 22.609375 6.59375 30.078125 6.59375 
Q 37.59375 6.59375 40.890625 13.453125 
Q 44.1875 20.3125 44.1875 36.375 
z
M 54.5 36.375 
Q 54.5 17.328125 48.46875 7.953125 
Q 42.4375 -1.421875 30.078125 -1.421875 
Q 17.71875 -1.421875 11.71875 7.90625 
Q 5.71875 17.234375 5.71875 36.375 
Q 5.71875 55.46875 11.75 64.84375 
Q 17.78125 74.21875 30.078125 74.21875 
Q 42.4375 74.21875 48.46875 64.84375 
Q 54.5 55.46875 54.5 36.375 
z
" id="DejaVuSansMono-79"/>
      <path d="M 17.390625 31.390625 
L 42.828125 31.390625 
L 42.828125 23.390625 
L 17.390625 23.390625 
z
" id="DejaVuSansMono-45"/>
      <path d="M 4.296875 46.921875 
L 4.296875 55.8125 
L 55.90625 35.40625 
L 55.90625 27.296875 
L 4.296875 6.890625 
L 4.296875 15.828125 
L 45.796875 31.296875 
z
" id="DejaVuSansMono-62"/>
      <path d="M 49.421875 70.40625 
L 49.421875 60.40625 
Q 44.921875 63.28125 40.40625 64.75 
Q 35.890625 66.21875 31.296875 66.21875 
Q 24.3125 66.21875 20.265625 62.96875 
Q 16.21875 59.71875 16.21875 54.203125 
Q 16.21875 49.359375 18.875 46.8125 
Q 21.53125 44.28125 28.8125 42.578125 
L 33.984375 41.40625 
Q 44.234375 39.015625 48.921875 33.890625 
Q 53.609375 28.765625 53.609375 19.921875 
Q 53.609375 9.515625 47.15625 4.046875 
Q 40.71875 -1.421875 28.421875 -1.421875 
Q 23.296875 -1.421875 18.109375 -0.3125 
Q 12.9375 0.78125 7.71875 2.984375 
L 7.71875 13.484375 
Q 13.328125 9.90625 18.328125 8.25 
Q 23.34375 6.59375 28.421875 6.59375 
Q 35.890625 6.59375 40.03125 9.9375 
Q 44.1875 13.28125 44.1875 19.28125 
Q 44.1875 24.75 41.328125 27.625 
Q 38.484375 30.515625 31.390625 32.078125 
L 26.125 33.296875 
Q 15.96875 35.59375 11.375 40.234375 
Q 6.78125 44.875 6.78125 52.6875 
Q 6.78125 62.453125 13.34375 68.328125 
Q 19.921875 74.21875 30.8125 74.21875 
Q 35.015625 74.21875 39.640625 73.265625 
Q 44.28125 72.3125 49.421875 70.40625 
z
" id="DejaVuSansMono-83"/>
      <path d="M 37.109375 34.421875 
Q 40.921875 33.453125 43.609375 30.734375 
Q 46.296875 28.03125 50.296875 19.921875 
L 60.203125 0 
L 49.609375 0 
L 40.921875 18.40625 
Q 37.15625 26.265625 34.15625 28.53125 
Q 31.15625 30.8125 26.3125 30.8125 
L 16.890625 30.8125 
L 16.890625 0 
L 6.984375 0 
L 6.984375 72.90625 
L 27.296875 72.90625 
Q 39.3125 72.90625 45.703125 67.484375 
Q 52.09375 62.0625 52.09375 51.8125 
Q 52.09375 44.578125 48.15625 40.015625 
Q 44.234375 35.453125 37.109375 34.421875 
z
M 16.890625 64.796875 
L 16.890625 38.921875 
L 27.6875 38.921875 
Q 34.765625 38.921875 38.234375 42.09375 
Q 41.703125 45.265625 41.703125 51.8125 
Q 41.703125 58.109375 38.015625 61.453125 
Q 34.328125 64.796875 27.296875 64.796875 
z
" id="DejaVuSansMono-82"/>
     </defs>
     <g transform="translate(530.593365 307.671947)scale(0.13 -0.13)">
      <use xlink:href="#DejaVuSansMono-67"/>
      <use x="60.205078" xlink:href="#DejaVuSansMono-79"/>
      <use x="120.410156" xlink:href="#DejaVuSansMono-79"/>
      <use x="180.615234" xlink:href="#DejaVuSansMono-45"/>
      <use x="240.820312" xlink:href="#DejaVuSansMono-62"/>
      <use x="301.025391" xlink:href="#DejaVuSansMono-67"/>
      <use x="361.230469" xlink:href="#DejaVuSansMono-83"/>
      <use x="421.435547" xlink:href="#DejaVuSansMono-82"/>
     </g>
    </g>
    <g id="patch_69">
     <path d="M 619.204615 231.043041 
L 645.204615 231.043041 
L 645.204615 221.943041 
L 619.204615 221.943041 
z
" style="fill:#277f8e;"/>
    </g>
    <g id="text_27">
     <!-- sort_COO -->
     <defs>
      <path d="M 60.203125 -19.671875 
L 60.203125 -23.578125 
L 0 -23.578125 
L 0 -19.671875 
z
" id="DejaVuSansMono-95"/>
     </defs>
     <g transform="translate(655.604615 231.043041)scale(0.13 -0.13)">
      <use xlink:href="#DejaVuSansMono-115"/>
      <use x="60.205078" xlink:href="#DejaVuSansMono-111"/>
      <use x="120.410156" xlink:href="#DejaVuSansMono-114"/>
      <use x="180.615234" xlink:href="#DejaVuSansMono-116"/>
      <use x="240.820312" xlink:href="#DejaVuSansMono-95"/>
      <use x="301.025391" xlink:href="#DejaVuSansMono-67"/>
      <use x="361.230469" xlink:href="#DejaVuSansMono-79"/>
      <use x="421.435547" xlink:href="#DejaVuSansMono-79"/>
     </g>
    </g>
    <g id="patch_70">
     <path d="M 619.204615 250.555229 
L 645.204615 250.555229 
L 645.204615 241.455229 
L 619.204615 241.455229 
z
" style="fill:#1fa187;"/>
    </g>
    <g id="text_28">
     <!-- assemble -->
     <defs>
      <path d="M 34.28125 27.484375 
L 31.296875 27.484375 
Q 23.4375 27.484375 19.453125 24.71875 
Q 15.484375 21.96875 15.484375 16.5 
Q 15.484375 11.578125 18.453125 8.84375 
Q 21.4375 6.109375 26.703125 6.109375 
Q 34.125 6.109375 38.375 11.25 
Q 42.625 16.40625 42.671875 25.484375 
L 42.671875 27.484375 
z
M 51.703125 31.203125 
L 51.703125 0 
L 42.671875 0 
L 42.671875 8.109375 
Q 39.796875 3.21875 35.421875 0.890625 
Q 31.0625 -1.421875 24.8125 -1.421875 
Q 16.453125 -1.421875 11.46875 3.296875 
Q 6.5 8.015625 6.5 15.921875 
Q 6.5 25.046875 12.625 29.78125 
Q 18.75 34.515625 30.609375 34.515625 
L 42.671875 34.515625 
L 42.671875 35.9375 
Q 42.625 42.484375 39.34375 45.4375 
Q 36.078125 48.390625 28.90625 48.390625 
Q 24.3125 48.390625 19.625 47.0625 
Q 14.9375 45.75 10.5 43.21875 
L 10.5 52.203125 
Q 15.484375 54.109375 20.046875 55.046875 
Q 24.609375 56 28.90625 56 
Q 35.6875 56 40.5 54 
Q 45.3125 52 48.296875 48 
Q 50.140625 45.5625 50.921875 41.96875 
Q 51.703125 38.375 51.703125 31.203125 
z
" id="DejaVuSansMono-97"/>
      <path d="M 31.203125 19.828125 
Q 31.203125 13.765625 33.421875 10.6875 
Q 35.640625 7.625 39.984375 7.625 
L 50.484375 7.625 
L 50.484375 0 
L 39.109375 0 
Q 31.0625 0 26.640625 5.171875 
Q 22.21875 10.359375 22.21875 19.828125 
L 22.21875 69.484375 
L 7.8125 69.484375 
L 7.8125 76.515625 
L 31.203125 76.515625 
z
" id="DejaVuSansMono-108"/>
     </defs>
     <g transform="translate(655.604615 250.555229)scale(0.13 -0.13)">
      <use xlink:href="#DejaVuSansMono-97"/>
      <use x="60.205078" xlink:href="#DejaVuSansMono-115"/>
      <use x="120.410156" xlink:href="#DejaVuSansMono-115"/>
      <use x="180.615234" xlink:href="#DejaVuSansMono-101"/>
      <use x="240.820312" xlink:href="#DejaVuSansMono-109"/>
      <use x="301.025391" xlink:href="#DejaVuSansMono-98"/>
      <use x="361.230469" xlink:href="#DejaVuSansMono-108"/>
      <use x="421.435547" xlink:href="#DejaVuSansMono-101"/>
     </g>
    </g>
    <g id="patch_71">
     <path d="M 619.204615 269.705854 
L 645.204615 269.705854 
L 645.204615 260.605854 
L 619.204615 260.605854 
z
" style="fill:#4ac16d;"/>
    </g>
    <g id="text_29">
     <!-- ILU(0) -->
     <defs>
      <path d="M 9.8125 72.90625 
L 50.296875 72.90625 
L 50.296875 64.59375 
L 35.015625 64.59375 
L 35.015625 8.296875 
L 50.296875 8.296875 
L 50.296875 0 
L 9.8125 0 
L 9.8125 8.296875 
L 25.09375 8.296875 
L 25.09375 64.59375 
L 9.8125 64.59375 
z
" id="DejaVuSansMono-73"/>
      <path d="M 10.5 72.90625 
L 20.40625 72.90625 
L 20.40625 8.296875 
L 55.609375 8.296875 
L 55.609375 0 
L 10.5 0 
z
" id="DejaVuSansMono-76"/>
      <path d="M 7.171875 27.984375 
L 7.171875 72.90625 
L 17.09375 72.90625 
L 17.09375 23.484375 
Q 17.09375 18.171875 17.375 15.890625 
Q 17.671875 13.625 18.40625 12.40625 
Q 19.96875 9.515625 22.921875 8.046875 
Q 25.875 6.59375 30.078125 6.59375 
Q 34.328125 6.59375 37.25 8.046875 
Q 40.1875 9.515625 41.796875 12.40625 
Q 42.53125 13.625 42.8125 15.859375 
Q 43.109375 18.109375 43.109375 23.390625 
L 43.109375 72.90625 
L 52.984375 72.90625 
L 52.984375 27.984375 
Q 52.984375 16.796875 51.59375 12.078125 
Q 50.203125 7.375 46.78125 4.296875 
Q 43.5625 1.421875 39.40625 0 
Q 35.25 -1.421875 30.078125 -1.421875 
Q 24.953125 -1.421875 20.796875 0 
Q 16.65625 1.421875 13.375 4.296875 
Q 10.015625 7.328125 8.59375 12.125 
Q 7.171875 16.9375 7.171875 27.984375 
z
" id="DejaVuSansMono-85"/>
      <path d="M 43.21875 75.875 
Q 36.71875 64.75 33.515625 53.6875 
Q 30.328125 42.625 30.328125 31.390625 
Q 30.328125 20.21875 33.515625 9.125 
Q 36.71875 -1.953125 43.21875 -13.1875 
L 35.40625 -13.1875 
Q 28.03125 -1.5625 24.40625 9.4375 
Q 20.796875 20.453125 20.796875 31.390625 
Q 20.796875 42.28125 24.40625 53.3125 
Q 28.03125 64.359375 35.40625 75.875 
z
" id="DejaVuSansMono-40"/>
      <path d="M 23.578125 36.625 
Q 23.578125 39.3125 25.453125 41.265625 
Q 27.34375 43.21875 29.984375 43.21875 
Q 32.71875 43.21875 34.671875 41.265625 
Q 36.625 39.3125 36.625 36.625 
Q 36.625 33.890625 34.6875 31.984375 
Q 32.765625 30.078125 29.984375 30.078125 
Q 27.25 30.078125 25.40625 31.9375 
Q 23.578125 33.796875 23.578125 36.625 
z
M 30.078125 66.40625 
Q 23.1875 66.40625 19.796875 58.984375 
Q 16.40625 51.5625 16.40625 36.375 
Q 16.40625 21.234375 19.796875 13.8125 
Q 23.1875 6.390625 30.078125 6.390625 
Q 37.015625 6.390625 40.40625 13.8125 
Q 43.796875 21.234375 43.796875 36.375 
Q 43.796875 51.5625 40.40625 58.984375 
Q 37.015625 66.40625 30.078125 66.40625 
z
M 30.078125 74.21875 
Q 41.75 74.21875 47.734375 64.640625 
Q 53.71875 55.078125 53.71875 36.375 
Q 53.71875 17.71875 47.734375 8.140625 
Q 41.75 -1.421875 30.078125 -1.421875 
Q 18.40625 -1.421875 12.453125 8.140625 
Q 6.5 17.71875 6.5 36.375 
Q 6.5 55.078125 12.453125 64.640625 
Q 18.40625 74.21875 30.078125 74.21875 
z
" id="DejaVuSansMono-48"/>
      <path d="M 17 75.875 
L 24.8125 75.875 
Q 32.171875 64.359375 35.78125 53.3125 
Q 39.40625 42.28125 39.40625 31.390625 
Q 39.40625 20.40625 35.78125 9.375 
Q 32.171875 -1.65625 24.8125 -13.1875 
L 17 -13.1875 
Q 23.484375 -1.859375 26.6875 9.21875 
Q 29.890625 20.3125 29.890625 31.390625 
Q 29.890625 42.53125 26.6875 53.609375 
Q 23.484375 64.703125 17 75.875 
z
" id="DejaVuSansMono-41"/>
     </defs>
     <g transform="translate(655.604615 269.705854)scale(0.13 -0.13)">
      <use xlink:href="#DejaVuSansMono-73"/>
      <use x="60.205078" xlink:href="#DejaVuSansMono-76"/>
      <use x="120.410156" xlink:href="#DejaVuSansMono-85"/>
      <use x="180.615234" xlink:href="#DejaVuSansMono-40"/>
      <use x="240.820312" xlink:href="#DejaVuSansMono-48"/>
      <use x="301.025391" xlink:href="#DejaVuSansMono-41"/>
     </g>
    </g>
    <g id="patch_72">
     <path d="M 619.204615 288.856479 
L 645.204615 288.856479 
L 645.204615 279.756479 
L 619.204615 279.756479 
z
" style="fill:#a0da39;"/>
    </g>
    <g id="text_30">
     <!-- solve -->
     <defs>
      <path d="M 4.890625 54.6875 
L 14.203125 54.6875 
L 30.078125 8.796875 
L 46 54.6875 
L 55.328125 54.6875 
L 35.890625 0 
L 24.3125 0 
z
" id="DejaVuSansMono-118"/>
     </defs>
     <g transform="translate(655.604615 288.856479)scale(0.13 -0.13)">
      <use xlink:href="#DejaVuSansMono-115"/>
      <use x="60.205078" xlink:href="#DejaVuSansMono-111"/>
      <use x="120.410156" xlink:href="#DejaVuSansMono-108"/>
      <use x="180.615234" xlink:href="#DejaVuSansMono-118"/>
      <use x="240.820312" xlink:href="#DejaVuSansMono-101"/>
     </g>
    </g>
    <g id="patch_73">
     <path d="M 619.204615 308.007104 
L 645.204615 308.007104 
L 645.204615 298.907104 
L 619.204615 298.907104 
z
" style="fill:#fde725;"/>
    </g>
    <g id="text_31">
     <!-- A * d_k -->
     <defs>
      <path d="M 30.078125 64.203125 
L 19.671875 26.90625 
L 40.484375 26.90625 
z
M 24.125 72.90625 
L 36.078125 72.90625 
L 58.40625 0 
L 48.1875 0 
L 42.828125 19 
L 17.28125 19 
L 12.015625 0 
L 1.8125 0 
z
" id="DejaVuSansMono-65"/>
      <path id="DejaVuSansMono-32"/>
      <path d="M 52.09375 60.890625 
L 34.625 51.421875 
L 52.09375 41.890625 
L 49.3125 37.109375 
L 32.90625 47.015625 
L 32.90625 28.609375 
L 27.296875 28.609375 
L 27.296875 47.015625 
L 10.890625 37.109375 
L 8.109375 41.890625 
L 25.59375 51.421875 
L 8.109375 60.890625 
L 10.890625 65.71875 
L 27.296875 55.8125 
L 27.296875 74.21875 
L 32.90625 74.21875 
L 32.90625 55.8125 
L 49.3125 65.71875 
z
" id="DejaVuSansMono-42"/>
      <path d="M 41.890625 47.703125 
L 41.890625 75.984375 
L 50.875 75.984375 
L 50.875 0 
L 41.890625 0 
L 41.890625 6.890625 
Q 39.65625 2.828125 35.90625 0.703125 
Q 32.171875 -1.421875 27.296875 -1.421875 
Q 17.390625 -1.421875 11.6875 6.265625 
Q 6 13.96875 6 27.484375 
Q 6 40.828125 11.71875 48.40625 
Q 17.4375 56 27.296875 56 
Q 32.234375 56 35.984375 53.875 
Q 39.75 51.765625 41.890625 47.703125 
z
M 15.484375 27.296875 
Q 15.484375 16.84375 18.796875 11.515625 
Q 22.125 6.203125 28.609375 6.203125 
Q 35.109375 6.203125 38.5 11.5625 
Q 41.890625 16.9375 41.890625 27.296875 
Q 41.890625 37.703125 38.5 43.046875 
Q 35.109375 48.390625 28.609375 48.390625 
Q 22.125 48.390625 18.796875 43.0625 
Q 15.484375 37.75 15.484375 27.296875 
z
" id="DejaVuSansMono-100"/>
      <path d="M 11.53125 75.984375 
L 20.796875 75.984375 
L 20.796875 31.984375 
L 44.390625 54.6875 
L 55.328125 54.6875 
L 33.796875 34.078125 
L 58.6875 0 
L 47.703125 0 
L 27.484375 28.21875 
L 20.796875 21.921875 
L 20.796875 0 
L 11.53125 0 
z
" id="DejaVuSansMono-107"/>
     </defs>
     <g transform="translate(655.604615 308.007104)scale(0.13 -0.13)">
      <use xlink:href="#DejaVuSansMono-65"/>
      <use x="60.205078" xlink:href="#DejaVuSansMono-32"/>
      <use x="120.410156" xlink:href="#DejaVuSansMono-42"/>
      <use x="180.615234" xlink:href="#DejaVuSansMono-32"/>
      <use x="240.820312" xlink:href="#DejaVuSansMono-100"/>
      <use x="301.025391" xlink:href="#DejaVuSansMono-95"/>
      <use x="361.230469" xlink:href="#DejaVuSansMono-107"/>
     </g>
    </g>
   </g>
  </g>
 </g>
 <defs>
  <clipPath id="p2f97d4dcd1">
   <rect height="319.77202" width="378.506395" x="45.149615" y="3.00024"/>
  </clipPath>
  <clipPath id="p99858456a0">
   <rect height="319.77202" width="378.506395" x="482.493365" y="3.00024"/>
  </clipPath>
 </defs>
</svg>
