<?xml version="1.0" encoding="utf-8" standalone="no"?>
<!DOCTYPE svg PUBLIC "-//W3C//DTD SVG 1.1//EN"
  "http://www.w3.org/Graphics/SVG/1.1/DTD/svg11.dtd">
<!-- Created with matplotlib (https://matplotlib.org/) -->
<svg height="468pt" version="1.1" viewBox="0 0 720 468" width="720pt" xmlns="http://www.w3.org/2000/svg" xmlns:xlink="http://www.w3.org/1999/xlink">
 <defs>
  <style type="text/css">
*{stroke-linecap:butt;stroke-linejoin:round;}
  </style>
 </defs>
 <g id="figure_1">
  <g id="patch_1">
   <path d="M 0 468 
L 720 468 
L 720 0 
L 0 0 
z
" style="fill:#ffffff;"/>
  </g>
  <g id="axes_1">
   <g id="patch_2">
    <path d="M 48.52399 203.06851 
L 716.99976 203.06851 
L 716.99976 3.00024 
L 48.52399 3.00024 
z
" style="fill:#ffffff;"/>
   </g>
   <g id="matplotlib.axis_1">
    <g id="xtick_1">
     <g id="line2d_1">
      <path clip-path="url(#p067014b39e)" d="M 293.287511 203.06851 
L 293.287511 3.00024 
" style="fill:none;stroke:#b0b0b0;stroke-dasharray:0.8,1.32;stroke-dashoffset:0;stroke-width:0.8;"/>
     </g>
     <g id="line2d_2">
      <defs>
       <path d="M 0 0 
L 0 3.5 
" id="m15c3b01372" style="stroke:#000000;stroke-width:0.8;"/>
      </defs>
      <g>
       <use style="stroke:#000000;stroke-width:0.8;" x="293.287511" xlink:href="#m15c3b01372" y="203.06851"/>
      </g>
     </g>
     <g id="text_1">
      <!-- $\mathdefault{10^{0}}$ -->
      <defs>
       <path d="M 13.1875 8.296875 
L 28.515625 8.296875 
L 28.515625 64.015625 
L 12.015625 60.296875 
L 12.015625 69.28125 
L 28.421875 72.90625 
L 38.28125 72.90625 
L 38.28125 8.296875 
L 53.421875 8.296875 
L 53.421875 0 
L 13.1875 0 
z
" id="DejaVuSansMono-49"/>
       <path d="M 23.578125 36.625 
Q 23.578125 39.3125 25.453125 41.265625 
Q 27.34375 43.21875 29.984375 43.21875 
Q 32.71875 43.21875 34.671875 41.265625 
Q 36.625 39.3125 36.625 36.625 
Q 36.625 33.890625 34.6875 31.984375 
Q 32.765625 30.078125 29.984375 30.078125 
Q 27.25 30.078125 25.40625 31.9375 
Q 23.578125 33.796875 23.578125 36.625 
z
M 30.078125 66.40625 
Q 23.1875 66.40625 19.796875 58.984375 
Q 16.40625 51.5625 16.40625 36.375 
Q 16.40625 21.234375 19.796875 13.8125 
Q 23.1875 6.390625 30.078125 6.390625 
Q 37.015625 6.390625 40.40625 13.8125 
Q 43.796875 21.234375 43.796875 36.375 
Q 43.796875 51.5625 40.40625 58.984375 
Q 37.015625 66.40625 30.078125 66.40625 
z
M 30.078125 74.21875 
Q 41.75 74.21875 47.734375 64.640625 
Q 53.71875 55.078125 53.71875 36.375 
Q 53.71875 17.71875 47.734375 8.140625 
Q 41.75 -1.421875 30.078125 -1.421875 
Q 18.40625 -1.421875 12.453125 8.140625 
Q 6.5 17.71875 6.5 36.375 
Q 6.5 55.078125 12.453125 64.640625 
Q 18.40625 74.21875 30.078125 74.21875 
z
" id="DejaVuSansMono-48"/>
      </defs>
      <g transform="translate(284.937511 217.720073)scale(0.1 -0.1)">
       <use transform="translate(0 0.765625)" xlink:href="#DejaVuSansMono-49"/>
       <use transform="translate(60.205078 0.765625)" xlink:href="#DejaVuSansMono-48"/>
       <use transform="translate(121.367188 39.046875)scale(0.7)" xlink:href="#DejaVuSansMono-48"/>
      </g>
     </g>
    </g>
    <g id="xtick_2">
     <g id="line2d_3">
      <path clip-path="url(#p067014b39e)" d="M 54.995176 203.06851 
L 54.995176 3.00024 
" style="fill:none;stroke:#b0b0b0;stroke-dasharray:0.8,1.32;stroke-dashoffset:0;stroke-width:0.8;"/>
     </g>
     <g id="line2d_4">
      <defs>
       <path d="M 0 0 
L 0 2 
" id="mcb6bbb0eda" style="stroke:#000000;stroke-width:0.6;"/>
      </defs>
      <g>
       <use style="stroke:#000000;stroke-width:0.6;" x="54.995176" xlink:href="#mcb6bbb0eda" y="203.06851"/>
      </g>
     </g>
    </g>
    <g id="xtick_3">
     <g id="line2d_5">
      <path clip-path="url(#p067014b39e)" d="M 117.674259 203.06851 
L 117.674259 3.00024 
" style="fill:none;stroke:#b0b0b0;stroke-dasharray:0.8,1.32;stroke-dashoffset:0;stroke-width:0.8;"/>
     </g>
     <g id="line2d_6">
      <g>
       <use style="stroke:#000000;stroke-width:0.6;" x="117.674259" xlink:href="#mcb6bbb0eda" y="203.06851"/>
      </g>
     </g>
     <g id="text_2">
      <!-- $\mathdefault{6\times10^{-1}}$ -->
      <defs>
       <path d="M 48.390625 71.296875 
L 48.390625 62.203125 
Q 45.3125 64.015625 41.84375 64.96875 
Q 38.375 65.921875 34.625 65.921875 
Q 25.25 65.921875 20.40625 58.859375 
Q 15.578125 51.8125 15.578125 38.09375 
Q 17.921875 42.96875 22.0625 45.578125 
Q 26.21875 48.1875 31.59375 48.1875 
Q 42.140625 48.1875 47.921875 41.71875 
Q 53.71875 35.25 53.71875 23.390625 
Q 53.71875 11.578125 47.75 5.078125 
Q 41.796875 -1.421875 31 -1.421875 
Q 18.3125 -1.421875 12.40625 7.6875 
Q 6.5 16.796875 6.5 36.375 
Q 6.5 54.828125 13.59375 64.515625 
Q 20.703125 74.21875 34.1875 74.21875 
Q 37.796875 74.21875 41.40625 73.453125 
Q 45.015625 72.703125 48.390625 71.296875 
z
M 30.8125 40.484375 
Q 24.515625 40.484375 20.890625 35.9375 
Q 17.28125 31.390625 17.28125 23.390625 
Q 17.28125 15.375 20.890625 10.828125 
Q 24.515625 6.296875 30.8125 6.296875 
Q 37.359375 6.296875 40.671875 10.609375 
Q 44 14.9375 44 23.390625 
Q 44 31.890625 40.671875 36.1875 
Q 37.359375 40.484375 30.8125 40.484375 
z
" id="DejaVuSansMono-54"/>
       <path d="M 7.328125 14.3125 
L 24.421875 31.296875 
L 7.328125 48.390625 
L 12.984375 54.109375 
L 30.078125 37.015625 
L 47.21875 54.109375 
L 52.875 48.390625 
L 35.796875 31.296875 
L 52.78125 14.3125 
L 47.125 8.5 
L 30.078125 25.59375 
L 13.09375 8.5 
z
" id="DejaVuSansMono-215"/>
       <path d="M 4.296875 35.5 
L 55.90625 35.5 
L 55.90625 27.203125 
L 4.296875 27.203125 
z
" id="DejaVuSansMono-8722"/>
      </defs>
      <g transform="translate(100.024259 216.120073)scale(0.1 -0.1)">
       <use transform="translate(0 0.684375)" xlink:href="#DejaVuSansMono-54"/>
       <use transform="translate(72.246094 0.684375)" xlink:href="#DejaVuSansMono-215"/>
       <use transform="translate(144.492188 0.684375)" xlink:href="#DejaVuSansMono-49"/>
       <use transform="translate(204.697266 0.684375)" xlink:href="#DejaVuSansMono-48"/>
       <use transform="translate(265.859375 38.965625)scale(0.7)" xlink:href="#DejaVuSansMono-8722"/>
       <use transform="translate(308.00293 38.965625)scale(0.7)" xlink:href="#DejaVuSansMono-49"/>
      </g>
     </g>
    </g>
    <g id="xtick_4">
     <g id="line2d_7">
      <path clip-path="url(#p067014b39e)" d="M 170.668668 203.06851 
L 170.668668 3.00024 
" style="fill:none;stroke:#b0b0b0;stroke-dasharray:0.8,1.32;stroke-dashoffset:0;stroke-width:0.8;"/>
     </g>
     <g id="line2d_8">
      <g>
       <use style="stroke:#000000;stroke-width:0.6;" x="170.668668" xlink:href="#mcb6bbb0eda" y="203.06851"/>
      </g>
     </g>
    </g>
    <g id="xtick_5">
     <g id="line2d_9">
      <path clip-path="url(#p067014b39e)" d="M 216.574514 203.06851 
L 216.574514 3.00024 
" style="fill:none;stroke:#b0b0b0;stroke-dasharray:0.8,1.32;stroke-dashoffset:0;stroke-width:0.8;"/>
     </g>
     <g id="line2d_10">
      <g>
       <use style="stroke:#000000;stroke-width:0.6;" x="216.574514" xlink:href="#mcb6bbb0eda" y="203.06851"/>
      </g>
     </g>
    </g>
    <g id="xtick_6">
     <g id="line2d_11">
      <path clip-path="url(#p067014b39e)" d="M 257.066339 203.06851 
L 257.066339 3.00024 
" style="fill:none;stroke:#b0b0b0;stroke-dasharray:0.8,1.32;stroke-dashoffset:0;stroke-width:0.8;"/>
     </g>
     <g id="line2d_12">
      <g>
       <use style="stroke:#000000;stroke-width:0.6;" x="257.066339" xlink:href="#mcb6bbb0eda" y="203.06851"/>
      </g>
     </g>
    </g>
    <g id="xtick_7">
     <g id="line2d_13">
      <path clip-path="url(#p067014b39e)" d="M 531.579847 203.06851 
L 531.579847 3.00024 
" style="fill:none;stroke:#b0b0b0;stroke-dasharray:0.8,1.32;stroke-dashoffset:0;stroke-width:0.8;"/>
     </g>
     <g id="line2d_14">
      <g>
       <use style="stroke:#000000;stroke-width:0.6;" x="531.579847" xlink:href="#mcb6bbb0eda" y="203.06851"/>
      </g>
     </g>
     <g id="text_3">
      <!-- $\mathdefault{2\times10^{0}}$ -->
      <defs>
       <path d="M 18.21875 8.296875 
L 51.703125 8.296875 
L 51.703125 0 
L 7.421875 0 
L 7.421875 8.296875 
Q 16.546875 17.921875 23.375 25.296875 
Q 30.21875 32.671875 32.8125 35.6875 
Q 37.703125 41.65625 39.40625 45.34375 
Q 41.109375 49.03125 41.109375 52.875 
Q 41.109375 58.984375 37.515625 62.453125 
Q 33.9375 65.921875 27.6875 65.921875 
Q 23.25 65.921875 18.359375 64.3125 
Q 13.484375 62.703125 8.015625 59.421875 
L 8.015625 69.390625 
Q 13.03125 71.78125 17.890625 73 
Q 22.75 74.21875 27.484375 74.21875 
Q 38.1875 74.21875 44.703125 68.53125 
Q 51.21875 62.84375 51.21875 53.609375 
Q 51.21875 48.921875 49.046875 44.234375 
Q 46.875 39.546875 42 33.890625 
Q 39.265625 30.71875 34.0625 25.09375 
Q 28.859375 19.484375 18.21875 8.296875 
z
" id="DejaVuSansMono-50"/>
      </defs>
      <g transform="translate(516.029847 216.120073)scale(0.1 -0.1)">
       <use transform="translate(0 0.765625)" xlink:href="#DejaVuSansMono-50"/>
       <use transform="translate(72.246094 0.765625)" xlink:href="#DejaVuSansMono-215"/>
       <use transform="translate(144.492188 0.765625)" xlink:href="#DejaVuSansMono-49"/>
       <use transform="translate(204.697266 0.765625)" xlink:href="#DejaVuSansMono-48"/>
       <use transform="translate(265.859375 39.046875)scale(0.7)" xlink:href="#DejaVuSansMono-48"/>
      </g>
     </g>
    </g>
    <g id="xtick_8">
     <g id="line2d_15">
      <path clip-path="url(#p067014b39e)" d="M 670.971927 203.06851 
L 670.971927 3.00024 
" style="fill:none;stroke:#b0b0b0;stroke-dasharray:0.8,1.32;stroke-dashoffset:0;stroke-width:0.8;"/>
     </g>
     <g id="line2d_16">
      <g>
       <use style="stroke:#000000;stroke-width:0.6;" x="670.971927" xlink:href="#mcb6bbb0eda" y="203.06851"/>
      </g>
     </g>
     <g id="text_4">
      <!-- $\mathdefault{3\times10^{0}}$ -->
      <defs>
       <path d="M 37.890625 39.015625 
Q 45.0625 37.109375 48.875 32.25 
Q 52.6875 27.390625 52.6875 20.125 
Q 52.6875 10.0625 45.921875 4.3125 
Q 39.15625 -1.421875 27.203125 -1.421875 
Q 22.171875 -1.421875 16.9375 -0.484375 
Q 11.71875 0.4375 6.6875 2.203125 
L 6.6875 12.015625 
Q 11.671875 9.421875 16.5 8.15625 
Q 21.34375 6.890625 26.125 6.890625 
Q 34.234375 6.890625 38.578125 10.546875 
Q 42.921875 14.203125 42.921875 21.09375 
Q 42.921875 27.4375 38.578125 31.171875 
Q 34.234375 34.90625 26.8125 34.90625 
L 19.28125 34.90625 
L 19.28125 43.015625 
L 26.8125 43.015625 
Q 33.59375 43.015625 37.40625 45.984375 
Q 41.21875 48.96875 41.21875 54.296875 
Q 41.21875 59.90625 37.671875 62.90625 
Q 34.125 65.921875 27.59375 65.921875 
Q 23.25 65.921875 18.609375 64.9375 
Q 13.96875 63.96875 8.890625 62.015625 
L 8.890625 71.09375 
Q 14.796875 72.65625 19.40625 73.4375 
Q 24.03125 74.21875 27.59375 74.21875 
Q 38.234375 74.21875 44.609375 68.875 
Q 50.984375 63.53125 50.984375 54.6875 
Q 50.984375 48.6875 47.625 44.671875 
Q 44.28125 40.671875 37.890625 39.015625 
z
" id="DejaVuSansMono-51"/>
      </defs>
      <g transform="translate(655.421927 216.120073)scale(0.1 -0.1)">
       <use transform="translate(0 0.765625)" xlink:href="#DejaVuSansMono-51"/>
       <use transform="translate(72.246094 0.765625)" xlink:href="#DejaVuSansMono-215"/>
       <use transform="translate(144.492188 0.765625)" xlink:href="#DejaVuSansMono-49"/>
       <use transform="translate(204.697266 0.765625)" xlink:href="#DejaVuSansMono-48"/>
       <use transform="translate(265.859375 39.046875)scale(0.7)" xlink:href="#DejaVuSansMono-48"/>
      </g>
     </g>
    </g>
   </g>
   <g id="matplotlib.axis_2">
    <g id="ytick_1">
     <g id="line2d_17">
      <path clip-path="url(#p067014b39e)" d="M 48.52399 175.312666 
L 716.99976 175.312666 
" style="fill:none;stroke:#b0b0b0;stroke-dasharray:0.8,1.32;stroke-dashoffset:0;stroke-width:0.8;"/>
     </g>
     <g id="line2d_18">
      <defs>
       <path d="M 0 0 
L -3.5 0 
" id="m96322001a5" style="stroke:#000000;stroke-width:0.8;"/>
      </defs>
      <g>
       <use style="stroke:#000000;stroke-width:0.8;" x="48.52399" xlink:href="#m96322001a5" y="175.312666"/>
      </g>
     </g>
     <g id="text_5">
      <!-- $\mathdefault{10^{-6}}$ -->
      <g transform="translate(20.62399 179.138447)scale(0.1 -0.1)">
       <use transform="translate(0 0.765625)" xlink:href="#DejaVuSansMono-49"/>
       <use transform="translate(60.205078 0.765625)" xlink:href="#DejaVuSansMono-48"/>
       <use transform="translate(121.367188 39.046875)scale(0.7)" xlink:href="#DejaVuSansMono-8722"/>
       <use transform="translate(163.510742 39.046875)scale(0.7)" xlink:href="#DejaVuSansMono-54"/>
      </g>
     </g>
    </g>
    <g id="ytick_2">
     <g id="line2d_19">
      <path clip-path="url(#p067014b39e)" d="M 48.52399 69.398934 
L 716.99976 69.398934 
" style="fill:none;stroke:#b0b0b0;stroke-dasharray:0.8,1.32;stroke-dashoffset:0;stroke-width:0.8;"/>
     </g>
     <g id="line2d_20">
      <g>
       <use style="stroke:#000000;stroke-width:0.8;" x="48.52399" xlink:href="#m96322001a5" y="69.398934"/>
      </g>
     </g>
     <g id="text_6">
      <!-- $\mathdefault{10^{-5}}$ -->
      <defs>
       <path d="M 10.109375 72.90625 
L 47.015625 72.90625 
L 47.015625 64.59375 
L 19.09375 64.59375 
L 19.09375 46.6875 
Q 21.1875 47.46875 23.3125 47.828125 
Q 25.4375 48.1875 27.59375 48.1875 
Q 38.921875 48.1875 45.5625 41.5 
Q 52.203125 34.8125 52.203125 23.390625 
Q 52.203125 11.859375 45.234375 5.21875 
Q 38.28125 -1.421875 26.21875 -1.421875 
Q 20.40625 -1.421875 15.59375 -0.640625 
Q 10.796875 0.140625 6.984375 1.703125 
L 6.984375 11.71875 
Q 11.46875 9.28125 16.015625 8.078125 
Q 20.5625 6.890625 25.296875 6.890625 
Q 33.453125 6.890625 37.859375 11.1875 
Q 42.28125 15.484375 42.28125 23.390625 
Q 42.28125 31.203125 37.71875 35.546875 
Q 33.15625 39.890625 25 39.890625 
Q 21.046875 39.890625 17.28125 38.984375 
Q 13.53125 38.09375 10.109375 36.28125 
z
" id="DejaVuSansMono-53"/>
      </defs>
      <g transform="translate(20.62399 73.224715)scale(0.1 -0.1)">
       <use transform="translate(0 0.684375)" xlink:href="#DejaVuSansMono-49"/>
       <use transform="translate(60.205078 0.684375)" xlink:href="#DejaVuSansMono-48"/>
       <use transform="translate(121.367188 38.965625)scale(0.7)" xlink:href="#DejaVuSansMono-8722"/>
       <use transform="translate(163.510742 38.965625)scale(0.7)" xlink:href="#DejaVuSansMono-53"/>
      </g>
     </g>
    </g>
    <g id="ytick_3">
     <g id="line2d_21">
      <path clip-path="url(#p067014b39e)" d="M 48.52399 198.809495 
L 716.99976 198.809495 
" style="fill:none;stroke:#b0b0b0;stroke-dasharray:0.8,1.32;stroke-dashoffset:0;stroke-width:0.8;"/>
     </g>
     <g id="line2d_22">
      <defs>
       <path d="M 0 0 
L -2 0 
" id="mcbbe6aa0cf" style="stroke:#000000;stroke-width:0.6;"/>
      </defs>
      <g>
       <use style="stroke:#000000;stroke-width:0.6;" x="48.52399" xlink:href="#mcbbe6aa0cf" y="198.809495"/>
      </g>
     </g>
    </g>
    <g id="ytick_4">
     <g id="line2d_23">
      <path clip-path="url(#p067014b39e)" d="M 48.52399 191.718911 
L 716.99976 191.718911 
" style="fill:none;stroke:#b0b0b0;stroke-dasharray:0.8,1.32;stroke-dashoffset:0;stroke-width:0.8;"/>
     </g>
     <g id="line2d_24">
      <g>
       <use style="stroke:#000000;stroke-width:0.6;" x="48.52399" xlink:href="#mcbbe6aa0cf" y="191.718911"/>
      </g>
     </g>
    </g>
    <g id="ytick_5">
     <g id="line2d_25">
      <path clip-path="url(#p067014b39e)" d="M 48.52399 185.576767 
L 716.99976 185.576767 
" style="fill:none;stroke:#b0b0b0;stroke-dasharray:0.8,1.32;stroke-dashoffset:0;stroke-width:0.8;"/>
     </g>
     <g id="line2d_26">
      <g>
       <use style="stroke:#000000;stroke-width:0.6;" x="48.52399" xlink:href="#mcbbe6aa0cf" y="185.576767"/>
      </g>
     </g>
    </g>
    <g id="ytick_6">
     <g id="line2d_27">
      <path clip-path="url(#p067014b39e)" d="M 48.52399 180.159013 
L 716.99976 180.159013 
" style="fill:none;stroke:#b0b0b0;stroke-dasharray:0.8,1.32;stroke-dashoffset:0;stroke-width:0.8;"/>
     </g>
     <g id="line2d_28">
      <g>
       <use style="stroke:#000000;stroke-width:0.6;" x="48.52399" xlink:href="#mcbbe6aa0cf" y="180.159013"/>
      </g>
     </g>
    </g>
    <g id="ytick_7">
     <g id="line2d_29">
      <path clip-path="url(#p067014b39e)" d="M 48.52399 143.429456 
L 716.99976 143.429456 
" style="fill:none;stroke:#b0b0b0;stroke-dasharray:0.8,1.32;stroke-dashoffset:0;stroke-width:0.8;"/>
     </g>
     <g id="line2d_30">
      <g>
       <use style="stroke:#000000;stroke-width:0.6;" x="48.52399" xlink:href="#mcbbe6aa0cf" y="143.429456"/>
      </g>
     </g>
    </g>
    <g id="ytick_8">
     <g id="line2d_31">
      <path clip-path="url(#p067014b39e)" d="M 48.52399 124.778973 
L 716.99976 124.778973 
" style="fill:none;stroke:#b0b0b0;stroke-dasharray:0.8,1.32;stroke-dashoffset:0;stroke-width:0.8;"/>
     </g>
     <g id="line2d_32">
      <g>
       <use style="stroke:#000000;stroke-width:0.6;" x="48.52399" xlink:href="#mcbbe6aa0cf" y="124.778973"/>
      </g>
     </g>
    </g>
    <g id="ytick_9">
     <g id="line2d_33">
      <path clip-path="url(#p067014b39e)" d="M 48.52399 111.546245 
L 716.99976 111.546245 
" style="fill:none;stroke:#b0b0b0;stroke-dasharray:0.8,1.32;stroke-dashoffset:0;stroke-width:0.8;"/>
     </g>
     <g id="line2d_34">
      <g>
       <use style="stroke:#000000;stroke-width:0.6;" x="48.52399" xlink:href="#mcbbe6aa0cf" y="111.546245"/>
      </g>
     </g>
    </g>
    <g id="ytick_10">
     <g id="line2d_35">
      <path clip-path="url(#p067014b39e)" d="M 48.52399 101.282144 
L 716.99976 101.282144 
" style="fill:none;stroke:#b0b0b0;stroke-dasharray:0.8,1.32;stroke-dashoffset:0;stroke-width:0.8;"/>
     </g>
     <g id="line2d_36">
      <g>
       <use style="stroke:#000000;stroke-width:0.6;" x="48.52399" xlink:href="#mcbbe6aa0cf" y="101.282144"/>
      </g>
     </g>
    </g>
    <g id="ytick_11">
     <g id="line2d_37">
      <path clip-path="url(#p067014b39e)" d="M 48.52399 92.895763 
L 716.99976 92.895763 
" style="fill:none;stroke:#b0b0b0;stroke-dasharray:0.8,1.32;stroke-dashoffset:0;stroke-width:0.8;"/>
     </g>
     <g id="line2d_38">
      <g>
       <use style="stroke:#000000;stroke-width:0.6;" x="48.52399" xlink:href="#mcbbe6aa0cf" y="92.895763"/>
      </g>
     </g>
    </g>
    <g id="ytick_12">
     <g id="line2d_39">
      <path clip-path="url(#p067014b39e)" d="M 48.52399 85.805178 
L 716.99976 85.805178 
" style="fill:none;stroke:#b0b0b0;stroke-dasharray:0.8,1.32;stroke-dashoffset:0;stroke-width:0.8;"/>
     </g>
     <g id="line2d_40">
      <g>
       <use style="stroke:#000000;stroke-width:0.6;" x="48.52399" xlink:href="#mcbbe6aa0cf" y="85.805178"/>
      </g>
     </g>
    </g>
    <g id="ytick_13">
     <g id="line2d_41">
      <path clip-path="url(#p067014b39e)" d="M 48.52399 79.663035 
L 716.99976 79.663035 
" style="fill:none;stroke:#b0b0b0;stroke-dasharray:0.8,1.32;stroke-dashoffset:0;stroke-width:0.8;"/>
     </g>
     <g id="line2d_42">
      <g>
       <use style="stroke:#000000;stroke-width:0.6;" x="48.52399" xlink:href="#mcbbe6aa0cf" y="79.663035"/>
      </g>
     </g>
    </g>
    <g id="ytick_14">
     <g id="line2d_43">
      <path clip-path="url(#p067014b39e)" d="M 48.52399 74.24528 
L 716.99976 74.24528 
" style="fill:none;stroke:#b0b0b0;stroke-dasharray:0.8,1.32;stroke-dashoffset:0;stroke-width:0.8;"/>
     </g>
     <g id="line2d_44">
      <g>
       <use style="stroke:#000000;stroke-width:0.6;" x="48.52399" xlink:href="#mcbbe6aa0cf" y="74.24528"/>
      </g>
     </g>
    </g>
    <g id="ytick_15">
     <g id="line2d_45">
      <path clip-path="url(#p067014b39e)" d="M 48.52399 37.515723 
L 716.99976 37.515723 
" style="fill:none;stroke:#b0b0b0;stroke-dasharray:0.8,1.32;stroke-dashoffset:0;stroke-width:0.8;"/>
     </g>
     <g id="line2d_46">
      <g>
       <use style="stroke:#000000;stroke-width:0.6;" x="48.52399" xlink:href="#mcbbe6aa0cf" y="37.515723"/>
      </g>
     </g>
    </g>
    <g id="ytick_16">
     <g id="line2d_47">
      <path clip-path="url(#p067014b39e)" d="M 48.52399 18.865241 
L 716.99976 18.865241 
" style="fill:none;stroke:#b0b0b0;stroke-dasharray:0.8,1.32;stroke-dashoffset:0;stroke-width:0.8;"/>
     </g>
     <g id="line2d_48">
      <g>
       <use style="stroke:#000000;stroke-width:0.6;" x="48.52399" xlink:href="#mcbbe6aa0cf" y="18.865241"/>
      </g>
     </g>
    </g>
    <g id="ytick_17">
     <g id="line2d_49">
      <path clip-path="url(#p067014b39e)" d="M 48.52399 5.632513 
L 716.99976 5.632513 
" style="fill:none;stroke:#b0b0b0;stroke-dasharray:0.8,1.32;stroke-dashoffset:0;stroke-width:0.8;"/>
     </g>
     <g id="line2d_50">
      <g>
       <use style="stroke:#000000;stroke-width:0.6;" x="48.52399" xlink:href="#mcbbe6aa0cf" y="5.632513"/>
      </g>
     </g>
    </g>
    <g id="text_7">
     <!-- norme $L^2$ -->
     <defs>
      <path d="M 51.3125 33.890625 
L 51.3125 0 
L 42.28125 0 
L 42.28125 33.890625 
Q 42.28125 41.265625 39.6875 44.71875 
Q 37.109375 48.1875 31.59375 48.1875 
Q 25.296875 48.1875 21.890625 43.71875 
Q 18.5 39.265625 18.5 30.90625 
L 18.5 0 
L 9.515625 0 
L 9.515625 54.6875 
L 18.5 54.6875 
L 18.5 46.484375 
Q 20.90625 51.171875 25 53.578125 
Q 29.109375 56 34.71875 56 
Q 43.0625 56 47.1875 50.5 
Q 51.3125 45.015625 51.3125 33.890625 
z
" id="DejaVuSansMono-110"/>
      <path d="M 30.078125 48.390625 
Q 23.25 48.390625 19.734375 43.0625 
Q 16.21875 37.75 16.21875 27.296875 
Q 16.21875 16.890625 19.734375 11.546875 
Q 23.25 6.203125 30.078125 6.203125 
Q 36.96875 6.203125 40.484375 11.546875 
Q 44 16.890625 44 27.296875 
Q 44 37.75 40.484375 43.0625 
Q 36.96875 48.390625 30.078125 48.390625 
z
M 30.078125 56 
Q 41.453125 56 47.484375 48.625 
Q 53.515625 41.265625 53.515625 27.296875 
Q 53.515625 13.28125 47.5 5.921875 
Q 41.5 -1.421875 30.078125 -1.421875 
Q 18.703125 -1.421875 12.6875 5.921875 
Q 6.6875 13.28125 6.6875 27.296875 
Q 6.6875 41.265625 12.6875 48.625 
Q 18.703125 56 30.078125 56 
z
" id="DejaVuSansMono-111"/>
      <path d="M 56.390625 43.40625 
Q 53.515625 45.65625 50.53125 46.671875 
Q 47.5625 47.703125 44 47.703125 
Q 35.59375 47.703125 31.140625 42.421875 
Q 26.703125 37.15625 26.703125 27.203125 
L 26.703125 0 
L 17.671875 0 
L 17.671875 54.6875 
L 26.703125 54.6875 
L 26.703125 44 
Q 28.953125 49.8125 33.609375 52.90625 
Q 38.28125 56 44.671875 56 
Q 48 56 50.875 55.171875 
Q 53.765625 54.34375 56.390625 52.59375 
z
" id="DejaVuSansMono-114"/>
      <path d="M 33.015625 49.125 
Q 34.671875 52.640625 37.234375 54.3125 
Q 39.796875 56 43.40625 56 
Q 50 56 52.703125 50.890625 
Q 55.421875 45.796875 55.421875 31.6875 
L 55.421875 0 
L 47.21875 0 
L 47.21875 31.296875 
Q 47.21875 42.875 45.921875 45.671875 
Q 44.625 48.484375 41.21875 48.484375 
Q 37.3125 48.484375 35.859375 45.484375 
Q 34.421875 42.484375 34.421875 31.296875 
L 34.421875 0 
L 26.21875 0 
L 26.21875 31.296875 
Q 26.21875 43.015625 24.828125 45.75 
Q 23.4375 48.484375 19.828125 48.484375 
Q 16.265625 48.484375 14.875 45.484375 
Q 13.484375 42.484375 13.484375 31.296875 
L 13.484375 0 
L 5.328125 0 
L 5.328125 54.6875 
L 13.484375 54.6875 
L 13.484375 50 
Q 15.09375 52.9375 17.5 54.46875 
Q 19.921875 56 23 56 
Q 26.703125 56 29.171875 54.296875 
Q 31.640625 52.59375 33.015625 49.125 
z
" id="DejaVuSansMono-109"/>
      <path d="M 54.296875 29.59375 
L 54.296875 25.203125 
L 15.375 25.203125 
L 15.375 24.90625 
Q 15.375 15.96875 20.03125 11.078125 
Q 24.703125 6.203125 33.203125 6.203125 
Q 37.5 6.203125 42.1875 7.5625 
Q 46.875 8.9375 52.203125 11.71875 
L 52.203125 2.78125 
Q 47.078125 0.6875 42.3125 -0.359375 
Q 37.546875 -1.421875 33.109375 -1.421875 
Q 20.359375 -1.421875 13.171875 6.21875 
Q 6 13.875 6 27.296875 
Q 6 40.375 13.03125 48.1875 
Q 20.0625 56 31.78125 56 
Q 42.234375 56 48.265625 48.921875 
Q 54.296875 41.84375 54.296875 29.59375 
z
M 45.3125 32.234375 
Q 45.125 40.140625 41.578125 44.265625 
Q 38.03125 48.390625 31.390625 48.390625 
Q 24.90625 48.390625 20.703125 44.09375 
Q 16.5 39.796875 15.71875 32.171875 
z
" id="DejaVuSansMono-101"/>
      <path id="DejaVuSansMono-32"/>
      <path d="M 16.796875 72.90625 
L 26.703125 72.90625 
L 14.203125 8.203125 
L 49.703125 8.203125 
L 48.09375 0 
L 2.6875 0 
z
" id="DejaVuSans-Oblique-76"/>
      <path d="M 19.1875 8.296875 
L 53.609375 8.296875 
L 53.609375 0 
L 7.328125 0 
L 7.328125 8.296875 
Q 12.9375 14.109375 22.625 23.890625 
Q 32.328125 33.6875 34.8125 36.53125 
Q 39.546875 41.84375 41.421875 45.53125 
Q 43.3125 49.21875 43.3125 52.78125 
Q 43.3125 58.59375 39.234375 62.25 
Q 35.15625 65.921875 28.609375 65.921875 
Q 23.96875 65.921875 18.8125 64.3125 
Q 13.671875 62.703125 7.8125 59.421875 
L 7.8125 69.390625 
Q 13.765625 71.78125 18.9375 73 
Q 24.125 74.21875 28.421875 74.21875 
Q 39.75 74.21875 46.484375 68.546875 
Q 53.21875 62.890625 53.21875 53.421875 
Q 53.21875 48.921875 51.53125 44.890625 
Q 49.859375 40.875 45.40625 35.40625 
Q 44.1875 33.984375 37.640625 27.21875 
Q 31.109375 20.453125 19.1875 8.296875 
z
" id="DejaVuSans-50"/>
     </defs>
     <g transform="translate(13.712428 136.074375)rotate(-90)scale(0.14 -0.14)">
      <use transform="translate(0 0.765625)" xlink:href="#DejaVuSansMono-110"/>
      <use transform="translate(60.205078 0.765625)" xlink:href="#DejaVuSansMono-111"/>
      <use transform="translate(120.410156 0.765625)" xlink:href="#DejaVuSansMono-114"/>
      <use transform="translate(180.615234 0.765625)" xlink:href="#DejaVuSansMono-109"/>
      <use transform="translate(240.820312 0.765625)" xlink:href="#DejaVuSansMono-101"/>
      <use transform="translate(301.025391 0.765625)" xlink:href="#DejaVuSansMono-32"/>
      <use transform="translate(361.230469 0.765625)" xlink:href="#DejaVuSans-Oblique-76"/>
      <use transform="translate(423.96013 39.046875)scale(0.7)" xlink:href="#DejaVuSans-50"/>
     </g>
    </g>
   </g>
   <g id="line2d_51">
    <path clip-path="url(#p067014b39e)" d="M 686.614498 32.591536 
L 567.287918 19.598727 
L 437.533079 14.736625 
L 276.368247 12.880419 
L 78.909252 12.094252 
" style="fill:none;stroke:#1f77b4;stroke-linecap:square;stroke-width:1.5;"/>
    <defs>
     <path d="M 0 3 
C 0.795609 3 1.55874 2.683901 2.12132 2.12132 
C 2.683901 1.55874 3 0.795609 3 0 
C 3 -0.795609 2.683901 -1.55874 2.12132 -2.12132 
C 1.55874 -2.683901 0.795609 -3 0 -3 
C -0.795609 -3 -1.55874 -2.683901 -2.12132 -2.12132 
C -2.683901 -1.55874 -3 -0.795609 -3 0 
C -3 0.795609 -2.683901 1.55874 -2.12132 2.12132 
C -1.55874 2.683901 -0.795609 3 0 3 
z
" id="m0f762c96c9" style="stroke:#1f77b4;"/>
    </defs>
    <g clip-path="url(#p067014b39e)">
     <use style="fill:#1f77b4;stroke:#1f77b4;" x="686.614498" xlink:href="#m0f762c96c9" y="32.591536"/>
     <use style="fill:#1f77b4;stroke:#1f77b4;" x="567.287918" xlink:href="#m0f762c96c9" y="19.598727"/>
     <use style="fill:#1f77b4;stroke:#1f77b4;" x="437.533079" xlink:href="#m0f762c96c9" y="14.736625"/>
     <use style="fill:#1f77b4;stroke:#1f77b4;" x="276.368247" xlink:href="#m0f762c96c9" y="12.880419"/>
     <use style="fill:#1f77b4;stroke:#1f77b4;" x="78.909252" xlink:href="#m0f762c96c9" y="12.094252"/>
    </g>
   </g>
   <g id="line2d_52">
    <path clip-path="url(#p067014b39e)" d="M 686.614498 81.869209 
L 567.287918 117.547274 
L 437.533079 156.14023 
L 276.368247 193.974498 
" style="fill:none;stroke:#ff7f0e;stroke-linecap:square;stroke-width:1.5;"/>
    <defs>
     <path d="M 0 3 
C 0.795609 3 1.55874 2.683901 2.12132 2.12132 
C 2.683901 1.55874 3 0.795609 3 0 
C 3 -0.795609 2.683901 -1.55874 2.12132 -2.12132 
C 1.55874 -2.683901 0.795609 -3 0 -3 
C -0.795609 -3 -1.55874 -2.683901 -2.12132 -2.12132 
C -2.683901 -1.55874 -3 -0.795609 -3 0 
C -3 0.795609 -2.683901 1.55874 -2.12132 2.12132 
C -1.55874 2.683901 -0.795609 3 0 3 
z
" id="mdb90df40b2" style="stroke:#ff7f0e;"/>
    </defs>
    <g clip-path="url(#p067014b39e)">
     <use style="fill:#ff7f0e;stroke:#ff7f0e;" x="686.614498" xlink:href="#mdb90df40b2" y="81.869209"/>
     <use style="fill:#ff7f0e;stroke:#ff7f0e;" x="567.287918" xlink:href="#mdb90df40b2" y="117.547274"/>
     <use style="fill:#ff7f0e;stroke:#ff7f0e;" x="437.533079" xlink:href="#mdb90df40b2" y="156.14023"/>
     <use style="fill:#ff7f0e;stroke:#ff7f0e;" x="276.368247" xlink:href="#mdb90df40b2" y="193.974498"/>
    </g>
   </g>
   <g id="line2d_53">
    <path clip-path="url(#p067014b39e)" d="M 686.614498 57.764227 
L 567.287918 96.996162 
L 437.533079 139.896023 
L 276.368247 193.974498 
" style="fill:none;stroke:#2ca02c;stroke-linecap:square;stroke-width:1.5;"/>
    <defs>
     <path d="M 0 3 
C 0.795609 3 1.55874 2.683901 2.12132 2.12132 
C 2.683901 1.55874 3 0.795609 3 0 
C 3 -0.795609 2.683901 -1.55874 2.12132 -2.12132 
C 1.55874 -2.683901 0.795609 -3 0 -3 
C -0.795609 -3 -1.55874 -2.683901 -2.12132 -2.12132 
C -2.683901 -1.55874 -3 -0.795609 -3 0 
C -3 0.795609 -2.683901 1.55874 -2.12132 2.12132 
C -1.55874 2.683901 -0.795609 3 0 3 
z
" id="m77e0cb558a" style="stroke:#2ca02c;"/>
    </defs>
    <g clip-path="url(#p067014b39e)">
     <use style="fill:#2ca02c;stroke:#2ca02c;" x="686.614498" xlink:href="#m77e0cb558a" y="57.764227"/>
     <use style="fill:#2ca02c;stroke:#2ca02c;" x="567.287918" xlink:href="#m77e0cb558a" y="96.996162"/>
     <use style="fill:#2ca02c;stroke:#2ca02c;" x="437.533079" xlink:href="#m77e0cb558a" y="139.896023"/>
     <use style="fill:#2ca02c;stroke:#2ca02c;" x="276.368247" xlink:href="#m77e0cb558a" y="193.974498"/>
    </g>
   </g>
   <g id="patch_3">
    <path d="M 48.52399 203.06851 
L 48.52399 3.00024 
" style="fill:none;stroke:#000000;stroke-linecap:square;stroke-linejoin:miter;stroke-width:0.8;"/>
   </g>
   <g id="patch_4">
    <path d="M 716.99976 203.06851 
L 716.99976 3.00024 
" style="fill:none;stroke:#000000;stroke-linecap:square;stroke-linejoin:miter;stroke-width:0.8;"/>
   </g>
   <g id="patch_5">
    <path d="M 48.52399 203.06851 
L 716.99976 203.06851 
" style="fill:none;stroke:#000000;stroke-linecap:square;stroke-linejoin:miter;stroke-width:0.8;"/>
   </g>
   <g id="patch_6">
    <path d="M 48.52399 3.00024 
L 716.99976 3.00024 
" style="fill:none;stroke:#000000;stroke-linecap:square;stroke-linejoin:miter;stroke-width:0.8;"/>
   </g>
   <g id="legend_1">
    <g id="patch_7">
     <path d="M 57.62399 196.56851 
L 178.52399 196.56851 
Q 181.12399 196.56851 181.12399 193.96851 
L 181.12399 136.37851 
Q 181.12399 133.77851 178.52399 133.77851 
L 57.62399 133.77851 
Q 55.02399 133.77851 55.02399 136.37851 
L 55.02399 193.96851 
Q 55.02399 196.56851 57.62399 196.56851 
z
" style="fill:#ffffff;opacity:0.8;stroke:#cccccc;stroke-linejoin:miter;"/>
    </g>
    <g id="line2d_54">
     <path d="M 60.22399 144.43851 
L 86.22399 144.43851 
" style="fill:none;stroke:#1f77b4;stroke-linecap:square;stroke-width:1.5;"/>
    </g>
    <g id="line2d_55">
     <g>
      <use style="fill:#1f77b4;stroke:#1f77b4;" x="73.22399" xlink:href="#m0f762c96c9" y="144.43851"/>
     </g>
    </g>
    <g id="text_8">
     <!-- $||\; a_i \;||$ -->
     <defs>
      <path d="M 21 76.421875 
L 21 -23.578125 
L 12.703125 -23.578125 
L 12.703125 76.421875 
z
" id="DejaVuSans-124"/>
      <path d="M 53.71875 31.203125 
L 47.609375 0 
L 38.625 0 
L 40.28125 8.296875 
Q 36.328125 3.421875 31.265625 1 
Q 26.21875 -1.421875 20.015625 -1.421875 
Q 13.03125 -1.421875 8.5625 2.84375 
Q 4.109375 7.125 4.109375 13.8125 
Q 4.109375 23.390625 11.75 28.953125 
Q 19.390625 34.515625 32.8125 34.515625 
L 45.3125 34.515625 
L 45.796875 36.921875 
Q 45.90625 37.3125 45.953125 37.765625 
Q 46 38.234375 46 39.203125 
Q 46 43.5625 42.453125 45.96875 
Q 38.921875 48.390625 32.515625 48.390625 
Q 28.125 48.390625 23.5 47.265625 
Q 18.890625 46.140625 14.015625 43.890625 
L 15.578125 52.203125 
Q 20.65625 54.109375 25.515625 55.046875 
Q 30.375 56 34.90625 56 
Q 44.578125 56 49.625 51.796875 
Q 54.6875 47.609375 54.6875 39.59375 
Q 54.6875 37.984375 54.4375 35.8125 
Q 54.203125 33.640625 53.71875 31.203125 
z
M 44 27.484375 
L 35.015625 27.484375 
Q 23.96875 27.484375 18.671875 24.53125 
Q 13.375 21.578125 13.375 15.375 
Q 13.375 11.078125 16.078125 8.640625 
Q 18.796875 6.203125 23.578125 6.203125 
Q 30.90625 6.203125 36.375 11.453125 
Q 41.84375 16.703125 43.609375 25.484375 
z
" id="DejaVuSans-Oblique-97"/>
      <path d="M 18.3125 75.984375 
L 27.296875 75.984375 
L 25.09375 64.59375 
L 16.109375 64.59375 
z
M 14.203125 54.6875 
L 23.1875 54.6875 
L 12.5 0 
L 3.515625 0 
z
" id="DejaVuSans-Oblique-105"/>
     </defs>
     <g transform="translate(96.62399 148.98851)scale(0.13 -0.13)">
      <use transform="translate(0 0.578125)" xlink:href="#DejaVuSans-124"/>
      <use transform="translate(33.691406 0.578125)" xlink:href="#DejaVuSans-124"/>
      <use transform="translate(94.441948 0.578125)" xlink:href="#DejaVuSans-Oblique-97"/>
      <use transform="translate(155.721245 -15.828125)scale(0.7)" xlink:href="#DejaVuSans-Oblique-105"/>
      <use transform="translate(204.962998 0.578125)" xlink:href="#DejaVuSans-124"/>
      <use transform="translate(238.654404 0.578125)" xlink:href="#DejaVuSans-124"/>
     </g>
    </g>
    <g id="line2d_56">
     <path d="M 60.22399 164.06851 
L 86.22399 164.06851 
" style="fill:none;stroke:#ff7f0e;stroke-linecap:square;stroke-width:1.5;"/>
    </g>
    <g id="line2d_57">
     <g>
      <use style="fill:#ff7f0e;stroke:#ff7f0e;" x="73.22399" xlink:href="#mdb90df40b2" y="164.06851"/>
     </g>
    </g>
    <g id="text_9">
     <!-- $||\; a_{i} - a_{i+1} \;||$ -->
     <defs>
      <path d="M 10.59375 35.5 
L 73.1875 35.5 
L 73.1875 27.203125 
L 10.59375 27.203125 
z
" id="DejaVuSans-8722"/>
      <path d="M 46 62.703125 
L 46 35.5 
L 73.1875 35.5 
L 73.1875 27.203125 
L 46 27.203125 
L 46 0 
L 37.796875 0 
L 37.796875 27.203125 
L 10.59375 27.203125 
L 10.59375 35.5 
L 37.796875 35.5 
L 37.796875 62.703125 
z
" id="DejaVuSans-43"/>
      <path d="M 12.40625 8.296875 
L 28.515625 8.296875 
L 28.515625 63.921875 
L 10.984375 60.40625 
L 10.984375 69.390625 
L 28.421875 72.90625 
L 38.28125 72.90625 
L 38.28125 8.296875 
L 54.390625 8.296875 
L 54.390625 0 
L 12.40625 0 
z
" id="DejaVuSans-49"/>
     </defs>
     <g transform="translate(96.62399 168.61851)scale(0.13 -0.13)">
      <use transform="translate(0 0.578125)" xlink:href="#DejaVuSans-124"/>
      <use transform="translate(33.691406 0.578125)" xlink:href="#DejaVuSans-124"/>
      <use transform="translate(94.441948 0.578125)" xlink:href="#DejaVuSans-Oblique-97"/>
      <use transform="translate(155.721245 -15.828125)scale(0.7)" xlink:href="#DejaVuSans-Oblique-105"/>
      <use transform="translate(197.386284 0.578125)" xlink:href="#DejaVuSans-8722"/>
      <use transform="translate(300.657769 0.578125)" xlink:href="#DejaVuSans-Oblique-97"/>
      <use transform="translate(361.937065 -15.828125)scale(0.7)" xlink:href="#DejaVuSans-Oblique-105"/>
      <use transform="translate(395.023003 -15.828125)scale(0.7)" xlink:href="#DejaVuSans-43"/>
      <use transform="translate(467.313042 -15.828125)scale(0.7)" xlink:href="#DejaVuSans-49"/>
      <use transform="translate(541.642686 0.578125)" xlink:href="#DejaVuSans-124"/>
      <use transform="translate(575.334092 0.578125)" xlink:href="#DejaVuSans-124"/>
     </g>
    </g>
    <g id="line2d_58">
     <path d="M 60.22399 183.69851 
L 86.22399 183.69851 
" style="fill:none;stroke:#2ca02c;stroke-linecap:square;stroke-width:1.5;"/>
    </g>
    <g id="line2d_59">
     <g>
      <use style="fill:#2ca02c;stroke:#2ca02c;" x="73.22399" xlink:href="#m77e0cb558a" y="183.69851"/>
     </g>
    </g>
    <g id="text_10">
     <!-- $||\; a_{i} - a_{ref} \;||$ -->
     <defs>
      <path d="M 44.578125 46.390625 
Q 43.21875 47.125 41.453125 47.515625 
Q 39.703125 47.90625 37.703125 47.90625 
Q 30.515625 47.90625 25.140625 42.453125 
Q 19.78125 37.015625 18.015625 27.875 
L 12.5 0 
L 3.515625 0 
L 14.203125 54.6875 
L 23.1875 54.6875 
L 21.484375 46.1875 
Q 25.046875 50.921875 30 53.453125 
Q 34.96875 56 40.578125 56 
Q 42.046875 56 43.453125 55.828125 
Q 44.875 55.671875 46.296875 55.28125 
z
" id="DejaVuSans-Oblique-114"/>
      <path d="M 48.09375 32.234375 
Q 48.25 33.015625 48.3125 33.84375 
Q 48.390625 34.671875 48.390625 35.5 
Q 48.390625 41.453125 44.890625 44.921875 
Q 41.40625 48.390625 35.40625 48.390625 
Q 28.71875 48.390625 23.578125 44.15625 
Q 18.453125 39.9375 15.828125 32.171875 
z
M 55.90625 25.203125 
L 14.109375 25.203125 
Q 13.8125 23.34375 13.71875 22.265625 
Q 13.625 21.1875 13.625 20.40625 
Q 13.625 13.625 17.796875 9.90625 
Q 21.96875 6.203125 29.59375 6.203125 
Q 35.453125 6.203125 40.671875 7.515625 
Q 45.90625 8.84375 50.390625 11.375 
L 48.6875 2.484375 
Q 43.84375 0.53125 38.6875 -0.4375 
Q 33.546875 -1.421875 28.21875 -1.421875 
Q 16.84375 -1.421875 10.71875 4.015625 
Q 4.59375 9.46875 4.59375 19.484375 
Q 4.59375 28.03125 7.640625 35.375 
Q 10.6875 42.71875 16.609375 48.484375 
Q 20.40625 52.09375 25.65625 54.046875 
Q 30.90625 56 36.8125 56 
Q 46.09375 56 51.578125 50.4375 
Q 57.078125 44.875 57.078125 35.5 
Q 57.078125 33.25 56.78125 30.6875 
Q 56.5 28.125 55.90625 25.203125 
z
" id="DejaVuSans-Oblique-101"/>
      <path d="M 47.796875 75.984375 
L 46.390625 68.5 
L 37.796875 68.5 
Q 32.90625 68.5 30.6875 66.578125 
Q 28.46875 64.65625 27.390625 59.515625 
L 26.421875 54.6875 
L 41.21875 54.6875 
L 39.890625 47.703125 
L 25.09375 47.703125 
L 15.828125 0 
L 6.78125 0 
L 16.109375 47.703125 
L 7.515625 47.703125 
L 8.796875 54.6875 
L 17.390625 54.6875 
L 18.109375 58.5 
Q 19.96875 68.171875 24.625 72.078125 
Q 29.296875 75.984375 39.3125 75.984375 
z
" id="DejaVuSans-Oblique-102"/>
     </defs>
     <g transform="translate(96.62399 188.24851)scale(0.13 -0.13)">
      <use transform="translate(0 0.578125)" xlink:href="#DejaVuSans-124"/>
      <use transform="translate(33.691406 0.578125)" xlink:href="#DejaVuSans-124"/>
      <use transform="translate(94.441948 0.578125)" xlink:href="#DejaVuSans-Oblique-97"/>
      <use transform="translate(155.721245 -15.828125)scale(0.7)" xlink:href="#DejaVuSans-Oblique-105"/>
      <use transform="translate(197.386284 0.578125)" xlink:href="#DejaVuSans-8722"/>
      <use transform="translate(300.657769 0.578125)" xlink:href="#DejaVuSans-Oblique-97"/>
      <use transform="translate(361.937065 -15.828125)scale(0.7)" xlink:href="#DejaVuSans-Oblique-114"/>
      <use transform="translate(390.716362 -15.828125)scale(0.7)" xlink:href="#DejaVuSans-Oblique-101"/>
      <use transform="translate(433.782769 -15.828125)scale(0.7)" xlink:href="#DejaVuSans-Oblique-102"/>
      <use transform="translate(488.219834 0.578125)" xlink:href="#DejaVuSans-124"/>
      <use transform="translate(521.91124 0.578125)" xlink:href="#DejaVuSans-124"/>
     </g>
    </g>
   </g>
  </g>
  <g id="axes_2">
   <g id="patch_8">
    <path d="M 48.52399 430.54851 
L 716.99976 430.54851 
L 716.99976 230.48024 
L 48.52399 230.48024 
z
" style="fill:#ffffff;"/>
   </g>
   <g id="matplotlib.axis_3">
    <g id="xtick_9">
     <g id="line2d_60">
      <path clip-path="url(#pb144a34103)" d="M 293.287511 430.54851 
L 293.287511 230.48024 
" style="fill:none;stroke:#b0b0b0;stroke-dasharray:0.8,1.32;stroke-dashoffset:0;stroke-width:0.8;"/>
     </g>
     <g id="line2d_61">
      <g>
       <use style="stroke:#000000;stroke-width:0.8;" x="293.287511" xlink:href="#m15c3b01372" y="430.54851"/>
      </g>
     </g>
     <g id="text_11">
      <!-- $\mathdefault{10^{0}}$ -->
      <g transform="translate(284.937511 445.200073)scale(0.1 -0.1)">
       <use transform="translate(0 0.765625)" xlink:href="#DejaVuSansMono-49"/>
       <use transform="translate(60.205078 0.765625)" xlink:href="#DejaVuSansMono-48"/>
       <use transform="translate(121.367188 39.046875)scale(0.7)" xlink:href="#DejaVuSansMono-48"/>
      </g>
     </g>
    </g>
    <g id="xtick_10">
     <g id="line2d_62">
      <path clip-path="url(#pb144a34103)" d="M 54.995176 430.54851 
L 54.995176 230.48024 
" style="fill:none;stroke:#b0b0b0;stroke-dasharray:0.8,1.32;stroke-dashoffset:0;stroke-width:0.8;"/>
     </g>
     <g id="line2d_63">
      <g>
       <use style="stroke:#000000;stroke-width:0.6;" x="54.995176" xlink:href="#mcb6bbb0eda" y="430.54851"/>
      </g>
     </g>
    </g>
    <g id="xtick_11">
     <g id="line2d_64">
      <path clip-path="url(#pb144a34103)" d="M 117.674259 430.54851 
L 117.674259 230.48024 
" style="fill:none;stroke:#b0b0b0;stroke-dasharray:0.8,1.32;stroke-dashoffset:0;stroke-width:0.8;"/>
     </g>
     <g id="line2d_65">
      <g>
       <use style="stroke:#000000;stroke-width:0.6;" x="117.674259" xlink:href="#mcb6bbb0eda" y="430.54851"/>
      </g>
     </g>
     <g id="text_12">
      <!-- $\mathdefault{6\times10^{-1}}$ -->
      <g transform="translate(100.024259 443.600073)scale(0.1 -0.1)">
       <use transform="translate(0 0.684375)" xlink:href="#DejaVuSansMono-54"/>
       <use transform="translate(72.246094 0.684375)" xlink:href="#DejaVuSansMono-215"/>
       <use transform="translate(144.492188 0.684375)" xlink:href="#DejaVuSansMono-49"/>
       <use transform="translate(204.697266 0.684375)" xlink:href="#DejaVuSansMono-48"/>
       <use transform="translate(265.859375 38.965625)scale(0.7)" xlink:href="#DejaVuSansMono-8722"/>
       <use transform="translate(308.00293 38.965625)scale(0.7)" xlink:href="#DejaVuSansMono-49"/>
      </g>
     </g>
    </g>
    <g id="xtick_12">
     <g id="line2d_66">
      <path clip-path="url(#pb144a34103)" d="M 170.668668 430.54851 
L 170.668668 230.48024 
" style="fill:none;stroke:#b0b0b0;stroke-dasharray:0.8,1.32;stroke-dashoffset:0;stroke-width:0.8;"/>
     </g>
     <g id="line2d_67">
      <g>
       <use style="stroke:#000000;stroke-width:0.6;" x="170.668668" xlink:href="#mcb6bbb0eda" y="430.54851"/>
      </g>
     </g>
    </g>
    <g id="xtick_13">
     <g id="line2d_68">
      <path clip-path="url(#pb144a34103)" d="M 216.574514 430.54851 
L 216.574514 230.48024 
" style="fill:none;stroke:#b0b0b0;stroke-dasharray:0.8,1.32;stroke-dashoffset:0;stroke-width:0.8;"/>
     </g>
     <g id="line2d_69">
      <g>
       <use style="stroke:#000000;stroke-width:0.6;" x="216.574514" xlink:href="#mcb6bbb0eda" y="430.54851"/>
      </g>
     </g>
    </g>
    <g id="xtick_14">
     <g id="line2d_70">
      <path clip-path="url(#pb144a34103)" d="M 257.066339 430.54851 
L 257.066339 230.48024 
" style="fill:none;stroke:#b0b0b0;stroke-dasharray:0.8,1.32;stroke-dashoffset:0;stroke-width:0.8;"/>
     </g>
     <g id="line2d_71">
      <g>
       <use style="stroke:#000000;stroke-width:0.6;" x="257.066339" xlink:href="#mcb6bbb0eda" y="430.54851"/>
      </g>
     </g>
    </g>
    <g id="xtick_15">
     <g id="line2d_72">
      <path clip-path="url(#pb144a34103)" d="M 531.579847 430.54851 
L 531.579847 230.48024 
" style="fill:none;stroke:#b0b0b0;stroke-dasharray:0.8,1.32;stroke-dashoffset:0;stroke-width:0.8;"/>
     </g>
     <g id="line2d_73">
      <g>
       <use style="stroke:#000000;stroke-width:0.6;" x="531.579847" xlink:href="#mcb6bbb0eda" y="430.54851"/>
      </g>
     </g>
     <g id="text_13">
      <!-- $\mathdefault{2\times10^{0}}$ -->
      <g transform="translate(516.029847 443.600073)scale(0.1 -0.1)">
       <use transform="translate(0 0.765625)" xlink:href="#DejaVuSansMono-50"/>
       <use transform="translate(72.246094 0.765625)" xlink:href="#DejaVuSansMono-215"/>
       <use transform="translate(144.492188 0.765625)" xlink:href="#DejaVuSansMono-49"/>
       <use transform="translate(204.697266 0.765625)" xlink:href="#DejaVuSansMono-48"/>
       <use transform="translate(265.859375 39.046875)scale(0.7)" xlink:href="#DejaVuSansMono-48"/>
      </g>
     </g>
    </g>
    <g id="xtick_16">
     <g id="line2d_74">
      <path clip-path="url(#pb144a34103)" d="M 670.971927 430.54851 
L 670.971927 230.48024 
" style="fill:none;stroke:#b0b0b0;stroke-dasharray:0.8,1.32;stroke-dashoffset:0;stroke-width:0.8;"/>
     </g>
     <g id="line2d_75">
      <g>
       <use style="stroke:#000000;stroke-width:0.6;" x="670.971927" xlink:href="#mcb6bbb0eda" y="430.54851"/>
      </g>
     </g>
     <g id="text_14">
      <!-- $\mathdefault{3\times10^{0}}$ -->
      <g transform="translate(655.421927 443.600073)scale(0.1 -0.1)">
       <use transform="translate(0 0.765625)" xlink:href="#DejaVuSansMono-51"/>
       <use transform="translate(72.246094 0.765625)" xlink:href="#DejaVuSansMono-215"/>
       <use transform="translate(144.492188 0.765625)" xlink:href="#DejaVuSansMono-49"/>
       <use transform="translate(204.697266 0.765625)" xlink:href="#DejaVuSansMono-48"/>
       <use transform="translate(265.859375 39.046875)scale(0.7)" xlink:href="#DejaVuSansMono-48"/>
      </g>
     </g>
    </g>
    <g id="text_15">
     <!-- longueur caracteristique [mm] -->
     <defs>
      <path d="M 31.203125 19.828125 
Q 31.203125 13.765625 33.421875 10.6875 
Q 35.640625 7.625 39.984375 7.625 
L 50.484375 7.625 
L 50.484375 0 
L 39.109375 0 
Q 31.0625 0 26.640625 5.171875 
Q 22.21875 10.359375 22.21875 19.828125 
L 22.21875 69.484375 
L 7.8125 69.484375 
L 7.8125 76.515625 
L 31.203125 76.515625 
z
" id="DejaVuSansMono-108"/>
      <path d="M 41.890625 27.78125 
Q 41.890625 37.890625 38.59375 43.140625 
Q 35.296875 48.390625 29 48.390625 
Q 22.40625 48.390625 18.9375 43.140625 
Q 15.484375 37.890625 15.484375 27.78125 
Q 15.484375 17.671875 18.96875 12.375 
Q 22.46875 7.078125 29.109375 7.078125 
Q 35.296875 7.078125 38.59375 12.390625 
Q 41.890625 17.71875 41.890625 27.78125 
z
M 50.875 3.515625 
Q 50.875 -8.796875 45.0625 -15.140625 
Q 39.265625 -21.484375 27.984375 -21.484375 
Q 24.265625 -21.484375 20.203125 -20.796875 
Q 16.15625 -20.125 12.109375 -18.796875 
L 12.109375 -9.90625 
Q 16.890625 -12.15625 20.796875 -13.234375 
Q 24.703125 -14.3125 27.984375 -14.3125 
Q 35.25 -14.3125 38.5625 -10.34375 
Q 41.890625 -6.390625 41.890625 2.203125 
L 41.890625 2.59375 
L 41.890625 8.6875 
Q 39.75 4.109375 36.03125 1.859375 
Q 32.328125 -0.390625 27 -0.390625 
Q 17.4375 -0.390625 11.71875 7.265625 
Q 6 14.9375 6 27.78125 
Q 6 40.671875 11.71875 48.328125 
Q 17.4375 56 27 56 
Q 32.28125 56 35.9375 53.90625 
Q 39.59375 51.8125 41.890625 47.40625 
L 41.890625 54.5 
L 50.875 54.5 
z
" id="DejaVuSansMono-103"/>
      <path d="M 9.515625 20.703125 
L 9.515625 54.59375 
L 18.5 54.59375 
L 18.5 20.703125 
Q 18.5 13.328125 21.109375 9.859375 
Q 23.734375 6.390625 29.203125 6.390625 
Q 35.546875 6.390625 38.90625 10.859375 
Q 42.28125 15.328125 42.28125 23.6875 
L 42.28125 54.59375 
L 51.3125 54.59375 
L 51.3125 0 
L 42.28125 0 
L 42.28125 8.203125 
Q 39.890625 3.46875 35.765625 1.015625 
Q 31.640625 -1.421875 26.125 -1.421875 
Q 17.71875 -1.421875 13.609375 4.078125 
Q 9.515625 9.578125 9.515625 20.703125 
z
" id="DejaVuSansMono-117"/>
      <path d="M 51.8125 2.78125 
Q 48.1875 0.6875 44.359375 -0.359375 
Q 40.53125 -1.421875 36.53125 -1.421875 
Q 23.828125 -1.421875 16.671875 6.1875 
Q 9.515625 13.8125 9.515625 27.296875 
Q 9.515625 40.765625 16.671875 48.375 
Q 23.828125 56 36.53125 56 
Q 40.484375 56 44.234375 54.96875 
Q 48 53.953125 51.8125 51.8125 
L 51.8125 42.390625 
Q 48.25 45.5625 44.65625 46.96875 
Q 41.0625 48.390625 36.53125 48.390625 
Q 28.078125 48.390625 23.53125 42.921875 
Q 19 37.453125 19 27.296875 
Q 19 17.1875 23.5625 11.6875 
Q 28.125 6.203125 36.53125 6.203125 
Q 41.21875 6.203125 44.921875 7.640625 
Q 48.640625 9.078125 51.8125 12.109375 
z
" id="DejaVuSansMono-99"/>
      <path d="M 34.28125 27.484375 
L 31.296875 27.484375 
Q 23.4375 27.484375 19.453125 24.71875 
Q 15.484375 21.96875 15.484375 16.5 
Q 15.484375 11.578125 18.453125 8.84375 
Q 21.4375 6.109375 26.703125 6.109375 
Q 34.125 6.109375 38.375 11.25 
Q 42.625 16.40625 42.671875 25.484375 
L 42.671875 27.484375 
z
M 51.703125 31.203125 
L 51.703125 0 
L 42.671875 0 
L 42.671875 8.109375 
Q 39.796875 3.21875 35.421875 0.890625 
Q 31.0625 -1.421875 24.8125 -1.421875 
Q 16.453125 -1.421875 11.46875 3.296875 
Q 6.5 8.015625 6.5 15.921875 
Q 6.5 25.046875 12.625 29.78125 
Q 18.75 34.515625 30.609375 34.515625 
L 42.671875 34.515625 
L 42.671875 35.9375 
Q 42.625 42.484375 39.34375 45.4375 
Q 36.078125 48.390625 28.90625 48.390625 
Q 24.3125 48.390625 19.625 47.0625 
Q 14.9375 45.75 10.5 43.21875 
L 10.5 52.203125 
Q 15.484375 54.109375 20.046875 55.046875 
Q 24.609375 56 28.90625 56 
Q 35.6875 56 40.5 54 
Q 45.3125 52 48.296875 48 
Q 50.140625 45.5625 50.921875 41.96875 
Q 51.703125 38.375 51.703125 31.203125 
z
" id="DejaVuSansMono-97"/>
      <path d="M 29.984375 70.21875 
L 29.984375 54.6875 
L 50.390625 54.6875 
L 50.390625 47.703125 
L 29.984375 47.703125 
L 29.984375 18.015625 
Q 29.984375 11.96875 32.28125 9.5625 
Q 34.578125 7.171875 40.28125 7.171875 
L 50.390625 7.171875 
L 50.390625 0 
L 39.40625 0 
Q 29.296875 0 25.140625 4.046875 
Q 21 8.109375 21 18.015625 
L 21 47.703125 
L 6.390625 47.703125 
L 6.390625 54.6875 
L 21 54.6875 
L 21 70.21875 
z
" id="DejaVuSansMono-116"/>
      <path d="M 12.5 54.6875 
L 35.5 54.6875 
L 35.5 6.984375 
L 53.328125 6.984375 
L 53.328125 0 
L 8.6875 0 
L 8.6875 6.984375 
L 26.515625 6.984375 
L 26.515625 47.703125 
L 12.5 47.703125 
z
M 26.515625 75.984375 
L 35.5 75.984375 
L 35.5 64.59375 
L 26.515625 64.59375 
z
" id="DejaVuSansMono-105"/>
      <path d="M 47.515625 52.78125 
L 47.515625 44 
Q 43.65625 46.234375 39.75 47.359375 
Q 35.84375 48.484375 31.78125 48.484375 
Q 25.6875 48.484375 22.671875 46.5 
Q 19.671875 44.53125 19.671875 40.484375 
Q 19.671875 36.8125 21.921875 35 
Q 24.171875 33.203125 33.109375 31.5 
L 36.71875 30.8125 
Q 43.40625 29.546875 46.84375 25.734375 
Q 50.296875 21.921875 50.296875 15.828125 
Q 50.296875 7.71875 44.53125 3.140625 
Q 38.765625 -1.421875 28.515625 -1.421875 
Q 24.46875 -1.421875 20.015625 -0.5625 
Q 15.578125 0.296875 10.40625 2 
L 10.40625 11.28125 
Q 15.4375 8.6875 20.015625 7.390625 
Q 24.609375 6.109375 28.71875 6.109375 
Q 34.671875 6.109375 37.9375 8.515625 
Q 41.21875 10.9375 41.21875 15.28125 
Q 41.21875 21.53125 29.25 23.921875 
L 28.859375 24.03125 
L 25.484375 24.703125 
Q 17.71875 26.21875 14.15625 29.8125 
Q 10.59375 33.40625 10.59375 39.59375 
Q 10.59375 47.46875 15.90625 51.734375 
Q 21.234375 56 31.109375 56 
Q 35.5 56 39.546875 55.1875 
Q 43.609375 54.390625 47.515625 52.78125 
z
" id="DejaVuSansMono-115"/>
      <path d="M 16.21875 27.09375 
Q 16.21875 16.65625 19.5 11.328125 
Q 22.796875 6 29.296875 6 
Q 35.796875 6 39.140625 11.34375 
Q 42.484375 16.703125 42.484375 27.09375 
Q 42.484375 37.5 39.140625 42.84375 
Q 35.796875 48.1875 29.296875 48.1875 
Q 22.796875 48.1875 19.5 42.859375 
Q 16.21875 37.546875 16.21875 27.09375 
z
M 42.484375 6.78125 
Q 40.28125 2.734375 36.546875 0.5625 
Q 32.8125 -1.609375 27.875 -1.609375 
Q 18.0625 -1.609375 12.375 5.984375 
Q 6.6875 13.578125 6.6875 26.90625 
Q 6.6875 40.484375 12.34375 48.140625 
Q 18.015625 55.8125 27.875 55.8125 
Q 32.765625 55.8125 36.5 53.6875 
Q 40.234375 51.5625 42.484375 47.515625 
L 42.484375 54.5 
L 51.515625 54.5 
L 51.515625 -21 
L 42.484375 -21 
z
" id="DejaVuSansMono-113"/>
      <path d="M 22.609375 75.984375 
L 43.3125 75.984375 
L 43.3125 69 
L 31.59375 69 
L 31.59375 -6.203125 
L 43.3125 -6.203125 
L 43.3125 -13.1875 
L 22.609375 -13.1875 
z
" id="DejaVuSansMono-91"/>
      <path d="M 37.59375 75.984375 
L 37.59375 -13.1875 
L 16.890625 -13.1875 
L 16.890625 -6.203125 
L 28.609375 -6.203125 
L 28.609375 69 
L 16.890625 69 
L 16.890625 75.984375 
z
" id="DejaVuSansMono-93"/>
     </defs>
     <g transform="translate(260.549531 461.991948)scale(0.14 -0.14)">
      <use xlink:href="#DejaVuSansMono-108"/>
      <use x="60.205078" xlink:href="#DejaVuSansMono-111"/>
      <use x="120.410156" xlink:href="#DejaVuSansMono-110"/>
      <use x="180.615234" xlink:href="#DejaVuSansMono-103"/>
      <use x="240.820312" xlink:href="#DejaVuSansMono-117"/>
      <use x="301.025391" xlink:href="#DejaVuSansMono-101"/>
      <use x="361.230469" xlink:href="#DejaVuSansMono-117"/>
      <use x="421.435547" xlink:href="#DejaVuSansMono-114"/>
      <use x="481.640625" xlink:href="#DejaVuSansMono-32"/>
      <use x="541.845703" xlink:href="#DejaVuSansMono-99"/>
      <use x="602.050781" xlink:href="#DejaVuSansMono-97"/>
      <use x="662.255859" xlink:href="#DejaVuSansMono-114"/>
      <use x="722.460938" xlink:href="#DejaVuSansMono-97"/>
      <use x="782.666016" xlink:href="#DejaVuSansMono-99"/>
      <use x="842.871094" xlink:href="#DejaVuSansMono-116"/>
      <use x="903.076172" xlink:href="#DejaVuSansMono-101"/>
      <use x="963.28125" xlink:href="#DejaVuSansMono-114"/>
      <use x="1023.486328" xlink:href="#DejaVuSansMono-105"/>
      <use x="1083.691406" xlink:href="#DejaVuSansMono-115"/>
      <use x="1143.896484" xlink:href="#DejaVuSansMono-116"/>
      <use x="1204.101562" xlink:href="#DejaVuSansMono-105"/>
      <use x="1264.306641" xlink:href="#DejaVuSansMono-113"/>
      <use x="1324.511719" xlink:href="#DejaVuSansMono-117"/>
      <use x="1384.716797" xlink:href="#DejaVuSansMono-101"/>
      <use x="1444.921875" xlink:href="#DejaVuSansMono-32"/>
      <use x="1505.126953" xlink:href="#DejaVuSansMono-91"/>
      <use x="1565.332031" xlink:href="#DejaVuSansMono-109"/>
      <use x="1625.537109" xlink:href="#DejaVuSansMono-109"/>
      <use x="1685.742188" xlink:href="#DejaVuSansMono-93"/>
     </g>
    </g>
   </g>
   <g id="matplotlib.axis_4">
    <g id="ytick_18">
     <g id="line2d_76">
      <path clip-path="url(#pb144a34103)" d="M 48.52399 341.728893 
L 716.99976 341.728893 
" style="fill:none;stroke:#b0b0b0;stroke-dasharray:0.8,1.32;stroke-dashoffset:0;stroke-width:0.8;"/>
     </g>
     <g id="line2d_77">
      <g>
       <use style="stroke:#000000;stroke-width:0.8;" x="48.52399" xlink:href="#m96322001a5" y="341.728893"/>
      </g>
     </g>
     <g id="text_16">
      <!-- $\mathdefault{10^{-3}}$ -->
      <g transform="translate(20.62399 345.554674)scale(0.1 -0.1)">
       <use transform="translate(0 0.765625)" xlink:href="#DejaVuSansMono-49"/>
       <use transform="translate(60.205078 0.765625)" xlink:href="#DejaVuSansMono-48"/>
       <use transform="translate(121.367188 39.046875)scale(0.7)" xlink:href="#DejaVuSansMono-8722"/>
       <use transform="translate(163.510742 39.046875)scale(0.7)" xlink:href="#DejaVuSansMono-51"/>
      </g>
     </g>
    </g>
    <g id="ytick_19">
     <g id="line2d_78">
      <path clip-path="url(#pb144a34103)" d="M 48.52399 410.376037 
L 716.99976 410.376037 
" style="fill:none;stroke:#b0b0b0;stroke-dasharray:0.8,1.32;stroke-dashoffset:0;stroke-width:0.8;"/>
     </g>
     <g id="line2d_79">
      <g>
       <use style="stroke:#000000;stroke-width:0.6;" x="48.52399" xlink:href="#mcbbe6aa0cf" y="410.376037"/>
      </g>
     </g>
    </g>
    <g id="ytick_20">
     <g id="line2d_80">
      <path clip-path="url(#pb144a34103)" d="M 48.52399 393.658453 
L 716.99976 393.658453 
" style="fill:none;stroke:#b0b0b0;stroke-dasharray:0.8,1.32;stroke-dashoffset:0;stroke-width:0.8;"/>
     </g>
     <g id="line2d_81">
      <g>
       <use style="stroke:#000000;stroke-width:0.6;" x="48.52399" xlink:href="#mcbbe6aa0cf" y="393.658453"/>
      </g>
     </g>
    </g>
    <g id="ytick_21">
     <g id="line2d_82">
      <path clip-path="url(#pb144a34103)" d="M 48.52399 379.999192 
L 716.99976 379.999192 
" style="fill:none;stroke:#b0b0b0;stroke-dasharray:0.8,1.32;stroke-dashoffset:0;stroke-width:0.8;"/>
     </g>
     <g id="line2d_83">
      <g>
       <use style="stroke:#000000;stroke-width:0.6;" x="48.52399" xlink:href="#mcbbe6aa0cf" y="379.999192"/>
      </g>
     </g>
    </g>
    <g id="ytick_22">
     <g id="line2d_84">
      <path clip-path="url(#pb144a34103)" d="M 48.52399 368.450451 
L 716.99976 368.450451 
" style="fill:none;stroke:#b0b0b0;stroke-dasharray:0.8,1.32;stroke-dashoffset:0;stroke-width:0.8;"/>
     </g>
     <g id="line2d_85">
      <g>
       <use style="stroke:#000000;stroke-width:0.6;" x="48.52399" xlink:href="#mcbbe6aa0cf" y="368.450451"/>
      </g>
     </g>
    </g>
    <g id="ytick_23">
     <g id="line2d_86">
      <path clip-path="url(#pb144a34103)" d="M 48.52399 358.446477 
L 716.99976 358.446477 
" style="fill:none;stroke:#b0b0b0;stroke-dasharray:0.8,1.32;stroke-dashoffset:0;stroke-width:0.8;"/>
     </g>
     <g id="line2d_87">
      <g>
       <use style="stroke:#000000;stroke-width:0.6;" x="48.52399" xlink:href="#mcbbe6aa0cf" y="358.446477"/>
      </g>
     </g>
    </g>
    <g id="ytick_24">
     <g id="line2d_88">
      <path clip-path="url(#pb144a34103)" d="M 48.52399 349.622347 
L 716.99976 349.622347 
" style="fill:none;stroke:#b0b0b0;stroke-dasharray:0.8,1.32;stroke-dashoffset:0;stroke-width:0.8;"/>
     </g>
     <g id="line2d_89">
      <g>
       <use style="stroke:#000000;stroke-width:0.6;" x="48.52399" xlink:href="#mcbbe6aa0cf" y="349.622347"/>
      </g>
     </g>
    </g>
    <g id="ytick_25">
     <g id="line2d_90">
      <path clip-path="url(#pb144a34103)" d="M 48.52399 289.799333 
L 716.99976 289.799333 
" style="fill:none;stroke:#b0b0b0;stroke-dasharray:0.8,1.32;stroke-dashoffset:0;stroke-width:0.8;"/>
     </g>
     <g id="line2d_91">
      <g>
       <use style="stroke:#000000;stroke-width:0.6;" x="48.52399" xlink:href="#mcbbe6aa0cf" y="289.799333"/>
      </g>
     </g>
    </g>
    <g id="ytick_26">
     <g id="line2d_92">
      <path clip-path="url(#pb144a34103)" d="M 48.52399 259.422488 
L 716.99976 259.422488 
" style="fill:none;stroke:#b0b0b0;stroke-dasharray:0.8,1.32;stroke-dashoffset:0;stroke-width:0.8;"/>
     </g>
     <g id="line2d_93">
      <g>
       <use style="stroke:#000000;stroke-width:0.6;" x="48.52399" xlink:href="#mcbbe6aa0cf" y="259.422488"/>
      </g>
     </g>
    </g>
    <g id="ytick_27">
     <g id="line2d_94">
      <path clip-path="url(#pb144a34103)" d="M 48.52399 237.869773 
L 716.99976 237.869773 
" style="fill:none;stroke:#b0b0b0;stroke-dasharray:0.8,1.32;stroke-dashoffset:0;stroke-width:0.8;"/>
     </g>
     <g id="line2d_95">
      <g>
       <use style="stroke:#000000;stroke-width:0.6;" x="48.52399" xlink:href="#mcbbe6aa0cf" y="237.869773"/>
      </g>
     </g>
    </g>
    <g id="text_17">
     <!-- norme $H^1$ -->
     <defs>
      <path d="M 16.890625 72.90625 
L 26.8125 72.90625 
L 21 43.015625 
L 56.78125 43.015625 
L 62.59375 72.90625 
L 72.515625 72.90625 
L 58.296875 0 
L 48.390625 0 
L 55.171875 34.71875 
L 19.390625 34.71875 
L 12.59375 0 
L 2.6875 0 
z
" id="DejaVuSans-Oblique-72"/>
     </defs>
     <g transform="translate(13.712428 364.884375)rotate(-90)scale(0.14 -0.14)">
      <use transform="translate(0 0.684375)" xlink:href="#DejaVuSansMono-110"/>
      <use transform="translate(60.205078 0.684375)" xlink:href="#DejaVuSansMono-111"/>
      <use transform="translate(120.410156 0.684375)" xlink:href="#DejaVuSansMono-114"/>
      <use transform="translate(180.615234 0.684375)" xlink:href="#DejaVuSansMono-109"/>
      <use transform="translate(240.820312 0.684375)" xlink:href="#DejaVuSansMono-101"/>
      <use transform="translate(301.025391 0.684375)" xlink:href="#DejaVuSansMono-32"/>
      <use transform="translate(361.230469 0.684375)" xlink:href="#DejaVuSans-Oblique-72"/>
      <use transform="translate(443.442552 38.965625)scale(0.7)" xlink:href="#DejaVuSans-49"/>
     </g>
    </g>
   </g>
   <g id="line2d_96">
    <path clip-path="url(#pb144a34103)" d="M 686.614498 271.569937 
L 567.287918 251.563797 
L 437.533079 243.808338 
L 276.368247 240.839866 
L 78.909252 239.574252 
" style="fill:none;stroke:#1f77b4;stroke-linecap:square;stroke-width:1.5;"/>
    <g clip-path="url(#pb144a34103)">
     <use style="fill:#1f77b4;stroke:#1f77b4;" x="686.614498" xlink:href="#m0f762c96c9" y="271.569937"/>
     <use style="fill:#1f77b4;stroke:#1f77b4;" x="567.287918" xlink:href="#m0f762c96c9" y="251.563797"/>
     <use style="fill:#1f77b4;stroke:#1f77b4;" x="437.533079" xlink:href="#m0f762c96c9" y="243.808338"/>
     <use style="fill:#1f77b4;stroke:#1f77b4;" x="276.368247" xlink:href="#m0f762c96c9" y="240.839866"/>
     <use style="fill:#1f77b4;stroke:#1f77b4;" x="78.909252" xlink:href="#m0f762c96c9" y="239.574252"/>
    </g>
   </g>
   <g id="line2d_97">
    <path clip-path="url(#pb144a34103)" d="M 686.614498 343.716537 
L 567.287918 378.532026 
L 437.533079 396.891774 
L 276.368247 421.454498 
" style="fill:none;stroke:#ff7f0e;stroke-linecap:square;stroke-width:1.5;"/>
    <g clip-path="url(#pb144a34103)">
     <use style="fill:#ff7f0e;stroke:#ff7f0e;" x="686.614498" xlink:href="#mdb90df40b2" y="343.716537"/>
     <use style="fill:#ff7f0e;stroke:#ff7f0e;" x="567.287918" xlink:href="#mdb90df40b2" y="378.532026"/>
     <use style="fill:#ff7f0e;stroke:#ff7f0e;" x="437.533079" xlink:href="#mdb90df40b2" y="396.891774"/>
     <use style="fill:#ff7f0e;stroke:#ff7f0e;" x="276.368247" xlink:href="#mdb90df40b2" y="421.454498"/>
    </g>
   </g>
   <g id="line2d_98">
    <path clip-path="url(#pb144a34103)" d="M 686.614498 297.654754 
L 567.287918 338.098155 
L 437.533079 372.661295 
L 276.368247 421.454498 
" style="fill:none;stroke:#2ca02c;stroke-linecap:square;stroke-width:1.5;"/>
    <g clip-path="url(#pb144a34103)">
     <use style="fill:#2ca02c;stroke:#2ca02c;" x="686.614498" xlink:href="#m77e0cb558a" y="297.654754"/>
     <use style="fill:#2ca02c;stroke:#2ca02c;" x="567.287918" xlink:href="#m77e0cb558a" y="338.098155"/>
     <use style="fill:#2ca02c;stroke:#2ca02c;" x="437.533079" xlink:href="#m77e0cb558a" y="372.661295"/>
     <use style="fill:#2ca02c;stroke:#2ca02c;" x="276.368247" xlink:href="#m77e0cb558a" y="421.454498"/>
    </g>
   </g>
   <g id="patch_9">
    <path d="M 48.52399 430.54851 
L 48.52399 230.48024 
" style="fill:none;stroke:#000000;stroke-linecap:square;stroke-linejoin:miter;stroke-width:0.8;"/>
   </g>
   <g id="patch_10">
    <path d="M 716.99976 430.54851 
L 716.99976 230.48024 
" style="fill:none;stroke:#000000;stroke-linecap:square;stroke-linejoin:miter;stroke-width:0.8;"/>
   </g>
   <g id="patch_11">
    <path d="M 48.52399 430.54851 
L 716.99976 430.54851 
" style="fill:none;stroke:#000000;stroke-linecap:square;stroke-linejoin:miter;stroke-width:0.8;"/>
   </g>
   <g id="patch_12">
    <path d="M 48.52399 230.48024 
L 716.99976 230.48024 
" style="fill:none;stroke:#000000;stroke-linecap:square;stroke-linejoin:miter;stroke-width:0.8;"/>
   </g>
   <g id="legend_2">
    <g id="patch_13">
     <path d="M 57.62399 424.04851 
L 178.52399 424.04851 
Q 181.12399 424.04851 181.12399 421.44851 
L 181.12399 363.85851 
Q 181.12399 361.25851 178.52399 361.25851 
L 57.62399 361.25851 
Q 55.02399 361.25851 55.02399 363.85851 
L 55.02399 421.44851 
Q 55.02399 424.04851 57.62399 424.04851 
z
" style="fill:#ffffff;opacity:0.8;stroke:#cccccc;stroke-linejoin:miter;"/>
    </g>
    <g id="line2d_99">
     <path d="M 60.22399 371.91851 
L 86.22399 371.91851 
" style="fill:none;stroke:#1f77b4;stroke-linecap:square;stroke-width:1.5;"/>
    </g>
    <g id="line2d_100">
     <g>
      <use style="fill:#1f77b4;stroke:#1f77b4;" x="73.22399" xlink:href="#m0f762c96c9" y="371.91851"/>
     </g>
    </g>
    <g id="text_18">
     <!-- $||\; a_i \;||$ -->
     <g transform="translate(96.62399 376.46851)scale(0.13 -0.13)">
      <use transform="translate(0 0.578125)" xlink:href="#DejaVuSans-124"/>
      <use transform="translate(33.691406 0.578125)" xlink:href="#DejaVuSans-124"/>
      <use transform="translate(94.441948 0.578125)" xlink:href="#DejaVuSans-Oblique-97"/>
      <use transform="translate(155.721245 -15.828125)scale(0.7)" xlink:href="#DejaVuSans-Oblique-105"/>
      <use transform="translate(204.962998 0.578125)" xlink:href="#DejaVuSans-124"/>
      <use transform="translate(238.654404 0.578125)" xlink:href="#DejaVuSans-124"/>
     </g>
    </g>
    <g id="line2d_101">
     <path d="M 60.22399 391.54851 
L 86.22399 391.54851 
" style="fill:none;stroke:#ff7f0e;stroke-linecap:square;stroke-width:1.5;"/>
    </g>
    <g id="line2d_102">
     <g>
      <use style="fill:#ff7f0e;stroke:#ff7f0e;" x="73.22399" xlink:href="#mdb90df40b2" y="391.54851"/>
     </g>
    </g>
    <g id="text_19">
     <!-- $||\; a_{i} - a_{i+1} \;||$ -->
     <g transform="translate(96.62399 396.09851)scale(0.13 -0.13)">
      <use transform="translate(0 0.578125)" xlink:href="#DejaVuSans-124"/>
      <use transform="translate(33.691406 0.578125)" xlink:href="#DejaVuSans-124"/>
      <use transform="translate(94.441948 0.578125)" xlink:href="#DejaVuSans-Oblique-97"/>
      <use transform="translate(155.721245 -15.828125)scale(0.7)" xlink:href="#DejaVuSans-Oblique-105"/>
      <use transform="translate(197.386284 0.578125)" xlink:href="#DejaVuSans-8722"/>
      <use transform="translate(300.657769 0.578125)" xlink:href="#DejaVuSans-Oblique-97"/>
      <use transform="translate(361.937065 -15.828125)scale(0.7)" xlink:href="#DejaVuSans-Oblique-105"/>
      <use transform="translate(395.023003 -15.828125)scale(0.7)" xlink:href="#DejaVuSans-43"/>
      <use transform="translate(467.313042 -15.828125)scale(0.7)" xlink:href="#DejaVuSans-49"/>
      <use transform="translate(541.642686 0.578125)" xlink:href="#DejaVuSans-124"/>
      <use transform="translate(575.334092 0.578125)" xlink:href="#DejaVuSans-124"/>
     </g>
    </g>
    <g id="line2d_103">
     <path d="M 60.22399 411.17851 
L 86.22399 411.17851 
" style="fill:none;stroke:#2ca02c;stroke-linecap:square;stroke-width:1.5;"/>
    </g>
    <g id="line2d_104">
     <g>
      <use style="fill:#2ca02c;stroke:#2ca02c;" x="73.22399" xlink:href="#m77e0cb558a" y="411.17851"/>
     </g>
    </g>
    <g id="text_20">
     <!-- $||\; a_{i} - a_{ref} \;||$ -->
     <g transform="translate(96.62399 415.72851)scale(0.13 -0.13)">
      <use transform="translate(0 0.578125)" xlink:href="#DejaVuSans-124"/>
      <use transform="translate(33.691406 0.578125)" xlink:href="#DejaVuSans-124"/>
      <use transform="translate(94.441948 0.578125)" xlink:href="#DejaVuSans-Oblique-97"/>
      <use transform="translate(155.721245 -15.828125)scale(0.7)" xlink:href="#DejaVuSans-Oblique-105"/>
      <use transform="translate(197.386284 0.578125)" xlink:href="#DejaVuSans-8722"/>
      <use transform="translate(300.657769 0.578125)" xlink:href="#DejaVuSans-Oblique-97"/>
      <use transform="translate(361.937065 -15.828125)scale(0.7)" xlink:href="#DejaVuSans-Oblique-114"/>
      <use transform="translate(390.716362 -15.828125)scale(0.7)" xlink:href="#DejaVuSans-Oblique-101"/>
      <use transform="translate(433.782769 -15.828125)scale(0.7)" xlink:href="#DejaVuSans-Oblique-102"/>
      <use transform="translate(488.219834 0.578125)" xlink:href="#DejaVuSans-124"/>
      <use transform="translate(521.91124 0.578125)" xlink:href="#DejaVuSans-124"/>
     </g>
    </g>
   </g>
  </g>
 </g>
 <defs>
  <clipPath id="p067014b39e">
   <rect height="200.06827" width="668.47577" x="48.52399" y="3.00024"/>
  </clipPath>
  <clipPath id="pb144a34103">
   <rect height="200.06827" width="668.47577" x="48.52399" y="230.48024"/>
  </clipPath>
 </defs>
</svg>
