<?xml version="1.0" encoding="utf-8" standalone="no"?>
<!DOCTYPE svg PUBLIC "-//W3C//DTD SVG 1.1//EN"
  "http://www.w3.org/Graphics/SVG/1.1/DTD/svg11.dtd">
<!-- Created with matplotlib (https://matplotlib.org/) -->
<svg height="576pt" version="1.1" viewBox="0 0 432 576" width="432pt" xmlns="http://www.w3.org/2000/svg" xmlns:xlink="http://www.w3.org/1999/xlink">
 <defs>
  <style type="text/css">
*{stroke-linecap:butt;stroke-linejoin:round;}
  </style>
 </defs>
 <g id="figure_1">
  <g id="patch_1">
   <path d="M 0 576 
L 432 576 
L 432 0 
L 0 0 
z
" style="fill:#ffffff;"/>
  </g>
  <g id="axes_1">
   <g id="patch_2">
    <path d="M 41.278365 542.64351 
L 428.99976 542.64351 
L 428.99976 3.00024 
L 41.278365 3.00024 
z
" style="fill:#ffffff;"/>
   </g>
   <g id="matplotlib.axis_1">
    <g id="xtick_1">
     <g id="line2d_1">
      <path clip-path="url(#pf5ee4cb82f)" d="M 85.011247 542.64351 
L 85.011247 3.00024 
" style="fill:none;stroke:#b0b0b0;stroke-dasharray:0.8,1.32;stroke-dashoffset:0;stroke-width:0.8;"/>
     </g>
     <g id="line2d_2">
      <defs>
       <path d="M 0 0 
L 0 3.5 
" id="mbc22c8c3fc" style="stroke:#000000;stroke-width:0.8;"/>
      </defs>
      <g>
       <use style="stroke:#000000;stroke-width:0.8;" x="85.011247" xlink:href="#mbc22c8c3fc" y="542.64351"/>
      </g>
     </g>
     <g id="text_1">
      <!-- 5 -->
      <defs>
       <path d="M 10.796875 72.90625 
L 49.515625 72.90625 
L 49.515625 64.59375 
L 19.828125 64.59375 
L 19.828125 46.734375 
Q 21.96875 47.46875 24.109375 47.828125 
Q 26.265625 48.1875 28.421875 48.1875 
Q 40.625 48.1875 47.75 41.5 
Q 54.890625 34.8125 54.890625 23.390625 
Q 54.890625 11.625 47.5625 5.09375 
Q 40.234375 -1.421875 26.90625 -1.421875 
Q 22.3125 -1.421875 17.546875 -0.640625 
Q 12.796875 0.140625 7.71875 1.703125 
L 7.71875 11.625 
Q 12.109375 9.234375 16.796875 8.0625 
Q 21.484375 6.890625 26.703125 6.890625 
Q 35.15625 6.890625 40.078125 11.328125 
Q 45.015625 15.765625 45.015625 23.390625 
Q 45.015625 31 40.078125 35.4375 
Q 35.15625 39.890625 26.703125 39.890625 
Q 22.75 39.890625 18.8125 39.015625 
Q 14.890625 38.140625 10.796875 36.28125 
z
" id="DejaVuSans-53"/>
      </defs>
      <g transform="translate(81.829997 557.241948)scale(0.1 -0.1)">
       <use xlink:href="#DejaVuSans-53"/>
      </g>
     </g>
    </g>
    <g id="xtick_2">
     <g id="line2d_3">
      <path clip-path="url(#pf5ee4cb82f)" d="M 150.284206 542.64351 
L 150.284206 3.00024 
" style="fill:none;stroke:#b0b0b0;stroke-dasharray:0.8,1.32;stroke-dashoffset:0;stroke-width:0.8;"/>
     </g>
     <g id="line2d_4">
      <g>
       <use style="stroke:#000000;stroke-width:0.8;" x="150.284206" xlink:href="#mbc22c8c3fc" y="542.64351"/>
      </g>
     </g>
     <g id="text_2">
      <!-- 10 -->
      <defs>
       <path d="M 12.40625 8.296875 
L 28.515625 8.296875 
L 28.515625 63.921875 
L 10.984375 60.40625 
L 10.984375 69.390625 
L 28.421875 72.90625 
L 38.28125 72.90625 
L 38.28125 8.296875 
L 54.390625 8.296875 
L 54.390625 0 
L 12.40625 0 
z
" id="DejaVuSans-49"/>
       <path d="M 31.78125 66.40625 
Q 24.171875 66.40625 20.328125 58.90625 
Q 16.5 51.421875 16.5 36.375 
Q 16.5 21.390625 20.328125 13.890625 
Q 24.171875 6.390625 31.78125 6.390625 
Q 39.453125 6.390625 43.28125 13.890625 
Q 47.125 21.390625 47.125 36.375 
Q 47.125 51.421875 43.28125 58.90625 
Q 39.453125 66.40625 31.78125 66.40625 
z
M 31.78125 74.21875 
Q 44.046875 74.21875 50.515625 64.515625 
Q 56.984375 54.828125 56.984375 36.375 
Q 56.984375 17.96875 50.515625 8.265625 
Q 44.046875 -1.421875 31.78125 -1.421875 
Q 19.53125 -1.421875 13.0625 8.265625 
Q 6.59375 17.96875 6.59375 36.375 
Q 6.59375 54.828125 13.0625 64.515625 
Q 19.53125 74.21875 31.78125 74.21875 
z
" id="DejaVuSans-48"/>
      </defs>
      <g transform="translate(143.921706 557.241948)scale(0.1 -0.1)">
       <use xlink:href="#DejaVuSans-49"/>
       <use x="63.623047" xlink:href="#DejaVuSans-48"/>
      </g>
     </g>
    </g>
    <g id="xtick_3">
     <g id="line2d_5">
      <path clip-path="url(#pf5ee4cb82f)" d="M 215.557165 542.64351 
L 215.557165 3.00024 
" style="fill:none;stroke:#b0b0b0;stroke-dasharray:0.8,1.32;stroke-dashoffset:0;stroke-width:0.8;"/>
     </g>
     <g id="line2d_6">
      <g>
       <use style="stroke:#000000;stroke-width:0.8;" x="215.557165" xlink:href="#mbc22c8c3fc" y="542.64351"/>
      </g>
     </g>
     <g id="text_3">
      <!-- 15 -->
      <g transform="translate(209.194665 557.241948)scale(0.1 -0.1)">
       <use xlink:href="#DejaVuSans-49"/>
       <use x="63.623047" xlink:href="#DejaVuSans-53"/>
      </g>
     </g>
    </g>
    <g id="xtick_4">
     <g id="line2d_7">
      <path clip-path="url(#pf5ee4cb82f)" d="M 280.830124 542.64351 
L 280.830124 3.00024 
" style="fill:none;stroke:#b0b0b0;stroke-dasharray:0.8,1.32;stroke-dashoffset:0;stroke-width:0.8;"/>
     </g>
     <g id="line2d_8">
      <g>
       <use style="stroke:#000000;stroke-width:0.8;" x="280.830124" xlink:href="#mbc22c8c3fc" y="542.64351"/>
      </g>
     </g>
     <g id="text_4">
      <!-- 20 -->
      <defs>
       <path d="M 19.1875 8.296875 
L 53.609375 8.296875 
L 53.609375 0 
L 7.328125 0 
L 7.328125 8.296875 
Q 12.9375 14.109375 22.625 23.890625 
Q 32.328125 33.6875 34.8125 36.53125 
Q 39.546875 41.84375 41.421875 45.53125 
Q 43.3125 49.21875 43.3125 52.78125 
Q 43.3125 58.59375 39.234375 62.25 
Q 35.15625 65.921875 28.609375 65.921875 
Q 23.96875 65.921875 18.8125 64.3125 
Q 13.671875 62.703125 7.8125 59.421875 
L 7.8125 69.390625 
Q 13.765625 71.78125 18.9375 73 
Q 24.125 74.21875 28.421875 74.21875 
Q 39.75 74.21875 46.484375 68.546875 
Q 53.21875 62.890625 53.21875 53.421875 
Q 53.21875 48.921875 51.53125 44.890625 
Q 49.859375 40.875 45.40625 35.40625 
Q 44.1875 33.984375 37.640625 27.21875 
Q 31.109375 20.453125 19.1875 8.296875 
z
" id="DejaVuSans-50"/>
      </defs>
      <g transform="translate(274.467624 557.241948)scale(0.1 -0.1)">
       <use xlink:href="#DejaVuSans-50"/>
       <use x="63.623047" xlink:href="#DejaVuSans-48"/>
      </g>
     </g>
    </g>
    <g id="xtick_5">
     <g id="line2d_9">
      <path clip-path="url(#pf5ee4cb82f)" d="M 346.103083 542.64351 
L 346.103083 3.00024 
" style="fill:none;stroke:#b0b0b0;stroke-dasharray:0.8,1.32;stroke-dashoffset:0;stroke-width:0.8;"/>
     </g>
     <g id="line2d_10">
      <g>
       <use style="stroke:#000000;stroke-width:0.8;" x="346.103083" xlink:href="#mbc22c8c3fc" y="542.64351"/>
      </g>
     </g>
     <g id="text_5">
      <!-- 25 -->
      <g transform="translate(339.740583 557.241948)scale(0.1 -0.1)">
       <use xlink:href="#DejaVuSans-50"/>
       <use x="63.623047" xlink:href="#DejaVuSans-53"/>
      </g>
     </g>
    </g>
    <g id="xtick_6">
     <g id="line2d_11">
      <path clip-path="url(#pf5ee4cb82f)" d="M 411.376042 542.64351 
L 411.376042 3.00024 
" style="fill:none;stroke:#b0b0b0;stroke-dasharray:0.8,1.32;stroke-dashoffset:0;stroke-width:0.8;"/>
     </g>
     <g id="line2d_12">
      <g>
       <use style="stroke:#000000;stroke-width:0.8;" x="411.376042" xlink:href="#mbc22c8c3fc" y="542.64351"/>
      </g>
     </g>
     <g id="text_6">
      <!-- 30 -->
      <defs>
       <path d="M 40.578125 39.3125 
Q 47.65625 37.796875 51.625 33 
Q 55.609375 28.21875 55.609375 21.1875 
Q 55.609375 10.40625 48.1875 4.484375 
Q 40.765625 -1.421875 27.09375 -1.421875 
Q 22.515625 -1.421875 17.65625 -0.515625 
Q 12.796875 0.390625 7.625 2.203125 
L 7.625 11.71875 
Q 11.71875 9.328125 16.59375 8.109375 
Q 21.484375 6.890625 26.8125 6.890625 
Q 36.078125 6.890625 40.9375 10.546875 
Q 45.796875 14.203125 45.796875 21.1875 
Q 45.796875 27.640625 41.28125 31.265625 
Q 36.765625 34.90625 28.71875 34.90625 
L 20.21875 34.90625 
L 20.21875 43.015625 
L 29.109375 43.015625 
Q 36.375 43.015625 40.234375 45.921875 
Q 44.09375 48.828125 44.09375 54.296875 
Q 44.09375 59.90625 40.109375 62.90625 
Q 36.140625 65.921875 28.71875 65.921875 
Q 24.65625 65.921875 20.015625 65.03125 
Q 15.375 64.15625 9.8125 62.3125 
L 9.8125 71.09375 
Q 15.4375 72.65625 20.34375 73.4375 
Q 25.25 74.21875 29.59375 74.21875 
Q 40.828125 74.21875 47.359375 69.109375 
Q 53.90625 64.015625 53.90625 55.328125 
Q 53.90625 49.265625 50.4375 45.09375 
Q 46.96875 40.921875 40.578125 39.3125 
z
" id="DejaVuSans-51"/>
      </defs>
      <g transform="translate(405.013542 557.241948)scale(0.1 -0.1)">
       <use xlink:href="#DejaVuSans-51"/>
       <use x="63.623047" xlink:href="#DejaVuSans-48"/>
      </g>
     </g>
    </g>
    <g id="text_7">
     <!-- $\theta$ [°] -->
     <defs>
      <path d="M 45.515625 34.671875 
L 14.453125 34.671875 
Q 12.359375 20.0625 14.5 13.875 
Q 17.1875 6.25 24.46875 6.25 
Q 31.78125 6.25 37.359375 13.921875 
Q 42.234375 20.65625 45.515625 34.671875 
z
M 47.015625 42.96875 
Q 48.34375 56.84375 46.625 61.71875 
Q 43.953125 69.4375 36.765625 69.4375 
Q 29.296875 69.4375 23.828125 61.8125 
Q 19.53125 55.671875 16.15625 42.96875 
z
M 38.1875 76.765625 
Q 49.90625 76.765625 54.59375 66.40625 
Q 59.28125 56.109375 55.71875 37.84375 
Q 52.203125 19.625 43.453125 9.28125 
Q 34.765625 -1.125 23.046875 -1.125 
Q 11.28125 -1.125 6.640625 9.28125 
Q 2 19.625 5.515625 37.84375 
Q 9.078125 56.109375 17.71875 66.40625 
Q 26.421875 76.765625 38.1875 76.765625 
z
" id="DejaVuSans-Oblique-952"/>
      <path id="DejaVuSans-32"/>
      <path d="M 8.59375 75.984375 
L 29.296875 75.984375 
L 29.296875 69 
L 17.578125 69 
L 17.578125 -6.203125 
L 29.296875 -6.203125 
L 29.296875 -13.1875 
L 8.59375 -13.1875 
z
" id="DejaVuSans-91"/>
      <path d="M 25 67.921875 
Q 21.09375 67.921875 18.40625 65.203125 
Q 15.71875 62.5 15.71875 58.59375 
Q 15.71875 54.734375 18.40625 52.078125 
Q 21.09375 49.421875 25 49.421875 
Q 28.90625 49.421875 31.59375 52.078125 
Q 34.28125 54.734375 34.28125 58.59375 
Q 34.28125 62.453125 31.5625 65.1875 
Q 28.859375 67.921875 25 67.921875 
z
M 25 74.21875 
Q 28.125 74.21875 31 73.015625 
Q 33.890625 71.828125 35.984375 69.578125 
Q 38.234375 67.390625 39.359375 64.59375 
Q 40.484375 61.8125 40.484375 58.59375 
Q 40.484375 52.15625 35.96875 47.6875 
Q 31.453125 43.21875 24.90625 43.21875 
Q 18.3125 43.21875 13.90625 47.609375 
Q 9.515625 52 9.515625 58.59375 
Q 9.515625 65.140625 14 69.671875 
Q 18.5 74.21875 25 74.21875 
z
" id="DejaVuSans-176"/>
      <path d="M 30.421875 75.984375 
L 30.421875 -13.1875 
L 9.71875 -13.1875 
L 9.71875 -6.203125 
L 21.390625 -6.203125 
L 21.390625 69 
L 9.71875 69 
L 9.71875 75.984375 
z
" id="DejaVuSans-93"/>
     </defs>
     <g transform="translate(224.089063 570.920072)scale(0.1 -0.1)">
      <use transform="translate(0 0.234375)" xlink:href="#DejaVuSans-Oblique-952"/>
      <use transform="translate(61.181641 0.234375)" xlink:href="#DejaVuSans-32"/>
      <use transform="translate(92.96875 0.234375)" xlink:href="#DejaVuSans-91"/>
      <use transform="translate(131.982422 0.234375)" xlink:href="#DejaVuSans-176"/>
      <use transform="translate(181.982422 0.234375)" xlink:href="#DejaVuSans-93"/>
     </g>
    </g>
   </g>
   <g id="matplotlib.axis_2">
    <g id="ytick_1">
     <g id="line2d_13">
      <path clip-path="url(#pf5ee4cb82f)" d="M 41.278365 411.430472 
L 428.99976 411.430472 
" style="fill:none;stroke:#b0b0b0;stroke-dasharray:0.8,1.32;stroke-dashoffset:0;stroke-width:0.8;"/>
     </g>
     <g id="line2d_14">
      <defs>
       <path d="M 0 0 
L -3.5 0 
" id="m2ccfaefd99" style="stroke:#000000;stroke-width:0.8;"/>
      </defs>
      <g>
       <use style="stroke:#000000;stroke-width:0.8;" x="41.278365" xlink:href="#m2ccfaefd99" y="411.430472"/>
      </g>
     </g>
     <g id="text_8">
      <!-- $\mathdefault{10^{1}}$ -->
      <g transform="translate(16.678365 415.229691)scale(0.1 -0.1)">
       <use transform="translate(0 0.684375)" xlink:href="#DejaVuSans-49"/>
       <use transform="translate(63.623047 0.684375)" xlink:href="#DejaVuSans-48"/>
       <use transform="translate(128.203125 38.965625)scale(0.7)" xlink:href="#DejaVuSans-49"/>
      </g>
     </g>
    </g>
    <g id="ytick_2">
     <g id="line2d_15">
      <path clip-path="url(#pf5ee4cb82f)" d="M 41.278365 166.812186 
L 428.99976 166.812186 
" style="fill:none;stroke:#b0b0b0;stroke-dasharray:0.8,1.32;stroke-dashoffset:0;stroke-width:0.8;"/>
     </g>
     <g id="line2d_16">
      <g>
       <use style="stroke:#000000;stroke-width:0.8;" x="41.278365" xlink:href="#m2ccfaefd99" y="166.812186"/>
      </g>
     </g>
     <g id="text_9">
      <!-- $\mathdefault{10^{2}}$ -->
      <g transform="translate(16.678365 170.611404)scale(0.1 -0.1)">
       <use transform="translate(0 0.765625)" xlink:href="#DejaVuSans-49"/>
       <use transform="translate(63.623047 0.765625)" xlink:href="#DejaVuSans-48"/>
       <use transform="translate(128.203125 39.046875)scale(0.7)" xlink:href="#DejaVuSans-50"/>
      </g>
     </g>
    </g>
    <g id="ytick_3">
     <g id="line2d_17">
      <defs>
       <path d="M 0 0 
L -2 0 
" id="mbb49ccb15f" style="stroke:#000000;stroke-width:0.6;"/>
      </defs>
      <g>
       <use style="stroke:#000000;stroke-width:0.6;" x="41.278365" xlink:href="#mbb49ccb15f" y="539.336175"/>
      </g>
     </g>
    </g>
    <g id="ytick_4">
     <g id="line2d_18">
      <g>
       <use style="stroke:#000000;stroke-width:0.6;" x="41.278365" xlink:href="#mbb49ccb15f" y="508.773875"/>
      </g>
     </g>
    </g>
    <g id="ytick_5">
     <g id="line2d_19">
      <g>
       <use style="stroke:#000000;stroke-width:0.6;" x="41.278365" xlink:href="#mbb49ccb15f" y="485.067914"/>
      </g>
     </g>
    </g>
    <g id="ytick_6">
     <g id="line2d_20">
      <g>
       <use style="stroke:#000000;stroke-width:0.6;" x="41.278365" xlink:href="#mbb49ccb15f" y="465.698733"/>
      </g>
     </g>
    </g>
    <g id="ytick_7">
     <g id="line2d_21">
      <g>
       <use style="stroke:#000000;stroke-width:0.6;" x="41.278365" xlink:href="#mbb49ccb15f" y="449.322324"/>
      </g>
     </g>
    </g>
    <g id="ytick_8">
     <g id="line2d_22">
      <g>
       <use style="stroke:#000000;stroke-width:0.6;" x="41.278365" xlink:href="#mbb49ccb15f" y="435.136433"/>
      </g>
     </g>
    </g>
    <g id="ytick_9">
     <g id="line2d_23">
      <g>
       <use style="stroke:#000000;stroke-width:0.6;" x="41.278365" xlink:href="#mbb49ccb15f" y="422.623591"/>
      </g>
     </g>
    </g>
    <g id="ytick_10">
     <g id="line2d_24">
      <g>
       <use style="stroke:#000000;stroke-width:0.6;" x="41.278365" xlink:href="#mbb49ccb15f" y="337.79303"/>
      </g>
     </g>
    </g>
    <g id="ytick_11">
     <g id="line2d_25">
      <g>
       <use style="stroke:#000000;stroke-width:0.6;" x="41.278365" xlink:href="#mbb49ccb15f" y="294.717888"/>
      </g>
     </g>
    </g>
    <g id="ytick_12">
     <g id="line2d_26">
      <g>
       <use style="stroke:#000000;stroke-width:0.6;" x="41.278365" xlink:href="#mbb49ccb15f" y="264.155589"/>
      </g>
     </g>
    </g>
    <g id="ytick_13">
     <g id="line2d_27">
      <g>
       <use style="stroke:#000000;stroke-width:0.6;" x="41.278365" xlink:href="#mbb49ccb15f" y="240.449627"/>
      </g>
     </g>
    </g>
    <g id="ytick_14">
     <g id="line2d_28">
      <g>
       <use style="stroke:#000000;stroke-width:0.6;" x="41.278365" xlink:href="#mbb49ccb15f" y="221.080447"/>
      </g>
     </g>
    </g>
    <g id="ytick_15">
     <g id="line2d_29">
      <g>
       <use style="stroke:#000000;stroke-width:0.6;" x="41.278365" xlink:href="#mbb49ccb15f" y="204.704038"/>
      </g>
     </g>
    </g>
    <g id="ytick_16">
     <g id="line2d_30">
      <g>
       <use style="stroke:#000000;stroke-width:0.6;" x="41.278365" xlink:href="#mbb49ccb15f" y="190.518147"/>
      </g>
     </g>
    </g>
    <g id="ytick_17">
     <g id="line2d_31">
      <g>
       <use style="stroke:#000000;stroke-width:0.6;" x="41.278365" xlink:href="#mbb49ccb15f" y="178.005305"/>
      </g>
     </g>
    </g>
    <g id="ytick_18">
     <g id="line2d_32">
      <g>
       <use style="stroke:#000000;stroke-width:0.6;" x="41.278365" xlink:href="#mbb49ccb15f" y="93.174744"/>
      </g>
     </g>
    </g>
    <g id="ytick_19">
     <g id="line2d_33">
      <g>
       <use style="stroke:#000000;stroke-width:0.6;" x="41.278365" xlink:href="#mbb49ccb15f" y="50.099602"/>
      </g>
     </g>
    </g>
    <g id="ytick_20">
     <g id="line2d_34">
      <g>
       <use style="stroke:#000000;stroke-width:0.6;" x="41.278365" xlink:href="#mbb49ccb15f" y="19.537302"/>
      </g>
     </g>
    </g>
    <g id="text_10">
     <!-- time [ms] -->
     <defs>
      <path d="M 18.3125 70.21875 
L 18.3125 54.6875 
L 36.8125 54.6875 
L 36.8125 47.703125 
L 18.3125 47.703125 
L 18.3125 18.015625 
Q 18.3125 11.328125 20.140625 9.421875 
Q 21.96875 7.515625 27.59375 7.515625 
L 36.8125 7.515625 
L 36.8125 0 
L 27.59375 0 
Q 17.1875 0 13.234375 3.875 
Q 9.28125 7.765625 9.28125 18.015625 
L 9.28125 47.703125 
L 2.6875 47.703125 
L 2.6875 54.6875 
L 9.28125 54.6875 
L 9.28125 70.21875 
z
" id="DejaVuSans-116"/>
      <path d="M 9.421875 54.6875 
L 18.40625 54.6875 
L 18.40625 0 
L 9.421875 0 
z
M 9.421875 75.984375 
L 18.40625 75.984375 
L 18.40625 64.59375 
L 9.421875 64.59375 
z
" id="DejaVuSans-105"/>
      <path d="M 52 44.1875 
Q 55.375 50.25 60.0625 53.125 
Q 64.75 56 71.09375 56 
Q 79.640625 56 84.28125 50.015625 
Q 88.921875 44.046875 88.921875 33.015625 
L 88.921875 0 
L 79.890625 0 
L 79.890625 32.71875 
Q 79.890625 40.578125 77.09375 44.375 
Q 74.3125 48.1875 68.609375 48.1875 
Q 61.625 48.1875 57.5625 43.546875 
Q 53.515625 38.921875 53.515625 30.90625 
L 53.515625 0 
L 44.484375 0 
L 44.484375 32.71875 
Q 44.484375 40.625 41.703125 44.40625 
Q 38.921875 48.1875 33.109375 48.1875 
Q 26.21875 48.1875 22.15625 43.53125 
Q 18.109375 38.875 18.109375 30.90625 
L 18.109375 0 
L 9.078125 0 
L 9.078125 54.6875 
L 18.109375 54.6875 
L 18.109375 46.1875 
Q 21.1875 51.21875 25.484375 53.609375 
Q 29.78125 56 35.6875 56 
Q 41.65625 56 45.828125 52.96875 
Q 50 49.953125 52 44.1875 
z
" id="DejaVuSans-109"/>
      <path d="M 56.203125 29.59375 
L 56.203125 25.203125 
L 14.890625 25.203125 
Q 15.484375 15.921875 20.484375 11.0625 
Q 25.484375 6.203125 34.421875 6.203125 
Q 39.59375 6.203125 44.453125 7.46875 
Q 49.3125 8.734375 54.109375 11.28125 
L 54.109375 2.78125 
Q 49.265625 0.734375 44.1875 -0.34375 
Q 39.109375 -1.421875 33.890625 -1.421875 
Q 20.796875 -1.421875 13.15625 6.1875 
Q 5.515625 13.8125 5.515625 26.8125 
Q 5.515625 40.234375 12.765625 48.109375 
Q 20.015625 56 32.328125 56 
Q 43.359375 56 49.78125 48.890625 
Q 56.203125 41.796875 56.203125 29.59375 
z
M 47.21875 32.234375 
Q 47.125 39.59375 43.09375 43.984375 
Q 39.0625 48.390625 32.421875 48.390625 
Q 24.90625 48.390625 20.390625 44.140625 
Q 15.875 39.890625 15.1875 32.171875 
z
" id="DejaVuSans-101"/>
      <path d="M 44.28125 53.078125 
L 44.28125 44.578125 
Q 40.484375 46.53125 36.375 47.5 
Q 32.28125 48.484375 27.875 48.484375 
Q 21.1875 48.484375 17.84375 46.4375 
Q 14.5 44.390625 14.5 40.28125 
Q 14.5 37.15625 16.890625 35.375 
Q 19.28125 33.59375 26.515625 31.984375 
L 29.59375 31.296875 
Q 39.15625 29.25 43.1875 25.515625 
Q 47.21875 21.78125 47.21875 15.09375 
Q 47.21875 7.46875 41.1875 3.015625 
Q 35.15625 -1.421875 24.609375 -1.421875 
Q 20.21875 -1.421875 15.453125 -0.5625 
Q 10.6875 0.296875 5.421875 2 
L 5.421875 11.28125 
Q 10.40625 8.6875 15.234375 7.390625 
Q 20.0625 6.109375 24.8125 6.109375 
Q 31.15625 6.109375 34.5625 8.28125 
Q 37.984375 10.453125 37.984375 14.40625 
Q 37.984375 18.0625 35.515625 20.015625 
Q 33.0625 21.96875 24.703125 23.78125 
L 21.578125 24.515625 
Q 13.234375 26.265625 9.515625 29.90625 
Q 5.8125 33.546875 5.8125 39.890625 
Q 5.8125 47.609375 11.28125 51.796875 
Q 16.75 56 26.8125 56 
Q 31.78125 56 36.171875 55.265625 
Q 40.578125 54.546875 44.28125 53.078125 
z
" id="DejaVuSans-115"/>
     </defs>
     <g transform="translate(10.598678 297.083594)rotate(-90)scale(0.1 -0.1)">
      <use xlink:href="#DejaVuSans-116"/>
      <use x="39.208984" xlink:href="#DejaVuSans-105"/>
      <use x="66.992188" xlink:href="#DejaVuSans-109"/>
      <use x="164.404297" xlink:href="#DejaVuSans-101"/>
      <use x="225.927734" xlink:href="#DejaVuSans-32"/>
      <use x="257.714844" xlink:href="#DejaVuSans-91"/>
      <use x="296.728516" xlink:href="#DejaVuSans-109"/>
      <use x="394.140625" xlink:href="#DejaVuSans-115"/>
      <use x="446.240234" xlink:href="#DejaVuSans-93"/>
     </g>
    </g>
   </g>
   <g id="line2d_35">
    <path clip-path="url(#pf5ee4cb82f)" d="M 58.902065 504.948257 
L 98.065872 508.548362 
L 137.229589 506.596366 
L 176.393382 513.70714 
L 215.557174 515.67744 
L 254.720966 515.1685 
L 293.884684 514.545081 
L 333.048476 512.402931 
L 372.212268 514.185819 
L 411.37606 511.300232 
" style="fill:none;stroke:#1f77b4;stroke-linecap:square;stroke-width:1.5;"/>
    <defs>
     <path d="M 0 3 
C 0.795609 3 1.55874 2.683901 2.12132 2.12132 
C 2.683901 1.55874 3 0.795609 3 0 
C 3 -0.795609 2.683901 -1.55874 2.12132 -2.12132 
C 1.55874 -2.683901 0.795609 -3 0 -3 
C -0.795609 -3 -1.55874 -2.683901 -2.12132 -2.12132 
C -2.683901 -1.55874 -3 -0.795609 -3 0 
C -3 0.795609 -2.683901 1.55874 -2.12132 2.12132 
C -1.55874 2.683901 -0.795609 3 0 3 
z
" id="m8b9fa35d86" style="stroke:#1f77b4;"/>
    </defs>
    <g clip-path="url(#pf5ee4cb82f)">
     <use style="fill:#1f77b4;stroke:#1f77b4;" x="58.902065" xlink:href="#m8b9fa35d86" y="504.948257"/>
     <use style="fill:#1f77b4;stroke:#1f77b4;" x="98.065872" xlink:href="#m8b9fa35d86" y="508.548362"/>
     <use style="fill:#1f77b4;stroke:#1f77b4;" x="137.229589" xlink:href="#m8b9fa35d86" y="506.596366"/>
     <use style="fill:#1f77b4;stroke:#1f77b4;" x="176.393382" xlink:href="#m8b9fa35d86" y="513.70714"/>
     <use style="fill:#1f77b4;stroke:#1f77b4;" x="215.557174" xlink:href="#m8b9fa35d86" y="515.67744"/>
     <use style="fill:#1f77b4;stroke:#1f77b4;" x="254.720966" xlink:href="#m8b9fa35d86" y="515.1685"/>
     <use style="fill:#1f77b4;stroke:#1f77b4;" x="293.884684" xlink:href="#m8b9fa35d86" y="514.545081"/>
     <use style="fill:#1f77b4;stroke:#1f77b4;" x="333.048476" xlink:href="#m8b9fa35d86" y="512.402931"/>
     <use style="fill:#1f77b4;stroke:#1f77b4;" x="372.212268" xlink:href="#m8b9fa35d86" y="514.185819"/>
     <use style="fill:#1f77b4;stroke:#1f77b4;" x="411.37606" xlink:href="#m8b9fa35d86" y="511.300232"/>
    </g>
   </g>
   <g id="line2d_36">
    <path clip-path="url(#pf5ee4cb82f)" d="M 58.902065 508.818149 
L 98.065872 511.472627 
L 137.229589 512.650558 
L 176.393382 514.924321 
L 215.557174 509.971331 
L 254.720966 512.549603 
L 293.884684 514.577801 
L 333.048476 512.434999 
L 372.212268 518.11427 
L 411.37606 517.974197 
" style="fill:none;stroke:#1f77b4;stroke-dasharray:5.55,2.4;stroke-dashoffset:0;stroke-width:1.5;"/>
    <g clip-path="url(#pf5ee4cb82f)">
     <use style="fill:#1f77b4;stroke:#1f77b4;" x="58.902065" xlink:href="#m8b9fa35d86" y="508.818149"/>
     <use style="fill:#1f77b4;stroke:#1f77b4;" x="98.065872" xlink:href="#m8b9fa35d86" y="511.472627"/>
     <use style="fill:#1f77b4;stroke:#1f77b4;" x="137.229589" xlink:href="#m8b9fa35d86" y="512.650558"/>
     <use style="fill:#1f77b4;stroke:#1f77b4;" x="176.393382" xlink:href="#m8b9fa35d86" y="514.924321"/>
     <use style="fill:#1f77b4;stroke:#1f77b4;" x="215.557174" xlink:href="#m8b9fa35d86" y="509.971331"/>
     <use style="fill:#1f77b4;stroke:#1f77b4;" x="254.720966" xlink:href="#m8b9fa35d86" y="512.549603"/>
     <use style="fill:#1f77b4;stroke:#1f77b4;" x="293.884684" xlink:href="#m8b9fa35d86" y="514.577801"/>
     <use style="fill:#1f77b4;stroke:#1f77b4;" x="333.048476" xlink:href="#m8b9fa35d86" y="512.434999"/>
     <use style="fill:#1f77b4;stroke:#1f77b4;" x="372.212268" xlink:href="#m8b9fa35d86" y="518.11427"/>
     <use style="fill:#1f77b4;stroke:#1f77b4;" x="411.37606" xlink:href="#m8b9fa35d86" y="517.974197"/>
    </g>
   </g>
   <g id="line2d_37">
    <path clip-path="url(#pf5ee4cb82f)" d="M 58.902065 498.185899 
L 98.065872 506.488004 
L 137.229589 503.884406 
L 176.393382 507.637929 
L 215.557174 506.482805 
L 254.720966 511.158895 
L 293.884684 503.080863 
L 333.048476 508.970594 
L 372.212268 506.925598 
L 411.37606 510.887621 
" style="fill:none;stroke:#1f77b4;stroke-dasharray:1.5,2.475;stroke-dashoffset:0;stroke-width:1.5;"/>
    <g clip-path="url(#pf5ee4cb82f)">
     <use style="fill:#1f77b4;stroke:#1f77b4;" x="58.902065" xlink:href="#m8b9fa35d86" y="498.185899"/>
     <use style="fill:#1f77b4;stroke:#1f77b4;" x="98.065872" xlink:href="#m8b9fa35d86" y="506.488004"/>
     <use style="fill:#1f77b4;stroke:#1f77b4;" x="137.229589" xlink:href="#m8b9fa35d86" y="503.884406"/>
     <use style="fill:#1f77b4;stroke:#1f77b4;" x="176.393382" xlink:href="#m8b9fa35d86" y="507.637929"/>
     <use style="fill:#1f77b4;stroke:#1f77b4;" x="215.557174" xlink:href="#m8b9fa35d86" y="506.482805"/>
     <use style="fill:#1f77b4;stroke:#1f77b4;" x="254.720966" xlink:href="#m8b9fa35d86" y="511.158895"/>
     <use style="fill:#1f77b4;stroke:#1f77b4;" x="293.884684" xlink:href="#m8b9fa35d86" y="503.080863"/>
     <use style="fill:#1f77b4;stroke:#1f77b4;" x="333.048476" xlink:href="#m8b9fa35d86" y="508.970594"/>
     <use style="fill:#1f77b4;stroke:#1f77b4;" x="372.212268" xlink:href="#m8b9fa35d86" y="506.925598"/>
     <use style="fill:#1f77b4;stroke:#1f77b4;" x="411.37606" xlink:href="#m8b9fa35d86" y="510.887621"/>
    </g>
   </g>
   <g id="line2d_38">
    <path clip-path="url(#pf5ee4cb82f)" d="M 58.902065 412.723772 
L 98.065872 411.515495 
L 137.229589 415.320011 
L 176.393382 415.913059 
L 215.557174 406.888217 
L 254.720966 423.723102 
L 293.884684 410.074031 
L 333.048476 425.049262 
L 372.212268 413.815492 
L 411.37606 417.657868 
" style="fill:none;stroke:#ff7f0e;stroke-linecap:square;stroke-width:1.5;"/>
    <defs>
     <path d="M 0 3 
C 0.795609 3 1.55874 2.683901 2.12132 2.12132 
C 2.683901 1.55874 3 0.795609 3 0 
C 3 -0.795609 2.683901 -1.55874 2.12132 -2.12132 
C 1.55874 -2.683901 0.795609 -3 0 -3 
C -0.795609 -3 -1.55874 -2.683901 -2.12132 -2.12132 
C -2.683901 -1.55874 -3 -0.795609 -3 0 
C -3 0.795609 -2.683901 1.55874 -2.12132 2.12132 
C -1.55874 2.683901 -0.795609 3 0 3 
z
" id="m3fc840f4c5" style="stroke:#ff7f0e;"/>
    </defs>
    <g clip-path="url(#pf5ee4cb82f)">
     <use style="fill:#ff7f0e;stroke:#ff7f0e;" x="58.902065" xlink:href="#m3fc840f4c5" y="412.723772"/>
     <use style="fill:#ff7f0e;stroke:#ff7f0e;" x="98.065872" xlink:href="#m3fc840f4c5" y="411.515495"/>
     <use style="fill:#ff7f0e;stroke:#ff7f0e;" x="137.229589" xlink:href="#m3fc840f4c5" y="415.320011"/>
     <use style="fill:#ff7f0e;stroke:#ff7f0e;" x="176.393382" xlink:href="#m3fc840f4c5" y="415.913059"/>
     <use style="fill:#ff7f0e;stroke:#ff7f0e;" x="215.557174" xlink:href="#m3fc840f4c5" y="406.888217"/>
     <use style="fill:#ff7f0e;stroke:#ff7f0e;" x="254.720966" xlink:href="#m3fc840f4c5" y="423.723102"/>
     <use style="fill:#ff7f0e;stroke:#ff7f0e;" x="293.884684" xlink:href="#m3fc840f4c5" y="410.074031"/>
     <use style="fill:#ff7f0e;stroke:#ff7f0e;" x="333.048476" xlink:href="#m3fc840f4c5" y="425.049262"/>
     <use style="fill:#ff7f0e;stroke:#ff7f0e;" x="372.212268" xlink:href="#m3fc840f4c5" y="413.815492"/>
     <use style="fill:#ff7f0e;stroke:#ff7f0e;" x="411.37606" xlink:href="#m3fc840f4c5" y="417.657868"/>
    </g>
   </g>
   <g id="line2d_39">
    <path clip-path="url(#pf5ee4cb82f)" d="M 58.902065 414.072938 
L 98.065872 411.618322 
L 137.229589 406.730559 
L 176.393382 416.976647 
L 215.557174 415.981417 
L 254.720966 418.300032 
L 293.884684 415.452331 
L 333.048476 417.83638 
L 372.212268 416.190458 
L 411.37606 410.025095 
" style="fill:none;stroke:#ff7f0e;stroke-dasharray:5.55,2.4;stroke-dashoffset:0;stroke-width:1.5;"/>
    <g clip-path="url(#pf5ee4cb82f)">
     <use style="fill:#ff7f0e;stroke:#ff7f0e;" x="58.902065" xlink:href="#m3fc840f4c5" y="414.072938"/>
     <use style="fill:#ff7f0e;stroke:#ff7f0e;" x="98.065872" xlink:href="#m3fc840f4c5" y="411.618322"/>
     <use style="fill:#ff7f0e;stroke:#ff7f0e;" x="137.229589" xlink:href="#m3fc840f4c5" y="406.730559"/>
     <use style="fill:#ff7f0e;stroke:#ff7f0e;" x="176.393382" xlink:href="#m3fc840f4c5" y="416.976647"/>
     <use style="fill:#ff7f0e;stroke:#ff7f0e;" x="215.557174" xlink:href="#m3fc840f4c5" y="415.981417"/>
     <use style="fill:#ff7f0e;stroke:#ff7f0e;" x="254.720966" xlink:href="#m3fc840f4c5" y="418.300032"/>
     <use style="fill:#ff7f0e;stroke:#ff7f0e;" x="293.884684" xlink:href="#m3fc840f4c5" y="415.452331"/>
     <use style="fill:#ff7f0e;stroke:#ff7f0e;" x="333.048476" xlink:href="#m3fc840f4c5" y="417.83638"/>
     <use style="fill:#ff7f0e;stroke:#ff7f0e;" x="372.212268" xlink:href="#m3fc840f4c5" y="416.190458"/>
     <use style="fill:#ff7f0e;stroke:#ff7f0e;" x="411.37606" xlink:href="#m3fc840f4c5" y="410.025095"/>
    </g>
   </g>
   <g id="line2d_40">
    <path clip-path="url(#pf5ee4cb82f)" d="M 58.902065 407.378276 
L 98.065872 398.106726 
L 137.229589 411.349763 
L 176.393382 414.096176 
L 215.557174 404.985933 
L 254.720966 404.710336 
L 293.884684 409.689786 
L 333.048476 393.218465 
L 372.212268 397.863348 
L 411.37606 404.754224 
" style="fill:none;stroke:#ff7f0e;stroke-dasharray:1.5,2.475;stroke-dashoffset:0;stroke-width:1.5;"/>
    <g clip-path="url(#pf5ee4cb82f)">
     <use style="fill:#ff7f0e;stroke:#ff7f0e;" x="58.902065" xlink:href="#m3fc840f4c5" y="407.378276"/>
     <use style="fill:#ff7f0e;stroke:#ff7f0e;" x="98.065872" xlink:href="#m3fc840f4c5" y="398.106726"/>
     <use style="fill:#ff7f0e;stroke:#ff7f0e;" x="137.229589" xlink:href="#m3fc840f4c5" y="411.349763"/>
     <use style="fill:#ff7f0e;stroke:#ff7f0e;" x="176.393382" xlink:href="#m3fc840f4c5" y="414.096176"/>
     <use style="fill:#ff7f0e;stroke:#ff7f0e;" x="215.557174" xlink:href="#m3fc840f4c5" y="404.985933"/>
     <use style="fill:#ff7f0e;stroke:#ff7f0e;" x="254.720966" xlink:href="#m3fc840f4c5" y="404.710336"/>
     <use style="fill:#ff7f0e;stroke:#ff7f0e;" x="293.884684" xlink:href="#m3fc840f4c5" y="409.689786"/>
     <use style="fill:#ff7f0e;stroke:#ff7f0e;" x="333.048476" xlink:href="#m3fc840f4c5" y="393.218465"/>
     <use style="fill:#ff7f0e;stroke:#ff7f0e;" x="372.212268" xlink:href="#m3fc840f4c5" y="397.863348"/>
     <use style="fill:#ff7f0e;stroke:#ff7f0e;" x="411.37606" xlink:href="#m3fc840f4c5" y="404.754224"/>
    </g>
   </g>
   <g id="line2d_41">
    <path clip-path="url(#pf5ee4cb82f)" d="M 58.902065 342.16117 
L 98.065872 341.140312 
L 137.229589 345.09982 
L 176.393382 342.954677 
L 215.557174 338.257056 
L 254.720966 340.94406 
L 293.884684 339.931163 
L 333.048476 339.317789 
L 372.212268 343.095106 
L 411.37606 334.657108 
" style="fill:none;stroke:#2ca02c;stroke-linecap:square;stroke-width:1.5;"/>
    <defs>
     <path d="M 0 3 
C 0.795609 3 1.55874 2.683901 2.12132 2.12132 
C 2.683901 1.55874 3 0.795609 3 0 
C 3 -0.795609 2.683901 -1.55874 2.12132 -2.12132 
C 1.55874 -2.683901 0.795609 -3 0 -3 
C -0.795609 -3 -1.55874 -2.683901 -2.12132 -2.12132 
C -2.683901 -1.55874 -3 -0.795609 -3 0 
C -3 0.795609 -2.683901 1.55874 -2.12132 2.12132 
C -1.55874 2.683901 -0.795609 3 0 3 
z
" id="m73c6198513" style="stroke:#2ca02c;"/>
    </defs>
    <g clip-path="url(#pf5ee4cb82f)">
     <use style="fill:#2ca02c;stroke:#2ca02c;" x="58.902065" xlink:href="#m73c6198513" y="342.16117"/>
     <use style="fill:#2ca02c;stroke:#2ca02c;" x="98.065872" xlink:href="#m73c6198513" y="341.140312"/>
     <use style="fill:#2ca02c;stroke:#2ca02c;" x="137.229589" xlink:href="#m73c6198513" y="345.09982"/>
     <use style="fill:#2ca02c;stroke:#2ca02c;" x="176.393382" xlink:href="#m73c6198513" y="342.954677"/>
     <use style="fill:#2ca02c;stroke:#2ca02c;" x="215.557174" xlink:href="#m73c6198513" y="338.257056"/>
     <use style="fill:#2ca02c;stroke:#2ca02c;" x="254.720966" xlink:href="#m73c6198513" y="340.94406"/>
     <use style="fill:#2ca02c;stroke:#2ca02c;" x="293.884684" xlink:href="#m73c6198513" y="339.931163"/>
     <use style="fill:#2ca02c;stroke:#2ca02c;" x="333.048476" xlink:href="#m73c6198513" y="339.317789"/>
     <use style="fill:#2ca02c;stroke:#2ca02c;" x="372.212268" xlink:href="#m73c6198513" y="343.095106"/>
     <use style="fill:#2ca02c;stroke:#2ca02c;" x="411.37606" xlink:href="#m73c6198513" y="334.657108"/>
    </g>
   </g>
   <g id="line2d_42">
    <path clip-path="url(#pf5ee4cb82f)" d="M 58.902065 337.588722 
L 98.065872 334.330979 
L 137.229589 339.43101 
L 176.393382 337.97556 
L 215.557174 332.472396 
L 254.720966 334.985966 
L 293.884684 335.966507 
L 333.048476 334.024645 
L 372.212268 333.837685 
L 411.37606 331.277527 
" style="fill:none;stroke:#2ca02c;stroke-dasharray:5.55,2.4;stroke-dashoffset:0;stroke-width:1.5;"/>
    <g clip-path="url(#pf5ee4cb82f)">
     <use style="fill:#2ca02c;stroke:#2ca02c;" x="58.902065" xlink:href="#m73c6198513" y="337.588722"/>
     <use style="fill:#2ca02c;stroke:#2ca02c;" x="98.065872" xlink:href="#m73c6198513" y="334.330979"/>
     <use style="fill:#2ca02c;stroke:#2ca02c;" x="137.229589" xlink:href="#m73c6198513" y="339.43101"/>
     <use style="fill:#2ca02c;stroke:#2ca02c;" x="176.393382" xlink:href="#m73c6198513" y="337.97556"/>
     <use style="fill:#2ca02c;stroke:#2ca02c;" x="215.557174" xlink:href="#m73c6198513" y="332.472396"/>
     <use style="fill:#2ca02c;stroke:#2ca02c;" x="254.720966" xlink:href="#m73c6198513" y="334.985966"/>
     <use style="fill:#2ca02c;stroke:#2ca02c;" x="293.884684" xlink:href="#m73c6198513" y="335.966507"/>
     <use style="fill:#2ca02c;stroke:#2ca02c;" x="333.048476" xlink:href="#m73c6198513" y="334.024645"/>
     <use style="fill:#2ca02c;stroke:#2ca02c;" x="372.212268" xlink:href="#m73c6198513" y="333.837685"/>
     <use style="fill:#2ca02c;stroke:#2ca02c;" x="411.37606" xlink:href="#m73c6198513" y="331.277527"/>
    </g>
   </g>
   <g id="line2d_43">
    <path clip-path="url(#pf5ee4cb82f)" d="M 58.902065 336.008459 
L 98.065872 338.369329 
L 137.229589 337.677296 
L 176.393382 335.713229 
L 215.557174 336.55413 
L 254.720966 331.653879 
L 293.884684 332.692738 
L 333.048476 333.48141 
L 372.212268 332.229992 
L 411.37606 334.641465 
" style="fill:none;stroke:#2ca02c;stroke-dasharray:1.5,2.475;stroke-dashoffset:0;stroke-width:1.5;"/>
    <g clip-path="url(#pf5ee4cb82f)">
     <use style="fill:#2ca02c;stroke:#2ca02c;" x="58.902065" xlink:href="#m73c6198513" y="336.008459"/>
     <use style="fill:#2ca02c;stroke:#2ca02c;" x="98.065872" xlink:href="#m73c6198513" y="338.369329"/>
     <use style="fill:#2ca02c;stroke:#2ca02c;" x="137.229589" xlink:href="#m73c6198513" y="337.677296"/>
     <use style="fill:#2ca02c;stroke:#2ca02c;" x="176.393382" xlink:href="#m73c6198513" y="335.713229"/>
     <use style="fill:#2ca02c;stroke:#2ca02c;" x="215.557174" xlink:href="#m73c6198513" y="336.55413"/>
     <use style="fill:#2ca02c;stroke:#2ca02c;" x="254.720966" xlink:href="#m73c6198513" y="331.653879"/>
     <use style="fill:#2ca02c;stroke:#2ca02c;" x="293.884684" xlink:href="#m73c6198513" y="332.692738"/>
     <use style="fill:#2ca02c;stroke:#2ca02c;" x="333.048476" xlink:href="#m73c6198513" y="333.48141"/>
     <use style="fill:#2ca02c;stroke:#2ca02c;" x="372.212268" xlink:href="#m73c6198513" y="332.229992"/>
     <use style="fill:#2ca02c;stroke:#2ca02c;" x="411.37606" xlink:href="#m73c6198513" y="334.641465"/>
    </g>
   </g>
   <g id="line2d_44">
    <path clip-path="url(#pf5ee4cb82f)" d="M 58.902065 220.424694 
L 98.065872 222.256417 
L 137.229589 223.941567 
L 176.393382 219.917643 
L 215.557174 219.342722 
L 254.720966 223.524636 
L 293.884684 221.663095 
L 333.048476 223.0516 
L 372.212268 221.868033 
L 411.37606 218.185472 
" style="fill:none;stroke:#d62728;stroke-linecap:square;stroke-width:1.5;"/>
    <defs>
     <path d="M 0 3 
C 0.795609 3 1.55874 2.683901 2.12132 2.12132 
C 2.683901 1.55874 3 0.795609 3 0 
C 3 -0.795609 2.683901 -1.55874 2.12132 -2.12132 
C 1.55874 -2.683901 0.795609 -3 0 -3 
C -0.795609 -3 -1.55874 -2.683901 -2.12132 -2.12132 
C -2.683901 -1.55874 -3 -0.795609 -3 0 
C -3 0.795609 -2.683901 1.55874 -2.12132 2.12132 
C -1.55874 2.683901 -0.795609 3 0 3 
z
" id="m37945df75c" style="stroke:#d62728;"/>
    </defs>
    <g clip-path="url(#pf5ee4cb82f)">
     <use style="fill:#d62728;stroke:#d62728;" x="58.902065" xlink:href="#m37945df75c" y="220.424694"/>
     <use style="fill:#d62728;stroke:#d62728;" x="98.065872" xlink:href="#m37945df75c" y="222.256417"/>
     <use style="fill:#d62728;stroke:#d62728;" x="137.229589" xlink:href="#m37945df75c" y="223.941567"/>
     <use style="fill:#d62728;stroke:#d62728;" x="176.393382" xlink:href="#m37945df75c" y="219.917643"/>
     <use style="fill:#d62728;stroke:#d62728;" x="215.557174" xlink:href="#m37945df75c" y="219.342722"/>
     <use style="fill:#d62728;stroke:#d62728;" x="254.720966" xlink:href="#m37945df75c" y="223.524636"/>
     <use style="fill:#d62728;stroke:#d62728;" x="293.884684" xlink:href="#m37945df75c" y="221.663095"/>
     <use style="fill:#d62728;stroke:#d62728;" x="333.048476" xlink:href="#m37945df75c" y="223.0516"/>
     <use style="fill:#d62728;stroke:#d62728;" x="372.212268" xlink:href="#m37945df75c" y="221.868033"/>
     <use style="fill:#d62728;stroke:#d62728;" x="411.37606" xlink:href="#m37945df75c" y="218.185472"/>
    </g>
   </g>
   <g id="line2d_45">
    <path clip-path="url(#pf5ee4cb82f)" d="M 58.902065 212.74193 
L 98.065872 214.103554 
L 137.229589 214.014885 
L 176.393382 213.761991 
L 215.557174 214.907153 
L 254.720966 211.648099 
L 293.884684 214.843409 
L 333.048476 212.957954 
L 372.212268 210.942431 
L 411.37606 211.631899 
" style="fill:none;stroke:#d62728;stroke-dasharray:5.55,2.4;stroke-dashoffset:0;stroke-width:1.5;"/>
    <g clip-path="url(#pf5ee4cb82f)">
     <use style="fill:#d62728;stroke:#d62728;" x="58.902065" xlink:href="#m37945df75c" y="212.74193"/>
     <use style="fill:#d62728;stroke:#d62728;" x="98.065872" xlink:href="#m37945df75c" y="214.103554"/>
     <use style="fill:#d62728;stroke:#d62728;" x="137.229589" xlink:href="#m37945df75c" y="214.014885"/>
     <use style="fill:#d62728;stroke:#d62728;" x="176.393382" xlink:href="#m37945df75c" y="213.761991"/>
     <use style="fill:#d62728;stroke:#d62728;" x="215.557174" xlink:href="#m37945df75c" y="214.907153"/>
     <use style="fill:#d62728;stroke:#d62728;" x="254.720966" xlink:href="#m37945df75c" y="211.648099"/>
     <use style="fill:#d62728;stroke:#d62728;" x="293.884684" xlink:href="#m37945df75c" y="214.843409"/>
     <use style="fill:#d62728;stroke:#d62728;" x="333.048476" xlink:href="#m37945df75c" y="212.957954"/>
     <use style="fill:#d62728;stroke:#d62728;" x="372.212268" xlink:href="#m37945df75c" y="210.942431"/>
     <use style="fill:#d62728;stroke:#d62728;" x="411.37606" xlink:href="#m37945df75c" y="211.631899"/>
    </g>
   </g>
   <g id="line2d_46">
    <path clip-path="url(#pf5ee4cb82f)" d="M 58.902065 199.510341 
L 98.065872 203.866864 
L 137.229589 207.389351 
L 176.393382 207.524854 
L 215.557174 206.694931 
L 254.720966 207.08285 
L 293.884684 207.464713 
L 333.048476 206.688127 
L 372.212268 206.947909 
L 411.37606 205.492804 
" style="fill:none;stroke:#d62728;stroke-dasharray:1.5,2.475;stroke-dashoffset:0;stroke-width:1.5;"/>
    <g clip-path="url(#pf5ee4cb82f)">
     <use style="fill:#d62728;stroke:#d62728;" x="58.902065" xlink:href="#m37945df75c" y="199.510341"/>
     <use style="fill:#d62728;stroke:#d62728;" x="98.065872" xlink:href="#m37945df75c" y="203.866864"/>
     <use style="fill:#d62728;stroke:#d62728;" x="137.229589" xlink:href="#m37945df75c" y="207.389351"/>
     <use style="fill:#d62728;stroke:#d62728;" x="176.393382" xlink:href="#m37945df75c" y="207.524854"/>
     <use style="fill:#d62728;stroke:#d62728;" x="215.557174" xlink:href="#m37945df75c" y="206.694931"/>
     <use style="fill:#d62728;stroke:#d62728;" x="254.720966" xlink:href="#m37945df75c" y="207.08285"/>
     <use style="fill:#d62728;stroke:#d62728;" x="293.884684" xlink:href="#m37945df75c" y="207.464713"/>
     <use style="fill:#d62728;stroke:#d62728;" x="333.048476" xlink:href="#m37945df75c" y="206.688127"/>
     <use style="fill:#d62728;stroke:#d62728;" x="372.212268" xlink:href="#m37945df75c" y="206.947909"/>
     <use style="fill:#d62728;stroke:#d62728;" x="411.37606" xlink:href="#m37945df75c" y="205.492804"/>
    </g>
   </g>
   <g id="line2d_47">
    <path clip-path="url(#pf5ee4cb82f)" d="M 58.902065 55.124161 
L 98.065872 58.563572 
L 137.229589 59.117557 
L 176.393382 61.604082 
L 215.557174 61.580013 
L 254.720966 62.938825 
L 293.884684 62.575998 
L 333.048476 62.407407 
L 372.212268 55.283184 
L 411.37606 57.599775 
" style="fill:none;stroke:#9467bd;stroke-linecap:square;stroke-width:1.5;"/>
    <defs>
     <path d="M 0 3 
C 0.795609 3 1.55874 2.683901 2.12132 2.12132 
C 2.683901 1.55874 3 0.795609 3 0 
C 3 -0.795609 2.683901 -1.55874 2.12132 -2.12132 
C 1.55874 -2.683901 0.795609 -3 0 -3 
C -0.795609 -3 -1.55874 -2.683901 -2.12132 -2.12132 
C -2.683901 -1.55874 -3 -0.795609 -3 0 
C -3 0.795609 -2.683901 1.55874 -2.12132 2.12132 
C -1.55874 2.683901 -0.795609 3 0 3 
z
" id="ma26c6068f7" style="stroke:#9467bd;"/>
    </defs>
    <g clip-path="url(#pf5ee4cb82f)">
     <use style="fill:#9467bd;stroke:#9467bd;" x="58.902065" xlink:href="#ma26c6068f7" y="55.124161"/>
     <use style="fill:#9467bd;stroke:#9467bd;" x="98.065872" xlink:href="#ma26c6068f7" y="58.563572"/>
     <use style="fill:#9467bd;stroke:#9467bd;" x="137.229589" xlink:href="#ma26c6068f7" y="59.117557"/>
     <use style="fill:#9467bd;stroke:#9467bd;" x="176.393382" xlink:href="#ma26c6068f7" y="61.604082"/>
     <use style="fill:#9467bd;stroke:#9467bd;" x="215.557174" xlink:href="#ma26c6068f7" y="61.580013"/>
     <use style="fill:#9467bd;stroke:#9467bd;" x="254.720966" xlink:href="#ma26c6068f7" y="62.938825"/>
     <use style="fill:#9467bd;stroke:#9467bd;" x="293.884684" xlink:href="#ma26c6068f7" y="62.575998"/>
     <use style="fill:#9467bd;stroke:#9467bd;" x="333.048476" xlink:href="#ma26c6068f7" y="62.407407"/>
     <use style="fill:#9467bd;stroke:#9467bd;" x="372.212268" xlink:href="#ma26c6068f7" y="55.283184"/>
     <use style="fill:#9467bd;stroke:#9467bd;" x="411.37606" xlink:href="#ma26c6068f7" y="57.599775"/>
    </g>
   </g>
   <g id="line2d_48">
    <path clip-path="url(#pf5ee4cb82f)" d="M 58.902065 53.422462 
L 98.065872 55.475594 
L 137.229589 55.161852 
L 176.393382 56.4847 
L 215.557174 57.764962 
L 254.720966 56.841739 
L 293.884684 55.013147 
L 333.048476 54.920713 
L 372.212268 53.176789 
L 411.37606 52.005298 
" style="fill:none;stroke:#9467bd;stroke-dasharray:5.55,2.4;stroke-dashoffset:0;stroke-width:1.5;"/>
    <g clip-path="url(#pf5ee4cb82f)">
     <use style="fill:#9467bd;stroke:#9467bd;" x="58.902065" xlink:href="#ma26c6068f7" y="53.422462"/>
     <use style="fill:#9467bd;stroke:#9467bd;" x="98.065872" xlink:href="#ma26c6068f7" y="55.475594"/>
     <use style="fill:#9467bd;stroke:#9467bd;" x="137.229589" xlink:href="#ma26c6068f7" y="55.161852"/>
     <use style="fill:#9467bd;stroke:#9467bd;" x="176.393382" xlink:href="#ma26c6068f7" y="56.4847"/>
     <use style="fill:#9467bd;stroke:#9467bd;" x="215.557174" xlink:href="#ma26c6068f7" y="57.764962"/>
     <use style="fill:#9467bd;stroke:#9467bd;" x="254.720966" xlink:href="#ma26c6068f7" y="56.841739"/>
     <use style="fill:#9467bd;stroke:#9467bd;" x="293.884684" xlink:href="#ma26c6068f7" y="55.013147"/>
     <use style="fill:#9467bd;stroke:#9467bd;" x="333.048476" xlink:href="#ma26c6068f7" y="54.920713"/>
     <use style="fill:#9467bd;stroke:#9467bd;" x="372.212268" xlink:href="#ma26c6068f7" y="53.176789"/>
     <use style="fill:#9467bd;stroke:#9467bd;" x="411.37606" xlink:href="#ma26c6068f7" y="52.005298"/>
    </g>
   </g>
   <g id="line2d_49">
    <path clip-path="url(#pf5ee4cb82f)" d="M 58.902065 30.62583 
L 98.065872 33.410287 
L 137.229589 28.233517 
L 176.393382 35.058103 
L 215.557174 38.240222 
L 254.720966 31.18923 
L 293.884684 27.52948 
L 333.048476 37.554469 
L 372.212268 34.792315 
L 411.37606 34.511409 
" style="fill:none;stroke:#9467bd;stroke-dasharray:1.5,2.475;stroke-dashoffset:0;stroke-width:1.5;"/>
    <g clip-path="url(#pf5ee4cb82f)">
     <use style="fill:#9467bd;stroke:#9467bd;" x="58.902065" xlink:href="#ma26c6068f7" y="30.62583"/>
     <use style="fill:#9467bd;stroke:#9467bd;" x="98.065872" xlink:href="#ma26c6068f7" y="33.410287"/>
     <use style="fill:#9467bd;stroke:#9467bd;" x="137.229589" xlink:href="#ma26c6068f7" y="28.233517"/>
     <use style="fill:#9467bd;stroke:#9467bd;" x="176.393382" xlink:href="#ma26c6068f7" y="35.058103"/>
     <use style="fill:#9467bd;stroke:#9467bd;" x="215.557174" xlink:href="#ma26c6068f7" y="38.240222"/>
     <use style="fill:#9467bd;stroke:#9467bd;" x="254.720966" xlink:href="#ma26c6068f7" y="31.18923"/>
     <use style="fill:#9467bd;stroke:#9467bd;" x="293.884684" xlink:href="#ma26c6068f7" y="27.52948"/>
     <use style="fill:#9467bd;stroke:#9467bd;" x="333.048476" xlink:href="#ma26c6068f7" y="37.554469"/>
     <use style="fill:#9467bd;stroke:#9467bd;" x="372.212268" xlink:href="#ma26c6068f7" y="34.792315"/>
     <use style="fill:#9467bd;stroke:#9467bd;" x="411.37606" xlink:href="#ma26c6068f7" y="34.511409"/>
    </g>
   </g>
   <g id="patch_3">
    <path d="M 41.278365 542.64351 
L 41.278365 3.00024 
" style="fill:none;stroke:#000000;stroke-linecap:square;stroke-linejoin:miter;stroke-width:0.8;"/>
   </g>
   <g id="patch_4">
    <path d="M 428.99976 542.64351 
L 428.99976 3.00024 
" style="fill:none;stroke:#000000;stroke-linecap:square;stroke-linejoin:miter;stroke-width:0.8;"/>
   </g>
   <g id="patch_5">
    <path d="M 41.278365 542.64351 
L 428.99976 542.64351 
" style="fill:none;stroke:#000000;stroke-linecap:square;stroke-linejoin:miter;stroke-width:0.8;"/>
   </g>
   <g id="patch_6">
    <path d="M 41.278365 3.00024 
L 428.99976 3.00024 
" style="fill:none;stroke:#000000;stroke-linecap:square;stroke-linejoin:miter;stroke-width:0.8;"/>
   </g>
   <g id="legend_1">
    <g id="patch_7">
     <path d="M 315.326323 311.017187 
L 421.99976 311.017187 
Q 423.99976 311.017187 423.99976 309.017187 
L 423.99976 236.626562 
Q 423.99976 234.626562 421.99976 234.626562 
L 315.326323 234.626562 
Q 313.326323 234.626562 313.326323 236.626562 
L 313.326323 309.017187 
Q 313.326323 311.017187 315.326323 311.017187 
z
" style="fill:#ffffff;opacity:0.8;stroke:#cccccc;stroke-linejoin:miter;"/>
    </g>
    <g id="line2d_50">
     <path d="M 317.326323 242.725 
L 337.326323 242.725 
" style="fill:none;stroke:#9467bd;stroke-linecap:square;stroke-width:1.5;"/>
    </g>
    <g id="line2d_51">
     <g>
      <use style="fill:#9467bd;stroke:#9467bd;" x="327.326323" xlink:href="#ma26c6068f7" y="242.725"/>
     </g>
    </g>
    <g id="text_11">
     <!--  14608 noeuds -->
     <defs>
      <path d="M 37.796875 64.3125 
L 12.890625 25.390625 
L 37.796875 25.390625 
z
M 35.203125 72.90625 
L 47.609375 72.90625 
L 47.609375 25.390625 
L 58.015625 25.390625 
L 58.015625 17.1875 
L 47.609375 17.1875 
L 47.609375 0 
L 37.796875 0 
L 37.796875 17.1875 
L 4.890625 17.1875 
L 4.890625 26.703125 
z
" id="DejaVuSans-52"/>
      <path d="M 33.015625 40.375 
Q 26.375 40.375 22.484375 35.828125 
Q 18.609375 31.296875 18.609375 23.390625 
Q 18.609375 15.53125 22.484375 10.953125 
Q 26.375 6.390625 33.015625 6.390625 
Q 39.65625 6.390625 43.53125 10.953125 
Q 47.40625 15.53125 47.40625 23.390625 
Q 47.40625 31.296875 43.53125 35.828125 
Q 39.65625 40.375 33.015625 40.375 
z
M 52.59375 71.296875 
L 52.59375 62.3125 
Q 48.875 64.0625 45.09375 64.984375 
Q 41.3125 65.921875 37.59375 65.921875 
Q 27.828125 65.921875 22.671875 59.328125 
Q 17.53125 52.734375 16.796875 39.40625 
Q 19.671875 43.65625 24.015625 45.921875 
Q 28.375 48.1875 33.59375 48.1875 
Q 44.578125 48.1875 50.953125 41.515625 
Q 57.328125 34.859375 57.328125 23.390625 
Q 57.328125 12.15625 50.6875 5.359375 
Q 44.046875 -1.421875 33.015625 -1.421875 
Q 20.359375 -1.421875 13.671875 8.265625 
Q 6.984375 17.96875 6.984375 36.375 
Q 6.984375 53.65625 15.1875 63.9375 
Q 23.390625 74.21875 37.203125 74.21875 
Q 40.921875 74.21875 44.703125 73.484375 
Q 48.484375 72.75 52.59375 71.296875 
z
" id="DejaVuSans-54"/>
      <path d="M 31.78125 34.625 
Q 24.75 34.625 20.71875 30.859375 
Q 16.703125 27.09375 16.703125 20.515625 
Q 16.703125 13.921875 20.71875 10.15625 
Q 24.75 6.390625 31.78125 6.390625 
Q 38.8125 6.390625 42.859375 10.171875 
Q 46.921875 13.96875 46.921875 20.515625 
Q 46.921875 27.09375 42.890625 30.859375 
Q 38.875 34.625 31.78125 34.625 
z
M 21.921875 38.8125 
Q 15.578125 40.375 12.03125 44.71875 
Q 8.5 49.078125 8.5 55.328125 
Q 8.5 64.0625 14.71875 69.140625 
Q 20.953125 74.21875 31.78125 74.21875 
Q 42.671875 74.21875 48.875 69.140625 
Q 55.078125 64.0625 55.078125 55.328125 
Q 55.078125 49.078125 51.53125 44.71875 
Q 48 40.375 41.703125 38.8125 
Q 48.828125 37.15625 52.796875 32.3125 
Q 56.78125 27.484375 56.78125 20.515625 
Q 56.78125 9.90625 50.3125 4.234375 
Q 43.84375 -1.421875 31.78125 -1.421875 
Q 19.734375 -1.421875 13.25 4.234375 
Q 6.78125 9.90625 6.78125 20.515625 
Q 6.78125 27.484375 10.78125 32.3125 
Q 14.796875 37.15625 21.921875 38.8125 
z
M 18.3125 54.390625 
Q 18.3125 48.734375 21.84375 45.5625 
Q 25.390625 42.390625 31.78125 42.390625 
Q 38.140625 42.390625 41.71875 45.5625 
Q 45.3125 48.734375 45.3125 54.390625 
Q 45.3125 60.0625 41.71875 63.234375 
Q 38.140625 66.40625 31.78125 66.40625 
Q 25.390625 66.40625 21.84375 63.234375 
Q 18.3125 60.0625 18.3125 54.390625 
z
" id="DejaVuSans-56"/>
      <path d="M 54.890625 33.015625 
L 54.890625 0 
L 45.90625 0 
L 45.90625 32.71875 
Q 45.90625 40.484375 42.875 44.328125 
Q 39.84375 48.1875 33.796875 48.1875 
Q 26.515625 48.1875 22.3125 43.546875 
Q 18.109375 38.921875 18.109375 30.90625 
L 18.109375 0 
L 9.078125 0 
L 9.078125 54.6875 
L 18.109375 54.6875 
L 18.109375 46.1875 
Q 21.34375 51.125 25.703125 53.5625 
Q 30.078125 56 35.796875 56 
Q 45.21875 56 50.046875 50.171875 
Q 54.890625 44.34375 54.890625 33.015625 
z
" id="DejaVuSans-110"/>
      <path d="M 30.609375 48.390625 
Q 23.390625 48.390625 19.1875 42.75 
Q 14.984375 37.109375 14.984375 27.296875 
Q 14.984375 17.484375 19.15625 11.84375 
Q 23.34375 6.203125 30.609375 6.203125 
Q 37.796875 6.203125 41.984375 11.859375 
Q 46.1875 17.53125 46.1875 27.296875 
Q 46.1875 37.015625 41.984375 42.703125 
Q 37.796875 48.390625 30.609375 48.390625 
z
M 30.609375 56 
Q 42.328125 56 49.015625 48.375 
Q 55.71875 40.765625 55.71875 27.296875 
Q 55.71875 13.875 49.015625 6.21875 
Q 42.328125 -1.421875 30.609375 -1.421875 
Q 18.84375 -1.421875 12.171875 6.21875 
Q 5.515625 13.875 5.515625 27.296875 
Q 5.515625 40.765625 12.171875 48.375 
Q 18.84375 56 30.609375 56 
z
" id="DejaVuSans-111"/>
      <path d="M 8.5 21.578125 
L 8.5 54.6875 
L 17.484375 54.6875 
L 17.484375 21.921875 
Q 17.484375 14.15625 20.5 10.265625 
Q 23.53125 6.390625 29.59375 6.390625 
Q 36.859375 6.390625 41.078125 11.03125 
Q 45.3125 15.671875 45.3125 23.6875 
L 45.3125 54.6875 
L 54.296875 54.6875 
L 54.296875 0 
L 45.3125 0 
L 45.3125 8.40625 
Q 42.046875 3.421875 37.71875 1 
Q 33.40625 -1.421875 27.6875 -1.421875 
Q 18.265625 -1.421875 13.375 4.4375 
Q 8.5 10.296875 8.5 21.578125 
z
M 31.109375 56 
z
" id="DejaVuSans-117"/>
      <path d="M 45.40625 46.390625 
L 45.40625 75.984375 
L 54.390625 75.984375 
L 54.390625 0 
L 45.40625 0 
L 45.40625 8.203125 
Q 42.578125 3.328125 38.25 0.953125 
Q 33.9375 -1.421875 27.875 -1.421875 
Q 17.96875 -1.421875 11.734375 6.484375 
Q 5.515625 14.40625 5.515625 27.296875 
Q 5.515625 40.1875 11.734375 48.09375 
Q 17.96875 56 27.875 56 
Q 33.9375 56 38.25 53.625 
Q 42.578125 51.265625 45.40625 46.390625 
z
M 14.796875 27.296875 
Q 14.796875 17.390625 18.875 11.75 
Q 22.953125 6.109375 30.078125 6.109375 
Q 37.203125 6.109375 41.296875 11.75 
Q 45.40625 17.390625 45.40625 27.296875 
Q 45.40625 37.203125 41.296875 42.84375 
Q 37.203125 48.484375 30.078125 48.484375 
Q 22.953125 48.484375 18.875 42.84375 
Q 14.796875 37.203125 14.796875 27.296875 
z
" id="DejaVuSans-100"/>
     </defs>
     <g transform="translate(345.326323 246.225)scale(0.1 -0.1)">
      <use xlink:href="#DejaVuSans-32"/>
      <use x="31.787109" xlink:href="#DejaVuSans-49"/>
      <use x="95.410156" xlink:href="#DejaVuSans-52"/>
      <use x="159.033203" xlink:href="#DejaVuSans-54"/>
      <use x="222.65625" xlink:href="#DejaVuSans-48"/>
      <use x="286.279297" xlink:href="#DejaVuSans-56"/>
      <use x="349.902344" xlink:href="#DejaVuSans-32"/>
      <use x="381.689453" xlink:href="#DejaVuSans-110"/>
      <use x="445.068359" xlink:href="#DejaVuSans-111"/>
      <use x="506.25" xlink:href="#DejaVuSans-101"/>
      <use x="567.773438" xlink:href="#DejaVuSans-117"/>
      <use x="631.152344" xlink:href="#DejaVuSans-100"/>
      <use x="694.628906" xlink:href="#DejaVuSans-115"/>
     </g>
    </g>
    <g id="line2d_52">
     <path d="M 317.326323 257.403125 
L 337.326323 257.403125 
" style="fill:none;stroke:#d62728;stroke-linecap:square;stroke-width:1.5;"/>
    </g>
    <g id="line2d_53">
     <g>
      <use style="fill:#d62728;stroke:#d62728;" x="327.326323" xlink:href="#m37945df75c" y="257.403125"/>
     </g>
    </g>
    <g id="text_12">
     <!--   4424 noeuds -->
     <g transform="translate(345.326323 260.903125)scale(0.1 -0.1)">
      <use xlink:href="#DejaVuSans-32"/>
      <use x="31.787109" xlink:href="#DejaVuSans-32"/>
      <use x="63.574219" xlink:href="#DejaVuSans-52"/>
      <use x="127.197266" xlink:href="#DejaVuSans-52"/>
      <use x="190.820312" xlink:href="#DejaVuSans-50"/>
      <use x="254.443359" xlink:href="#DejaVuSans-52"/>
      <use x="318.066406" xlink:href="#DejaVuSans-32"/>
      <use x="349.853516" xlink:href="#DejaVuSans-110"/>
      <use x="413.232422" xlink:href="#DejaVuSans-111"/>
      <use x="474.414062" xlink:href="#DejaVuSans-101"/>
      <use x="535.9375" xlink:href="#DejaVuSans-117"/>
      <use x="599.316406" xlink:href="#DejaVuSans-100"/>
      <use x="662.792969" xlink:href="#DejaVuSans-115"/>
     </g>
    </g>
    <g id="line2d_54">
     <path d="M 317.326323 272.08125 
L 337.326323 272.08125 
" style="fill:none;stroke:#2ca02c;stroke-linecap:square;stroke-width:1.5;"/>
    </g>
    <g id="line2d_55">
     <g>
      <use style="fill:#2ca02c;stroke:#2ca02c;" x="327.326323" xlink:href="#m73c6198513" y="272.08125"/>
     </g>
    </g>
    <g id="text_13">
     <!--   1667 noeuds -->
     <defs>
      <path d="M 8.203125 72.90625 
L 55.078125 72.90625 
L 55.078125 68.703125 
L 28.609375 0 
L 18.3125 0 
L 43.21875 64.59375 
L 8.203125 64.59375 
z
" id="DejaVuSans-55"/>
     </defs>
     <g transform="translate(345.326323 275.58125)scale(0.1 -0.1)">
      <use xlink:href="#DejaVuSans-32"/>
      <use x="31.787109" xlink:href="#DejaVuSans-32"/>
      <use x="63.574219" xlink:href="#DejaVuSans-49"/>
      <use x="127.197266" xlink:href="#DejaVuSans-54"/>
      <use x="190.820312" xlink:href="#DejaVuSans-54"/>
      <use x="254.443359" xlink:href="#DejaVuSans-55"/>
      <use x="318.066406" xlink:href="#DejaVuSans-32"/>
      <use x="349.853516" xlink:href="#DejaVuSans-110"/>
      <use x="413.232422" xlink:href="#DejaVuSans-111"/>
      <use x="474.414062" xlink:href="#DejaVuSans-101"/>
      <use x="535.9375" xlink:href="#DejaVuSans-117"/>
      <use x="599.316406" xlink:href="#DejaVuSans-100"/>
      <use x="662.792969" xlink:href="#DejaVuSans-115"/>
     </g>
    </g>
    <g id="line2d_56">
     <path d="M 317.326323 286.759375 
L 337.326323 286.759375 
" style="fill:none;stroke:#ff7f0e;stroke-linecap:square;stroke-width:1.5;"/>
    </g>
    <g id="line2d_57">
     <g>
      <use style="fill:#ff7f0e;stroke:#ff7f0e;" x="327.326323" xlink:href="#m3fc840f4c5" y="286.759375"/>
     </g>
    </g>
    <g id="text_14">
     <!--    838 noeuds -->
     <g transform="translate(345.326323 290.259375)scale(0.1 -0.1)">
      <use xlink:href="#DejaVuSans-32"/>
      <use x="31.787109" xlink:href="#DejaVuSans-32"/>
      <use x="63.574219" xlink:href="#DejaVuSans-32"/>
      <use x="95.361328" xlink:href="#DejaVuSans-56"/>
      <use x="158.984375" xlink:href="#DejaVuSans-51"/>
      <use x="222.607422" xlink:href="#DejaVuSans-56"/>
      <use x="286.230469" xlink:href="#DejaVuSans-32"/>
      <use x="318.017578" xlink:href="#DejaVuSans-110"/>
      <use x="381.396484" xlink:href="#DejaVuSans-111"/>
      <use x="442.578125" xlink:href="#DejaVuSans-101"/>
      <use x="504.101562" xlink:href="#DejaVuSans-117"/>
      <use x="567.480469" xlink:href="#DejaVuSans-100"/>
      <use x="630.957031" xlink:href="#DejaVuSans-115"/>
     </g>
    </g>
    <g id="line2d_58">
     <path d="M 317.326323 301.4375 
L 337.326323 301.4375 
" style="fill:none;stroke:#1f77b4;stroke-linecap:square;stroke-width:1.5;"/>
    </g>
    <g id="line2d_59">
     <g>
      <use style="fill:#1f77b4;stroke:#1f77b4;" x="327.326323" xlink:href="#m8b9fa35d86" y="301.4375"/>
     </g>
    </g>
    <g id="text_15">
     <!--    400 noeuds -->
     <g transform="translate(345.326323 304.9375)scale(0.1 -0.1)">
      <use xlink:href="#DejaVuSans-32"/>
      <use x="31.787109" xlink:href="#DejaVuSans-32"/>
      <use x="63.574219" xlink:href="#DejaVuSans-32"/>
      <use x="95.361328" xlink:href="#DejaVuSans-52"/>
      <use x="158.984375" xlink:href="#DejaVuSans-48"/>
      <use x="222.607422" xlink:href="#DejaVuSans-48"/>
      <use x="286.230469" xlink:href="#DejaVuSans-32"/>
      <use x="318.017578" xlink:href="#DejaVuSans-110"/>
      <use x="381.396484" xlink:href="#DejaVuSans-111"/>
      <use x="442.578125" xlink:href="#DejaVuSans-101"/>
      <use x="504.101562" xlink:href="#DejaVuSans-117"/>
      <use x="567.480469" xlink:href="#DejaVuSans-100"/>
      <use x="630.957031" xlink:href="#DejaVuSans-115"/>
     </g>
    </g>
   </g>
   <g id="legend_2">
    <g id="patch_8">
     <path d="M 48.278365 296.339063 
L 106.36899 296.339063 
Q 108.36899 296.339063 108.36899 294.339063 
L 108.36899 251.304688 
Q 108.36899 249.304688 106.36899 249.304688 
L 48.278365 249.304688 
Q 46.278365 249.304688 46.278365 251.304688 
L 46.278365 294.339063 
Q 46.278365 296.339063 48.278365 296.339063 
z
" style="fill:#ffffff;opacity:0.8;stroke:#cccccc;stroke-linejoin:miter;"/>
    </g>
    <g id="line2d_60">
     <path d="M 50.278365 257.403125 
L 70.278365 257.403125 
" style="fill:none;stroke:#000000;stroke-dasharray:2,3.3;stroke-dashoffset:0;stroke-width:2;"/>
    </g>
    <g id="line2d_61"/>
    <g id="text_16">
     <!-- None -->
     <defs>
      <path d="M 9.8125 72.90625 
L 23.09375 72.90625 
L 55.421875 11.921875 
L 55.421875 72.90625 
L 64.984375 72.90625 
L 64.984375 0 
L 51.703125 0 
L 19.390625 60.984375 
L 19.390625 0 
L 9.8125 0 
z
" id="DejaVuSans-78"/>
     </defs>
     <g transform="translate(78.278365 260.903125)scale(0.1 -0.1)">
      <use xlink:href="#DejaVuSans-78"/>
      <use x="74.804688" xlink:href="#DejaVuSans-111"/>
      <use x="135.986328" xlink:href="#DejaVuSans-110"/>
      <use x="199.365234" xlink:href="#DejaVuSans-101"/>
     </g>
    </g>
    <g id="line2d_62">
     <path d="M 50.278365 272.08125 
L 70.278365 272.08125 
" style="fill:none;stroke:#000000;stroke-dasharray:7.4,3.2;stroke-dashoffset:0;stroke-width:2;"/>
    </g>
    <g id="line2d_63"/>
    <g id="text_17">
     <!-- Once -->
     <defs>
      <path d="M 39.40625 66.21875 
Q 28.65625 66.21875 22.328125 58.203125 
Q 16.015625 50.203125 16.015625 36.375 
Q 16.015625 22.609375 22.328125 14.59375 
Q 28.65625 6.59375 39.40625 6.59375 
Q 50.140625 6.59375 56.421875 14.59375 
Q 62.703125 22.609375 62.703125 36.375 
Q 62.703125 50.203125 56.421875 58.203125 
Q 50.140625 66.21875 39.40625 66.21875 
z
M 39.40625 74.21875 
Q 54.734375 74.21875 63.90625 63.9375 
Q 73.09375 53.65625 73.09375 36.375 
Q 73.09375 19.140625 63.90625 8.859375 
Q 54.734375 -1.421875 39.40625 -1.421875 
Q 24.03125 -1.421875 14.8125 8.828125 
Q 5.609375 19.09375 5.609375 36.375 
Q 5.609375 53.65625 14.8125 63.9375 
Q 24.03125 74.21875 39.40625 74.21875 
z
" id="DejaVuSans-79"/>
      <path d="M 48.78125 52.59375 
L 48.78125 44.1875 
Q 44.96875 46.296875 41.140625 47.34375 
Q 37.3125 48.390625 33.40625 48.390625 
Q 24.65625 48.390625 19.8125 42.84375 
Q 14.984375 37.3125 14.984375 27.296875 
Q 14.984375 17.28125 19.8125 11.734375 
Q 24.65625 6.203125 33.40625 6.203125 
Q 37.3125 6.203125 41.140625 7.25 
Q 44.96875 8.296875 48.78125 10.40625 
L 48.78125 2.09375 
Q 45.015625 0.34375 40.984375 -0.53125 
Q 36.96875 -1.421875 32.421875 -1.421875 
Q 20.0625 -1.421875 12.78125 6.34375 
Q 5.515625 14.109375 5.515625 27.296875 
Q 5.515625 40.671875 12.859375 48.328125 
Q 20.21875 56 33.015625 56 
Q 37.15625 56 41.109375 55.140625 
Q 45.0625 54.296875 48.78125 52.59375 
z
" id="DejaVuSans-99"/>
     </defs>
     <g transform="translate(78.278365 275.58125)scale(0.1 -0.1)">
      <use xlink:href="#DejaVuSans-79"/>
      <use x="78.710938" xlink:href="#DejaVuSans-110"/>
      <use x="142.089844" xlink:href="#DejaVuSans-99"/>
      <use x="197.070312" xlink:href="#DejaVuSans-101"/>
     </g>
    </g>
    <g id="line2d_64">
     <path d="M 50.278365 286.759375 
L 70.278365 286.759375 
" style="fill:none;stroke:#000000;stroke-linecap:square;stroke-width:2;"/>
    </g>
    <g id="line2d_65"/>
    <g id="text_18">
     <!-- Full -->
     <defs>
      <path d="M 9.8125 72.90625 
L 51.703125 72.90625 
L 51.703125 64.59375 
L 19.671875 64.59375 
L 19.671875 43.109375 
L 48.578125 43.109375 
L 48.578125 34.8125 
L 19.671875 34.8125 
L 19.671875 0 
L 9.8125 0 
z
" id="DejaVuSans-70"/>
      <path d="M 9.421875 75.984375 
L 18.40625 75.984375 
L 18.40625 0 
L 9.421875 0 
z
" id="DejaVuSans-108"/>
     </defs>
     <g transform="translate(78.278365 290.259375)scale(0.1 -0.1)">
      <use xlink:href="#DejaVuSans-70"/>
      <use x="57.441406" xlink:href="#DejaVuSans-117"/>
      <use x="120.820312" xlink:href="#DejaVuSans-108"/>
      <use x="148.603516" xlink:href="#DejaVuSans-108"/>
     </g>
    </g>
   </g>
  </g>
 </g>
 <defs>
  <clipPath id="pf5ee4cb82f">
   <rect height="539.64327" width="387.721395" x="41.278365" y="3.00024"/>
  </clipPath>
 </defs>
</svg>
