<?xml version="1.0" encoding="utf-8" standalone="no"?>
<!DOCTYPE svg PUBLIC "-//W3C//DTD SVG 1.1//EN"
  "http://www.w3.org/Graphics/SVG/1.1/DTD/svg11.dtd">
<!-- Created with matplotlib (https://matplotlib.org/) -->
<svg height="576pt" version="1.1" viewBox="0 0 432 576" width="432pt" xmlns="http://www.w3.org/2000/svg" xmlns:xlink="http://www.w3.org/1999/xlink">
 <defs>
  <style type="text/css">
*{stroke-linecap:butt;stroke-linejoin:round;}
  </style>
 </defs>
 <g id="figure_1">
  <g id="patch_1">
   <path d="M 0 576 
L 432 576 
L 432 0 
L 0 0 
z
" style="fill:#ffffff;"/>
  </g>
  <g id="axes_1">
   <g id="patch_2">
    <path d="M 45.149615 538.77226 
L 428.99976 538.77226 
L 428.99976 3.00024 
L 45.149615 3.00024 
z
" style="fill:#ffffff;"/>
   </g>
   <g id="matplotlib.axis_1">
    <g id="xtick_1">
     <g id="line2d_1">
      <path clip-path="url(#p1e7f70aef4)" d="M 88.44584 538.77226 
L 88.44584 3.00024 
" style="fill:none;stroke:#b0b0b0;stroke-dasharray:0.8,1.32;stroke-dashoffset:0;stroke-width:0.8;"/>
     </g>
     <g id="line2d_2">
      <defs>
       <path d="M 0 0 
L 0 3.5 
" id="m3fd08b4041" style="stroke:#000000;stroke-width:0.8;"/>
      </defs>
      <g>
       <use style="stroke:#000000;stroke-width:0.8;" x="88.44584" xlink:href="#m3fd08b4041" y="538.77226"/>
      </g>
     </g>
     <g id="text_1">
      <!-- 5 -->
      <defs>
       <path d="M 10.796875 72.90625 
L 49.515625 72.90625 
L 49.515625 64.59375 
L 19.828125 64.59375 
L 19.828125 46.734375 
Q 21.96875 47.46875 24.109375 47.828125 
Q 26.265625 48.1875 28.421875 48.1875 
Q 40.625 48.1875 47.75 41.5 
Q 54.890625 34.8125 54.890625 23.390625 
Q 54.890625 11.625 47.5625 5.09375 
Q 40.234375 -1.421875 26.90625 -1.421875 
Q 22.3125 -1.421875 17.546875 -0.640625 
Q 12.796875 0.140625 7.71875 1.703125 
L 7.71875 11.625 
Q 12.109375 9.234375 16.796875 8.0625 
Q 21.484375 6.890625 26.703125 6.890625 
Q 35.15625 6.890625 40.078125 11.328125 
Q 45.015625 15.765625 45.015625 23.390625 
Q 45.015625 31 40.078125 35.4375 
Q 35.15625 39.890625 26.703125 39.890625 
Q 22.75 39.890625 18.8125 39.015625 
Q 14.890625 38.140625 10.796875 36.28125 
z
" id="DejaVuSans-53"/>
      </defs>
      <g transform="translate(85.26459 553.370698)scale(0.1 -0.1)">
       <use xlink:href="#DejaVuSans-53"/>
      </g>
     </g>
    </g>
    <g id="xtick_2">
     <g id="line2d_3">
      <path clip-path="url(#p1e7f70aef4)" d="M 153.067074 538.77226 
L 153.067074 3.00024 
" style="fill:none;stroke:#b0b0b0;stroke-dasharray:0.8,1.32;stroke-dashoffset:0;stroke-width:0.8;"/>
     </g>
     <g id="line2d_4">
      <g>
       <use style="stroke:#000000;stroke-width:0.8;" x="153.067074" xlink:href="#m3fd08b4041" y="538.77226"/>
      </g>
     </g>
     <g id="text_2">
      <!-- 10 -->
      <defs>
       <path d="M 12.40625 8.296875 
L 28.515625 8.296875 
L 28.515625 63.921875 
L 10.984375 60.40625 
L 10.984375 69.390625 
L 28.421875 72.90625 
L 38.28125 72.90625 
L 38.28125 8.296875 
L 54.390625 8.296875 
L 54.390625 0 
L 12.40625 0 
z
" id="DejaVuSans-49"/>
       <path d="M 31.78125 66.40625 
Q 24.171875 66.40625 20.328125 58.90625 
Q 16.5 51.421875 16.5 36.375 
Q 16.5 21.390625 20.328125 13.890625 
Q 24.171875 6.390625 31.78125 6.390625 
Q 39.453125 6.390625 43.28125 13.890625 
Q 47.125 21.390625 47.125 36.375 
Q 47.125 51.421875 43.28125 58.90625 
Q 39.453125 66.40625 31.78125 66.40625 
z
M 31.78125 74.21875 
Q 44.046875 74.21875 50.515625 64.515625 
Q 56.984375 54.828125 56.984375 36.375 
Q 56.984375 17.96875 50.515625 8.265625 
Q 44.046875 -1.421875 31.78125 -1.421875 
Q 19.53125 -1.421875 13.0625 8.265625 
Q 6.59375 17.96875 6.59375 36.375 
Q 6.59375 54.828125 13.0625 64.515625 
Q 19.53125 74.21875 31.78125 74.21875 
z
" id="DejaVuSans-48"/>
      </defs>
      <g transform="translate(146.704574 553.370698)scale(0.1 -0.1)">
       <use xlink:href="#DejaVuSans-49"/>
       <use x="63.623047" xlink:href="#DejaVuSans-48"/>
      </g>
     </g>
    </g>
    <g id="xtick_3">
     <g id="line2d_5">
      <path clip-path="url(#p1e7f70aef4)" d="M 217.688308 538.77226 
L 217.688308 3.00024 
" style="fill:none;stroke:#b0b0b0;stroke-dasharray:0.8,1.32;stroke-dashoffset:0;stroke-width:0.8;"/>
     </g>
     <g id="line2d_6">
      <g>
       <use style="stroke:#000000;stroke-width:0.8;" x="217.688308" xlink:href="#m3fd08b4041" y="538.77226"/>
      </g>
     </g>
     <g id="text_3">
      <!-- 15 -->
      <g transform="translate(211.325808 553.370698)scale(0.1 -0.1)">
       <use xlink:href="#DejaVuSans-49"/>
       <use x="63.623047" xlink:href="#DejaVuSans-53"/>
      </g>
     </g>
    </g>
    <g id="xtick_4">
     <g id="line2d_7">
      <path clip-path="url(#p1e7f70aef4)" d="M 282.309541 538.77226 
L 282.309541 3.00024 
" style="fill:none;stroke:#b0b0b0;stroke-dasharray:0.8,1.32;stroke-dashoffset:0;stroke-width:0.8;"/>
     </g>
     <g id="line2d_8">
      <g>
       <use style="stroke:#000000;stroke-width:0.8;" x="282.309541" xlink:href="#m3fd08b4041" y="538.77226"/>
      </g>
     </g>
     <g id="text_4">
      <!-- 20 -->
      <defs>
       <path d="M 19.1875 8.296875 
L 53.609375 8.296875 
L 53.609375 0 
L 7.328125 0 
L 7.328125 8.296875 
Q 12.9375 14.109375 22.625 23.890625 
Q 32.328125 33.6875 34.8125 36.53125 
Q 39.546875 41.84375 41.421875 45.53125 
Q 43.3125 49.21875 43.3125 52.78125 
Q 43.3125 58.59375 39.234375 62.25 
Q 35.15625 65.921875 28.609375 65.921875 
Q 23.96875 65.921875 18.8125 64.3125 
Q 13.671875 62.703125 7.8125 59.421875 
L 7.8125 69.390625 
Q 13.765625 71.78125 18.9375 73 
Q 24.125 74.21875 28.421875 74.21875 
Q 39.75 74.21875 46.484375 68.546875 
Q 53.21875 62.890625 53.21875 53.421875 
Q 53.21875 48.921875 51.53125 44.890625 
Q 49.859375 40.875 45.40625 35.40625 
Q 44.1875 33.984375 37.640625 27.21875 
Q 31.109375 20.453125 19.1875 8.296875 
z
" id="DejaVuSans-50"/>
      </defs>
      <g transform="translate(275.947041 553.370698)scale(0.1 -0.1)">
       <use xlink:href="#DejaVuSans-50"/>
       <use x="63.623047" xlink:href="#DejaVuSans-48"/>
      </g>
     </g>
    </g>
    <g id="xtick_5">
     <g id="line2d_9">
      <path clip-path="url(#p1e7f70aef4)" d="M 346.930775 538.77226 
L 346.930775 3.00024 
" style="fill:none;stroke:#b0b0b0;stroke-dasharray:0.8,1.32;stroke-dashoffset:0;stroke-width:0.8;"/>
     </g>
     <g id="line2d_10">
      <g>
       <use style="stroke:#000000;stroke-width:0.8;" x="346.930775" xlink:href="#m3fd08b4041" y="538.77226"/>
      </g>
     </g>
     <g id="text_5">
      <!-- 25 -->
      <g transform="translate(340.568275 553.370698)scale(0.1 -0.1)">
       <use xlink:href="#DejaVuSans-50"/>
       <use x="63.623047" xlink:href="#DejaVuSans-53"/>
      </g>
     </g>
    </g>
    <g id="xtick_6">
     <g id="line2d_11">
      <path clip-path="url(#p1e7f70aef4)" d="M 411.552008 538.77226 
L 411.552008 3.00024 
" style="fill:none;stroke:#b0b0b0;stroke-dasharray:0.8,1.32;stroke-dashoffset:0;stroke-width:0.8;"/>
     </g>
     <g id="line2d_12">
      <g>
       <use style="stroke:#000000;stroke-width:0.8;" x="411.552008" xlink:href="#m3fd08b4041" y="538.77226"/>
      </g>
     </g>
     <g id="text_6">
      <!-- 30 -->
      <defs>
       <path d="M 40.578125 39.3125 
Q 47.65625 37.796875 51.625 33 
Q 55.609375 28.21875 55.609375 21.1875 
Q 55.609375 10.40625 48.1875 4.484375 
Q 40.765625 -1.421875 27.09375 -1.421875 
Q 22.515625 -1.421875 17.65625 -0.515625 
Q 12.796875 0.390625 7.625 2.203125 
L 7.625 11.71875 
Q 11.71875 9.328125 16.59375 8.109375 
Q 21.484375 6.890625 26.8125 6.890625 
Q 36.078125 6.890625 40.9375 10.546875 
Q 45.796875 14.203125 45.796875 21.1875 
Q 45.796875 27.640625 41.28125 31.265625 
Q 36.765625 34.90625 28.71875 34.90625 
L 20.21875 34.90625 
L 20.21875 43.015625 
L 29.109375 43.015625 
Q 36.375 43.015625 40.234375 45.921875 
Q 44.09375 48.828125 44.09375 54.296875 
Q 44.09375 59.90625 40.109375 62.90625 
Q 36.140625 65.921875 28.71875 65.921875 
Q 24.65625 65.921875 20.015625 65.03125 
Q 15.375 64.15625 9.8125 62.3125 
L 9.8125 71.09375 
Q 15.4375 72.65625 20.34375 73.4375 
Q 25.25 74.21875 29.59375 74.21875 
Q 40.828125 74.21875 47.359375 69.109375 
Q 53.90625 64.015625 53.90625 55.328125 
Q 53.90625 49.265625 50.4375 45.09375 
Q 46.96875 40.921875 40.578125 39.3125 
z
" id="DejaVuSans-51"/>
      </defs>
      <g transform="translate(405.189508 553.370698)scale(0.1 -0.1)">
       <use xlink:href="#DejaVuSans-51"/>
       <use x="63.623047" xlink:href="#DejaVuSans-48"/>
      </g>
     </g>
    </g>
    <g id="text_7">
     <!-- $\theta$ [°] -->
     <defs>
      <path d="M 45.515625 34.671875 
L 14.453125 34.671875 
Q 12.359375 20.0625 14.5 13.875 
Q 17.1875 6.25 24.46875 6.25 
Q 31.78125 6.25 37.359375 13.921875 
Q 42.234375 20.65625 45.515625 34.671875 
z
M 47.015625 42.96875 
Q 48.34375 56.84375 46.625 61.71875 
Q 43.953125 69.4375 36.765625 69.4375 
Q 29.296875 69.4375 23.828125 61.8125 
Q 19.53125 55.671875 16.15625 42.96875 
z
M 38.1875 76.765625 
Q 49.90625 76.765625 54.59375 66.40625 
Q 59.28125 56.109375 55.71875 37.84375 
Q 52.203125 19.625 43.453125 9.28125 
Q 34.765625 -1.125 23.046875 -1.125 
Q 11.28125 -1.125 6.640625 9.28125 
Q 2 19.625 5.515625 37.84375 
Q 9.078125 56.109375 17.71875 66.40625 
Q 26.421875 76.765625 38.1875 76.765625 
z
" id="DejaVuSans-Oblique-952"/>
      <path id="DejaVuSans-32"/>
      <path d="M 8.59375 75.984375 
L 29.296875 75.984375 
L 29.296875 69 
L 17.578125 69 
L 17.578125 -6.203125 
L 29.296875 -6.203125 
L 29.296875 -13.1875 
L 8.59375 -13.1875 
z
" id="DejaVuSans-91"/>
      <path d="M 25 67.921875 
Q 21.09375 67.921875 18.40625 65.203125 
Q 15.71875 62.5 15.71875 58.59375 
Q 15.71875 54.734375 18.40625 52.078125 
Q 21.09375 49.421875 25 49.421875 
Q 28.90625 49.421875 31.59375 52.078125 
Q 34.28125 54.734375 34.28125 58.59375 
Q 34.28125 62.453125 31.5625 65.1875 
Q 28.859375 67.921875 25 67.921875 
z
M 25 74.21875 
Q 28.125 74.21875 31 73.015625 
Q 33.890625 71.828125 35.984375 69.578125 
Q 38.234375 67.390625 39.359375 64.59375 
Q 40.484375 61.8125 40.484375 58.59375 
Q 40.484375 52.15625 35.96875 47.6875 
Q 31.453125 43.21875 24.90625 43.21875 
Q 18.3125 43.21875 13.90625 47.609375 
Q 9.515625 52 9.515625 58.59375 
Q 9.515625 65.140625 14 69.671875 
Q 18.5 74.21875 25 74.21875 
z
" id="DejaVuSans-176"/>
      <path d="M 30.421875 75.984375 
L 30.421875 -13.1875 
L 9.71875 -13.1875 
L 9.71875 -6.203125 
L 21.390625 -6.203125 
L 21.390625 69 
L 9.71875 69 
L 9.71875 75.984375 
z
" id="DejaVuSans-93"/>
     </defs>
     <g transform="translate(221.604688 570.088197)scale(0.14 -0.14)">
      <use transform="translate(0 0.234375)" xlink:href="#DejaVuSans-Oblique-952"/>
      <use transform="translate(61.181641 0.234375)" xlink:href="#DejaVuSans-32"/>
      <use transform="translate(92.96875 0.234375)" xlink:href="#DejaVuSans-91"/>
      <use transform="translate(131.982422 0.234375)" xlink:href="#DejaVuSans-176"/>
      <use transform="translate(181.982422 0.234375)" xlink:href="#DejaVuSans-93"/>
     </g>
    </g>
   </g>
   <g id="matplotlib.axis_2">
    <g id="ytick_1">
     <g id="line2d_13">
      <path clip-path="url(#p1e7f70aef4)" d="M 45.149615 408.500508 
L 428.99976 408.500508 
" style="fill:none;stroke:#b0b0b0;stroke-dasharray:0.8,1.32;stroke-dashoffset:0;stroke-width:0.8;"/>
     </g>
     <g id="line2d_14">
      <defs>
       <path d="M 0 0 
L -3.5 0 
" id="me734864a27" style="stroke:#000000;stroke-width:0.8;"/>
      </defs>
      <g>
       <use style="stroke:#000000;stroke-width:0.8;" x="45.149615" xlink:href="#me734864a27" y="408.500508"/>
      </g>
     </g>
     <g id="text_8">
      <!-- $\mathdefault{10^{1}}$ -->
      <g transform="translate(20.549615 412.299726)scale(0.1 -0.1)">
       <use transform="translate(0 0.684375)" xlink:href="#DejaVuSans-49"/>
       <use transform="translate(63.623047 0.684375)" xlink:href="#DejaVuSans-48"/>
       <use transform="translate(128.203125 38.965625)scale(0.7)" xlink:href="#DejaVuSans-49"/>
      </g>
     </g>
    </g>
    <g id="ytick_2">
     <g id="line2d_15">
      <path clip-path="url(#p1e7f70aef4)" d="M 45.149615 165.637045 
L 428.99976 165.637045 
" style="fill:none;stroke:#b0b0b0;stroke-dasharray:0.8,1.32;stroke-dashoffset:0;stroke-width:0.8;"/>
     </g>
     <g id="line2d_16">
      <g>
       <use style="stroke:#000000;stroke-width:0.8;" x="45.149615" xlink:href="#me734864a27" y="165.637045"/>
      </g>
     </g>
     <g id="text_9">
      <!-- $\mathdefault{10^{2}}$ -->
      <g transform="translate(20.549615 169.436263)scale(0.1 -0.1)">
       <use transform="translate(0 0.765625)" xlink:href="#DejaVuSans-49"/>
       <use transform="translate(63.623047 0.765625)" xlink:href="#DejaVuSans-48"/>
       <use transform="translate(128.203125 39.046875)scale(0.7)" xlink:href="#DejaVuSans-50"/>
      </g>
     </g>
    </g>
    <g id="ytick_3">
     <g id="line2d_17">
      <defs>
       <path d="M 0 0 
L -2 0 
" id="m85358779f6" style="stroke:#000000;stroke-width:0.6;"/>
      </defs>
      <g>
       <use style="stroke:#000000;stroke-width:0.6;" x="45.149615" xlink:href="#m85358779f6" y="535.488651"/>
      </g>
     </g>
    </g>
    <g id="ytick_4">
     <g id="line2d_18">
      <g>
       <use style="stroke:#000000;stroke-width:0.6;" x="45.149615" xlink:href="#m85358779f6" y="505.145596"/>
      </g>
     </g>
    </g>
    <g id="ytick_5">
     <g id="line2d_19">
      <g>
       <use style="stroke:#000000;stroke-width:0.6;" x="45.149615" xlink:href="#m85358779f6" y="481.609695"/>
      </g>
     </g>
    </g>
    <g id="ytick_6">
     <g id="line2d_20">
      <g>
       <use style="stroke:#000000;stroke-width:0.6;" x="45.149615" xlink:href="#m85358779f6" y="462.379463"/>
      </g>
     </g>
    </g>
    <g id="ytick_7">
     <g id="line2d_21">
      <g>
       <use style="stroke:#000000;stroke-width:0.6;" x="45.149615" xlink:href="#m85358779f6" y="446.120534"/>
      </g>
     </g>
    </g>
    <g id="ytick_8">
     <g id="line2d_22">
      <g>
       <use style="stroke:#000000;stroke-width:0.6;" x="45.149615" xlink:href="#m85358779f6" y="432.036409"/>
      </g>
     </g>
    </g>
    <g id="ytick_9">
     <g id="line2d_23">
      <g>
       <use style="stroke:#000000;stroke-width:0.6;" x="45.149615" xlink:href="#m85358779f6" y="419.61333"/>
      </g>
     </g>
    </g>
    <g id="ytick_10">
     <g id="line2d_24">
      <g>
       <use style="stroke:#000000;stroke-width:0.6;" x="45.149615" xlink:href="#m85358779f6" y="335.39132"/>
      </g>
     </g>
    </g>
    <g id="ytick_11">
     <g id="line2d_25">
      <g>
       <use style="stroke:#000000;stroke-width:0.6;" x="45.149615" xlink:href="#m85358779f6" y="292.625187"/>
      </g>
     </g>
    </g>
    <g id="ytick_12">
     <g id="line2d_26">
      <g>
       <use style="stroke:#000000;stroke-width:0.6;" x="45.149615" xlink:href="#m85358779f6" y="262.282133"/>
      </g>
     </g>
    </g>
    <g id="ytick_13">
     <g id="line2d_27">
      <g>
       <use style="stroke:#000000;stroke-width:0.6;" x="45.149615" xlink:href="#m85358779f6" y="238.746232"/>
      </g>
     </g>
    </g>
    <g id="ytick_14">
     <g id="line2d_28">
      <g>
       <use style="stroke:#000000;stroke-width:0.6;" x="45.149615" xlink:href="#m85358779f6" y="219.516"/>
      </g>
     </g>
    </g>
    <g id="ytick_15">
     <g id="line2d_29">
      <g>
       <use style="stroke:#000000;stroke-width:0.6;" x="45.149615" xlink:href="#m85358779f6" y="203.257071"/>
      </g>
     </g>
    </g>
    <g id="ytick_16">
     <g id="line2d_30">
      <g>
       <use style="stroke:#000000;stroke-width:0.6;" x="45.149615" xlink:href="#m85358779f6" y="189.172946"/>
      </g>
     </g>
    </g>
    <g id="ytick_17">
     <g id="line2d_31">
      <g>
       <use style="stroke:#000000;stroke-width:0.6;" x="45.149615" xlink:href="#m85358779f6" y="176.749867"/>
      </g>
     </g>
    </g>
    <g id="ytick_18">
     <g id="line2d_32">
      <g>
       <use style="stroke:#000000;stroke-width:0.6;" x="45.149615" xlink:href="#m85358779f6" y="92.527857"/>
      </g>
     </g>
    </g>
    <g id="ytick_19">
     <g id="line2d_33">
      <g>
       <use style="stroke:#000000;stroke-width:0.6;" x="45.149615" xlink:href="#m85358779f6" y="49.761724"/>
      </g>
     </g>
    </g>
    <g id="ytick_20">
     <g id="line2d_34">
      <g>
       <use style="stroke:#000000;stroke-width:0.6;" x="45.149615" xlink:href="#m85358779f6" y="19.41867"/>
      </g>
     </g>
    </g>
    <g id="text_10">
     <!-- time [ms] -->
     <defs>
      <path d="M 18.3125 70.21875 
L 18.3125 54.6875 
L 36.8125 54.6875 
L 36.8125 47.703125 
L 18.3125 47.703125 
L 18.3125 18.015625 
Q 18.3125 11.328125 20.140625 9.421875 
Q 21.96875 7.515625 27.59375 7.515625 
L 36.8125 7.515625 
L 36.8125 0 
L 27.59375 0 
Q 17.1875 0 13.234375 3.875 
Q 9.28125 7.765625 9.28125 18.015625 
L 9.28125 47.703125 
L 2.6875 47.703125 
L 2.6875 54.6875 
L 9.28125 54.6875 
L 9.28125 70.21875 
z
" id="DejaVuSans-116"/>
      <path d="M 9.421875 54.6875 
L 18.40625 54.6875 
L 18.40625 0 
L 9.421875 0 
z
M 9.421875 75.984375 
L 18.40625 75.984375 
L 18.40625 64.59375 
L 9.421875 64.59375 
z
" id="DejaVuSans-105"/>
      <path d="M 52 44.1875 
Q 55.375 50.25 60.0625 53.125 
Q 64.75 56 71.09375 56 
Q 79.640625 56 84.28125 50.015625 
Q 88.921875 44.046875 88.921875 33.015625 
L 88.921875 0 
L 79.890625 0 
L 79.890625 32.71875 
Q 79.890625 40.578125 77.09375 44.375 
Q 74.3125 48.1875 68.609375 48.1875 
Q 61.625 48.1875 57.5625 43.546875 
Q 53.515625 38.921875 53.515625 30.90625 
L 53.515625 0 
L 44.484375 0 
L 44.484375 32.71875 
Q 44.484375 40.625 41.703125 44.40625 
Q 38.921875 48.1875 33.109375 48.1875 
Q 26.21875 48.1875 22.15625 43.53125 
Q 18.109375 38.875 18.109375 30.90625 
L 18.109375 0 
L 9.078125 0 
L 9.078125 54.6875 
L 18.109375 54.6875 
L 18.109375 46.1875 
Q 21.1875 51.21875 25.484375 53.609375 
Q 29.78125 56 35.6875 56 
Q 41.65625 56 45.828125 52.96875 
Q 50 49.953125 52 44.1875 
z
" id="DejaVuSans-109"/>
      <path d="M 56.203125 29.59375 
L 56.203125 25.203125 
L 14.890625 25.203125 
Q 15.484375 15.921875 20.484375 11.0625 
Q 25.484375 6.203125 34.421875 6.203125 
Q 39.59375 6.203125 44.453125 7.46875 
Q 49.3125 8.734375 54.109375 11.28125 
L 54.109375 2.78125 
Q 49.265625 0.734375 44.1875 -0.34375 
Q 39.109375 -1.421875 33.890625 -1.421875 
Q 20.796875 -1.421875 13.15625 6.1875 
Q 5.515625 13.8125 5.515625 26.8125 
Q 5.515625 40.234375 12.765625 48.109375 
Q 20.015625 56 32.328125 56 
Q 43.359375 56 49.78125 48.890625 
Q 56.203125 41.796875 56.203125 29.59375 
z
M 47.21875 32.234375 
Q 47.125 39.59375 43.09375 43.984375 
Q 39.0625 48.390625 32.421875 48.390625 
Q 24.90625 48.390625 20.390625 44.140625 
Q 15.875 39.890625 15.1875 32.171875 
z
" id="DejaVuSans-101"/>
      <path d="M 44.28125 53.078125 
L 44.28125 44.578125 
Q 40.484375 46.53125 36.375 47.5 
Q 32.28125 48.484375 27.875 48.484375 
Q 21.1875 48.484375 17.84375 46.4375 
Q 14.5 44.390625 14.5 40.28125 
Q 14.5 37.15625 16.890625 35.375 
Q 19.28125 33.59375 26.515625 31.984375 
L 29.59375 31.296875 
Q 39.15625 29.25 43.1875 25.515625 
Q 47.21875 21.78125 47.21875 15.09375 
Q 47.21875 7.46875 41.1875 3.015625 
Q 35.15625 -1.421875 24.609375 -1.421875 
Q 20.21875 -1.421875 15.453125 -0.5625 
Q 10.6875 0.296875 5.421875 2 
L 5.421875 11.28125 
Q 10.40625 8.6875 15.234375 7.390625 
Q 20.0625 6.109375 24.8125 6.109375 
Q 31.15625 6.109375 34.5625 8.28125 
Q 37.984375 10.453125 37.984375 14.40625 
Q 37.984375 18.0625 35.515625 20.015625 
Q 33.0625 21.96875 24.703125 23.78125 
L 21.578125 24.515625 
Q 13.234375 26.265625 9.515625 29.90625 
Q 5.8125 33.546875 5.8125 39.890625 
Q 5.8125 47.609375 11.28125 51.796875 
Q 16.75 56 26.8125 56 
Q 31.78125 56 36.171875 55.265625 
Q 40.578125 54.546875 44.28125 53.078125 
z
" id="DejaVuSans-115"/>
     </defs>
     <g transform="translate(13.638052 304.852656)rotate(-90)scale(0.14 -0.14)">
      <use xlink:href="#DejaVuSans-116"/>
      <use x="39.208984" xlink:href="#DejaVuSans-105"/>
      <use x="66.992188" xlink:href="#DejaVuSans-109"/>
      <use x="164.404297" xlink:href="#DejaVuSans-101"/>
      <use x="225.927734" xlink:href="#DejaVuSans-32"/>
      <use x="257.714844" xlink:href="#DejaVuSans-91"/>
      <use x="296.728516" xlink:href="#DejaVuSans-109"/>
      <use x="394.140625" xlink:href="#DejaVuSans-115"/>
      <use x="446.240234" xlink:href="#DejaVuSans-93"/>
     </g>
    </g>
   </g>
   <g id="line2d_35">
    <path clip-path="url(#p1e7f70aef4)" d="M 62.597349 501.347422 
L 101.37012 504.921701 
L 140.142803 502.983708 
L 178.91556 510.043471 
L 217.688317 511.999637 
L 256.461073 511.494348 
L 295.233756 510.875401 
L 334.006513 508.748619 
L 372.779269 510.518717 
L 411.552026 507.65383 
" style="fill:none;stroke:#1f77b4;stroke-linecap:square;stroke-width:1.5;"/>
    <defs>
     <path d="M 0 3 
C 0.795609 3 1.55874 2.683901 2.12132 2.12132 
C 2.683901 1.55874 3 0.795609 3 0 
C 3 -0.795609 2.683901 -1.55874 2.12132 -2.12132 
C 1.55874 -2.683901 0.795609 -3 0 -3 
C -0.795609 -3 -1.55874 -2.683901 -2.12132 -2.12132 
C -2.683901 -1.55874 -3 -0.795609 -3 0 
C -3 0.795609 -2.683901 1.55874 -2.12132 2.12132 
C -1.55874 2.683901 -0.795609 3 0 3 
z
" id="m0ea9b012ed" style="stroke:#1f77b4;"/>
    </defs>
    <g clip-path="url(#p1e7f70aef4)">
     <use style="fill:#1f77b4;stroke:#1f77b4;" x="62.597349" xlink:href="#m0ea9b012ed" y="501.347422"/>
     <use style="fill:#1f77b4;stroke:#1f77b4;" x="101.37012" xlink:href="#m0ea9b012ed" y="504.921701"/>
     <use style="fill:#1f77b4;stroke:#1f77b4;" x="140.142803" xlink:href="#m0ea9b012ed" y="502.983708"/>
     <use style="fill:#1f77b4;stroke:#1f77b4;" x="178.91556" xlink:href="#m0ea9b012ed" y="510.043471"/>
     <use style="fill:#1f77b4;stroke:#1f77b4;" x="217.688317" xlink:href="#m0ea9b012ed" y="511.999637"/>
     <use style="fill:#1f77b4;stroke:#1f77b4;" x="256.461073" xlink:href="#m0ea9b012ed" y="511.494348"/>
     <use style="fill:#1f77b4;stroke:#1f77b4;" x="295.233756" xlink:href="#m0ea9b012ed" y="510.875401"/>
     <use style="fill:#1f77b4;stroke:#1f77b4;" x="334.006513" xlink:href="#m0ea9b012ed" y="508.748619"/>
     <use style="fill:#1f77b4;stroke:#1f77b4;" x="372.779269" xlink:href="#m0ea9b012ed" y="510.518717"/>
     <use style="fill:#1f77b4;stroke:#1f77b4;" x="411.552026" xlink:href="#m0ea9b012ed" y="507.65383"/>
    </g>
   </g>
   <g id="line2d_36">
    <path clip-path="url(#p1e7f70aef4)" d="M 62.597349 505.189553 
L 101.37012 507.824989 
L 140.142803 508.994469 
L 178.91556 511.251921 
L 217.688317 506.334462 
L 256.461073 508.894239 
L 295.233756 510.907887 
L 334.006513 508.780456 
L 372.779269 514.418986 
L 411.552026 514.279917 
" style="fill:none;stroke:#1f77b4;stroke-dasharray:5.55,2.4;stroke-dashoffset:0;stroke-width:1.5;"/>
    <g clip-path="url(#p1e7f70aef4)">
     <use style="fill:#1f77b4;stroke:#1f77b4;" x="62.597349" xlink:href="#m0ea9b012ed" y="505.189553"/>
     <use style="fill:#1f77b4;stroke:#1f77b4;" x="101.37012" xlink:href="#m0ea9b012ed" y="507.824989"/>
     <use style="fill:#1f77b4;stroke:#1f77b4;" x="140.142803" xlink:href="#m0ea9b012ed" y="508.994469"/>
     <use style="fill:#1f77b4;stroke:#1f77b4;" x="178.91556" xlink:href="#m0ea9b012ed" y="511.251921"/>
     <use style="fill:#1f77b4;stroke:#1f77b4;" x="217.688317" xlink:href="#m0ea9b012ed" y="506.334462"/>
     <use style="fill:#1f77b4;stroke:#1f77b4;" x="256.461073" xlink:href="#m0ea9b012ed" y="508.894239"/>
     <use style="fill:#1f77b4;stroke:#1f77b4;" x="295.233756" xlink:href="#m0ea9b012ed" y="510.907887"/>
     <use style="fill:#1f77b4;stroke:#1f77b4;" x="334.006513" xlink:href="#m0ea9b012ed" y="508.780456"/>
     <use style="fill:#1f77b4;stroke:#1f77b4;" x="372.779269" xlink:href="#m0ea9b012ed" y="514.418986"/>
     <use style="fill:#1f77b4;stroke:#1f77b4;" x="411.552026" xlink:href="#m0ea9b012ed" y="514.279917"/>
    </g>
   </g>
   <g id="line2d_37">
    <path clip-path="url(#p1e7f70aef4)" d="M 62.597349 494.633575 
L 101.37012 502.876123 
L 140.142803 500.291203 
L 178.91556 504.017799 
L 217.688317 502.870962 
L 256.461073 507.513507 
L 295.233756 499.493425 
L 334.006513 505.340904 
L 372.779269 503.310579 
L 411.552026 507.244179 
" style="fill:none;stroke:#1f77b4;stroke-dasharray:1.5,2.475;stroke-dashoffset:0;stroke-width:1.5;"/>
    <g clip-path="url(#p1e7f70aef4)">
     <use style="fill:#1f77b4;stroke:#1f77b4;" x="62.597349" xlink:href="#m0ea9b012ed" y="494.633575"/>
     <use style="fill:#1f77b4;stroke:#1f77b4;" x="101.37012" xlink:href="#m0ea9b012ed" y="502.876123"/>
     <use style="fill:#1f77b4;stroke:#1f77b4;" x="140.142803" xlink:href="#m0ea9b012ed" y="500.291203"/>
     <use style="fill:#1f77b4;stroke:#1f77b4;" x="178.91556" xlink:href="#m0ea9b012ed" y="504.017799"/>
     <use style="fill:#1f77b4;stroke:#1f77b4;" x="217.688317" xlink:href="#m0ea9b012ed" y="502.870962"/>
     <use style="fill:#1f77b4;stroke:#1f77b4;" x="256.461073" xlink:href="#m0ea9b012ed" y="507.513507"/>
     <use style="fill:#1f77b4;stroke:#1f77b4;" x="295.233756" xlink:href="#m0ea9b012ed" y="499.493425"/>
     <use style="fill:#1f77b4;stroke:#1f77b4;" x="334.006513" xlink:href="#m0ea9b012ed" y="505.340904"/>
     <use style="fill:#1f77b4;stroke:#1f77b4;" x="372.779269" xlink:href="#m0ea9b012ed" y="503.310579"/>
     <use style="fill:#1f77b4;stroke:#1f77b4;" x="411.552026" xlink:href="#m0ea9b012ed" y="507.244179"/>
    </g>
   </g>
   <g id="line2d_38">
    <path clip-path="url(#p1e7f70aef4)" d="M 62.597349 409.78453 
L 101.37012 408.584921 
L 140.142803 412.362144 
L 178.91556 412.950938 
L 217.688317 403.990837 
L 256.461073 420.704954 
L 295.233756 407.153798 
L 334.006513 422.0216 
L 372.779269 410.868418 
L 411.552026 414.68323 
" style="fill:none;stroke:#ff7f0e;stroke-linecap:square;stroke-width:1.5;"/>
    <defs>
     <path d="M 0 3 
C 0.795609 3 1.55874 2.683901 2.12132 2.12132 
C 2.683901 1.55874 3 0.795609 3 0 
C 3 -0.795609 2.683901 -1.55874 2.12132 -2.12132 
C 1.55874 -2.683901 0.795609 -3 0 -3 
C -0.795609 -3 -1.55874 -2.683901 -2.12132 -2.12132 
C -2.683901 -1.55874 -3 -0.795609 -3 0 
C -3 0.795609 -2.683901 1.55874 -2.12132 2.12132 
C -1.55874 2.683901 -0.795609 3 0 3 
z
" id="ma401f5e88b" style="stroke:#ff7f0e;"/>
    </defs>
    <g clip-path="url(#p1e7f70aef4)">
     <use style="fill:#ff7f0e;stroke:#ff7f0e;" x="62.597349" xlink:href="#ma401f5e88b" y="409.78453"/>
     <use style="fill:#ff7f0e;stroke:#ff7f0e;" x="101.37012" xlink:href="#ma401f5e88b" y="408.584921"/>
     <use style="fill:#ff7f0e;stroke:#ff7f0e;" x="140.142803" xlink:href="#ma401f5e88b" y="412.362144"/>
     <use style="fill:#ff7f0e;stroke:#ff7f0e;" x="178.91556" xlink:href="#ma401f5e88b" y="412.950938"/>
     <use style="fill:#ff7f0e;stroke:#ff7f0e;" x="217.688317" xlink:href="#ma401f5e88b" y="403.990837"/>
     <use style="fill:#ff7f0e;stroke:#ff7f0e;" x="256.461073" xlink:href="#ma401f5e88b" y="420.704954"/>
     <use style="fill:#ff7f0e;stroke:#ff7f0e;" x="295.233756" xlink:href="#ma401f5e88b" y="407.153798"/>
     <use style="fill:#ff7f0e;stroke:#ff7f0e;" x="334.006513" xlink:href="#ma401f5e88b" y="422.0216"/>
     <use style="fill:#ff7f0e;stroke:#ff7f0e;" x="372.779269" xlink:href="#ma401f5e88b" y="410.868418"/>
     <use style="fill:#ff7f0e;stroke:#ff7f0e;" x="411.552026" xlink:href="#ma401f5e88b" y="414.68323"/>
    </g>
   </g>
   <g id="line2d_39">
    <path clip-path="url(#p1e7f70aef4)" d="M 62.597349 411.124018 
L 101.37012 408.68701 
L 140.142803 403.834311 
L 178.91556 414.006896 
L 217.688317 413.018805 
L 256.461073 415.320787 
L 295.233756 412.493515 
L 334.006513 414.860462 
L 372.779269 413.226347 
L 411.552026 407.105212 
" style="fill:none;stroke:#ff7f0e;stroke-dasharray:5.55,2.4;stroke-dashoffset:0;stroke-width:1.5;"/>
    <g clip-path="url(#p1e7f70aef4)">
     <use style="fill:#ff7f0e;stroke:#ff7f0e;" x="62.597349" xlink:href="#ma401f5e88b" y="411.124018"/>
     <use style="fill:#ff7f0e;stroke:#ff7f0e;" x="101.37012" xlink:href="#ma401f5e88b" y="408.68701"/>
     <use style="fill:#ff7f0e;stroke:#ff7f0e;" x="140.142803" xlink:href="#ma401f5e88b" y="403.834311"/>
     <use style="fill:#ff7f0e;stroke:#ff7f0e;" x="178.91556" xlink:href="#ma401f5e88b" y="414.006896"/>
     <use style="fill:#ff7f0e;stroke:#ff7f0e;" x="217.688317" xlink:href="#ma401f5e88b" y="413.018805"/>
     <use style="fill:#ff7f0e;stroke:#ff7f0e;" x="256.461073" xlink:href="#ma401f5e88b" y="415.320787"/>
     <use style="fill:#ff7f0e;stroke:#ff7f0e;" x="295.233756" xlink:href="#ma401f5e88b" y="412.493515"/>
     <use style="fill:#ff7f0e;stroke:#ff7f0e;" x="334.006513" xlink:href="#ma401f5e88b" y="414.860462"/>
     <use style="fill:#ff7f0e;stroke:#ff7f0e;" x="372.779269" xlink:href="#ma401f5e88b" y="413.226347"/>
     <use style="fill:#ff7f0e;stroke:#ff7f0e;" x="411.552026" xlink:href="#ma401f5e88b" y="407.105212"/>
    </g>
   </g>
   <g id="line2d_40">
    <path clip-path="url(#p1e7f70aef4)" d="M 62.597349 404.477381 
L 101.37012 395.272342 
L 140.142803 408.420378 
L 178.91556 411.147088 
L 217.688317 402.1022 
L 256.461073 401.82858 
L 295.233756 406.772309 
L 334.006513 390.419148 
L 372.779269 395.03071 
L 411.552026 401.872153 
" style="fill:none;stroke:#ff7f0e;stroke-dasharray:1.5,2.475;stroke-dashoffset:0;stroke-width:1.5;"/>
    <g clip-path="url(#p1e7f70aef4)">
     <use style="fill:#ff7f0e;stroke:#ff7f0e;" x="62.597349" xlink:href="#ma401f5e88b" y="404.477381"/>
     <use style="fill:#ff7f0e;stroke:#ff7f0e;" x="101.37012" xlink:href="#ma401f5e88b" y="395.272342"/>
     <use style="fill:#ff7f0e;stroke:#ff7f0e;" x="140.142803" xlink:href="#ma401f5e88b" y="408.420378"/>
     <use style="fill:#ff7f0e;stroke:#ff7f0e;" x="178.91556" xlink:href="#ma401f5e88b" y="411.147088"/>
     <use style="fill:#ff7f0e;stroke:#ff7f0e;" x="217.688317" xlink:href="#ma401f5e88b" y="402.1022"/>
     <use style="fill:#ff7f0e;stroke:#ff7f0e;" x="256.461073" xlink:href="#ma401f5e88b" y="401.82858"/>
     <use style="fill:#ff7f0e;stroke:#ff7f0e;" x="295.233756" xlink:href="#ma401f5e88b" y="406.772309"/>
     <use style="fill:#ff7f0e;stroke:#ff7f0e;" x="334.006513" xlink:href="#ma401f5e88b" y="390.419148"/>
     <use style="fill:#ff7f0e;stroke:#ff7f0e;" x="372.779269" xlink:href="#ma401f5e88b" y="395.03071"/>
     <use style="fill:#ff7f0e;stroke:#ff7f0e;" x="411.552026" xlink:href="#ma401f5e88b" y="401.872153"/>
    </g>
   </g>
   <g id="line2d_41">
    <path clip-path="url(#p1e7f70aef4)" d="M 62.597349 339.728124 
L 101.37012 338.714589 
L 140.142803 342.645693 
L 178.91556 340.515939 
L 217.688317 335.852017 
L 256.461073 338.519746 
L 295.233756 337.514114 
L 334.006513 336.90514 
L 372.779269 340.65536 
L 411.552026 332.277894 
" style="fill:none;stroke:#2ca02c;stroke-linecap:square;stroke-width:1.5;"/>
    <defs>
     <path d="M 0 3 
C 0.795609 3 1.55874 2.683901 2.12132 2.12132 
C 2.683901 1.55874 3 0.795609 3 0 
C 3 -0.795609 2.683901 -1.55874 2.12132 -2.12132 
C 1.55874 -2.683901 0.795609 -3 0 -3 
C -0.795609 -3 -1.55874 -2.683901 -2.12132 -2.12132 
C -2.683901 -1.55874 -3 -0.795609 -3 0 
C -3 0.795609 -2.683901 1.55874 -2.12132 2.12132 
C -1.55874 2.683901 -0.795609 3 0 3 
z
" id="m5af580e5e9" style="stroke:#2ca02c;"/>
    </defs>
    <g clip-path="url(#p1e7f70aef4)">
     <use style="fill:#2ca02c;stroke:#2ca02c;" x="62.597349" xlink:href="#m5af580e5e9" y="339.728124"/>
     <use style="fill:#2ca02c;stroke:#2ca02c;" x="101.37012" xlink:href="#m5af580e5e9" y="338.714589"/>
     <use style="fill:#2ca02c;stroke:#2ca02c;" x="140.142803" xlink:href="#m5af580e5e9" y="342.645693"/>
     <use style="fill:#2ca02c;stroke:#2ca02c;" x="178.91556" xlink:href="#m5af580e5e9" y="340.515939"/>
     <use style="fill:#2ca02c;stroke:#2ca02c;" x="217.688317" xlink:href="#m5af580e5e9" y="335.852017"/>
     <use style="fill:#2ca02c;stroke:#2ca02c;" x="256.461073" xlink:href="#m5af580e5e9" y="338.519746"/>
     <use style="fill:#2ca02c;stroke:#2ca02c;" x="295.233756" xlink:href="#m5af580e5e9" y="337.514114"/>
     <use style="fill:#2ca02c;stroke:#2ca02c;" x="334.006513" xlink:href="#m5af580e5e9" y="336.90514"/>
     <use style="fill:#2ca02c;stroke:#2ca02c;" x="372.779269" xlink:href="#m5af580e5e9" y="340.65536"/>
     <use style="fill:#2ca02c;stroke:#2ca02c;" x="411.552026" xlink:href="#m5af580e5e9" y="332.277894"/>
    </g>
   </g>
   <g id="line2d_42">
    <path clip-path="url(#p1e7f70aef4)" d="M 62.597349 335.188478 
L 101.37012 331.954105 
L 140.142803 337.017549 
L 178.91556 335.57254 
L 217.688317 330.108855 
L 256.461073 332.604393 
L 295.233756 333.5779 
L 334.006513 331.649968 
L 372.779269 331.46435 
L 411.552026 328.922557 
" style="fill:none;stroke:#2ca02c;stroke-dasharray:5.55,2.4;stroke-dashoffset:0;stroke-width:1.5;"/>
    <g clip-path="url(#p1e7f70aef4)">
     <use style="fill:#2ca02c;stroke:#2ca02c;" x="62.597349" xlink:href="#m5af580e5e9" y="335.188478"/>
     <use style="fill:#2ca02c;stroke:#2ca02c;" x="101.37012" xlink:href="#m5af580e5e9" y="331.954105"/>
     <use style="fill:#2ca02c;stroke:#2ca02c;" x="140.142803" xlink:href="#m5af580e5e9" y="337.017549"/>
     <use style="fill:#2ca02c;stroke:#2ca02c;" x="178.91556" xlink:href="#m5af580e5e9" y="335.57254"/>
     <use style="fill:#2ca02c;stroke:#2ca02c;" x="217.688317" xlink:href="#m5af580e5e9" y="330.108855"/>
     <use style="fill:#2ca02c;stroke:#2ca02c;" x="256.461073" xlink:href="#m5af580e5e9" y="332.604393"/>
     <use style="fill:#2ca02c;stroke:#2ca02c;" x="295.233756" xlink:href="#m5af580e5e9" y="333.5779"/>
     <use style="fill:#2ca02c;stroke:#2ca02c;" x="334.006513" xlink:href="#m5af580e5e9" y="331.649968"/>
     <use style="fill:#2ca02c;stroke:#2ca02c;" x="372.779269" xlink:href="#m5af580e5e9" y="331.46435"/>
     <use style="fill:#2ca02c;stroke:#2ca02c;" x="411.552026" xlink:href="#m5af580e5e9" y="328.922557"/>
    </g>
   </g>
   <g id="line2d_43">
    <path clip-path="url(#p1e7f70aef4)" d="M 62.597349 333.619551 
L 101.37012 335.963485 
L 140.142803 335.276416 
L 178.91556 333.326439 
L 217.688317 334.161307 
L 256.461073 329.29621 
L 295.233756 330.327616 
L 334.006513 331.11063 
L 372.779269 329.86819 
L 411.552026 332.262364 
" style="fill:none;stroke:#2ca02c;stroke-dasharray:1.5,2.475;stroke-dashoffset:0;stroke-width:1.5;"/>
    <g clip-path="url(#p1e7f70aef4)">
     <use style="fill:#2ca02c;stroke:#2ca02c;" x="62.597349" xlink:href="#m5af580e5e9" y="333.619551"/>
     <use style="fill:#2ca02c;stroke:#2ca02c;" x="101.37012" xlink:href="#m5af580e5e9" y="335.963485"/>
     <use style="fill:#2ca02c;stroke:#2ca02c;" x="140.142803" xlink:href="#m5af580e5e9" y="335.276416"/>
     <use style="fill:#2ca02c;stroke:#2ca02c;" x="178.91556" xlink:href="#m5af580e5e9" y="333.326439"/>
     <use style="fill:#2ca02c;stroke:#2ca02c;" x="217.688317" xlink:href="#m5af580e5e9" y="334.161307"/>
     <use style="fill:#2ca02c;stroke:#2ca02c;" x="256.461073" xlink:href="#m5af580e5e9" y="329.29621"/>
     <use style="fill:#2ca02c;stroke:#2ca02c;" x="295.233756" xlink:href="#m5af580e5e9" y="330.327616"/>
     <use style="fill:#2ca02c;stroke:#2ca02c;" x="334.006513" xlink:href="#m5af580e5e9" y="331.11063"/>
     <use style="fill:#2ca02c;stroke:#2ca02c;" x="372.779269" xlink:href="#m5af580e5e9" y="329.86819"/>
     <use style="fill:#2ca02c;stroke:#2ca02c;" x="411.552026" xlink:href="#m5af580e5e9" y="332.262364"/>
    </g>
   </g>
   <g id="line2d_44">
    <path clip-path="url(#p1e7f70aef4)" d="M 62.597349 218.864952 
L 101.37012 220.683534 
L 140.142803 222.356596 
L 178.91556 218.361539 
L 217.688317 217.790741 
L 256.461073 221.942656 
L 295.233756 220.094469 
L 334.006513 221.473013 
L 372.779269 220.297936 
L 411.552026 216.641793 
" style="fill:none;stroke:#d62728;stroke-linecap:square;stroke-width:1.5;"/>
    <defs>
     <path d="M 0 3 
C 0.795609 3 1.55874 2.683901 2.12132 2.12132 
C 2.683901 1.55874 3 0.795609 3 0 
C 3 -0.795609 2.683901 -1.55874 2.12132 -2.12132 
C 1.55874 -2.683901 0.795609 -3 0 -3 
C -0.795609 -3 -1.55874 -2.683901 -2.12132 -2.12132 
C -2.683901 -1.55874 -3 -0.795609 -3 0 
C -3 0.795609 -2.683901 1.55874 -2.12132 2.12132 
C -1.55874 2.683901 -0.795609 3 0 3 
z
" id="mba2db29e3f" style="stroke:#d62728;"/>
    </defs>
    <g clip-path="url(#p1e7f70aef4)">
     <use style="fill:#d62728;stroke:#d62728;" x="62.597349" xlink:href="#mba2db29e3f" y="218.864952"/>
     <use style="fill:#d62728;stroke:#d62728;" x="101.37012" xlink:href="#mba2db29e3f" y="220.683534"/>
     <use style="fill:#d62728;stroke:#d62728;" x="140.142803" xlink:href="#mba2db29e3f" y="222.356596"/>
     <use style="fill:#d62728;stroke:#d62728;" x="178.91556" xlink:href="#mba2db29e3f" y="218.361539"/>
     <use style="fill:#d62728;stroke:#d62728;" x="217.688317" xlink:href="#mba2db29e3f" y="217.790741"/>
     <use style="fill:#d62728;stroke:#d62728;" x="256.461073" xlink:href="#mba2db29e3f" y="221.942656"/>
     <use style="fill:#d62728;stroke:#d62728;" x="295.233756" xlink:href="#mba2db29e3f" y="220.094469"/>
     <use style="fill:#d62728;stroke:#d62728;" x="334.006513" xlink:href="#mba2db29e3f" y="221.473013"/>
     <use style="fill:#d62728;stroke:#d62728;" x="372.779269" xlink:href="#mba2db29e3f" y="220.297936"/>
     <use style="fill:#d62728;stroke:#d62728;" x="411.552026" xlink:href="#mba2db29e3f" y="216.641793"/>
    </g>
   </g>
   <g id="line2d_45">
    <path clip-path="url(#p1e7f70aef4)" d="M 62.597349 211.237302 
L 101.37012 212.589158 
L 140.142803 212.501125 
L 178.91556 212.250045 
L 217.688317 213.386992 
L 256.461073 210.151318 
L 295.233756 213.323705 
L 334.006513 211.451776 
L 372.779269 209.450712 
L 411.552026 210.135234 
" style="fill:none;stroke:#d62728;stroke-dasharray:5.55,2.4;stroke-dashoffset:0;stroke-width:1.5;"/>
    <g clip-path="url(#p1e7f70aef4)">
     <use style="fill:#d62728;stroke:#d62728;" x="62.597349" xlink:href="#mba2db29e3f" y="211.237302"/>
     <use style="fill:#d62728;stroke:#d62728;" x="101.37012" xlink:href="#mba2db29e3f" y="212.589158"/>
     <use style="fill:#d62728;stroke:#d62728;" x="140.142803" xlink:href="#mba2db29e3f" y="212.501125"/>
     <use style="fill:#d62728;stroke:#d62728;" x="178.91556" xlink:href="#mba2db29e3f" y="212.250045"/>
     <use style="fill:#d62728;stroke:#d62728;" x="217.688317" xlink:href="#mba2db29e3f" y="213.386992"/>
     <use style="fill:#d62728;stroke:#d62728;" x="256.461073" xlink:href="#mba2db29e3f" y="210.151318"/>
     <use style="fill:#d62728;stroke:#d62728;" x="295.233756" xlink:href="#mba2db29e3f" y="213.323705"/>
     <use style="fill:#d62728;stroke:#d62728;" x="334.006513" xlink:href="#mba2db29e3f" y="211.451776"/>
     <use style="fill:#d62728;stroke:#d62728;" x="372.779269" xlink:href="#mba2db29e3f" y="209.450712"/>
     <use style="fill:#d62728;stroke:#d62728;" x="411.552026" xlink:href="#mba2db29e3f" y="210.135234"/>
    </g>
   </g>
   <g id="line2d_46">
    <path clip-path="url(#p1e7f70aef4)" d="M 62.597349 198.100633 
L 101.37012 202.425903 
L 140.142803 205.923121 
L 178.91556 206.057652 
L 217.688317 205.233682 
L 256.461073 205.618818 
L 295.233756 205.997942 
L 334.006513 205.226927 
L 372.779269 205.484845 
L 411.552026 204.040179 
" style="fill:none;stroke:#d62728;stroke-dasharray:1.5,2.475;stroke-dashoffset:0;stroke-width:1.5;"/>
    <g clip-path="url(#p1e7f70aef4)">
     <use style="fill:#d62728;stroke:#d62728;" x="62.597349" xlink:href="#mba2db29e3f" y="198.100633"/>
     <use style="fill:#d62728;stroke:#d62728;" x="101.37012" xlink:href="#mba2db29e3f" y="202.425903"/>
     <use style="fill:#d62728;stroke:#d62728;" x="140.142803" xlink:href="#mba2db29e3f" y="205.923121"/>
     <use style="fill:#d62728;stroke:#d62728;" x="178.91556" xlink:href="#mba2db29e3f" y="206.057652"/>
     <use style="fill:#d62728;stroke:#d62728;" x="217.688317" xlink:href="#mba2db29e3f" y="205.233682"/>
     <use style="fill:#d62728;stroke:#d62728;" x="256.461073" xlink:href="#mba2db29e3f" y="205.618818"/>
     <use style="fill:#d62728;stroke:#d62728;" x="295.233756" xlink:href="#mba2db29e3f" y="205.997942"/>
     <use style="fill:#d62728;stroke:#d62728;" x="334.006513" xlink:href="#mba2db29e3f" y="205.226927"/>
     <use style="fill:#d62728;stroke:#d62728;" x="372.779269" xlink:href="#mba2db29e3f" y="205.484845"/>
     <use style="fill:#d62728;stroke:#d62728;" x="411.552026" xlink:href="#mba2db29e3f" y="204.040179"/>
    </g>
   </g>
   <g id="line2d_47">
    <path clip-path="url(#p1e7f70aef4)" d="M 62.597349 54.750238 
L 101.37012 58.164976 
L 140.142803 58.714987 
L 178.91556 61.183675 
L 217.688317 61.159778 
L 256.461073 62.508843 
L 295.233756 62.148618 
L 334.006513 61.981237 
L 372.779269 54.908121 
L 411.552026 57.208094 
" style="fill:none;stroke:#9467bd;stroke-linecap:square;stroke-width:1.5;"/>
    <defs>
     <path d="M 0 3 
C 0.795609 3 1.55874 2.683901 2.12132 2.12132 
C 2.683901 1.55874 3 0.795609 3 0 
C 3 -0.795609 2.683901 -1.55874 2.12132 -2.12132 
C 1.55874 -2.683901 0.795609 -3 0 -3 
C -0.795609 -3 -1.55874 -2.683901 -2.12132 -2.12132 
C -2.683901 -1.55874 -3 -0.795609 -3 0 
C -3 0.795609 -2.683901 1.55874 -2.12132 2.12132 
C -1.55874 2.683901 -0.795609 3 0 3 
z
" id="m5e99aa00e0" style="stroke:#9467bd;"/>
    </defs>
    <g clip-path="url(#p1e7f70aef4)">
     <use style="fill:#9467bd;stroke:#9467bd;" x="62.597349" xlink:href="#m5e99aa00e0" y="54.750238"/>
     <use style="fill:#9467bd;stroke:#9467bd;" x="101.37012" xlink:href="#m5e99aa00e0" y="58.164976"/>
     <use style="fill:#9467bd;stroke:#9467bd;" x="140.142803" xlink:href="#m5e99aa00e0" y="58.714987"/>
     <use style="fill:#9467bd;stroke:#9467bd;" x="178.91556" xlink:href="#m5e99aa00e0" y="61.183675"/>
     <use style="fill:#9467bd;stroke:#9467bd;" x="217.688317" xlink:href="#m5e99aa00e0" y="61.159778"/>
     <use style="fill:#9467bd;stroke:#9467bd;" x="256.461073" xlink:href="#m5e99aa00e0" y="62.508843"/>
     <use style="fill:#9467bd;stroke:#9467bd;" x="295.233756" xlink:href="#m5e99aa00e0" y="62.148618"/>
     <use style="fill:#9467bd;stroke:#9467bd;" x="334.006513" xlink:href="#m5e99aa00e0" y="61.981237"/>
     <use style="fill:#9467bd;stroke:#9467bd;" x="372.779269" xlink:href="#m5e99aa00e0" y="54.908121"/>
     <use style="fill:#9467bd;stroke:#9467bd;" x="411.552026" xlink:href="#m5e99aa00e0" y="57.208094"/>
    </g>
   </g>
   <g id="line2d_48">
    <path clip-path="url(#p1e7f70aef4)" d="M 62.597349 53.060747 
L 101.37012 55.09915 
L 140.142803 54.787659 
L 178.91556 56.101017 
L 217.688317 57.372095 
L 256.461073 56.455495 
L 295.233756 54.640021 
L 334.006513 54.54825 
L 372.779269 52.816837 
L 411.552026 51.65375 
" style="fill:none;stroke:#9467bd;stroke-dasharray:5.55,2.4;stroke-dashoffset:0;stroke-width:1.5;"/>
    <g clip-path="url(#p1e7f70aef4)">
     <use style="fill:#9467bd;stroke:#9467bd;" x="62.597349" xlink:href="#m5e99aa00e0" y="53.060747"/>
     <use style="fill:#9467bd;stroke:#9467bd;" x="101.37012" xlink:href="#m5e99aa00e0" y="55.09915"/>
     <use style="fill:#9467bd;stroke:#9467bd;" x="140.142803" xlink:href="#m5e99aa00e0" y="54.787659"/>
     <use style="fill:#9467bd;stroke:#9467bd;" x="178.91556" xlink:href="#m5e99aa00e0" y="56.101017"/>
     <use style="fill:#9467bd;stroke:#9467bd;" x="217.688317" xlink:href="#m5e99aa00e0" y="57.372095"/>
     <use style="fill:#9467bd;stroke:#9467bd;" x="256.461073" xlink:href="#m5e99aa00e0" y="56.455495"/>
     <use style="fill:#9467bd;stroke:#9467bd;" x="295.233756" xlink:href="#m5e99aa00e0" y="54.640021"/>
     <use style="fill:#9467bd;stroke:#9467bd;" x="334.006513" xlink:href="#m5e99aa00e0" y="54.54825"/>
     <use style="fill:#9467bd;stroke:#9467bd;" x="372.779269" xlink:href="#m5e99aa00e0" y="52.816837"/>
     <use style="fill:#9467bd;stroke:#9467bd;" x="411.552026" xlink:href="#m5e99aa00e0" y="51.65375"/>
    </g>
   </g>
   <g id="line2d_49">
    <path clip-path="url(#p1e7f70aef4)" d="M 62.597349 30.427652 
L 101.37012 33.192134 
L 140.142803 28.052501 
L 178.91556 34.828129 
L 217.688317 37.987421 
L 256.461073 30.98701 
L 295.233756 27.353514 
L 334.006513 37.306586 
L 372.779269 34.564247 
L 411.552026 34.285357 
" style="fill:none;stroke:#9467bd;stroke-dasharray:1.5,2.475;stroke-dashoffset:0;stroke-width:1.5;"/>
    <g clip-path="url(#p1e7f70aef4)">
     <use style="fill:#9467bd;stroke:#9467bd;" x="62.597349" xlink:href="#m5e99aa00e0" y="30.427652"/>
     <use style="fill:#9467bd;stroke:#9467bd;" x="101.37012" xlink:href="#m5e99aa00e0" y="33.192134"/>
     <use style="fill:#9467bd;stroke:#9467bd;" x="140.142803" xlink:href="#m5e99aa00e0" y="28.052501"/>
     <use style="fill:#9467bd;stroke:#9467bd;" x="178.91556" xlink:href="#m5e99aa00e0" y="34.828129"/>
     <use style="fill:#9467bd;stroke:#9467bd;" x="217.688317" xlink:href="#m5e99aa00e0" y="37.987421"/>
     <use style="fill:#9467bd;stroke:#9467bd;" x="256.461073" xlink:href="#m5e99aa00e0" y="30.98701"/>
     <use style="fill:#9467bd;stroke:#9467bd;" x="295.233756" xlink:href="#m5e99aa00e0" y="27.353514"/>
     <use style="fill:#9467bd;stroke:#9467bd;" x="334.006513" xlink:href="#m5e99aa00e0" y="37.306586"/>
     <use style="fill:#9467bd;stroke:#9467bd;" x="372.779269" xlink:href="#m5e99aa00e0" y="34.564247"/>
     <use style="fill:#9467bd;stroke:#9467bd;" x="411.552026" xlink:href="#m5e99aa00e0" y="34.285357"/>
    </g>
   </g>
   <g id="patch_3">
    <path d="M 45.149615 538.77226 
L 45.149615 3.00024 
" style="fill:none;stroke:#000000;stroke-linecap:square;stroke-linejoin:miter;stroke-width:0.8;"/>
   </g>
   <g id="patch_4">
    <path d="M 428.99976 538.77226 
L 428.99976 3.00024 
" style="fill:none;stroke:#000000;stroke-linecap:square;stroke-linejoin:miter;stroke-width:0.8;"/>
   </g>
   <g id="patch_5">
    <path d="M 45.149615 538.77226 
L 428.99976 538.77226 
" style="fill:none;stroke:#000000;stroke-linecap:square;stroke-linejoin:miter;stroke-width:0.8;"/>
   </g>
   <g id="patch_6">
    <path d="M 45.149615 3.00024 
L 428.99976 3.00024 
" style="fill:none;stroke:#000000;stroke-linecap:square;stroke-linejoin:miter;stroke-width:0.8;"/>
   </g>
   <g id="legend_1">
    <g id="patch_7">
     <path d="M 276.556479 320.712812 
L 419.89976 320.712812 
Q 422.49976 320.712812 422.49976 318.112812 
L 422.49976 223.659688 
Q 422.49976 221.059687 419.89976 221.059687 
L 276.556479 221.059687 
Q 273.956479 221.059687 273.956479 223.659688 
L 273.956479 318.112812 
Q 273.956479 320.712812 276.556479 320.712812 
z
" style="fill:#ffffff;opacity:0.8;stroke:#cccccc;stroke-linejoin:miter;"/>
    </g>
    <g id="line2d_50">
     <path d="M 279.156479 231.656719 
L 305.156479 231.656719 
" style="fill:none;stroke:#9467bd;stroke-linecap:square;stroke-width:1.5;"/>
    </g>
    <g id="line2d_51">
     <g>
      <use style="fill:#9467bd;stroke:#9467bd;" x="292.156479" xlink:href="#m5e99aa00e0" y="231.656719"/>
     </g>
    </g>
    <g id="text_11">
     <!--  14608 noeuds -->
     <defs>
      <path id="DejaVuSansMono-32"/>
      <path d="M 13.1875 8.296875 
L 28.515625 8.296875 
L 28.515625 64.015625 
L 12.015625 60.296875 
L 12.015625 69.28125 
L 28.421875 72.90625 
L 38.28125 72.90625 
L 38.28125 8.296875 
L 53.421875 8.296875 
L 53.421875 0 
L 13.1875 0 
z
" id="DejaVuSansMono-49"/>
      <path d="M 35.890625 63.921875 
L 12.890625 25.390625 
L 35.890625 25.390625 
z
M 34.28125 72.90625 
L 45.703125 72.90625 
L 45.703125 25.390625 
L 55.421875 25.390625 
L 55.421875 17.390625 
L 45.703125 17.390625 
L 45.703125 0 
L 35.890625 0 
L 35.890625 17.390625 
L 4.984375 17.390625 
L 4.984375 26.703125 
z
" id="DejaVuSansMono-52"/>
      <path d="M 48.390625 71.296875 
L 48.390625 62.203125 
Q 45.3125 64.015625 41.84375 64.96875 
Q 38.375 65.921875 34.625 65.921875 
Q 25.25 65.921875 20.40625 58.859375 
Q 15.578125 51.8125 15.578125 38.09375 
Q 17.921875 42.96875 22.0625 45.578125 
Q 26.21875 48.1875 31.59375 48.1875 
Q 42.140625 48.1875 47.921875 41.71875 
Q 53.71875 35.25 53.71875 23.390625 
Q 53.71875 11.578125 47.75 5.078125 
Q 41.796875 -1.421875 31 -1.421875 
Q 18.3125 -1.421875 12.40625 7.6875 
Q 6.5 16.796875 6.5 36.375 
Q 6.5 54.828125 13.59375 64.515625 
Q 20.703125 74.21875 34.1875 74.21875 
Q 37.796875 74.21875 41.40625 73.453125 
Q 45.015625 72.703125 48.390625 71.296875 
z
M 30.8125 40.484375 
Q 24.515625 40.484375 20.890625 35.9375 
Q 17.28125 31.390625 17.28125 23.390625 
Q 17.28125 15.375 20.890625 10.828125 
Q 24.515625 6.296875 30.8125 6.296875 
Q 37.359375 6.296875 40.671875 10.609375 
Q 44 14.9375 44 23.390625 
Q 44 31.890625 40.671875 36.1875 
Q 37.359375 40.484375 30.8125 40.484375 
z
" id="DejaVuSansMono-54"/>
      <path d="M 23.578125 36.625 
Q 23.578125 39.3125 25.453125 41.265625 
Q 27.34375 43.21875 29.984375 43.21875 
Q 32.71875 43.21875 34.671875 41.265625 
Q 36.625 39.3125 36.625 36.625 
Q 36.625 33.890625 34.6875 31.984375 
Q 32.765625 30.078125 29.984375 30.078125 
Q 27.25 30.078125 25.40625 31.9375 
Q 23.578125 33.796875 23.578125 36.625 
z
M 30.078125 66.40625 
Q 23.1875 66.40625 19.796875 58.984375 
Q 16.40625 51.5625 16.40625 36.375 
Q 16.40625 21.234375 19.796875 13.8125 
Q 23.1875 6.390625 30.078125 6.390625 
Q 37.015625 6.390625 40.40625 13.8125 
Q 43.796875 21.234375 43.796875 36.375 
Q 43.796875 51.5625 40.40625 58.984375 
Q 37.015625 66.40625 30.078125 66.40625 
z
M 30.078125 74.21875 
Q 41.75 74.21875 47.734375 64.640625 
Q 53.71875 55.078125 53.71875 36.375 
Q 53.71875 17.71875 47.734375 8.140625 
Q 41.75 -1.421875 30.078125 -1.421875 
Q 18.40625 -1.421875 12.453125 8.140625 
Q 6.5 17.71875 6.5 36.375 
Q 6.5 55.078125 12.453125 64.640625 
Q 18.40625 74.21875 30.078125 74.21875 
z
" id="DejaVuSansMono-48"/>
      <path d="M 30.078125 34.625 
Q 23.484375 34.625 19.890625 30.9375 
Q 16.3125 27.25 16.3125 20.515625 
Q 16.3125 13.765625 19.9375 10.03125 
Q 23.578125 6.296875 30.078125 6.296875 
Q 36.71875 6.296875 40.296875 9.984375 
Q 43.890625 13.671875 43.890625 20.515625 
Q 43.890625 27.203125 40.25 30.90625 
Q 36.625 34.625 30.078125 34.625 
z
M 21.484375 38.71875 
Q 15.1875 40.328125 11.640625 44.71875 
Q 8.109375 49.125 8.109375 55.328125 
Q 8.109375 64.015625 14.015625 69.109375 
Q 19.921875 74.21875 30.078125 74.21875 
Q 40.28125 74.21875 46.1875 69.109375 
Q 52.09375 64.015625 52.09375 55.328125 
Q 52.09375 49.125 48.546875 44.71875 
Q 45.015625 40.328125 38.71875 38.71875 
Q 46.046875 37.109375 49.921875 32.21875 
Q 53.8125 27.34375 53.8125 19.578125 
Q 53.8125 9.71875 47.515625 4.140625 
Q 41.21875 -1.421875 30.078125 -1.421875 
Q 18.953125 -1.421875 12.671875 4.125 
Q 6.390625 9.671875 6.390625 19.484375 
Q 6.390625 27.296875 10.265625 32.203125 
Q 14.15625 37.109375 21.484375 38.71875 
z
M 17.921875 54.390625 
Q 17.921875 48.53125 21.046875 45.453125 
Q 24.171875 42.390625 30.078125 42.390625 
Q 36.03125 42.390625 39.15625 45.453125 
Q 42.28125 48.53125 42.28125 54.390625 
Q 42.28125 60.359375 39.171875 63.484375 
Q 36.078125 66.609375 30.078125 66.609375 
Q 24.171875 66.609375 21.046875 63.453125 
Q 17.921875 60.296875 17.921875 54.390625 
z
" id="DejaVuSansMono-56"/>
      <path d="M 51.3125 33.890625 
L 51.3125 0 
L 42.28125 0 
L 42.28125 33.890625 
Q 42.28125 41.265625 39.6875 44.71875 
Q 37.109375 48.1875 31.59375 48.1875 
Q 25.296875 48.1875 21.890625 43.71875 
Q 18.5 39.265625 18.5 30.90625 
L 18.5 0 
L 9.515625 0 
L 9.515625 54.6875 
L 18.5 54.6875 
L 18.5 46.484375 
Q 20.90625 51.171875 25 53.578125 
Q 29.109375 56 34.71875 56 
Q 43.0625 56 47.1875 50.5 
Q 51.3125 45.015625 51.3125 33.890625 
z
" id="DejaVuSansMono-110"/>
      <path d="M 30.078125 48.390625 
Q 23.25 48.390625 19.734375 43.0625 
Q 16.21875 37.75 16.21875 27.296875 
Q 16.21875 16.890625 19.734375 11.546875 
Q 23.25 6.203125 30.078125 6.203125 
Q 36.96875 6.203125 40.484375 11.546875 
Q 44 16.890625 44 27.296875 
Q 44 37.75 40.484375 43.0625 
Q 36.96875 48.390625 30.078125 48.390625 
z
M 30.078125 56 
Q 41.453125 56 47.484375 48.625 
Q 53.515625 41.265625 53.515625 27.296875 
Q 53.515625 13.28125 47.5 5.921875 
Q 41.5 -1.421875 30.078125 -1.421875 
Q 18.703125 -1.421875 12.6875 5.921875 
Q 6.6875 13.28125 6.6875 27.296875 
Q 6.6875 41.265625 12.6875 48.625 
Q 18.703125 56 30.078125 56 
z
" id="DejaVuSansMono-111"/>
      <path d="M 54.296875 29.59375 
L 54.296875 25.203125 
L 15.375 25.203125 
L 15.375 24.90625 
Q 15.375 15.96875 20.03125 11.078125 
Q 24.703125 6.203125 33.203125 6.203125 
Q 37.5 6.203125 42.1875 7.5625 
Q 46.875 8.9375 52.203125 11.71875 
L 52.203125 2.78125 
Q 47.078125 0.6875 42.3125 -0.359375 
Q 37.546875 -1.421875 33.109375 -1.421875 
Q 20.359375 -1.421875 13.171875 6.21875 
Q 6 13.875 6 27.296875 
Q 6 40.375 13.03125 48.1875 
Q 20.0625 56 31.78125 56 
Q 42.234375 56 48.265625 48.921875 
Q 54.296875 41.84375 54.296875 29.59375 
z
M 45.3125 32.234375 
Q 45.125 40.140625 41.578125 44.265625 
Q 38.03125 48.390625 31.390625 48.390625 
Q 24.90625 48.390625 20.703125 44.09375 
Q 16.5 39.796875 15.71875 32.171875 
z
" id="DejaVuSansMono-101"/>
      <path d="M 9.515625 20.703125 
L 9.515625 54.59375 
L 18.5 54.59375 
L 18.5 20.703125 
Q 18.5 13.328125 21.109375 9.859375 
Q 23.734375 6.390625 29.203125 6.390625 
Q 35.546875 6.390625 38.90625 10.859375 
Q 42.28125 15.328125 42.28125 23.6875 
L 42.28125 54.59375 
L 51.3125 54.59375 
L 51.3125 0 
L 42.28125 0 
L 42.28125 8.203125 
Q 39.890625 3.46875 35.765625 1.015625 
Q 31.640625 -1.421875 26.125 -1.421875 
Q 17.71875 -1.421875 13.609375 4.078125 
Q 9.515625 9.578125 9.515625 20.703125 
z
" id="DejaVuSansMono-117"/>
      <path d="M 41.890625 47.703125 
L 41.890625 75.984375 
L 50.875 75.984375 
L 50.875 0 
L 41.890625 0 
L 41.890625 6.890625 
Q 39.65625 2.828125 35.90625 0.703125 
Q 32.171875 -1.421875 27.296875 -1.421875 
Q 17.390625 -1.421875 11.6875 6.265625 
Q 6 13.96875 6 27.484375 
Q 6 40.828125 11.71875 48.40625 
Q 17.4375 56 27.296875 56 
Q 32.234375 56 35.984375 53.875 
Q 39.75 51.765625 41.890625 47.703125 
z
M 15.484375 27.296875 
Q 15.484375 16.84375 18.796875 11.515625 
Q 22.125 6.203125 28.609375 6.203125 
Q 35.109375 6.203125 38.5 11.5625 
Q 41.890625 16.9375 41.890625 27.296875 
Q 41.890625 37.703125 38.5 43.046875 
Q 35.109375 48.390625 28.609375 48.390625 
Q 22.125 48.390625 18.796875 43.0625 
Q 15.484375 37.75 15.484375 27.296875 
z
" id="DejaVuSansMono-100"/>
      <path d="M 47.515625 52.78125 
L 47.515625 44 
Q 43.65625 46.234375 39.75 47.359375 
Q 35.84375 48.484375 31.78125 48.484375 
Q 25.6875 48.484375 22.671875 46.5 
Q 19.671875 44.53125 19.671875 40.484375 
Q 19.671875 36.8125 21.921875 35 
Q 24.171875 33.203125 33.109375 31.5 
L 36.71875 30.8125 
Q 43.40625 29.546875 46.84375 25.734375 
Q 50.296875 21.921875 50.296875 15.828125 
Q 50.296875 7.71875 44.53125 3.140625 
Q 38.765625 -1.421875 28.515625 -1.421875 
Q 24.46875 -1.421875 20.015625 -0.5625 
Q 15.578125 0.296875 10.40625 2 
L 10.40625 11.28125 
Q 15.4375 8.6875 20.015625 7.390625 
Q 24.609375 6.109375 28.71875 6.109375 
Q 34.671875 6.109375 37.9375 8.515625 
Q 41.21875 10.9375 41.21875 15.28125 
Q 41.21875 21.53125 29.25 23.921875 
L 28.859375 24.03125 
L 25.484375 24.703125 
Q 17.71875 26.21875 14.15625 29.8125 
Q 10.59375 33.40625 10.59375 39.59375 
Q 10.59375 47.46875 15.90625 51.734375 
Q 21.234375 56 31.109375 56 
Q 35.5 56 39.546875 55.1875 
Q 43.609375 54.390625 47.515625 52.78125 
z
" id="DejaVuSansMono-115"/>
     </defs>
     <g transform="translate(315.556479 236.206719)scale(0.13 -0.13)">
      <use xlink:href="#DejaVuSansMono-32"/>
      <use x="60.205078" xlink:href="#DejaVuSansMono-49"/>
      <use x="120.410156" xlink:href="#DejaVuSansMono-52"/>
      <use x="180.615234" xlink:href="#DejaVuSansMono-54"/>
      <use x="240.820312" xlink:href="#DejaVuSansMono-48"/>
      <use x="301.025391" xlink:href="#DejaVuSansMono-56"/>
      <use x="361.230469" xlink:href="#DejaVuSansMono-32"/>
      <use x="421.435547" xlink:href="#DejaVuSansMono-110"/>
      <use x="481.640625" xlink:href="#DejaVuSansMono-111"/>
      <use x="541.845703" xlink:href="#DejaVuSansMono-101"/>
      <use x="602.050781" xlink:href="#DejaVuSansMono-117"/>
      <use x="662.255859" xlink:href="#DejaVuSansMono-100"/>
      <use x="722.460938" xlink:href="#DejaVuSansMono-115"/>
     </g>
    </g>
    <g id="line2d_52">
     <path d="M 279.156479 250.807344 
L 305.156479 250.807344 
" style="fill:none;stroke:#d62728;stroke-linecap:square;stroke-width:1.5;"/>
    </g>
    <g id="line2d_53">
     <g>
      <use style="fill:#d62728;stroke:#d62728;" x="292.156479" xlink:href="#mba2db29e3f" y="250.807344"/>
     </g>
    </g>
    <g id="text_12">
     <!--   4424 noeuds -->
     <defs>
      <path d="M 18.21875 8.296875 
L 51.703125 8.296875 
L 51.703125 0 
L 7.421875 0 
L 7.421875 8.296875 
Q 16.546875 17.921875 23.375 25.296875 
Q 30.21875 32.671875 32.8125 35.6875 
Q 37.703125 41.65625 39.40625 45.34375 
Q 41.109375 49.03125 41.109375 52.875 
Q 41.109375 58.984375 37.515625 62.453125 
Q 33.9375 65.921875 27.6875 65.921875 
Q 23.25 65.921875 18.359375 64.3125 
Q 13.484375 62.703125 8.015625 59.421875 
L 8.015625 69.390625 
Q 13.03125 71.78125 17.890625 73 
Q 22.75 74.21875 27.484375 74.21875 
Q 38.1875 74.21875 44.703125 68.53125 
Q 51.21875 62.84375 51.21875 53.609375 
Q 51.21875 48.921875 49.046875 44.234375 
Q 46.875 39.546875 42 33.890625 
Q 39.265625 30.71875 34.0625 25.09375 
Q 28.859375 19.484375 18.21875 8.296875 
z
" id="DejaVuSansMono-50"/>
     </defs>
     <g transform="translate(315.556479 255.357344)scale(0.13 -0.13)">
      <use xlink:href="#DejaVuSansMono-32"/>
      <use x="60.205078" xlink:href="#DejaVuSansMono-32"/>
      <use x="120.410156" xlink:href="#DejaVuSansMono-52"/>
      <use x="180.615234" xlink:href="#DejaVuSansMono-52"/>
      <use x="240.820312" xlink:href="#DejaVuSansMono-50"/>
      <use x="301.025391" xlink:href="#DejaVuSansMono-52"/>
      <use x="361.230469" xlink:href="#DejaVuSansMono-32"/>
      <use x="421.435547" xlink:href="#DejaVuSansMono-110"/>
      <use x="481.640625" xlink:href="#DejaVuSansMono-111"/>
      <use x="541.845703" xlink:href="#DejaVuSansMono-101"/>
      <use x="602.050781" xlink:href="#DejaVuSansMono-117"/>
      <use x="662.255859" xlink:href="#DejaVuSansMono-100"/>
      <use x="722.460938" xlink:href="#DejaVuSansMono-115"/>
     </g>
    </g>
    <g id="line2d_54">
     <path d="M 279.156479 269.957969 
L 305.156479 269.957969 
" style="fill:none;stroke:#2ca02c;stroke-linecap:square;stroke-width:1.5;"/>
    </g>
    <g id="line2d_55">
     <g>
      <use style="fill:#2ca02c;stroke:#2ca02c;" x="292.156479" xlink:href="#m5af580e5e9" y="269.957969"/>
     </g>
    </g>
    <g id="text_13">
     <!--   1667 noeuds -->
     <defs>
      <path d="M 6.78125 72.90625 
L 52.6875 72.90625 
L 52.6875 68.703125 
L 26.609375 0 
L 16.3125 0 
L 41.703125 64.59375 
L 6.78125 64.59375 
z
" id="DejaVuSansMono-55"/>
     </defs>
     <g transform="translate(315.556479 274.507969)scale(0.13 -0.13)">
      <use xlink:href="#DejaVuSansMono-32"/>
      <use x="60.205078" xlink:href="#DejaVuSansMono-32"/>
      <use x="120.410156" xlink:href="#DejaVuSansMono-49"/>
      <use x="180.615234" xlink:href="#DejaVuSansMono-54"/>
      <use x="240.820312" xlink:href="#DejaVuSansMono-54"/>
      <use x="301.025391" xlink:href="#DejaVuSansMono-55"/>
      <use x="361.230469" xlink:href="#DejaVuSansMono-32"/>
      <use x="421.435547" xlink:href="#DejaVuSansMono-110"/>
      <use x="481.640625" xlink:href="#DejaVuSansMono-111"/>
      <use x="541.845703" xlink:href="#DejaVuSansMono-101"/>
      <use x="602.050781" xlink:href="#DejaVuSansMono-117"/>
      <use x="662.255859" xlink:href="#DejaVuSansMono-100"/>
      <use x="722.460938" xlink:href="#DejaVuSansMono-115"/>
     </g>
    </g>
    <g id="line2d_56">
     <path d="M 279.156479 289.108594 
L 305.156479 289.108594 
" style="fill:none;stroke:#ff7f0e;stroke-linecap:square;stroke-width:1.5;"/>
    </g>
    <g id="line2d_57">
     <g>
      <use style="fill:#ff7f0e;stroke:#ff7f0e;" x="292.156479" xlink:href="#ma401f5e88b" y="289.108594"/>
     </g>
    </g>
    <g id="text_14">
     <!--    838 noeuds -->
     <defs>
      <path d="M 37.890625 39.015625 
Q 45.0625 37.109375 48.875 32.25 
Q 52.6875 27.390625 52.6875 20.125 
Q 52.6875 10.0625 45.921875 4.3125 
Q 39.15625 -1.421875 27.203125 -1.421875 
Q 22.171875 -1.421875 16.9375 -0.484375 
Q 11.71875 0.4375 6.6875 2.203125 
L 6.6875 12.015625 
Q 11.671875 9.421875 16.5 8.15625 
Q 21.34375 6.890625 26.125 6.890625 
Q 34.234375 6.890625 38.578125 10.546875 
Q 42.921875 14.203125 42.921875 21.09375 
Q 42.921875 27.4375 38.578125 31.171875 
Q 34.234375 34.90625 26.8125 34.90625 
L 19.28125 34.90625 
L 19.28125 43.015625 
L 26.8125 43.015625 
Q 33.59375 43.015625 37.40625 45.984375 
Q 41.21875 48.96875 41.21875 54.296875 
Q 41.21875 59.90625 37.671875 62.90625 
Q 34.125 65.921875 27.59375 65.921875 
Q 23.25 65.921875 18.609375 64.9375 
Q 13.96875 63.96875 8.890625 62.015625 
L 8.890625 71.09375 
Q 14.796875 72.65625 19.40625 73.4375 
Q 24.03125 74.21875 27.59375 74.21875 
Q 38.234375 74.21875 44.609375 68.875 
Q 50.984375 63.53125 50.984375 54.6875 
Q 50.984375 48.6875 47.625 44.671875 
Q 44.28125 40.671875 37.890625 39.015625 
z
" id="DejaVuSansMono-51"/>
     </defs>
     <g transform="translate(315.556479 293.658594)scale(0.13 -0.13)">
      <use xlink:href="#DejaVuSansMono-32"/>
      <use x="60.205078" xlink:href="#DejaVuSansMono-32"/>
      <use x="120.410156" xlink:href="#DejaVuSansMono-32"/>
      <use x="180.615234" xlink:href="#DejaVuSansMono-56"/>
      <use x="240.820312" xlink:href="#DejaVuSansMono-51"/>
      <use x="301.025391" xlink:href="#DejaVuSansMono-56"/>
      <use x="361.230469" xlink:href="#DejaVuSansMono-32"/>
      <use x="421.435547" xlink:href="#DejaVuSansMono-110"/>
      <use x="481.640625" xlink:href="#DejaVuSansMono-111"/>
      <use x="541.845703" xlink:href="#DejaVuSansMono-101"/>
      <use x="602.050781" xlink:href="#DejaVuSansMono-117"/>
      <use x="662.255859" xlink:href="#DejaVuSansMono-100"/>
      <use x="722.460938" xlink:href="#DejaVuSansMono-115"/>
     </g>
    </g>
    <g id="line2d_58">
     <path d="M 279.156479 308.259219 
L 305.156479 308.259219 
" style="fill:none;stroke:#1f77b4;stroke-linecap:square;stroke-width:1.5;"/>
    </g>
    <g id="line2d_59">
     <g>
      <use style="fill:#1f77b4;stroke:#1f77b4;" x="292.156479" xlink:href="#m0ea9b012ed" y="308.259219"/>
     </g>
    </g>
    <g id="text_15">
     <!--    400 noeuds -->
     <g transform="translate(315.556479 312.809219)scale(0.13 -0.13)">
      <use xlink:href="#DejaVuSansMono-32"/>
      <use x="60.205078" xlink:href="#DejaVuSansMono-32"/>
      <use x="120.410156" xlink:href="#DejaVuSansMono-32"/>
      <use x="180.615234" xlink:href="#DejaVuSansMono-52"/>
      <use x="240.820312" xlink:href="#DejaVuSansMono-48"/>
      <use x="301.025391" xlink:href="#DejaVuSansMono-48"/>
      <use x="361.230469" xlink:href="#DejaVuSansMono-32"/>
      <use x="421.435547" xlink:href="#DejaVuSansMono-110"/>
      <use x="481.640625" xlink:href="#DejaVuSansMono-111"/>
      <use x="541.845703" xlink:href="#DejaVuSansMono-101"/>
      <use x="602.050781" xlink:href="#DejaVuSansMono-117"/>
      <use x="662.255859" xlink:href="#DejaVuSansMono-100"/>
      <use x="722.460938" xlink:href="#DejaVuSansMono-115"/>
     </g>
    </g>
   </g>
   <g id="legend_2">
    <g id="patch_8">
     <path d="M 54.249615 301.458594 
L 129.767428 301.458594 
Q 132.367428 301.458594 132.367428 298.858594 
L 132.367428 242.913906 
Q 132.367428 240.313906 129.767428 240.313906 
L 54.249615 240.313906 
Q 51.649615 240.313906 51.649615 242.913906 
L 51.649615 298.858594 
Q 51.649615 301.458594 54.249615 301.458594 
z
" style="fill:#ffffff;opacity:0.8;stroke:#cccccc;stroke-linejoin:miter;"/>
    </g>
    <g id="line2d_60">
     <path d="M 56.849615 250.841875 
L 82.849615 250.841875 
" style="fill:none;stroke:#000000;stroke-dasharray:2,3.3;stroke-dashoffset:0;stroke-width:2;"/>
    </g>
    <g id="line2d_61"/>
    <g id="text_16">
     <!-- None -->
     <defs>
      <path d="M 9.8125 72.90625 
L 23.09375 72.90625 
L 55.421875 11.921875 
L 55.421875 72.90625 
L 64.984375 72.90625 
L 64.984375 0 
L 51.703125 0 
L 19.390625 60.984375 
L 19.390625 0 
L 9.8125 0 
z
" id="DejaVuSans-78"/>
      <path d="M 30.609375 48.390625 
Q 23.390625 48.390625 19.1875 42.75 
Q 14.984375 37.109375 14.984375 27.296875 
Q 14.984375 17.484375 19.15625 11.84375 
Q 23.34375 6.203125 30.609375 6.203125 
Q 37.796875 6.203125 41.984375 11.859375 
Q 46.1875 17.53125 46.1875 27.296875 
Q 46.1875 37.015625 41.984375 42.703125 
Q 37.796875 48.390625 30.609375 48.390625 
z
M 30.609375 56 
Q 42.328125 56 49.015625 48.375 
Q 55.71875 40.765625 55.71875 27.296875 
Q 55.71875 13.875 49.015625 6.21875 
Q 42.328125 -1.421875 30.609375 -1.421875 
Q 18.84375 -1.421875 12.171875 6.21875 
Q 5.515625 13.875 5.515625 27.296875 
Q 5.515625 40.765625 12.171875 48.375 
Q 18.84375 56 30.609375 56 
z
" id="DejaVuSans-111"/>
      <path d="M 54.890625 33.015625 
L 54.890625 0 
L 45.90625 0 
L 45.90625 32.71875 
Q 45.90625 40.484375 42.875 44.328125 
Q 39.84375 48.1875 33.796875 48.1875 
Q 26.515625 48.1875 22.3125 43.546875 
Q 18.109375 38.921875 18.109375 30.90625 
L 18.109375 0 
L 9.078125 0 
L 9.078125 54.6875 
L 18.109375 54.6875 
L 18.109375 46.1875 
Q 21.34375 51.125 25.703125 53.5625 
Q 30.078125 56 35.796875 56 
Q 45.21875 56 50.046875 50.171875 
Q 54.890625 44.34375 54.890625 33.015625 
z
" id="DejaVuSans-110"/>
     </defs>
     <g transform="translate(93.249615 255.391875)scale(0.13 -0.13)">
      <use xlink:href="#DejaVuSans-78"/>
      <use x="74.804688" xlink:href="#DejaVuSans-111"/>
      <use x="135.986328" xlink:href="#DejaVuSans-110"/>
      <use x="199.365234" xlink:href="#DejaVuSans-101"/>
     </g>
    </g>
    <g id="line2d_62">
     <path d="M 56.849615 269.923437 
L 82.849615 269.923437 
" style="fill:none;stroke:#000000;stroke-dasharray:7.4,3.2;stroke-dashoffset:0;stroke-width:2;"/>
    </g>
    <g id="line2d_63"/>
    <g id="text_17">
     <!-- Once -->
     <defs>
      <path d="M 39.40625 66.21875 
Q 28.65625 66.21875 22.328125 58.203125 
Q 16.015625 50.203125 16.015625 36.375 
Q 16.015625 22.609375 22.328125 14.59375 
Q 28.65625 6.59375 39.40625 6.59375 
Q 50.140625 6.59375 56.421875 14.59375 
Q 62.703125 22.609375 62.703125 36.375 
Q 62.703125 50.203125 56.421875 58.203125 
Q 50.140625 66.21875 39.40625 66.21875 
z
M 39.40625 74.21875 
Q 54.734375 74.21875 63.90625 63.9375 
Q 73.09375 53.65625 73.09375 36.375 
Q 73.09375 19.140625 63.90625 8.859375 
Q 54.734375 -1.421875 39.40625 -1.421875 
Q 24.03125 -1.421875 14.8125 8.828125 
Q 5.609375 19.09375 5.609375 36.375 
Q 5.609375 53.65625 14.8125 63.9375 
Q 24.03125 74.21875 39.40625 74.21875 
z
" id="DejaVuSans-79"/>
      <path d="M 48.78125 52.59375 
L 48.78125 44.1875 
Q 44.96875 46.296875 41.140625 47.34375 
Q 37.3125 48.390625 33.40625 48.390625 
Q 24.65625 48.390625 19.8125 42.84375 
Q 14.984375 37.3125 14.984375 27.296875 
Q 14.984375 17.28125 19.8125 11.734375 
Q 24.65625 6.203125 33.40625 6.203125 
Q 37.3125 6.203125 41.140625 7.25 
Q 44.96875 8.296875 48.78125 10.40625 
L 48.78125 2.09375 
Q 45.015625 0.34375 40.984375 -0.53125 
Q 36.96875 -1.421875 32.421875 -1.421875 
Q 20.0625 -1.421875 12.78125 6.34375 
Q 5.515625 14.109375 5.515625 27.296875 
Q 5.515625 40.671875 12.859375 48.328125 
Q 20.21875 56 33.015625 56 
Q 37.15625 56 41.109375 55.140625 
Q 45.0625 54.296875 48.78125 52.59375 
z
" id="DejaVuSans-99"/>
     </defs>
     <g transform="translate(93.249615 274.473437)scale(0.13 -0.13)">
      <use xlink:href="#DejaVuSans-79"/>
      <use x="78.710938" xlink:href="#DejaVuSans-110"/>
      <use x="142.089844" xlink:href="#DejaVuSans-99"/>
      <use x="197.070312" xlink:href="#DejaVuSans-101"/>
     </g>
    </g>
    <g id="line2d_64">
     <path d="M 56.849615 289.005 
L 82.849615 289.005 
" style="fill:none;stroke:#000000;stroke-linecap:square;stroke-width:2;"/>
    </g>
    <g id="line2d_65"/>
    <g id="text_18">
     <!-- Full -->
     <defs>
      <path d="M 9.8125 72.90625 
L 51.703125 72.90625 
L 51.703125 64.59375 
L 19.671875 64.59375 
L 19.671875 43.109375 
L 48.578125 43.109375 
L 48.578125 34.8125 
L 19.671875 34.8125 
L 19.671875 0 
L 9.8125 0 
z
" id="DejaVuSans-70"/>
      <path d="M 8.5 21.578125 
L 8.5 54.6875 
L 17.484375 54.6875 
L 17.484375 21.921875 
Q 17.484375 14.15625 20.5 10.265625 
Q 23.53125 6.390625 29.59375 6.390625 
Q 36.859375 6.390625 41.078125 11.03125 
Q 45.3125 15.671875 45.3125 23.6875 
L 45.3125 54.6875 
L 54.296875 54.6875 
L 54.296875 0 
L 45.3125 0 
L 45.3125 8.40625 
Q 42.046875 3.421875 37.71875 1 
Q 33.40625 -1.421875 27.6875 -1.421875 
Q 18.265625 -1.421875 13.375 4.4375 
Q 8.5 10.296875 8.5 21.578125 
z
M 31.109375 56 
z
" id="DejaVuSans-117"/>
      <path d="M 9.421875 75.984375 
L 18.40625 75.984375 
L 18.40625 0 
L 9.421875 0 
z
" id="DejaVuSans-108"/>
     </defs>
     <g transform="translate(93.249615 293.555)scale(0.13 -0.13)">
      <use xlink:href="#DejaVuSans-70"/>
      <use x="57.441406" xlink:href="#DejaVuSans-117"/>
      <use x="120.820312" xlink:href="#DejaVuSans-108"/>
      <use x="148.603516" xlink:href="#DejaVuSans-108"/>
     </g>
    </g>
   </g>
  </g>
 </g>
 <defs>
  <clipPath id="p1e7f70aef4">
   <rect height="535.77202" width="383.850145" x="45.149615" y="3.00024"/>
  </clipPath>
 </defs>
</svg>
