<?xml version="1.0" encoding="utf-8" standalone="no"?>
<!DOCTYPE svg PUBLIC "-//W3C//DTD SVG 1.1//EN"
  "http://www.w3.org/Graphics/SVG/1.1/DTD/svg11.dtd">
<!-- Created with matplotlib (https://matplotlib.org/) -->
<svg height="324pt" version="1.1" viewBox="0 0 720 324" width="720pt" xmlns="http://www.w3.org/2000/svg" xmlns:xlink="http://www.w3.org/1999/xlink">
 <defs>
  <style type="text/css">
*{stroke-linecap:butt;stroke-linejoin:round;}
  </style>
 </defs>
 <g id="figure_1">
  <g id="patch_1">
   <path d="M 0 324 
L 720 324 
L 720 0 
L 0 0 
z
" style="fill:#ffffff;"/>
  </g>
  <g id="axes_1">
   <g id="patch_2">
    <path d="M 57.725553 286.54851 
L 716.99976 286.54851 
L 716.99976 3.00024 
L 57.725553 3.00024 
z
" style="fill:#ffffff;"/>
   </g>
   <g id="matplotlib.axis_1">
    <g id="xtick_1">
     <g id="line2d_1">
      <path clip-path="url(#p162739dd3d)" d="M 87.692562 286.54851 
L 87.692562 3.00024 
" style="fill:none;stroke:#b0b0b0;stroke-dasharray:0.8,1.32;stroke-dashoffset:0;stroke-width:0.8;"/>
     </g>
     <g id="line2d_2">
      <defs>
       <path d="M 0 0 
L 0 3.5 
" id="mfeb8525503" style="stroke:#000000;stroke-width:0.8;"/>
      </defs>
      <g>
       <use style="stroke:#000000;stroke-width:0.8;" x="87.692562" xlink:href="#mfeb8525503" y="286.54851"/>
      </g>
     </g>
     <g id="text_1">
      <!-- 0 -->
      <defs>
       <path d="M 23.578125 36.625 
Q 23.578125 39.3125 25.453125 41.265625 
Q 27.34375 43.21875 29.984375 43.21875 
Q 32.71875 43.21875 34.671875 41.265625 
Q 36.625 39.3125 36.625 36.625 
Q 36.625 33.890625 34.6875 31.984375 
Q 32.765625 30.078125 29.984375 30.078125 
Q 27.25 30.078125 25.40625 31.9375 
Q 23.578125 33.796875 23.578125 36.625 
z
M 30.078125 66.40625 
Q 23.1875 66.40625 19.796875 58.984375 
Q 16.40625 51.5625 16.40625 36.375 
Q 16.40625 21.234375 19.796875 13.8125 
Q 23.1875 6.390625 30.078125 6.390625 
Q 37.015625 6.390625 40.40625 13.8125 
Q 43.796875 21.234375 43.796875 36.375 
Q 43.796875 51.5625 40.40625 58.984375 
Q 37.015625 66.40625 30.078125 66.40625 
z
M 30.078125 74.21875 
Q 41.75 74.21875 47.734375 64.640625 
Q 53.71875 55.078125 53.71875 36.375 
Q 53.71875 17.71875 47.734375 8.140625 
Q 41.75 -1.421875 30.078125 -1.421875 
Q 18.40625 -1.421875 12.453125 8.140625 
Q 6.5 17.71875 6.5 36.375 
Q 6.5 55.078125 12.453125 64.640625 
Q 18.40625 74.21875 30.078125 74.21875 
z
" id="DejaVuSansMono-48"/>
      </defs>
      <g transform="translate(84.682406 301.200072)scale(0.1 -0.1)">
       <use xlink:href="#DejaVuSansMono-48"/>
      </g>
     </g>
    </g>
    <g id="xtick_2">
     <g id="line2d_3">
      <path clip-path="url(#p162739dd3d)" d="M 171.166126 286.54851 
L 171.166126 3.00024 
" style="fill:none;stroke:#b0b0b0;stroke-dasharray:0.8,1.32;stroke-dashoffset:0;stroke-width:0.8;"/>
     </g>
     <g id="line2d_4">
      <g>
       <use style="stroke:#000000;stroke-width:0.8;" x="171.166126" xlink:href="#mfeb8525503" y="286.54851"/>
      </g>
     </g>
     <g id="text_2">
      <!-- 25 -->
      <defs>
       <path d="M 18.21875 8.296875 
L 51.703125 8.296875 
L 51.703125 0 
L 7.421875 0 
L 7.421875 8.296875 
Q 16.546875 17.921875 23.375 25.296875 
Q 30.21875 32.671875 32.8125 35.6875 
Q 37.703125 41.65625 39.40625 45.34375 
Q 41.109375 49.03125 41.109375 52.875 
Q 41.109375 58.984375 37.515625 62.453125 
Q 33.9375 65.921875 27.6875 65.921875 
Q 23.25 65.921875 18.359375 64.3125 
Q 13.484375 62.703125 8.015625 59.421875 
L 8.015625 69.390625 
Q 13.03125 71.78125 17.890625 73 
Q 22.75 74.21875 27.484375 74.21875 
Q 38.1875 74.21875 44.703125 68.53125 
Q 51.21875 62.84375 51.21875 53.609375 
Q 51.21875 48.921875 49.046875 44.234375 
Q 46.875 39.546875 42 33.890625 
Q 39.265625 30.71875 34.0625 25.09375 
Q 28.859375 19.484375 18.21875 8.296875 
z
" id="DejaVuSansMono-50"/>
       <path d="M 10.109375 72.90625 
L 47.015625 72.90625 
L 47.015625 64.59375 
L 19.09375 64.59375 
L 19.09375 46.6875 
Q 21.1875 47.46875 23.3125 47.828125 
Q 25.4375 48.1875 27.59375 48.1875 
Q 38.921875 48.1875 45.5625 41.5 
Q 52.203125 34.8125 52.203125 23.390625 
Q 52.203125 11.859375 45.234375 5.21875 
Q 38.28125 -1.421875 26.21875 -1.421875 
Q 20.40625 -1.421875 15.59375 -0.640625 
Q 10.796875 0.140625 6.984375 1.703125 
L 6.984375 11.71875 
Q 11.46875 9.28125 16.015625 8.078125 
Q 20.5625 6.890625 25.296875 6.890625 
Q 33.453125 6.890625 37.859375 11.1875 
Q 42.28125 15.484375 42.28125 23.390625 
Q 42.28125 31.203125 37.71875 35.546875 
Q 33.15625 39.890625 25 39.890625 
Q 21.046875 39.890625 17.28125 38.984375 
Q 13.53125 38.09375 10.109375 36.28125 
z
" id="DejaVuSansMono-53"/>
      </defs>
      <g transform="translate(165.145813 301.200072)scale(0.1 -0.1)">
       <use xlink:href="#DejaVuSansMono-50"/>
       <use x="60.205078" xlink:href="#DejaVuSansMono-53"/>
      </g>
     </g>
    </g>
    <g id="xtick_3">
     <g id="line2d_5">
      <path clip-path="url(#p162739dd3d)" d="M 254.63969 286.54851 
L 254.63969 3.00024 
" style="fill:none;stroke:#b0b0b0;stroke-dasharray:0.8,1.32;stroke-dashoffset:0;stroke-width:0.8;"/>
     </g>
     <g id="line2d_6">
      <g>
       <use style="stroke:#000000;stroke-width:0.8;" x="254.63969" xlink:href="#mfeb8525503" y="286.54851"/>
      </g>
     </g>
     <g id="text_3">
      <!-- 50 -->
      <g transform="translate(248.619377 301.200072)scale(0.1 -0.1)">
       <use xlink:href="#DejaVuSansMono-53"/>
       <use x="60.205078" xlink:href="#DejaVuSansMono-48"/>
      </g>
     </g>
    </g>
    <g id="xtick_4">
     <g id="line2d_7">
      <path clip-path="url(#p162739dd3d)" d="M 338.113254 286.54851 
L 338.113254 3.00024 
" style="fill:none;stroke:#b0b0b0;stroke-dasharray:0.8,1.32;stroke-dashoffset:0;stroke-width:0.8;"/>
     </g>
     <g id="line2d_8">
      <g>
       <use style="stroke:#000000;stroke-width:0.8;" x="338.113254" xlink:href="#mfeb8525503" y="286.54851"/>
      </g>
     </g>
     <g id="text_4">
      <!-- 75 -->
      <defs>
       <path d="M 6.78125 72.90625 
L 52.6875 72.90625 
L 52.6875 68.703125 
L 26.609375 0 
L 16.3125 0 
L 41.703125 64.59375 
L 6.78125 64.59375 
z
" id="DejaVuSansMono-55"/>
      </defs>
      <g transform="translate(332.092941 301.200072)scale(0.1 -0.1)">
       <use xlink:href="#DejaVuSansMono-55"/>
       <use x="60.205078" xlink:href="#DejaVuSansMono-53"/>
      </g>
     </g>
    </g>
    <g id="xtick_5">
     <g id="line2d_9">
      <path clip-path="url(#p162739dd3d)" d="M 421.586817 286.54851 
L 421.586817 3.00024 
" style="fill:none;stroke:#b0b0b0;stroke-dasharray:0.8,1.32;stroke-dashoffset:0;stroke-width:0.8;"/>
     </g>
     <g id="line2d_10">
      <g>
       <use style="stroke:#000000;stroke-width:0.8;" x="421.586817" xlink:href="#mfeb8525503" y="286.54851"/>
      </g>
     </g>
     <g id="text_5">
      <!-- 100 -->
      <defs>
       <path d="M 13.1875 8.296875 
L 28.515625 8.296875 
L 28.515625 64.015625 
L 12.015625 60.296875 
L 12.015625 69.28125 
L 28.421875 72.90625 
L 38.28125 72.90625 
L 38.28125 8.296875 
L 53.421875 8.296875 
L 53.421875 0 
L 13.1875 0 
z
" id="DejaVuSansMono-49"/>
      </defs>
      <g transform="translate(412.556349 301.200072)scale(0.1 -0.1)">
       <use xlink:href="#DejaVuSansMono-49"/>
       <use x="60.205078" xlink:href="#DejaVuSansMono-48"/>
       <use x="120.410156" xlink:href="#DejaVuSansMono-48"/>
      </g>
     </g>
    </g>
    <g id="xtick_6">
     <g id="line2d_11">
      <path clip-path="url(#p162739dd3d)" d="M 505.060381 286.54851 
L 505.060381 3.00024 
" style="fill:none;stroke:#b0b0b0;stroke-dasharray:0.8,1.32;stroke-dashoffset:0;stroke-width:0.8;"/>
     </g>
     <g id="line2d_12">
      <g>
       <use style="stroke:#000000;stroke-width:0.8;" x="505.060381" xlink:href="#mfeb8525503" y="286.54851"/>
      </g>
     </g>
     <g id="text_6">
      <!-- 125 -->
      <g transform="translate(496.029913 301.200072)scale(0.1 -0.1)">
       <use xlink:href="#DejaVuSansMono-49"/>
       <use x="60.205078" xlink:href="#DejaVuSansMono-50"/>
       <use x="120.410156" xlink:href="#DejaVuSansMono-53"/>
      </g>
     </g>
    </g>
    <g id="xtick_7">
     <g id="line2d_13">
      <path clip-path="url(#p162739dd3d)" d="M 588.533945 286.54851 
L 588.533945 3.00024 
" style="fill:none;stroke:#b0b0b0;stroke-dasharray:0.8,1.32;stroke-dashoffset:0;stroke-width:0.8;"/>
     </g>
     <g id="line2d_14">
      <g>
       <use style="stroke:#000000;stroke-width:0.8;" x="588.533945" xlink:href="#mfeb8525503" y="286.54851"/>
      </g>
     </g>
     <g id="text_7">
      <!-- 150 -->
      <g transform="translate(579.503476 301.200072)scale(0.1 -0.1)">
       <use xlink:href="#DejaVuSansMono-49"/>
       <use x="60.205078" xlink:href="#DejaVuSansMono-53"/>
       <use x="120.410156" xlink:href="#DejaVuSansMono-48"/>
      </g>
     </g>
    </g>
    <g id="xtick_8">
     <g id="line2d_15">
      <path clip-path="url(#p162739dd3d)" d="M 672.007509 286.54851 
L 672.007509 3.00024 
" style="fill:none;stroke:#b0b0b0;stroke-dasharray:0.8,1.32;stroke-dashoffset:0;stroke-width:0.8;"/>
     </g>
     <g id="line2d_16">
      <g>
       <use style="stroke:#000000;stroke-width:0.8;" x="672.007509" xlink:href="#mfeb8525503" y="286.54851"/>
      </g>
     </g>
     <g id="text_8">
      <!-- 175 -->
      <g transform="translate(662.97704 301.200072)scale(0.1 -0.1)">
       <use xlink:href="#DejaVuSansMono-49"/>
       <use x="60.205078" xlink:href="#DejaVuSansMono-55"/>
       <use x="120.410156" xlink:href="#DejaVuSansMono-53"/>
      </g>
     </g>
    </g>
    <g id="text_9">
     <!-- Angle [deg] -->
     <defs>
      <path d="M 30.078125 64.203125 
L 19.671875 26.90625 
L 40.484375 26.90625 
z
M 24.125 72.90625 
L 36.078125 72.90625 
L 58.40625 0 
L 48.1875 0 
L 42.828125 19 
L 17.28125 19 
L 12.015625 0 
L 1.8125 0 
z
" id="DejaVuSansMono-65"/>
      <path d="M 51.3125 33.890625 
L 51.3125 0 
L 42.28125 0 
L 42.28125 33.890625 
Q 42.28125 41.265625 39.6875 44.71875 
Q 37.109375 48.1875 31.59375 48.1875 
Q 25.296875 48.1875 21.890625 43.71875 
Q 18.5 39.265625 18.5 30.90625 
L 18.5 0 
L 9.515625 0 
L 9.515625 54.6875 
L 18.5 54.6875 
L 18.5 46.484375 
Q 20.90625 51.171875 25 53.578125 
Q 29.109375 56 34.71875 56 
Q 43.0625 56 47.1875 50.5 
Q 51.3125 45.015625 51.3125 33.890625 
z
" id="DejaVuSansMono-110"/>
      <path d="M 41.890625 27.78125 
Q 41.890625 37.890625 38.59375 43.140625 
Q 35.296875 48.390625 29 48.390625 
Q 22.40625 48.390625 18.9375 43.140625 
Q 15.484375 37.890625 15.484375 27.78125 
Q 15.484375 17.671875 18.96875 12.375 
Q 22.46875 7.078125 29.109375 7.078125 
Q 35.296875 7.078125 38.59375 12.390625 
Q 41.890625 17.71875 41.890625 27.78125 
z
M 50.875 3.515625 
Q 50.875 -8.796875 45.0625 -15.140625 
Q 39.265625 -21.484375 27.984375 -21.484375 
Q 24.265625 -21.484375 20.203125 -20.796875 
Q 16.15625 -20.125 12.109375 -18.796875 
L 12.109375 -9.90625 
Q 16.890625 -12.15625 20.796875 -13.234375 
Q 24.703125 -14.3125 27.984375 -14.3125 
Q 35.25 -14.3125 38.5625 -10.34375 
Q 41.890625 -6.390625 41.890625 2.203125 
L 41.890625 2.59375 
L 41.890625 8.6875 
Q 39.75 4.109375 36.03125 1.859375 
Q 32.328125 -0.390625 27 -0.390625 
Q 17.4375 -0.390625 11.71875 7.265625 
Q 6 14.9375 6 27.78125 
Q 6 40.671875 11.71875 48.328125 
Q 17.4375 56 27 56 
Q 32.28125 56 35.9375 53.90625 
Q 39.59375 51.8125 41.890625 47.40625 
L 41.890625 54.5 
L 50.875 54.5 
z
" id="DejaVuSansMono-103"/>
      <path d="M 31.203125 19.828125 
Q 31.203125 13.765625 33.421875 10.6875 
Q 35.640625 7.625 39.984375 7.625 
L 50.484375 7.625 
L 50.484375 0 
L 39.109375 0 
Q 31.0625 0 26.640625 5.171875 
Q 22.21875 10.359375 22.21875 19.828125 
L 22.21875 69.484375 
L 7.8125 69.484375 
L 7.8125 76.515625 
L 31.203125 76.515625 
z
" id="DejaVuSansMono-108"/>
      <path d="M 54.296875 29.59375 
L 54.296875 25.203125 
L 15.375 25.203125 
L 15.375 24.90625 
Q 15.375 15.96875 20.03125 11.078125 
Q 24.703125 6.203125 33.203125 6.203125 
Q 37.5 6.203125 42.1875 7.5625 
Q 46.875 8.9375 52.203125 11.71875 
L 52.203125 2.78125 
Q 47.078125 0.6875 42.3125 -0.359375 
Q 37.546875 -1.421875 33.109375 -1.421875 
Q 20.359375 -1.421875 13.171875 6.21875 
Q 6 13.875 6 27.296875 
Q 6 40.375 13.03125 48.1875 
Q 20.0625 56 31.78125 56 
Q 42.234375 56 48.265625 48.921875 
Q 54.296875 41.84375 54.296875 29.59375 
z
M 45.3125 32.234375 
Q 45.125 40.140625 41.578125 44.265625 
Q 38.03125 48.390625 31.390625 48.390625 
Q 24.90625 48.390625 20.703125 44.09375 
Q 16.5 39.796875 15.71875 32.171875 
z
" id="DejaVuSansMono-101"/>
      <path id="DejaVuSansMono-32"/>
      <path d="M 22.609375 75.984375 
L 43.3125 75.984375 
L 43.3125 69 
L 31.59375 69 
L 31.59375 -6.203125 
L 43.3125 -6.203125 
L 43.3125 -13.1875 
L 22.609375 -13.1875 
z
" id="DejaVuSansMono-91"/>
      <path d="M 41.890625 47.703125 
L 41.890625 75.984375 
L 50.875 75.984375 
L 50.875 0 
L 41.890625 0 
L 41.890625 6.890625 
Q 39.65625 2.828125 35.90625 0.703125 
Q 32.171875 -1.421875 27.296875 -1.421875 
Q 17.390625 -1.421875 11.6875 6.265625 
Q 6 13.96875 6 27.484375 
Q 6 40.828125 11.71875 48.40625 
Q 17.4375 56 27.296875 56 
Q 32.234375 56 35.984375 53.875 
Q 39.75 51.765625 41.890625 47.703125 
z
M 15.484375 27.296875 
Q 15.484375 16.84375 18.796875 11.515625 
Q 22.125 6.203125 28.609375 6.203125 
Q 35.109375 6.203125 38.5 11.5625 
Q 41.890625 16.9375 41.890625 27.296875 
Q 41.890625 37.703125 38.5 43.046875 
Q 35.109375 48.390625 28.609375 48.390625 
Q 22.125 48.390625 18.796875 43.0625 
Q 15.484375 37.75 15.484375 27.296875 
z
" id="DejaVuSansMono-100"/>
      <path d="M 37.59375 75.984375 
L 37.59375 -13.1875 
L 16.890625 -13.1875 
L 16.890625 -6.203125 
L 28.609375 -6.203125 
L 28.609375 69 
L 16.890625 69 
L 16.890625 75.984375 
z
" id="DejaVuSansMono-93"/>
     </defs>
     <g transform="translate(341.00625 317.991947)scale(0.14 -0.14)">
      <use xlink:href="#DejaVuSansMono-65"/>
      <use x="60.205078" xlink:href="#DejaVuSansMono-110"/>
      <use x="120.410156" xlink:href="#DejaVuSansMono-103"/>
      <use x="180.615234" xlink:href="#DejaVuSansMono-108"/>
      <use x="240.820312" xlink:href="#DejaVuSansMono-101"/>
      <use x="301.025391" xlink:href="#DejaVuSansMono-32"/>
      <use x="361.230469" xlink:href="#DejaVuSansMono-91"/>
      <use x="421.435547" xlink:href="#DejaVuSansMono-100"/>
      <use x="481.640625" xlink:href="#DejaVuSansMono-101"/>
      <use x="541.845703" xlink:href="#DejaVuSansMono-103"/>
      <use x="602.050781" xlink:href="#DejaVuSansMono-93"/>
     </g>
    </g>
   </g>
   <g id="matplotlib.axis_2">
    <g id="ytick_1">
     <g id="line2d_17">
      <path clip-path="url(#p162739dd3d)" d="M 57.725553 253.764934 
L 716.99976 253.764934 
" style="fill:none;stroke:#b0b0b0;stroke-dasharray:0.8,1.32;stroke-dashoffset:0;stroke-width:0.8;"/>
     </g>
     <g id="line2d_18">
      <defs>
       <path d="M 0 0 
L -3.5 0 
" id="m4566824023" style="stroke:#000000;stroke-width:0.8;"/>
      </defs>
      <g>
       <use style="stroke:#000000;stroke-width:0.8;" x="57.725553" xlink:href="#m4566824023" y="253.764934"/>
      </g>
     </g>
     <g id="text_10">
      <!-- −0.04 -->
      <defs>
       <path d="M 4.296875 35.5 
L 55.90625 35.5 
L 55.90625 27.203125 
L 4.296875 27.203125 
z
" id="DejaVuSansMono-8722"/>
       <path d="M 23.875 14.890625 
L 36.1875 14.890625 
L 36.1875 0 
L 23.875 0 
z
" id="DejaVuSansMono-46"/>
       <path d="M 35.890625 63.921875 
L 12.890625 25.390625 
L 35.890625 25.390625 
z
M 34.28125 72.90625 
L 45.703125 72.90625 
L 45.703125 25.390625 
L 55.421875 25.390625 
L 55.421875 17.390625 
L 45.703125 17.390625 
L 45.703125 0 
L 35.890625 0 
L 35.890625 17.390625 
L 4.984375 17.390625 
L 4.984375 26.703125 
z
" id="DejaVuSansMono-52"/>
      </defs>
      <g transform="translate(20.62399 257.590716)scale(0.1 -0.1)">
       <use xlink:href="#DejaVuSansMono-8722"/>
       <use x="60.205078" xlink:href="#DejaVuSansMono-48"/>
       <use x="120.410156" xlink:href="#DejaVuSansMono-46"/>
       <use x="180.615234" xlink:href="#DejaVuSansMono-48"/>
       <use x="240.820312" xlink:href="#DejaVuSansMono-52"/>
      </g>
     </g>
    </g>
    <g id="ytick_2">
     <g id="line2d_19">
      <path clip-path="url(#p162739dd3d)" d="M 57.725553 199.269682 
L 716.99976 199.269682 
" style="fill:none;stroke:#b0b0b0;stroke-dasharray:0.8,1.32;stroke-dashoffset:0;stroke-width:0.8;"/>
     </g>
     <g id="line2d_20">
      <g>
       <use style="stroke:#000000;stroke-width:0.8;" x="57.725553" xlink:href="#m4566824023" y="199.269682"/>
      </g>
     </g>
     <g id="text_11">
      <!-- −0.02 -->
      <g transform="translate(20.62399 203.095463)scale(0.1 -0.1)">
       <use xlink:href="#DejaVuSansMono-8722"/>
       <use x="60.205078" xlink:href="#DejaVuSansMono-48"/>
       <use x="120.410156" xlink:href="#DejaVuSansMono-46"/>
       <use x="180.615234" xlink:href="#DejaVuSansMono-48"/>
       <use x="240.820312" xlink:href="#DejaVuSansMono-50"/>
      </g>
     </g>
    </g>
    <g id="ytick_3">
     <g id="line2d_21">
      <path clip-path="url(#p162739dd3d)" d="M 57.725553 144.774429 
L 716.99976 144.774429 
" style="fill:none;stroke:#b0b0b0;stroke-dasharray:0.8,1.32;stroke-dashoffset:0;stroke-width:0.8;"/>
     </g>
     <g id="line2d_22">
      <g>
       <use style="stroke:#000000;stroke-width:0.8;" x="57.725553" xlink:href="#m4566824023" y="144.774429"/>
      </g>
     </g>
     <g id="text_12">
      <!-- 0.00 -->
      <g transform="translate(26.644303 148.600211)scale(0.1 -0.1)">
       <use xlink:href="#DejaVuSansMono-48"/>
       <use x="60.205078" xlink:href="#DejaVuSansMono-46"/>
       <use x="120.410156" xlink:href="#DejaVuSansMono-48"/>
       <use x="180.615234" xlink:href="#DejaVuSansMono-48"/>
      </g>
     </g>
    </g>
    <g id="ytick_4">
     <g id="line2d_23">
      <path clip-path="url(#p162739dd3d)" d="M 57.725553 90.279177 
L 716.99976 90.279177 
" style="fill:none;stroke:#b0b0b0;stroke-dasharray:0.8,1.32;stroke-dashoffset:0;stroke-width:0.8;"/>
     </g>
     <g id="line2d_24">
      <g>
       <use style="stroke:#000000;stroke-width:0.8;" x="57.725553" xlink:href="#m4566824023" y="90.279177"/>
      </g>
     </g>
     <g id="text_13">
      <!-- 0.02 -->
      <g transform="translate(26.644303 94.104958)scale(0.1 -0.1)">
       <use xlink:href="#DejaVuSansMono-48"/>
       <use x="60.205078" xlink:href="#DejaVuSansMono-46"/>
       <use x="120.410156" xlink:href="#DejaVuSansMono-48"/>
       <use x="180.615234" xlink:href="#DejaVuSansMono-50"/>
      </g>
     </g>
    </g>
    <g id="ytick_5">
     <g id="line2d_25">
      <path clip-path="url(#p162739dd3d)" d="M 57.725553 35.783925 
L 716.99976 35.783925 
" style="fill:none;stroke:#b0b0b0;stroke-dasharray:0.8,1.32;stroke-dashoffset:0;stroke-width:0.8;"/>
     </g>
     <g id="line2d_26">
      <g>
       <use style="stroke:#000000;stroke-width:0.8;" x="57.725553" xlink:href="#m4566824023" y="35.783925"/>
      </g>
     </g>
     <g id="text_14">
      <!-- 0.04 -->
      <g transform="translate(26.644303 39.609706)scale(0.1 -0.1)">
       <use xlink:href="#DejaVuSansMono-48"/>
       <use x="60.205078" xlink:href="#DejaVuSansMono-46"/>
       <use x="120.410156" xlink:href="#DejaVuSansMono-48"/>
       <use x="180.615234" xlink:href="#DejaVuSansMono-52"/>
      </g>
     </g>
    </g>
    <g id="text_15">
     <!-- Couple [N m] -->
     <defs>
      <path d="M 52.390625 2.59375 
Q 48.640625 0.59375 44.671875 -0.40625 
Q 40.71875 -1.421875 36.28125 -1.421875 
Q 22.265625 -1.421875 14.515625 8.484375 
Q 6.78125 18.40625 6.78125 36.375 
Q 6.78125 54.25 14.5625 64.234375 
Q 22.359375 74.21875 36.28125 74.21875 
Q 40.71875 74.21875 44.671875 73.21875 
Q 48.640625 72.21875 52.390625 70.21875 
L 52.390625 60.109375 
Q 48.78125 63.09375 44.625 64.65625 
Q 40.484375 66.21875 36.28125 66.21875 
Q 26.65625 66.21875 21.875 58.796875 
Q 17.09375 51.375 17.09375 36.375 
Q 17.09375 21.4375 21.875 14.015625 
Q 26.65625 6.59375 36.28125 6.59375 
Q 40.578125 6.59375 44.703125 8.15625 
Q 48.828125 9.71875 52.390625 12.703125 
z
" id="DejaVuSansMono-67"/>
      <path d="M 30.078125 48.390625 
Q 23.25 48.390625 19.734375 43.0625 
Q 16.21875 37.75 16.21875 27.296875 
Q 16.21875 16.890625 19.734375 11.546875 
Q 23.25 6.203125 30.078125 6.203125 
Q 36.96875 6.203125 40.484375 11.546875 
Q 44 16.890625 44 27.296875 
Q 44 37.75 40.484375 43.0625 
Q 36.96875 48.390625 30.078125 48.390625 
z
M 30.078125 56 
Q 41.453125 56 47.484375 48.625 
Q 53.515625 41.265625 53.515625 27.296875 
Q 53.515625 13.28125 47.5 5.921875 
Q 41.5 -1.421875 30.078125 -1.421875 
Q 18.703125 -1.421875 12.6875 5.921875 
Q 6.6875 13.28125 6.6875 27.296875 
Q 6.6875 41.265625 12.6875 48.625 
Q 18.703125 56 30.078125 56 
z
" id="DejaVuSansMono-111"/>
      <path d="M 9.515625 20.703125 
L 9.515625 54.59375 
L 18.5 54.59375 
L 18.5 20.703125 
Q 18.5 13.328125 21.109375 9.859375 
Q 23.734375 6.390625 29.203125 6.390625 
Q 35.546875 6.390625 38.90625 10.859375 
Q 42.28125 15.328125 42.28125 23.6875 
L 42.28125 54.59375 
L 51.3125 54.59375 
L 51.3125 0 
L 42.28125 0 
L 42.28125 8.203125 
Q 39.890625 3.46875 35.765625 1.015625 
Q 31.640625 -1.421875 26.125 -1.421875 
Q 17.71875 -1.421875 13.609375 4.078125 
Q 9.515625 9.578125 9.515625 20.703125 
z
" id="DejaVuSansMono-117"/>
      <path d="M 18.3125 6.890625 
L 18.3125 -20.796875 
L 9.28125 -20.796875 
L 9.28125 54.6875 
L 18.3125 54.6875 
L 18.3125 47.703125 
Q 20.5625 51.765625 24.296875 53.875 
Q 28.03125 56 32.90625 56 
Q 42.828125 56 48.46875 48.328125 
Q 54.109375 40.671875 54.109375 27.09375 
Q 54.109375 13.765625 48.4375 6.171875 
Q 42.78125 -1.421875 32.90625 -1.421875 
Q 27.9375 -1.421875 24.1875 0.703125 
Q 20.453125 2.828125 18.3125 6.890625 
z
M 44.671875 27.296875 
Q 44.671875 37.75 41.375 43.0625 
Q 38.09375 48.390625 31.59375 48.390625 
Q 25.046875 48.390625 21.671875 43.046875 
Q 18.3125 37.703125 18.3125 27.296875 
Q 18.3125 16.9375 21.671875 11.5625 
Q 25.046875 6.203125 31.59375 6.203125 
Q 38.09375 6.203125 41.375 11.515625 
Q 44.671875 16.84375 44.671875 27.296875 
z
" id="DejaVuSansMono-112"/>
      <path d="M 6.78125 72.90625 
L 19.28125 72.90625 
L 43.890625 12.890625 
L 43.890625 72.90625 
L 53.421875 72.90625 
L 53.421875 0 
L 40.921875 0 
L 16.3125 60.015625 
L 16.3125 0 
L 6.78125 0 
z
" id="DejaVuSansMono-78"/>
      <path d="M 33.015625 49.125 
Q 34.671875 52.640625 37.234375 54.3125 
Q 39.796875 56 43.40625 56 
Q 50 56 52.703125 50.890625 
Q 55.421875 45.796875 55.421875 31.6875 
L 55.421875 0 
L 47.21875 0 
L 47.21875 31.296875 
Q 47.21875 42.875 45.921875 45.671875 
Q 44.625 48.484375 41.21875 48.484375 
Q 37.3125 48.484375 35.859375 45.484375 
Q 34.421875 42.484375 34.421875 31.296875 
L 34.421875 0 
L 26.21875 0 
L 26.21875 31.296875 
Q 26.21875 43.015625 24.828125 45.75 
Q 23.4375 48.484375 19.828125 48.484375 
Q 16.265625 48.484375 14.875 45.484375 
Q 13.484375 42.484375 13.484375 31.296875 
L 13.484375 0 
L 5.328125 0 
L 5.328125 54.6875 
L 13.484375 54.6875 
L 13.484375 50 
Q 15.09375 52.9375 17.5 54.46875 
Q 19.921875 56 23 56 
Q 26.703125 56 29.171875 54.296875 
Q 31.640625 52.59375 33.015625 49.125 
z
" id="DejaVuSansMono-109"/>
     </defs>
     <g transform="translate(13.712428 195.345)rotate(-90)scale(0.14 -0.14)">
      <use xlink:href="#DejaVuSansMono-67"/>
      <use x="60.205078" xlink:href="#DejaVuSansMono-111"/>
      <use x="120.410156" xlink:href="#DejaVuSansMono-117"/>
      <use x="180.615234" xlink:href="#DejaVuSansMono-112"/>
      <use x="240.820312" xlink:href="#DejaVuSansMono-108"/>
      <use x="301.025391" xlink:href="#DejaVuSansMono-101"/>
      <use x="361.230469" xlink:href="#DejaVuSansMono-32"/>
      <use x="421.435547" xlink:href="#DejaVuSansMono-91"/>
      <use x="481.640625" xlink:href="#DejaVuSansMono-78"/>
      <use x="541.845703" xlink:href="#DejaVuSansMono-32"/>
      <use x="602.050781" xlink:href="#DejaVuSansMono-109"/>
      <use x="662.255859" xlink:href="#DejaVuSansMono-93"/>
     </g>
    </g>
   </g>
   <g id="line2d_27">
    <path clip-path="url(#p162739dd3d)" d="M 87.692562 22.404005 
L 89.362033 18.347705 
L 91.031504 15.888798 
L 92.700976 16.562196 
L 94.370447 20.132016 
L 96.039918 24.231667 
L 114.404102 64.816788 
L 122.751459 82.519979 
L 129.429344 96.283655 
L 137.7767 112.796534 
L 142.785114 122.262236 
L 146.124057 128.31943 
L 151.13247 136.939497 
L 154.471413 142.325563 
L 157.810356 147.297916 
L 161.149298 151.814865 
L 162.818769 153.883158 
L 164.488241 155.76471 
L 167.827183 158.972756 
L 169.496655 160.19545 
L 171.166126 161.151008 
L 172.835597 161.901794 
L 174.505068 162.188159 
L 176.17454 162.10913 
L 177.844011 161.779272 
L 179.513482 160.801372 
L 181.182953 159.515608 
L 182.852425 157.962087 
L 184.521896 154.642928 
L 186.191367 149.501002 
L 189.53031 140.047964 
L 191.199781 134.906056 
L 192.869252 131.5869 
L 194.538724 130.033415 
L 196.208195 128.74776 
L 197.877666 127.769971 
L 199.547138 127.440084 
L 201.216609 127.36091 
L 202.88608 127.647078 
L 204.555551 128.397742 
L 206.225023 129.353249 
L 207.894494 130.575991 
L 211.233436 133.784252 
L 212.902908 135.665785 
L 216.24185 139.9102 
L 219.580793 144.695429 
L 222.919735 149.886708 
L 226.258678 155.392091 
L 231.267092 164.199521 
L 237.944977 176.752053 
L 244.622862 189.915354 
L 251.300747 203.551783 
L 259.648104 221.142006 
L 269.664931 242.877982 
L 279.681759 265.316865 
L 281.35123 269.41657 
L 283.020701 272.986445 
L 284.690173 273.659925 
L 286.359644 271.200963 
L 288.029115 267.144554 
L 289.698587 260.176955 
L 293.037529 241.4965 
L 296.376472 224.736349 
L 298.045943 217.124507 
L 299.715414 210.509628 
L 301.384885 204.40744 
L 303.054357 198.884946 
L 304.723828 194.064949 
L 306.393299 189.62672 
L 308.062771 185.566142 
L 311.401713 178.608434 
L 313.071184 175.505883 
L 316.410127 170.031153 
L 319.74907 165.226154 
L 323.088012 160.916956 
L 326.426955 156.988252 
L 331.435368 151.552247 
L 338.113254 144.774355 
L 344.791139 137.99631 
L 349.799553 132.560231 
L 353.138495 128.63169 
L 356.477438 124.32259 
L 359.81638 119.517597 
L 363.155323 114.042813 
L 364.824794 110.94018 
L 366.494265 107.586515 
L 368.163737 103.982362 
L 369.833208 99.921839 
L 371.502679 95.483692 
L 373.17215 90.663804 
L 374.841622 85.141555 
L 376.511093 79.039667 
L 378.180564 72.424952 
L 379.850036 64.812919 
L 383.188978 48.052277 
L 386.527921 29.371713 
L 388.197392 22.404114 
L 389.866863 18.347814 
L 391.536334 15.888934 
L 393.205806 16.562332 
L 394.875277 20.132125 
L 396.544748 24.231776 
L 414.908932 64.816788 
L 423.256289 82.520007 
L 429.934174 96.283736 
L 438.28153 112.796779 
L 443.289944 122.261967 
L 446.628887 128.318901 
L 451.6373 136.939203 
L 454.976243 142.325402 
L 458.315186 147.297812 
L 461.654128 151.814791 
L 463.323599 153.883096 
L 464.993071 155.764653 
L 468.332013 158.972693 
L 470.001484 160.195382 
L 471.670956 161.150934 
L 473.340427 161.901718 
L 475.009898 162.188077 
L 476.67937 162.109045 
L 478.348841 161.77918 
L 480.018312 160.801273 
L 481.687783 159.515499 
L 483.357255 157.961967 
L 485.026726 154.642795 
L 486.696197 149.500855 
L 490.03514 140.047795 
L 491.704611 134.905881 
L 493.374082 131.586728 
L 495.043554 130.033251 
L 496.713025 128.747605 
L 498.382496 127.769826 
L 500.051967 127.439947 
L 501.721439 127.360785 
L 503.39091 127.646956 
L 505.060381 128.39762 
L 506.729853 129.353123 
L 508.399324 130.57586 
L 511.738266 133.784097 
L 513.407738 135.665611 
L 516.74668 139.909984 
L 520.085623 144.695191 
L 523.424565 149.886477 
L 526.763508 155.391859 
L 531.771922 164.199096 
L 538.449807 176.751699 
L 545.127692 189.91609 
L 551.805577 203.552137 
L 560.152933 221.14206 
L 570.169761 242.878009 
L 580.186589 265.31692 
L 581.85606 269.416598 
L 583.525531 272.986473 
L 585.195003 273.659952 
L 586.864474 271.20099 
L 588.533945 267.144582 
L 590.203416 260.176982 
L 593.542359 241.496527 
L 596.881302 224.736349 
L 598.550773 217.124507 
L 600.220244 210.509628 
L 601.889715 204.407413 
L 603.559187 198.884918 
L 605.228658 194.064922 
L 606.898129 189.626693 
L 608.567601 185.566142 
L 611.906543 178.608461 
L 613.576014 175.505883 
L 616.914957 170.0312 
L 620.253899 165.22619 
L 623.592842 160.916918 
L 626.931785 156.988186 
L 631.940198 151.552683 
L 638.618084 144.775222 
L 645.295969 137.995612 
L 650.304382 132.559512 
L 653.643325 128.631282 
L 656.982268 124.322369 
L 660.32121 119.517509 
L 663.660153 114.042813 
L 665.329624 110.940207 
L 666.999095 107.586542 
L 668.668567 103.98239 
L 670.338038 99.921867 
L 672.007509 95.483692 
L 673.67698 90.663804 
L 675.346452 85.141555 
L 677.015923 79.03964 
L 678.685394 72.424925 
L 680.354865 64.812892 
L 683.693808 48.052223 
L 687.032751 29.371632 
L 687.032751 29.371632 
" style="fill:none;stroke:#1f77b4;stroke-linecap:square;stroke-opacity:0.5;stroke-width:1.5;"/>
   </g>
   <g id="line2d_28">
    <path clip-path="url(#p162739dd3d)" d="M 87.692562 22.404005 
L 89.362033 18.347705 
L 91.031504 15.888798 
L 92.700976 16.562196 
L 94.370447 20.132016 
L 96.039918 24.231667 
L 97.70939 27.939088 
L 99.378861 31.749423 
L 101.048332 35.556162 
L 102.717803 39.250231 
L 104.387275 42.958987 
L 106.056746 46.670468 
L 107.726217 50.32304 
L 109.395689 53.970925 
L 111.06516 57.618646 
L 112.734631 61.228603 
L 114.404102 64.816788 
L 116.073574 68.406445 
L 117.743045 71.966783 
L 119.412516 75.500201 
L 121.081987 79.023619 
L 122.751459 82.519979 
L 124.42093 85.996586 
L 126.090401 89.441885 
L 127.759873 92.866148 
L 129.429344 96.283655 
L 131.098815 99.632906 
L 132.768286 102.971775 
L 134.437758 106.320972 
L 136.107229 109.555973 
L 137.7767 112.796534 
L 139.446172 116.03159 
L 141.115643 119.147775 
L 142.785114 122.262236 
L 144.454585 125.349575 
L 146.124057 128.31943 
L 147.793528 131.255441 
" style="fill:none;stroke:#1f77b4;stroke-linecap:square;stroke-width:2;"/>
   </g>
   <g id="line2d_29">
    <path clip-path="url(#p162739dd3d)" d="M 349.799553 132.560231 
L 351.469024 130.628132 
L 353.138495 128.63169 
L 354.807966 126.532285 
L 356.477438 124.32259 
L 358.146909 122.005645 
L 359.81638 119.517597 
L 361.485851 116.863351 
L 363.155323 114.042813 
L 364.824794 110.94018 
L 366.494265 107.586515 
L 368.163737 103.982362 
L 369.833208 99.921839 
L 371.502679 95.483692 
L 373.17215 90.663804 
L 374.841622 85.141555 
L 376.511093 79.039667 
L 378.180564 72.424952 
L 379.850036 64.812919 
L 381.519507 56.494627 
L 383.188978 48.052277 
L 384.858449 38.852552 
L 386.527921 29.371713 
L 388.197392 22.404114 
L 389.866863 18.347814 
L 391.536334 15.888934 
L 393.205806 16.562332 
L 394.875277 20.132125 
L 396.544748 24.231776 
L 398.21422 27.939169 
L 399.883691 31.749505 
L 401.553162 35.556216 
L 403.222633 39.250259 
L 404.892105 42.958987 
L 406.561576 46.670468 
L 408.231047 50.32304 
L 409.900518 53.970898 
L 411.56999 57.618646 
L 413.239461 61.228575 
L 414.908932 64.816788 
L 416.578404 68.406445 
L 418.247875 71.96681 
L 419.917346 75.500201 
L 421.586817 79.023646 
L 423.256289 82.520007 
L 424.92576 85.996586 
L 426.595231 89.441912 
L 428.264703 92.866176 
L 429.934174 96.283736 
L 431.603645 99.633042 
L 433.273116 102.971966 
L 434.942588 106.321244 
L 436.612059 109.556273 
L 438.28153 112.796779 
L 439.951001 116.031672 
L 441.620473 119.147688 
L 443.289944 122.261967 
L 444.959415 125.349144 
L 446.628887 128.318901 
L 448.298358 131.254931 
" style="fill:none;stroke:#1f77b4;stroke-linecap:square;stroke-width:2;"/>
   </g>
   <g id="line2d_30">
    <path clip-path="url(#p162739dd3d)" d="M 650.304382 132.559512 
L 651.973854 130.627582 
L 653.643325 128.631282 
L 655.312796 126.531988 
L 656.982268 124.322369 
L 658.651739 122.00549 
L 660.32121 119.517509 
L 661.990681 116.863324 
L 663.660153 114.042813 
L 665.329624 110.940207 
L 666.999095 107.586542 
L 668.668567 103.98239 
L 670.338038 99.921867 
L 672.007509 95.483692 
L 673.67698 90.663804 
L 675.346452 85.141555 
L 677.015923 79.03964 
L 678.685394 72.424925 
L 680.354865 64.812892 
L 682.024337 56.494573 
L 683.693808 48.052223 
L 685.363279 38.85247 
L 687.032751 29.371632 
" style="fill:none;stroke:#1f77b4;stroke-linecap:square;stroke-width:2;"/>
   </g>
   <g id="line2d_31">
    <path clip-path="url(#p162739dd3d)" d="M 87.692562 267.139732 
L 89.362033 260.173086 
L 92.700976 241.494347 
L 96.039918 224.734932 
L 97.70939 217.123253 
L 99.378861 210.508728 
L 101.048332 204.406922 
L 102.717803 198.884673 
L 104.387275 194.064731 
L 106.056746 189.626556 
L 107.726217 185.565952 
L 111.06516 178.607807 
L 112.734631 175.50512 
L 116.073574 170.030494 
L 119.412516 165.225269 
L 122.751459 160.915885 
L 126.090401 156.987224 
L 131.098815 151.550879 
L 137.7767 144.772314 
L 144.454585 137.993405 
L 149.462999 132.556114 
L 152.801942 128.626696 
L 156.140884 124.316451 
L 159.479827 119.509204 
L 162.818769 114.030088 
L 164.488241 110.924186 
L 166.157712 107.566161 
L 167.827183 103.957213 
L 169.496655 99.89184 
L 171.166126 95.448406 
L 172.835597 90.623859 
L 174.505068 85.099621 
L 176.17454 78.996507 
L 177.844011 72.38111 
L 179.513482 64.77093 
L 182.852425 48.019117 
L 186.191367 29.35779 
L 187.860839 22.400844 
L 189.53031 18.353945 
L 191.199781 15.903729 
L 192.869252 16.581896 
L 194.538724 20.15237 
L 196.208195 24.251993 
L 214.572379 64.833137 
L 222.919735 82.535865 
L 229.597621 96.29924 
L 237.944977 112.811847 
L 242.953391 122.276887 
L 246.292333 128.333844 
L 251.300747 136.954532 
L 254.63969 142.34097 
L 257.978632 147.313762 
L 261.317575 151.832238 
L 262.987046 153.90167 
L 264.656517 155.784691 
L 267.99546 158.996955 
L 269.664931 160.222011 
L 271.334402 161.180293 
L 273.003874 161.933619 
L 274.673345 162.221319 
L 276.342816 162.143538 
L 278.012288 161.814896 
L 279.681759 160.837066 
L 281.35123 159.550899 
L 283.020701 157.995874 
L 284.690173 154.671203 
L 286.359644 149.51974 
L 289.698587 140.045746 
L 291.368058 134.892658 
L 293.037529 131.565718 
L 294.707 130.008796 
L 296.376472 128.721153 
L 298.045943 127.742184 
L 299.715414 127.412604 
L 301.384885 127.334085 
L 303.054357 127.621357 
L 304.723828 128.374451 
L 306.393299 129.332628 
L 308.062771 130.557847 
L 311.401713 133.770538 
L 313.071184 135.653674 
L 316.410127 139.900145 
L 319.74907 144.686443 
L 323.088012 149.878278 
L 326.426955 155.384105 
L 331.435368 164.192077 
L 338.113254 176.745296 
L 344.791139 189.910177 
L 351.469024 203.546687 
L 359.81638 221.137482 
L 369.833208 242.874195 
L 379.850036 265.311116 
L 381.519507 269.410494 
L 383.188978 272.980233 
L 384.858449 273.653767 
L 386.527921 271.195323 
L 388.197392 267.139759 
L 389.866863 260.173086 
L 393.205806 241.494375 
L 396.544748 224.734932 
L 398.21422 217.123253 
L 399.883691 210.508728 
L 401.553162 204.406922 
L 403.222633 198.884646 
L 404.892105 194.064731 
L 406.561576 189.626556 
L 408.231047 185.565952 
L 411.56999 178.607834 
L 413.239461 175.505147 
L 416.578404 170.030538 
L 419.917346 165.225304 
L 423.256289 160.915844 
L 426.595231 156.987159 
L 431.603645 151.551315 
L 438.28153 144.773181 
L 444.959415 137.992708 
L 449.967829 132.555395 
L 453.306772 128.626287 
L 456.645714 124.316231 
L 459.984657 119.50912 
L 463.323599 114.030088 
L 464.993071 110.924213 
L 466.662542 107.566188 
L 468.332013 103.95724 
L 470.001484 99.891867 
L 471.670956 95.448433 
L 473.340427 90.623859 
L 475.009898 85.099621 
L 476.67937 78.99648 
L 478.348841 72.381083 
L 480.018312 64.770903 
L 483.357255 48.019035 
L 486.696197 29.357681 
L 488.365669 22.400735 
L 490.03514 18.353836 
L 491.704611 15.903593 
L 493.374082 16.581759 
L 495.043554 20.152261 
L 496.713025 24.251884 
L 515.077209 64.833137 
L 523.424565 82.535838 
L 530.10245 96.299159 
L 538.449807 112.811602 
L 543.458221 122.277157 
L 546.797163 128.334373 
L 551.805577 136.954827 
L 555.14452 142.341131 
L 558.483462 147.313865 
L 561.822405 151.832311 
L 563.491876 153.901733 
L 565.161347 155.784748 
L 568.50029 158.997015 
L 570.169761 160.222076 
L 571.839232 161.180367 
L 573.508704 161.933693 
L 575.178175 162.221398 
L 576.847646 162.143625 
L 578.517118 161.814986 
L 580.186589 160.837164 
L 581.85606 159.551008 
L 583.525531 157.995994 
L 585.195003 154.671337 
L 586.864474 149.51989 
L 590.203416 140.045915 
L 591.872888 134.89283 
L 593.542359 131.565889 
L 595.21183 130.00896 
L 596.881302 128.721305 
L 598.550773 127.742331 
L 600.220244 127.412738 
L 601.889715 127.334213 
L 603.559187 127.621479 
L 605.228658 128.374571 
L 606.898129 129.332753 
L 608.567601 130.557981 
L 611.906543 133.770696 
L 613.576014 135.653848 
L 616.914957 139.900358 
L 620.253899 144.686681 
L 623.592842 149.878509 
L 626.931785 155.384336 
L 631.940198 164.192502 
L 638.618084 176.74565 
L 645.295969 189.909441 
L 651.973854 203.546333 
L 660.32121 221.137428 
L 670.338038 242.87414 
L 680.354865 265.311089 
L 682.024337 269.410467 
L 683.693808 272.980206 
L 685.363279 273.65374 
L 687.032751 271.195295 
L 687.032751 271.195295 
" style="fill:none;stroke:#ff7f0e;stroke-linecap:square;stroke-opacity:0.5;stroke-width:1.5;"/>
   </g>
   <g id="line2d_32">
    <path clip-path="url(#p162739dd3d)" d="M 149.462999 132.556114 
L 151.13247 130.62359 
L 152.801942 128.626696 
L 154.471413 126.52676 
L 156.140884 124.316451 
L 157.810356 121.998659 
L 159.479827 119.509204 
L 161.149298 116.852997 
L 162.818769 114.030088 
L 164.488241 110.924186 
L 166.157712 107.566161 
L 167.827183 103.957213 
L 169.496655 99.89184 
L 171.166126 95.448406 
L 172.835597 90.623859 
L 174.505068 85.099621 
L 176.17454 78.996507 
L 177.844011 72.38111 
L 179.513482 64.77093 
L 181.182953 56.456372 
L 182.852425 48.019117 
L 184.521896 38.827593 
L 186.191367 29.35779 
L 187.860839 22.400844 
L 189.53031 18.353945 
L 191.199781 15.903729 
L 192.869252 16.581896 
L 194.538724 20.15237 
L 196.208195 24.251993 
L 197.877666 27.959551 
L 199.547138 31.769559 
L 201.216609 35.575971 
L 202.88608 39.269659 
L 204.555551 42.977761 
L 206.225023 46.688643 
L 207.894494 50.340669 
L 209.563965 53.988091 
L 211.233436 57.635458 
L 212.902908 61.245087 
L 214.572379 64.833137 
L 216.24185 68.422657 
L 217.911322 71.982859 
L 219.580793 75.516195 
L 221.250264 79.039586 
L 222.919735 82.535865 
L 224.589207 86.012335 
L 226.258678 89.457579 
L 227.928149 92.881789 
L 229.597621 96.29924 
L 231.267092 99.648491 
L 232.936563 102.987361 
L 234.606034 106.336476 
L 236.275506 109.571423 
L 237.944977 112.811847 
L 239.614448 116.04663 
L 241.283919 119.162595 
L 242.953391 122.276887 
L 244.622862 125.364027 
L 246.292333 128.333844 
L 247.961805 131.270005 
" style="fill:none;stroke:#ff7f0e;stroke-linecap:square;stroke-width:2;"/>
   </g>
   <g id="line2d_33">
    <path clip-path="url(#p162739dd3d)" d="M 449.967829 132.555395 
L 451.6373 130.62304 
L 453.306772 128.626287 
L 454.976243 126.526463 
L 456.645714 124.316231 
L 458.315186 121.998507 
L 459.984657 119.50912 
L 461.654128 116.852969 
L 463.323599 114.030088 
L 464.993071 110.924213 
L 466.662542 107.566188 
L 468.332013 103.95724 
L 470.001484 99.891867 
L 471.670956 95.448433 
L 473.340427 90.623859 
L 475.009898 85.099621 
L 476.67937 78.99648 
L 478.348841 72.381083 
L 480.018312 64.770903 
L 481.687783 56.456317 
L 483.357255 48.019035 
L 485.026726 38.827512 
L 486.696197 29.357681 
L 488.365669 22.400735 
L 490.03514 18.353836 
L 491.704611 15.903593 
L 493.374082 16.581759 
L 495.043554 20.152261 
L 496.713025 24.251884 
L 498.382496 27.959469 
L 500.051967 31.769477 
L 501.721439 35.575943 
L 503.39091 39.269632 
L 505.060381 42.977734 
L 506.729853 46.688643 
L 508.399324 50.340669 
L 510.068795 53.988091 
L 511.738266 57.635485 
L 513.407738 61.245115 
L 515.077209 64.833137 
L 516.74668 68.422657 
L 518.416152 71.982832 
L 520.085623 75.516195 
L 521.755094 79.039558 
L 523.424565 82.535838 
L 525.094037 86.012335 
L 526.763508 89.457579 
L 528.432979 92.881734 
L 530.10245 96.299159 
L 531.771922 99.648328 
L 533.441393 102.987143 
L 535.110864 106.336203 
L 536.780336 109.571123 
L 538.449807 112.811602 
L 540.119278 116.046521 
L 541.788749 119.162683 
L 543.458221 122.277157 
L 545.127692 125.364458 
L 546.797163 128.334373 
L 548.466635 131.270514 
" style="fill:none;stroke:#ff7f0e;stroke-linecap:square;stroke-width:2;"/>
   </g>
   <g id="line2d_34">
    <path clip-path="url(#p162739dd3d)" d="M 87.692562 144.765669 
L 89.362033 140.028975 
L 91.031504 134.877574 
L 92.700976 131.552876 
L 94.370447 129.997775 
L 96.039918 128.711567 
L 97.70939 127.73374 
L 99.378861 127.405098 
L 101.048332 127.327289 
L 102.717803 127.614924 
L 104.387275 128.368195 
L 106.056746 129.326494 
L 107.726217 130.551651 
L 111.06516 133.764127 
L 112.734631 135.647112 
L 116.073574 139.893516 
L 119.412516 144.679491 
L 122.751459 149.871011 
L 126.090401 155.376677 
L 131.098815 164.184137 
L 137.7767 176.736604 
L 144.454585 189.900667 
L 151.13247 203.536306 
L 159.479827 221.125848 
L 169.496655 242.860189 
L 179.513482 265.296729 
L 181.182953 269.396189 
L 182.852425 272.966664 
L 184.521896 273.644857 
L 186.191367 271.194696 
L 187.860839 267.147851 
L 189.53031 260.19096 
L 192.869252 241.529797 
L 196.208195 224.778201 
L 197.877666 217.168103 
L 199.547138 210.552461 
L 201.216609 204.44902 
L 202.88608 198.924509 
L 204.555551 194.099854 
L 206.225023 189.656365 
L 207.894494 185.590992 
L 211.233436 178.624265 
L 212.902908 175.518444 
L 216.24185 170.03948 
L 219.580793 165.232288 
L 222.919735 160.921989 
L 226.258678 156.992521 
L 231.267092 151.555666 
L 237.944977 144.777202 
L 244.622862 137.997119 
L 249.631276 132.560749 
L 252.970218 128.632388 
L 256.309161 124.323179 
L 259.648104 119.518079 
L 262.987046 114.043521 
L 264.656517 110.940834 
L 266.325989 107.587005 
L 267.99546 103.982689 
L 269.664931 99.922057 
L 271.334402 95.483855 
L 273.003874 90.663913 
L 274.673345 85.141637 
L 276.342816 79.039804 
L 278.012288 72.425279 
L 279.681759 64.8136 
L 283.020701 48.054212 
L 286.359644 29.375474 
L 288.029115 22.4088 
L 289.698587 18.353209 
L 291.368058 15.894738 
L 293.037529 16.568245 
L 294.707 20.138038 
L 296.376472 24.237552 
L 314.740656 64.821338 
L 323.088012 82.52532 
L 329.765897 96.289458 
L 338.113254 112.802964 
L 343.121667 122.26901 
L 346.46061 128.326547 
L 351.469024 136.947429 
L 354.807966 142.334091 
L 358.146909 147.3072 
L 361.485851 151.825815 
L 363.155323 153.895281 
L 364.824794 155.778443 
L 368.163737 158.990936 
L 369.833208 160.216109 
L 371.502679 161.17434 
L 373.17215 161.927557 
L 374.841622 162.215019 
L 376.511093 162.136639 
L 378.180564 161.807079 
L 379.850036 160.827952 
L 381.519507 159.540123 
L 383.188978 157.983103 
L 384.858449 154.656152 
L 386.527921 149.503053 
L 389.866863 140.029144 
L 391.536334 134.877748 
L 393.205806 131.553047 
L 394.875277 129.997941 
L 396.544748 128.711722 
L 398.21422 127.733884 
L 399.883691 127.405231 
L 401.553162 127.327415 
L 403.222633 127.615046 
L 404.892105 128.368318 
L 406.561576 129.326617 
L 408.231047 130.551784 
L 411.56999 133.764282 
L 413.239461 135.647287 
L 416.578404 139.893731 
L 419.917346 144.679729 
L 423.256289 149.871245 
L 426.595231 155.376909 
L 431.603645 164.184562 
L 438.28153 176.736958 
L 444.959415 189.899905 
L 451.6373 203.535952 
L 459.984657 221.125793 
L 470.001484 242.860135 
L 480.018312 265.296702 
L 481.687783 269.396162 
L 483.357255 272.966636 
L 485.026726 273.64483 
L 486.696197 271.194669 
L 488.365669 267.147824 
L 490.03514 260.19096 
L 493.374082 241.529797 
L 496.713025 224.778201 
L 498.382496 217.168103 
L 500.051967 210.552488 
L 501.721439 204.44902 
L 503.39091 198.924536 
L 505.060381 194.099854 
L 506.729853 189.656392 
L 508.399324 185.591019 
L 511.738266 178.624237 
L 513.407738 175.518417 
L 516.74668 170.039437 
L 520.085623 165.232255 
L 523.424565 160.922027 
L 526.763508 156.992589 
L 531.771922 151.555233 
L 538.449807 144.776336 
L 545.127692 137.997814 
L 550.136106 132.561468 
L 553.475048 128.632799 
L 556.813991 124.323402 
L 560.152933 119.518169 
L 563.491876 114.043521 
L 565.161347 110.940834 
L 566.830819 107.586978 
L 568.50029 103.982635 
L 570.169761 99.92203 
L 571.839232 95.483828 
L 573.508704 90.663886 
L 575.178175 85.141637 
L 576.847646 79.039831 
L 578.517118 72.425306 
L 580.186589 64.813655 
L 583.525531 48.054266 
L 586.864474 29.375583 
L 588.533945 22.408909 
L 590.203416 18.353346 
L 591.872888 15.894847 
L 593.542359 16.568381 
L 595.21183 20.138147 
L 596.881302 24.237661 
L 615.245486 64.821338 
L 623.592842 82.525347 
L 630.270727 96.28954 
L 638.618084 112.803182 
L 643.626497 122.268738 
L 646.96544 128.326016 
L 651.973854 136.947135 
L 655.312796 142.33393 
L 658.651739 147.307097 
L 661.990681 151.825742 
L 663.660153 153.895215 
L 665.329624 155.778383 
L 668.668567 158.990873 
L 670.338038 160.216041 
L 672.007509 161.174266 
L 673.67698 161.927483 
L 675.346452 162.21494 
L 677.015923 162.136554 
L 678.685394 161.806989 
L 680.354865 160.827854 
L 682.024337 159.540014 
L 683.693808 157.982983 
L 685.363279 154.656018 
L 687.032751 149.502906 
L 687.032751 149.502906 
" style="fill:none;stroke:#2ca02c;stroke-linecap:square;stroke-opacity:0.5;stroke-width:1.5;"/>
   </g>
   <g id="line2d_35">
    <path clip-path="url(#p162739dd3d)" d="M 249.631276 132.560749 
L 251.300747 130.628759 
L 252.970218 128.632388 
L 254.63969 126.53298 
L 256.309161 124.323179 
L 257.978632 122.006114 
L 259.648104 119.518079 
L 261.317575 116.86395 
L 262.987046 114.043521 
L 264.656517 110.940834 
L 266.325989 107.587005 
L 267.99546 103.982689 
L 269.664931 99.922057 
L 271.334402 95.483855 
L 273.003874 90.663913 
L 274.673345 85.141637 
L 276.342816 79.039804 
L 278.012288 72.425279 
L 279.681759 64.8136 
L 281.35123 56.495853 
L 283.020701 48.054212 
L 284.690173 38.855331 
L 286.359644 29.375474 
L 288.029115 22.4088 
L 289.698587 18.353209 
L 291.368058 15.894738 
L 293.037529 16.568245 
L 294.707 20.138038 
L 296.376472 24.237552 
L 298.045943 27.944782 
L 299.715414 31.754791 
L 301.384885 35.561175 
L 303.054357 39.255 
L 304.723828 42.963456 
L 306.393299 46.674692 
L 308.062771 50.327209 
L 309.732242 53.975121 
L 311.401713 57.622924 
L 313.071184 61.233017 
L 314.740656 64.821338 
L 316.410127 68.411131 
L 318.079598 71.97166 
L 319.74907 75.505269 
L 321.418541 79.02885 
L 323.088012 82.52532 
L 324.757483 86.002008 
L 326.426955 89.447416 
L 328.096426 92.871816 
L 329.765897 96.289458 
L 331.435368 99.638873 
L 333.10484 102.977879 
L 334.774311 106.327184 
L 336.443782 109.562268 
L 338.113254 112.802964 
L 339.782725 116.038102 
L 341.452196 119.154402 
L 343.121667 122.26901 
L 344.791139 125.356496 
L 346.46061 128.326547 
L 348.130081 131.262822 
" style="fill:none;stroke:#2ca02c;stroke-linecap:square;stroke-width:2;"/>
   </g>
   <g id="line2d_36">
    <path clip-path="url(#p162739dd3d)" d="M 550.136106 132.561468 
L 551.805577 130.629309 
L 553.475048 128.632799 
L 555.14452 126.533277 
L 556.813991 124.323402 
L 558.483462 122.006269 
L 560.152933 119.518169 
L 561.822405 116.864005 
L 563.491876 114.043521 
L 565.161347 110.940834 
L 566.830819 107.586978 
L 568.50029 103.982635 
L 570.169761 99.92203 
L 571.839232 95.483828 
L 573.508704 90.663886 
L 575.178175 85.141637 
L 576.847646 79.039831 
L 578.517118 72.425306 
L 580.186589 64.813655 
L 581.85606 56.495908 
L 583.525531 48.054266 
L 585.195003 38.855413 
L 586.864474 29.375583 
L 588.533945 22.408909 
L 590.203416 18.353346 
L 591.872888 15.894847 
L 593.542359 16.568381 
L 595.21183 20.138147 
L 596.881302 24.237661 
L 598.550773 27.944864 
L 600.220244 31.754873 
L 601.889715 35.56123 
L 603.559187 39.255027 
L 605.228658 42.963456 
L 606.898129 46.674692 
L 608.567601 50.327209 
L 610.237072 53.975121 
L 611.906543 57.622924 
L 613.576014 61.232989 
L 615.245486 64.821338 
L 616.914957 68.411159 
L 618.584428 71.971688 
L 620.253899 75.505296 
L 621.923371 79.02885 
L 623.592842 82.525347 
L 625.262313 86.002008 
L 626.931785 89.447443 
L 628.601256 92.871843 
L 630.270727 96.28954 
L 631.940198 99.639009 
L 633.60967 102.978097 
L 635.279141 106.327457 
L 636.948612 109.562567 
L 638.618084 112.803182 
L 640.287555 116.038184 
L 641.957026 119.154312 
L 643.626497 122.268738 
L 645.295969 125.356063 
L 646.96544 128.326016 
L 648.634911 131.262313 
" style="fill:none;stroke:#2ca02c;stroke-linecap:square;stroke-width:2;"/>
   </g>
   <g id="line2d_37">
    <path clip-path="url(#p162739dd3d)" d="M 57.725553 80.721179 
L 716.99976 80.721179 
" style="fill:none;stroke:#808080;stroke-dasharray:5.55,2.4;stroke-dashoffset:0;stroke-width:1.5;"/>
   </g>
   <g id="line2d_38">
    <path clip-path="url(#p162739dd3d)" d="M 148.895379 286.54851 
L 148.895379 3.00024 
" style="fill:none;stroke:#d3d3d3;stroke-dasharray:5.55,2.4;stroke-dashoffset:0;stroke-width:1.5;"/>
   </g>
   <g id="patch_3">
    <path d="M 57.725553 286.54851 
L 57.725553 3.00024 
" style="fill:none;stroke:#000000;stroke-linecap:square;stroke-linejoin:miter;stroke-width:0.8;"/>
   </g>
   <g id="patch_4">
    <path d="M 716.99976 286.54851 
L 716.99976 3.00024 
" style="fill:none;stroke:#000000;stroke-linecap:square;stroke-linejoin:miter;stroke-width:0.8;"/>
   </g>
   <g id="patch_5">
    <path d="M 57.725553 286.54851 
L 716.99976 286.54851 
" style="fill:none;stroke:#000000;stroke-linecap:square;stroke-linejoin:miter;stroke-width:0.8;"/>
   </g>
   <g id="patch_6">
    <path d="M 57.725553 3.00024 
L 716.99976 3.00024 
" style="fill:none;stroke:#000000;stroke-linecap:square;stroke-linejoin:miter;stroke-width:0.8;"/>
   </g>
   <g id="legend_1">
    <g id="patch_7">
     <path d="M 572.382885 280.04851 
L 707.89976 280.04851 
Q 710.49976 280.04851 710.49976 277.44851 
L 710.49976 182.995385 
Q 710.49976 180.395385 707.89976 180.395385 
L 572.382885 180.395385 
Q 569.782885 180.395385 569.782885 182.995385 
L 569.782885 277.44851 
Q 569.782885 280.04851 572.382885 280.04851 
z
" style="fill:#ffffff;opacity:0.8;stroke:#cccccc;stroke-linejoin:miter;"/>
    </g>
    <g id="line2d_39">
     <path d="M 574.982885 190.992416 
L 600.982885 190.992416 
" style="fill:none;stroke:#1f77b4;stroke-linecap:square;stroke-opacity:0.5;stroke-width:1.5;"/>
    </g>
    <g id="line2d_40"/>
    <g id="text_16">
     <!-- bobines A -->
     <defs>
      <path d="M 44.828125 27.296875 
Q 44.828125 37.75 41.5 43.0625 
Q 38.1875 48.390625 31.6875 48.390625 
Q 25.140625 48.390625 21.765625 43.046875 
Q 18.40625 37.703125 18.40625 27.296875 
Q 18.40625 16.9375 21.765625 11.5625 
Q 25.140625 6.203125 31.6875 6.203125 
Q 38.1875 6.203125 41.5 11.515625 
Q 44.828125 16.84375 44.828125 27.296875 
z
M 18.40625 47.703125 
Q 20.5625 51.703125 24.34375 53.84375 
Q 28.125 56 33.109375 56 
Q 42.96875 56 48.625 48.40625 
Q 54.296875 40.828125 54.296875 27.484375 
Q 54.296875 13.96875 48.609375 6.265625 
Q 42.921875 -1.421875 33.015625 -1.421875 
Q 28.125 -1.421875 24.390625 0.703125 
Q 20.65625 2.828125 18.40625 6.890625 
L 18.40625 0 
L 9.421875 0 
L 9.421875 75.984375 
L 18.40625 75.984375 
z
" id="DejaVuSansMono-98"/>
      <path d="M 12.5 54.6875 
L 35.5 54.6875 
L 35.5 6.984375 
L 53.328125 6.984375 
L 53.328125 0 
L 8.6875 0 
L 8.6875 6.984375 
L 26.515625 6.984375 
L 26.515625 47.703125 
L 12.5 47.703125 
z
M 26.515625 75.984375 
L 35.5 75.984375 
L 35.5 64.59375 
L 26.515625 64.59375 
z
" id="DejaVuSansMono-105"/>
      <path d="M 47.515625 52.78125 
L 47.515625 44 
Q 43.65625 46.234375 39.75 47.359375 
Q 35.84375 48.484375 31.78125 48.484375 
Q 25.6875 48.484375 22.671875 46.5 
Q 19.671875 44.53125 19.671875 40.484375 
Q 19.671875 36.8125 21.921875 35 
Q 24.171875 33.203125 33.109375 31.5 
L 36.71875 30.8125 
Q 43.40625 29.546875 46.84375 25.734375 
Q 50.296875 21.921875 50.296875 15.828125 
Q 50.296875 7.71875 44.53125 3.140625 
Q 38.765625 -1.421875 28.515625 -1.421875 
Q 24.46875 -1.421875 20.015625 -0.5625 
Q 15.578125 0.296875 10.40625 2 
L 10.40625 11.28125 
Q 15.4375 8.6875 20.015625 7.390625 
Q 24.609375 6.109375 28.71875 6.109375 
Q 34.671875 6.109375 37.9375 8.515625 
Q 41.21875 10.9375 41.21875 15.28125 
Q 41.21875 21.53125 29.25 23.921875 
L 28.859375 24.03125 
L 25.484375 24.703125 
Q 17.71875 26.21875 14.15625 29.8125 
Q 10.59375 33.40625 10.59375 39.59375 
Q 10.59375 47.46875 15.90625 51.734375 
Q 21.234375 56 31.109375 56 
Q 35.5 56 39.546875 55.1875 
Q 43.609375 54.390625 47.515625 52.78125 
z
" id="DejaVuSansMono-115"/>
     </defs>
     <g transform="translate(611.382885 195.542416)scale(0.13 -0.13)">
      <use xlink:href="#DejaVuSansMono-98"/>
      <use x="60.205078" xlink:href="#DejaVuSansMono-111"/>
      <use x="120.410156" xlink:href="#DejaVuSansMono-98"/>
      <use x="180.615234" xlink:href="#DejaVuSansMono-105"/>
      <use x="240.820312" xlink:href="#DejaVuSansMono-110"/>
      <use x="301.025391" xlink:href="#DejaVuSansMono-101"/>
      <use x="361.230469" xlink:href="#DejaVuSansMono-115"/>
      <use x="421.435547" xlink:href="#DejaVuSansMono-32"/>
      <use x="481.640625" xlink:href="#DejaVuSansMono-65"/>
     </g>
    </g>
    <g id="line2d_41">
     <path d="M 574.982885 210.143041 
L 600.982885 210.143041 
" style="fill:none;stroke:#ff7f0e;stroke-linecap:square;stroke-opacity:0.5;stroke-width:1.5;"/>
    </g>
    <g id="line2d_42"/>
    <g id="text_17">
     <!-- bobines B -->
     <defs>
      <path d="M 18.015625 34.8125 
L 18.015625 8.109375 
L 29.6875 8.109375 
Q 38.28125 8.109375 41.9375 11.109375 
Q 45.609375 14.109375 45.609375 21 
Q 45.609375 28.125 41.75 31.46875 
Q 37.890625 34.8125 29.6875 34.8125 
z
M 18.015625 64.796875 
L 18.015625 42.828125 
L 29.5 42.828125 
Q 36.625 42.828125 39.8125 45.5625 
Q 43.015625 48.296875 43.015625 54.390625 
Q 43.015625 59.90625 39.859375 62.34375 
Q 36.71875 64.796875 29.5 64.796875 
z
M 8.109375 72.90625 
L 29.6875 72.90625 
Q 40.875 72.90625 46.921875 68.0625 
Q 52.984375 63.234375 52.984375 54.390625 
Q 52.984375 47.703125 49.78125 43.84375 
Q 46.578125 39.984375 40.1875 39.015625 
Q 47.359375 37.9375 51.4375 32.875 
Q 55.515625 27.828125 55.515625 20.015625 
Q 55.515625 10.109375 49.015625 5.046875 
Q 42.53125 0 29.6875 0 
L 8.109375 0 
z
" id="DejaVuSansMono-66"/>
     </defs>
     <g transform="translate(611.382885 214.693041)scale(0.13 -0.13)">
      <use xlink:href="#DejaVuSansMono-98"/>
      <use x="60.205078" xlink:href="#DejaVuSansMono-111"/>
      <use x="120.410156" xlink:href="#DejaVuSansMono-98"/>
      <use x="180.615234" xlink:href="#DejaVuSansMono-105"/>
      <use x="240.820312" xlink:href="#DejaVuSansMono-110"/>
      <use x="301.025391" xlink:href="#DejaVuSansMono-101"/>
      <use x="361.230469" xlink:href="#DejaVuSansMono-115"/>
      <use x="421.435547" xlink:href="#DejaVuSansMono-32"/>
      <use x="481.640625" xlink:href="#DejaVuSansMono-66"/>
     </g>
    </g>
    <g id="line2d_43">
     <path d="M 574.982885 229.293666 
L 600.982885 229.293666 
" style="fill:none;stroke:#2ca02c;stroke-linecap:square;stroke-opacity:0.5;stroke-width:1.5;"/>
    </g>
    <g id="line2d_44"/>
    <g id="text_18">
     <!-- bobines C -->
     <g transform="translate(611.382885 233.843666)scale(0.13 -0.13)">
      <use xlink:href="#DejaVuSansMono-98"/>
      <use x="60.205078" xlink:href="#DejaVuSansMono-111"/>
      <use x="120.410156" xlink:href="#DejaVuSansMono-98"/>
      <use x="180.615234" xlink:href="#DejaVuSansMono-105"/>
      <use x="240.820312" xlink:href="#DejaVuSansMono-110"/>
      <use x="301.025391" xlink:href="#DejaVuSansMono-101"/>
      <use x="361.230469" xlink:href="#DejaVuSansMono-115"/>
      <use x="421.435547" xlink:href="#DejaVuSansMono-32"/>
      <use x="481.640625" xlink:href="#DejaVuSansMono-67"/>
     </g>
    </g>
    <g id="line2d_45">
     <path d="M 574.982885 248.444291 
L 600.982885 248.444291 
" style="fill:none;stroke:#808080;stroke-dasharray:5.55,2.4;stroke-dashoffset:0;stroke-width:1.5;"/>
    </g>
    <g id="line2d_46"/>
    <g id="text_19">
     <!-- couple moyen -->
     <defs>
      <path d="M 51.8125 2.78125 
Q 48.1875 0.6875 44.359375 -0.359375 
Q 40.53125 -1.421875 36.53125 -1.421875 
Q 23.828125 -1.421875 16.671875 6.1875 
Q 9.515625 13.8125 9.515625 27.296875 
Q 9.515625 40.765625 16.671875 48.375 
Q 23.828125 56 36.53125 56 
Q 40.484375 56 44.234375 54.96875 
Q 48 53.953125 51.8125 51.8125 
L 51.8125 42.390625 
Q 48.25 45.5625 44.65625 46.96875 
Q 41.0625 48.390625 36.53125 48.390625 
Q 28.078125 48.390625 23.53125 42.921875 
Q 19 37.453125 19 27.296875 
Q 19 17.1875 23.5625 11.6875 
Q 28.125 6.203125 36.53125 6.203125 
Q 41.21875 6.203125 44.921875 7.640625 
Q 48.640625 9.078125 51.8125 12.109375 
z
" id="DejaVuSansMono-99"/>
      <path d="M 41.890625 17.578125 
Q 39.65625 11.859375 36.1875 2.546875 
Q 31.34375 -10.359375 29.6875 -13.1875 
Q 27.4375 -17 24.0625 -18.890625 
Q 20.703125 -20.796875 16.21875 -20.796875 
L 8.984375 -20.796875 
L 8.984375 -13.28125 
L 14.3125 -13.28125 
Q 18.265625 -13.28125 20.5 -10.984375 
Q 22.75 -8.6875 26.21875 0.875 
L 5.078125 54.6875 
L 14.59375 54.6875 
L 30.8125 11.921875 
L 46.78125 54.6875 
L 56.296875 54.6875 
z
" id="DejaVuSansMono-121"/>
     </defs>
     <g transform="translate(611.382885 252.994291)scale(0.13 -0.13)">
      <use xlink:href="#DejaVuSansMono-99"/>
      <use x="60.205078" xlink:href="#DejaVuSansMono-111"/>
      <use x="120.410156" xlink:href="#DejaVuSansMono-117"/>
      <use x="180.615234" xlink:href="#DejaVuSansMono-112"/>
      <use x="240.820312" xlink:href="#DejaVuSansMono-108"/>
      <use x="301.025391" xlink:href="#DejaVuSansMono-101"/>
      <use x="361.230469" xlink:href="#DejaVuSansMono-32"/>
      <use x="421.435547" xlink:href="#DejaVuSansMono-109"/>
      <use x="481.640625" xlink:href="#DejaVuSansMono-111"/>
      <use x="541.845703" xlink:href="#DejaVuSansMono-121"/>
      <use x="602.050781" xlink:href="#DejaVuSansMono-101"/>
      <use x="662.255859" xlink:href="#DejaVuSansMono-110"/>
     </g>
    </g>
    <g id="line2d_47">
     <path d="M 574.982885 267.594916 
L 600.982885 267.594916 
" style="fill:none;stroke:#d3d3d3;stroke-dasharray:5.55,2.4;stroke-dashoffset:0;stroke-width:1.5;"/>
    </g>
    <g id="line2d_48"/>
    <g id="text_20">
     <!-- 18.33 ° -->
     <defs>
      <path d="M 30.078125 34.625 
Q 23.484375 34.625 19.890625 30.9375 
Q 16.3125 27.25 16.3125 20.515625 
Q 16.3125 13.765625 19.9375 10.03125 
Q 23.578125 6.296875 30.078125 6.296875 
Q 36.71875 6.296875 40.296875 9.984375 
Q 43.890625 13.671875 43.890625 20.515625 
Q 43.890625 27.203125 40.25 30.90625 
Q 36.625 34.625 30.078125 34.625 
z
M 21.484375 38.71875 
Q 15.1875 40.328125 11.640625 44.71875 
Q 8.109375 49.125 8.109375 55.328125 
Q 8.109375 64.015625 14.015625 69.109375 
Q 19.921875 74.21875 30.078125 74.21875 
Q 40.28125 74.21875 46.1875 69.109375 
Q 52.09375 64.015625 52.09375 55.328125 
Q 52.09375 49.125 48.546875 44.71875 
Q 45.015625 40.328125 38.71875 38.71875 
Q 46.046875 37.109375 49.921875 32.21875 
Q 53.8125 27.34375 53.8125 19.578125 
Q 53.8125 9.71875 47.515625 4.140625 
Q 41.21875 -1.421875 30.078125 -1.421875 
Q 18.953125 -1.421875 12.671875 4.125 
Q 6.390625 9.671875 6.390625 19.484375 
Q 6.390625 27.296875 10.265625 32.203125 
Q 14.15625 37.109375 21.484375 38.71875 
z
M 17.921875 54.390625 
Q 17.921875 48.53125 21.046875 45.453125 
Q 24.171875 42.390625 30.078125 42.390625 
Q 36.03125 42.390625 39.15625 45.453125 
Q 42.28125 48.53125 42.28125 54.390625 
Q 42.28125 60.359375 39.171875 63.484375 
Q 36.078125 66.609375 30.078125 66.609375 
Q 24.171875 66.609375 21.046875 63.453125 
Q 17.921875 60.296875 17.921875 54.390625 
z
" id="DejaVuSansMono-56"/>
      <path d="M 37.890625 39.015625 
Q 45.0625 37.109375 48.875 32.25 
Q 52.6875 27.390625 52.6875 20.125 
Q 52.6875 10.0625 45.921875 4.3125 
Q 39.15625 -1.421875 27.203125 -1.421875 
Q 22.171875 -1.421875 16.9375 -0.484375 
Q 11.71875 0.4375 6.6875 2.203125 
L 6.6875 12.015625 
Q 11.671875 9.421875 16.5 8.15625 
Q 21.34375 6.890625 26.125 6.890625 
Q 34.234375 6.890625 38.578125 10.546875 
Q 42.921875 14.203125 42.921875 21.09375 
Q 42.921875 27.4375 38.578125 31.171875 
Q 34.234375 34.90625 26.8125 34.90625 
L 19.28125 34.90625 
L 19.28125 43.015625 
L 26.8125 43.015625 
Q 33.59375 43.015625 37.40625 45.984375 
Q 41.21875 48.96875 41.21875 54.296875 
Q 41.21875 59.90625 37.671875 62.90625 
Q 34.125 65.921875 27.59375 65.921875 
Q 23.25 65.921875 18.609375 64.9375 
Q 13.96875 63.96875 8.890625 62.015625 
L 8.890625 71.09375 
Q 14.796875 72.65625 19.40625 73.4375 
Q 24.03125 74.21875 27.59375 74.21875 
Q 38.234375 74.21875 44.609375 68.875 
Q 50.984375 63.53125 50.984375 54.6875 
Q 50.984375 48.6875 47.625 44.671875 
Q 44.28125 40.671875 37.890625 39.015625 
z
" id="DejaVuSansMono-51"/>
      <path d="M 30.078125 74.21875 
Q 33.25 74.21875 36.109375 73.015625 
Q 38.96875 71.828125 41.109375 69.578125 
Q 43.3125 67.390625 44.453125 64.59375 
Q 45.609375 61.8125 45.609375 58.59375 
Q 45.609375 52.15625 41.0625 47.6875 
Q 36.53125 43.21875 29.984375 43.21875 
Q 23.390625 43.21875 18.984375 47.609375 
Q 14.59375 52 14.59375 58.59375 
Q 14.59375 65.140625 19.078125 69.671875 
Q 23.578125 74.21875 30.078125 74.21875 
z
M 30.078125 67.921875 
Q 26.21875 67.921875 23.5 65.203125 
Q 20.796875 62.5 20.796875 58.59375 
Q 20.796875 54.6875 23.453125 52.046875 
Q 26.125 49.421875 29.984375 49.421875 
Q 33.890625 49.421875 36.640625 52.09375 
Q 39.40625 54.78125 39.40625 58.59375 
Q 39.40625 62.453125 36.671875 65.1875 
Q 33.9375 67.921875 30.078125 67.921875 
z
" id="DejaVuSansMono-176"/>
     </defs>
     <g transform="translate(611.382885 272.144916)scale(0.13 -0.13)">
      <use xlink:href="#DejaVuSansMono-49"/>
      <use x="60.205078" xlink:href="#DejaVuSansMono-56"/>
      <use x="120.410156" xlink:href="#DejaVuSansMono-46"/>
      <use x="180.615234" xlink:href="#DejaVuSansMono-51"/>
      <use x="240.820312" xlink:href="#DejaVuSansMono-51"/>
      <use x="301.025391" xlink:href="#DejaVuSansMono-32"/>
      <use x="361.230469" xlink:href="#DejaVuSansMono-176"/>
     </g>
    </g>
   </g>
  </g>
 </g>
 <defs>
  <clipPath id="p162739dd3d">
   <rect height="283.54827" width="659.274207" x="57.725553" y="3.00024"/>
  </clipPath>
 </defs>
</svg>
